<?xml version="1.0" encoding="utf-8"?>
<!-- Generator: Adobe Illustrator 29.5.0, SVG Export Plug-In . SVG Version: 9.03 Build 0)  -->
<svg version="1.1" baseProfile="tiny" id="Capa_1" xmlns="http://www.w3.org/2000/svg" xmlns:xlink="http://www.w3.org/1999/xlink"
	 x="0px" y="0px" viewBox="0 0 68.031 68.031" overflow="visible" xml:space="preserve">
<g>
	<polygon fill="#A8A8A7" points="35.022,46.068 39.579,39.994 35.55,36.867 30.942,43.008 30.163,48.282 	"/>
	<polygon fill="#A8A8A7" points="21.077,12.765 20.541,12.765 14.585,18.72 14.585,19.063 21.077,19.063 	"/>
	<path fill="#A8A8A7" d="M28.401,50.621l1.207-8.17l0.107-0.142l14.961-19.938v-8.834c0-0.427-0.347-0.773-0.773-0.773H22.478v7.698
		h-7.893v34.03c0,0.427,0.348,0.773,0.774,0.773h28.544c0.427,0,0.773-0.347,0.773-0.773v-18.96l-8.749,11.661L28.401,50.621z
		 M19.141,25.307h15.513c0.387,0,0.7,0.313,0.7,0.7s-0.313,0.7-0.7,0.7H19.141c-0.387,0-0.7-0.313-0.7-0.7
		S18.754,25.307,19.141,25.307z M18.441,32.29c0-0.387,0.313-0.7,0.7-0.7h9.54c0.387,0,0.7,0.313,0.7,0.7s-0.313,0.7-0.7,0.7h-9.54
		C18.754,32.991,18.441,32.677,18.441,32.29z"/>
	<path fill="#A8A8A7" d="M36.391,35.747l4.029,3.127l5.651-7.531c0.002-0.006,0.005-0.012,0.007-0.018v0.009l3.928-5.235
		l-4.047-3.105L36.391,35.747z"/>
	<path fill="#A8A8A7" d="M52.427,18.623c-1.124-0.84-2.725-0.616-3.57,0.51l-2.057,2.742l4.047,3.105l2.09-2.785
		c0.409-0.545,0.581-1.217,0.485-1.891C53.324,19.629,52.972,19.033,52.427,18.623z"/>
</g>
</svg>
