<?xml version="1.0" encoding="utf-8"?>
<!-- Generator: Adobe Illustrator 29.5.0, SVG Export Plug-In . SVG Version: 9.03 Build 0)  -->
<svg version="1.1" baseProfile="tiny" id="Capa_1" xmlns="http://www.w3.org/2000/svg" xmlns:xlink="http://www.w3.org/1999/xlink"
	 x="0px" y="0px" viewBox="0 0 68.031 68.031" overflow="visible" xml:space="preserve">
<g>
	<path fill="#616160" d="M51.596,14.983c-2.212-1.947-4.935-3.233-7.813-3.707c-0.047-0.012-1.137-0.294-2.721-0.266
		c-1.238,0.005-2.545,0.244-2.583,0.251c-2.726,0.448-5.283,1.599-7.397,3.327c-5.246,4.288-7.212,11.18-5.008,17.558v0.001
		c0.211,0.608,0.045,1.306-0.423,1.774L11.43,48.143c-0.279,0.278-0.425,0.651-0.41,1.054l0.265,6.218
		c0.032,0.736,0.612,1.316,1.35,1.349l5.837,0.258c0.021,0,0.042,0.001,0.062,0.001c0.373,0,0.733-0.148,0.998-0.413
		c0.279-0.279,0.43-0.666,0.412-1.061l-0.07-1.542l1.542,0.07c0.412-0.005,0.781-0.133,1.061-0.412s0.43-0.666,0.412-1.061
		l-0.096-2.097l3.173-3.173l2.095,0.095c0.369,0.013,0.781-0.13,1.062-0.409c0.279-0.279,0.431-0.666,0.412-1.062l-0.063-1.389
		l1.38,0.249c0.459,0.081,0.92-0.065,1.246-0.392l2.025-2.025c0.474-0.471,1.164-0.642,1.753-0.437
		c5.728,1.991,12.193,0.508,16.479-3.776c3.094-3.095,4.789-7.379,4.649-11.755C56.863,21.995,54.942,17.93,51.596,14.983z
		 M30.636,34.659c0.491-0.489,1.158-1.106,1.216-1.164l-0.373-0.555c-1.141-1.78-1.824-3.879-1.824-6.146
		c0-6.328,5.148-11.477,11.476-11.477c6.328,0,11.477,5.148,11.477,11.477S47.458,38.271,41.13,38.271
		c-3.246,0-6.164-1.372-8.253-3.547c-0.003,0.003-0.005,0.006-0.008,0.009c-0.091-0.119-0.183-0.227-0.258-0.31L17.336,49.508
		l0.601,0.602l-0.602-0.601l-4.412,4.413l-0.068-1.601L30.636,34.659z M51.152,36.985c-3.827,3.827-9.607,5.15-14.719,3.373
		c-1.202-0.421-2.584-0.089-3.513,0.841l-1.919,1.918l-1.587-0.287c-0.421-0.072-0.853,0.044-1.178,0.326
		c-0.324,0.284-0.5,0.694-0.48,1.127l0.065,1.434l-1.909-0.087c-0.393-0.001-0.78,0.133-1.06,0.413L21.5,49.395
		c-0.281,0.28-0.431,0.668-0.412,1.06l0.087,1.908l-1.542-0.07c-0.417,0.003-0.784,0.134-1.062,0.414
		c-0.279,0.279-0.429,0.666-0.41,1.059l0.07,1.542l-0.65-0.03l0.005-0.007l-3.46-0.146l4.412-4.413l14.036-13.949
		c2.302,1.989,5.282,3.209,8.557,3.209c7.266,0,13.176-5.91,13.176-13.176s-5.91-13.176-13.176-13.176
		c-7.265,0-13.175,5.91-13.175,13.176c0,2.341,0.632,4.527,1.711,6.431L12.757,50.022l-0.033-0.77l14.129-14.129
		c0.925-0.926,1.25-2.312,0.828-3.532c-1.969-5.696-0.212-11.854,4.477-15.686c1.884-1.54,4.165-2.565,6.613-2.969
		c0.013-0.002,1.21-0.222,2.298-0.227c1.345-0.034,2.308,0.217,2.376,0.231c2.625,0.434,5.056,1.581,7.028,3.317
		c2.989,2.633,4.705,6.265,4.831,10.228C55.43,30.452,53.955,34.182,51.152,36.985z"/>
	<path fill="#616160" d="M44.881,27.513c1.113,0,2.227-0.425,3.074-1.272h0.001c1.693-1.695,1.693-4.453-0.001-6.148
		c-1.695-1.695-4.453-1.695-6.148,0c-1.696,1.695-1.696,4.453,0,6.148C42.655,27.088,43.768,27.513,44.881,27.513z M43.008,21.293
		c0.517-0.516,1.195-0.774,1.873-0.774s1.356,0.259,1.872,0.774c1.032,1.033,1.032,2.713,0.001,3.746
		c-1.033,1.031-2.713,1.031-3.746,0C41.976,24.006,41.976,22.326,43.008,21.293z"/>
</g>
</svg>
