<?xml version="1.0" encoding="utf-8"?>
<!-- Generator: Adobe Illustrator 29.5.0, SVG Export Plug-In . SVG Version: 9.03 Build 0)  -->
<svg version="1.1" baseProfile="tiny" id="Capa_1" xmlns="http://www.w3.org/2000/svg" xmlns:xlink="http://www.w3.org/1999/xlink"
	 x="0px" y="0px" viewBox="0 0 679.304 353.739" overflow="visible" xml:space="preserve">
<g>
	<path fill="#34CACC" d="M98.078,21.913l2.612,5.484c-11.49,4.528-20.497,9.4-27.025,14.622S61.431,54.031,56.562,62.387
		c-7.14,12.362-11.319,24.458-12.535,36.295c4.872-1.567,9.049-2.349,12.535-2.349c9.571,0,17.362,2.872,23.369,8.616
		s9.009,13.057,9.009,21.933c0,8.878-3.003,16.409-9.009,22.589c-6.006,6.179-13.275,9.269-21.801,9.269
		c-10.445,0-18.89-4.179-25.33-12.535c-6.442-8.356-9.66-19.323-9.66-32.9s3.263-27.065,9.792-40.474
		c6.526-13.401,15.1-24.369,25.718-32.9C70.139,30.88,83.28,24.874,98.078,21.913z M187.381,21.913l2.349,5.484
		c-11.49,4.528-20.497,9.4-27.025,14.622c-6.529,5.221-12.141,12.012-16.843,20.368c-7.311,12.362-11.579,24.458-12.795,36.295
		c4.872-1.567,9.049-2.349,12.535-2.349c9.571,0,17.362,2.872,23.369,8.616s9.009,13.057,9.009,21.933
		c0,8.878-3.003,16.409-9.009,22.589c-6.006,6.179-13.275,9.269-21.804,9.269c-10.443,0-18.89-4.179-25.327-12.535
		c-6.442-8.356-9.66-19.323-9.66-32.9s3.263-27.065,9.792-40.474c6.526-13.401,15.184-24.369,25.981-32.9
		C159.266,30.88,172.407,24.874,187.381,21.913z"/>
</g>
<g>
	<path fill="#989999" d="M54.424,211.346h-4.432l4.177-18.157l-13.639,18.157h-3.453l-5.285-18.2l-4.22,18.2h-4.432l6.563-28.558
		h3.666l6.436,22.59l16.836-22.59h4.39L54.424,211.346z"/>
	<path fill="#989999" d="M82.037,211.303h-4.433l0.512-2.173c-2.004,1.833-4.519,2.77-7.544,2.77c-2.856,0-5.158-1.066-6.905-3.154
		c-1.748-2.089-2.344-4.774-1.834-8.055c0.512-3.283,1.918-5.968,4.22-8.013c2.302-2.046,4.945-3.069,7.971-3.069
		c3.752,0,6.308,1.406,7.63,4.177l0.81-3.58h4.433L82.037,211.303z M71.851,208.106c1.833,0,3.58-0.681,5.2-2.046
		c1.619-1.363,2.6-3.111,2.941-5.285c0.341-2.173-0.086-3.921-1.279-5.243c-1.193-1.321-2.685-2.003-4.518-2.003
		c-2.004,0-3.752,0.639-5.243,1.961c-1.492,1.321-2.43,3.069-2.814,5.243c-0.383,2.173,0,3.921,1.108,5.243
		c1.107,1.321,2.642,2.003,4.646,2.003L71.851,208.106z M74.919,187.179l4.519-6.052h5.54l-5.967,6.052H74.919z"/>
	<path fill="#989999" d="M92.519,204.868c0.213,1.15,0.81,2.046,1.833,2.685c1.023,0.639,2.174,0.98,3.495,0.98
		c1.322,0,2.387-0.298,3.197-0.853c0.81-0.554,1.236-1.278,1.236-2.13c0-0.981-0.81-1.791-2.429-2.302l-3.922-1.279
		c-3.154-1.023-4.731-2.814-4.731-5.499c0-2.004,0.767-3.623,2.302-4.902c1.535-1.279,3.623-1.918,6.223-1.918
		c2.344,0,4.348,0.555,5.968,1.62c1.619,1.066,2.599,2.429,2.941,4.091l-3.836,1.193c-0.127-1.023-0.639-1.833-1.577-2.472
		c-0.938-0.639-2.088-0.937-3.496-0.937c-1.363,0-2.386,0.256-3.069,0.81c-0.682,0.554-1.023,1.236-1.023,2.046
		c0,0.554,0.213,1.023,0.639,1.406c0.426,0.384,1.15,0.768,2.131,1.066l2.685,0.853c1.833,0.597,3.239,1.407,4.177,2.302
		c0.937,0.895,1.406,2.089,1.406,3.58c0,2.089-0.853,3.709-2.558,4.902c-1.704,1.193-3.878,1.79-6.479,1.79
		c-2.344,0-4.39-0.511-6.137-1.534c-1.748-1.023-2.856-2.473-3.283-4.348L92.519,204.868z"/>
	<path fill="#989999" d="M139.995,218.55h-4.476l2.217-9.42c-2.131,1.833-4.689,2.77-7.63,2.77c-2.855,0-5.157-1.066-6.905-3.154
		s-2.344-4.774-1.833-8.055c0.554-3.283,1.961-5.968,4.263-8.013c2.302-2.046,4.944-3.069,7.971-3.069
		c3.794,0,6.35,1.406,7.672,4.219l0.81-3.622h4.433L139.995,218.55z M131.301,208.065c1.833,0,3.579-0.682,5.2-2.047
		c1.619-1.363,2.599-3.111,2.941-5.285c0.341-2.131-0.086-3.879-1.236-5.201c-1.151-1.321-2.643-2.003-4.476-2.003
		c-2.003,0-3.751,0.639-5.243,1.961c-1.492,1.321-2.429,3.069-2.771,5.243c-0.383,2.173,0,3.921,1.108,5.243
		c1.108,1.321,2.642,2.003,4.646,2.003L131.301,208.065z"/>
	<path fill="#989999" d="M167.995,211.303h-4.433l0.639-2.771c-1.833,2.26-4.22,3.367-7.161,3.367c-2.855,0-4.901-0.937-6.18-2.855
		c-1.279-1.918-1.578-4.263-0.938-7.033l2.728-11.849h4.433l-2.771,12.062c-0.383,1.748-0.17,3.154,0.598,4.22
		c0.767,1.066,1.96,1.578,3.58,1.578c1.833,0,3.409-0.639,4.688-1.961s2.302-3.197,2.898-5.669l2.387-10.187h4.433L167.995,211.303z
		"/>
	<path fill="#989999" d="M179.542,202.31c0,1.875,0.512,3.324,1.535,4.39c1.023,1.066,2.472,1.578,4.39,1.578
		c2.771,0,4.944-1.279,6.521-3.836l3.921,1.023c-1.023,2.131-2.472,3.751-4.39,4.902c-1.918,1.15-4.007,1.705-6.308,1.705
		c-2.941,0-5.285-0.895-7.075-2.643c-1.791-1.748-2.686-4.091-2.686-7.032c0-3.623,1.279-6.65,3.794-9.079
		c2.515-2.429,5.414-3.666,8.696-3.666c3.111,0,5.541,1.108,7.246,3.367c1.705,2.26,2.26,5.201,1.663,8.823h-17.391L179.542,202.31z
		 M187.682,193.573c-1.747,0-3.282,0.511-4.603,1.492c-1.322,0.98-2.259,2.259-2.855,3.835h12.957
		c-0.086-1.705-0.597-3.026-1.578-3.964c-0.98-0.937-2.302-1.406-3.964-1.406L187.682,193.573z"/>
	<path fill="#989999" d="M213.804,204.868c0.213,1.15,0.81,2.046,1.833,2.685c1.023,0.639,2.174,0.98,3.495,0.98
		c1.322,0,2.387-0.298,3.197-0.853c0.81-0.554,1.236-1.278,1.236-2.13c0-0.981-0.81-1.791-2.429-2.302l-3.922-1.279
		c-3.154-1.023-4.731-2.814-4.731-5.499c0-2.004,0.767-3.623,2.302-4.902c1.535-1.279,3.623-1.918,6.223-1.918
		c2.344,0,4.348,0.555,5.968,1.62c1.619,1.066,2.6,2.429,2.941,4.091l-3.836,1.193c-0.127-1.023-0.639-1.833-1.577-2.472
		c-0.938-0.639-2.089-0.937-3.496-0.937c-1.363,0-2.386,0.256-3.069,0.81c-0.682,0.554-1.023,1.236-1.023,2.046
		c0,0.554,0.213,1.023,0.639,1.406c0.426,0.384,1.15,0.768,2.131,1.066l2.685,0.853c1.833,0.597,3.239,1.407,4.177,2.302
		c0.937,0.895,1.406,2.089,1.406,3.58c0,2.089-0.853,3.709-2.558,4.902c-1.704,1.193-3.878,1.79-6.479,1.79
		c-2.344,0-4.39-0.511-6.137-1.534c-1.748-1.023-2.856-2.473-3.283-4.348L213.804,204.868z"/>
	<path fill="#989999" d="M236.305,202.31c0,1.875,0.512,3.324,1.535,4.39c1.023,1.066,2.472,1.578,4.39,1.578
		c2.771,0,4.944-1.279,6.521-3.836l3.921,1.023c-1.023,2.131-2.472,3.751-4.39,4.902c-1.918,1.15-4.007,1.705-6.308,1.705
		c-2.941,0-5.285-0.895-7.075-2.643c-1.791-1.748-2.686-4.091-2.686-7.032c0-3.623,1.279-6.65,3.794-9.079
		c2.515-2.429,5.414-3.666,8.696-3.666c3.111,0,5.541,1.108,7.246,3.367c1.705,2.26,2.26,5.201,1.663,8.823H236.22L236.305,202.31z
		 M244.446,193.573c-1.747,0-3.282,0.511-4.603,1.492c-1.322,0.98-2.259,2.259-2.855,3.835h12.957
		c-0.086-1.705-0.597-3.026-1.577-3.964c-0.981-0.937-2.303-1.406-3.965-1.406L244.446,193.573z"/>
	<path fill="#989999" d="M273.469,189.906c0.639,0,1.107,0.043,1.406,0.17l-1.193,4.263c-0.213-0.043-0.597-0.043-1.151-0.043
		c-2.599,0-4.731,0.853-6.436,2.558c-1.705,1.705-2.898,4.05-3.58,7.033l-1.748,7.459h-4.433l4.859-21.141h4.476l-0.853,3.751
		c2.6-2.685,5.499-4.007,8.695-4.007L273.469,189.906z"/>
	<path fill="#989999" d="M284.974,211.346h-4.689l-4.177-21.141h4.561l3.026,15.813l10.315-15.813h5.03L284.974,211.346z"/>
	<path fill="#989999" d="M298.61,211.346l4.859-21.141h4.433l-4.859,21.141H298.61z M307.177,181.083c0.81,0,1.492,0.256,2.047,0.81
		c0.554,0.555,0.81,1.194,0.81,1.961c0,0.81-0.256,1.449-0.768,1.961c-0.511,0.511-1.193,0.767-2.003,0.767
		c-0.81,0-1.492-0.256-2.004-0.767c-0.511-0.512-0.767-1.151-0.767-1.961c0-0.767,0.256-1.406,0.767-1.961
		c0.512-0.554,1.194-0.81,2.004-0.81H307.177z"/>
	<path fill="#989999" d="M320.772,207.809c1.407,0,2.686-0.383,3.836-1.108c1.151-0.724,2.046-1.748,2.685-3.069l4.22,0.767
		c-0.937,2.259-2.429,4.092-4.475,5.456c-2.047,1.364-4.263,2.046-6.693,2.046c-3.282,0-5.839-1.066-7.715-3.154
		s-2.558-4.774-2.046-8.055c0.511-3.24,2.003-5.925,4.518-8.013c2.515-2.088,5.328-3.154,8.44-3.154c2.43,0,4.476,0.682,6.181,2.046
		c1.705,1.364,2.685,3.154,2.983,5.413l-4.56,0.895c-0.127-1.322-0.682-2.344-1.662-3.069c-0.98-0.725-2.174-1.108-3.58-1.108
		c-2.003,0-3.751,0.639-5.243,1.961c-1.492,1.321-2.429,3.026-2.771,5.114c-0.298,2.088,0.086,3.794,1.194,5.115
		c1.108,1.322,2.642,1.961,4.646,1.961L320.772,207.809z"/>
	<path fill="#989999" d="M334.876,211.346l4.859-21.141h4.433l-4.859,21.141H334.876z M343.443,181.083
		c0.81,0,1.492,0.256,2.047,0.81c0.554,0.555,0.81,1.194,0.81,1.961c0,0.81-0.256,1.449-0.768,1.961
		c-0.511,0.511-1.193,0.767-2.003,0.767c-0.81,0-1.492-0.256-2.004-0.767c-0.511-0.512-0.767-1.151-0.767-1.961
		c0-0.767,0.256-1.406,0.767-1.961c0.512-0.554,1.194-0.81,2.004-0.81H343.443z"/>
	<path fill="#989999" d="M359.81,189.822c3.197,0,5.797,1.023,7.757,3.111c1.961,2.089,2.643,4.731,2.174,7.928
		c-0.512,3.24-1.918,5.882-4.305,7.928c-2.386,2.046-5.157,3.07-8.311,3.07c-3.24,0-5.839-1.024-7.8-3.112
		c-1.961-2.089-2.685-4.731-2.216-7.928c0.511-3.239,1.96-5.882,4.39-7.971c2.429-2.089,5.2-3.111,8.354-3.111L359.81,189.822z
		 M357.295,208.106c1.875,0,3.623-0.681,5.2-2.003c1.578-1.322,2.558-3.069,2.899-5.2c0.341-2.131-0.086-3.879-1.279-5.243
		c-1.194-1.364-2.728-2.047-4.603-2.047c-1.918,0-3.666,0.682-5.243,2.047c-1.578,1.363-2.558,3.111-2.899,5.243
		c-0.341,2.131,0.086,3.878,1.279,5.2c1.194,1.322,2.771,2.003,4.689,2.003H357.295z"/>
	<path fill="#989999" d="M376.046,204.868c0.213,1.15,0.81,2.046,1.833,2.685c1.023,0.639,2.174,0.98,3.495,0.98
		c1.322,0,2.387-0.298,3.197-0.853c0.81-0.554,1.236-1.278,1.236-2.13c0-0.981-0.81-1.791-2.429-2.302l-3.922-1.279
		c-3.154-1.023-4.731-2.814-4.731-5.499c0-2.004,0.767-3.623,2.302-4.902c1.535-1.279,3.623-1.918,6.223-1.918
		c2.344,0,4.348,0.555,5.968,1.62c1.619,1.066,2.6,2.429,2.941,4.091l-3.836,1.193c-0.128-1.023-0.639-1.833-1.577-2.472
		c-0.938-0.639-2.089-0.937-3.496-0.937c-1.363,0-2.386,0.256-3.069,0.81c-0.682,0.554-1.023,1.236-1.023,2.046
		c0,0.554,0.213,1.023,0.639,1.406c0.426,0.384,1.15,0.768,2.131,1.066l2.685,0.853c1.833,0.597,3.239,1.407,4.177,2.302
		c0.937,0.895,1.406,2.089,1.406,3.58c0,2.089-0.853,3.709-2.558,4.902c-1.704,1.193-3.878,1.79-6.479,1.79
		c-2.344,0-4.39-0.511-6.137-1.534c-1.748-1.023-2.856-2.473-3.283-4.348L376.046,204.868z"/>
	<path fill="#989999" d="M419.685,183.897c-1.107,0-2.046,0.341-2.855,1.023c-0.81,0.682-1.406,1.577-1.662,2.728l-0.597,2.515
		h7.075l-0.853,3.665h-7.032l-4.05,17.476h-4.433l4.049-17.476h-3.453l0.853-3.665h3.41l0.597-2.515
		c0.554-2.429,1.662-4.305,3.282-5.626c1.62-1.322,3.58-2.004,5.925-2.004c1.406,0,2.558,0.256,3.453,0.768l-0.895,3.538
		c-0.895-0.213-1.833-0.342-2.814-0.342V183.897z"/>
	<path fill="#989999" d="M420.152,211.346l4.859-21.141h4.433l-4.859,21.141H420.152z M428.719,181.083
		c0.81,0,1.492,0.256,2.047,0.81c0.554,0.555,0.81,1.194,0.81,1.961c0,0.81-0.256,1.449-0.768,1.961
		c-0.511,0.511-1.193,0.767-2.003,0.767c-0.81,0-1.492-0.256-2.004-0.767c-0.511-0.512-0.767-1.151-0.767-1.961
		c0-0.767,0.256-1.406,0.767-1.961c0.512-0.554,1.194-0.81,2.004-0.81H428.719z"/>
	<path fill="#989999" d="M447.728,189.651c2.855,0,4.901,0.938,6.18,2.814c1.279,1.875,1.619,4.22,0.98,6.991l-2.77,11.892h-4.433
		l2.771-12.063c0.383-1.747,0.213-3.153-0.555-4.177c-0.767-1.023-1.96-1.534-3.623-1.534c-1.917,0-3.538,0.681-4.858,2.046
		c-1.322,1.363-2.26,3.367-2.856,5.968l-2.259,9.76h-4.476l4.902-21.141h4.433l-0.639,2.771c1.833-2.26,4.22-3.367,7.161-3.367
		L447.728,189.651z"/>
	<path fill="#989999" d="M479.222,211.303h-4.433l0.512-2.173c-2.004,1.833-4.519,2.77-7.544,2.77c-2.856,0-5.158-1.066-6.905-3.154
		c-1.748-2.089-2.344-4.774-1.834-8.055c0.512-3.283,1.918-5.968,4.22-8.013c2.302-2.046,4.945-3.069,7.971-3.069
		c3.752,0,6.308,1.406,7.63,4.177l0.81-3.58h4.433L479.222,211.303z M469.035,208.106c1.833,0,3.58-0.681,5.2-2.046
		c1.619-1.363,2.6-3.111,2.941-5.285c0.341-2.173-0.086-3.921-1.279-5.243c-1.193-1.321-2.685-2.003-4.518-2.003
		c-2.004,0-3.752,0.639-5.243,1.961c-1.492,1.321-2.43,3.069-2.814,5.243c-0.383,2.173,0,3.921,1.108,5.243
		c1.107,1.321,2.642,2.003,4.646,2.003L469.035,208.106z"/>
	<path fill="#989999" d="M501.893,189.651c2.855,0,4.901,0.938,6.18,2.814c1.279,1.875,1.619,4.22,0.98,6.991l-2.77,11.892h-4.433
		l2.771-12.063c0.383-1.747,0.213-3.153-0.555-4.177c-0.767-1.023-1.96-1.534-3.623-1.534c-1.917,0-3.538,0.681-4.858,2.046
		c-1.322,1.363-2.26,3.367-2.856,5.968l-2.259,9.76h-4.476l4.902-21.141h4.433l-0.639,2.771c1.833-2.26,4.22-3.367,7.161-3.367
		L501.893,189.651z"/>
	<path fill="#989999" d="M523.072,207.809c1.407,0,2.686-0.383,3.836-1.108c1.151-0.724,2.046-1.748,2.685-3.069l4.22,0.767
		c-0.937,2.259-2.429,4.092-4.475,5.456c-2.047,1.364-4.263,2.046-6.693,2.046c-3.282,0-5.839-1.066-7.715-3.154
		s-2.558-4.774-2.046-8.055c0.511-3.24,2.003-5.925,4.518-8.013c2.515-2.088,5.328-3.154,8.44-3.154c2.43,0,4.476,0.682,6.181,2.046
		c1.705,1.364,2.685,3.154,2.983,5.413l-4.56,0.895c-0.128-1.322-0.682-2.344-1.662-3.069c-0.98-0.725-2.174-1.108-3.58-1.108
		c-2.003,0-3.751,0.639-5.243,1.961c-1.492,1.321-2.429,3.026-2.771,5.114c-0.298,2.088,0.086,3.794,1.194,5.115
		c1.107,1.322,2.642,1.961,4.646,1.961L523.072,207.809z"/>
	<path fill="#989999" d="M537.177,211.346l4.859-21.141h4.433l-4.859,21.141H537.177z M545.744,181.083
		c0.81,0,1.492,0.256,2.047,0.81c0.554,0.555,0.81,1.194,0.81,1.961c0,0.81-0.256,1.449-0.768,1.961
		c-0.511,0.511-1.193,0.767-2.003,0.767c-0.81,0-1.492-0.256-2.004-0.767c-0.511-0.512-0.767-1.151-0.767-1.961
		c0-0.767,0.256-1.406,0.767-1.961c0.512-0.554,1.194-0.81,2.004-0.81H545.744z"/>
	<path fill="#989999" d="M553.542,202.31c0,1.875,0.512,3.324,1.535,4.39s2.472,1.578,4.39,1.578c2.771,0,4.944-1.279,6.521-3.836
		l3.921,1.023c-1.023,2.131-2.472,3.751-4.39,4.902c-1.918,1.15-4.007,1.705-6.308,1.705c-2.941,0-5.285-0.895-7.075-2.643
		c-1.791-1.748-2.686-4.091-2.686-7.032c0-3.623,1.279-6.65,3.794-9.079c2.515-2.429,5.414-3.666,8.696-3.666
		c3.111,0,5.541,1.108,7.246,3.367c1.705,2.26,2.26,5.201,1.663,8.823h-17.391L553.542,202.31z M561.683,193.573
		c-1.747,0-3.282,0.511-4.603,1.492c-1.322,0.98-2.259,2.259-2.855,3.835h12.957c-0.086-1.705-0.597-3.026-1.577-3.964
		c-0.981-0.937-2.303-1.406-3.965-1.406L561.683,193.573z"/>
	<path fill="#989999" d="M590.706,189.906c0.639,0,1.108,0.043,1.406,0.17l-1.193,4.263c-0.213-0.043-0.597-0.043-1.151-0.043
		c-2.599,0-4.731,0.853-6.436,2.558s-2.898,4.05-3.58,7.033l-1.748,7.459h-4.433l4.859-21.141h4.476l-0.853,3.751
		c2.6-2.685,5.499-4.007,8.695-4.007L590.706,189.906z"/>
	<path fill="#989999" d="M604.3,189.822c3.197,0,5.797,1.023,7.757,3.111c1.961,2.089,2.643,4.731,2.174,7.928
		c-0.512,3.24-1.918,5.882-4.305,7.928c-2.386,2.046-5.157,3.07-8.311,3.07c-3.24,0-5.839-1.024-7.8-3.112
		c-1.961-2.089-2.685-4.731-2.216-7.928c0.511-3.239,1.96-5.882,4.39-7.971c2.429-2.089,5.2-3.111,8.354-3.111L604.3,189.822z
		 M601.785,208.106c1.875,0,3.623-0.681,5.2-2.003c1.578-1.322,2.558-3.069,2.899-5.2c0.341-2.131-0.086-3.879-1.279-5.243
		c-1.194-1.364-2.728-2.047-4.603-2.047c-1.918,0-3.666,0.682-5.243,2.047c-1.578,1.363-2.558,3.111-2.899,5.243
		c-0.341,2.131,0.086,3.878,1.279,5.2c1.194,1.322,2.771,2.003,4.689,2.003H601.785z"/>
	<path fill="#989999" d="M620.536,204.868c0.213,1.15,0.81,2.046,1.833,2.685c1.023,0.639,2.174,0.98,3.495,0.98
		c1.322,0,2.387-0.298,3.197-0.853c0.81-0.554,1.236-1.278,1.236-2.13c0-0.981-0.81-1.791-2.429-2.302l-3.922-1.279
		c-3.154-1.023-4.731-2.814-4.731-5.499c0-2.004,0.767-3.623,2.302-4.902c1.535-1.279,3.623-1.918,6.223-1.918
		c2.344,0,4.348,0.555,5.968,1.62c1.619,1.066,2.599,2.429,2.941,4.091l-3.836,1.193c-0.128-1.023-0.639-1.833-1.577-2.472
		c-0.938-0.639-2.089-0.937-3.496-0.937c-1.363,0-2.386,0.256-3.068,0.81c-0.682,0.554-1.023,1.236-1.023,2.046
		c0,0.554,0.213,1.023,0.639,1.406c0.426,0.384,1.15,0.768,2.131,1.066l2.685,0.853c1.833,0.597,3.239,1.407,4.177,2.302
		c0.937,0.895,1.406,2.089,1.406,3.58c0,2.089-0.853,3.709-2.558,4.902c-1.704,1.193-3.878,1.79-6.479,1.79
		c-2.344,0-4.39-0.511-6.137-1.534c-1.748-1.023-2.856-2.473-3.283-4.348L620.536,204.868z"/>
	<path fill="#989999" d="M634.214,216.972l5.328-11.338h5.327l-0.042,0.128l-7.033,11.209H634.214z"/>
</g>
<g>
	<path fill="#989999" d="M34.507,257.824c0.938,0,1.791-0.299,2.558-0.853c0.767-0.554,1.363-1.364,1.748-2.43l7.203,1.279
		c-0.853,2.643-2.429,4.775-4.731,6.351c-2.302,1.578-4.859,2.387-7.673,2.387c-3.409,0-6.095-1.066-8.098-3.197
		s-2.728-4.859-2.216-8.184c0.554-3.367,2.173-6.095,4.816-8.227c2.642-2.131,5.626-3.197,8.951-3.197
		c2.814,0,5.157,0.768,6.991,2.344c1.833,1.578,2.813,3.666,2.898,6.266l-7.673,1.364c-0.042-1.023-0.341-1.833-0.937-2.387
		c-0.597-0.554-1.364-0.853-2.344-0.853c-1.236,0-2.344,0.426-3.282,1.322c-0.938,0.895-1.535,2.003-1.748,3.324
		s0.043,2.43,0.725,3.324c0.681,0.895,1.662,1.322,2.898,1.322L34.507,257.824z"/>
	<path fill="#989999" d="M67.153,242.096c0.682,0,1.193,0.043,1.535,0.127l-2.217,8.227h-1.236c-4.518,0-7.587,2.003-8.567,6.181
		l-1.662,7.246h-7.971l4.944-21.524h8.013l-0.937,3.964c2.259-2.814,4.944-4.22,8.055-4.22H67.153z"/>
	<path fill="#989999" d="M80.747,241.713c3.452,0,6.095,1.193,7.885,3.58c1.791,2.386,2.344,5.626,1.619,9.76H75.035
		c0.213,2.216,1.363,3.324,3.495,3.324c1.834,0,3.197-0.724,4.05-2.173l6.948,1.491c-1.151,2.26-2.728,3.965-4.774,5.115
		c-2.047,1.151-4.305,1.705-6.777,1.705c-3.154,0-5.712-0.895-7.63-2.685c-1.918-1.791-2.898-4.22-2.898-7.247
		c0-3.622,1.322-6.692,3.964-9.164c2.643-2.472,5.755-3.708,9.378-3.708H80.747z M83.346,250.663
		c-0.255-1.875-1.321-2.814-3.196-2.814c-1.791,0-3.197,0.938-4.22,2.814H83.346z"/>
	<path fill="#989999" d="M114.671,263.876H106.7l0.299-1.279c-1.662,1.279-3.666,1.918-6.011,1.918
		c-2.983,0-5.285-1.066-6.905-3.197c-1.619-2.131-2.173-4.901-1.619-8.268s1.961-6.095,4.22-8.184s4.944-3.154,8.055-3.154
		c3.027,0,5.158,1.107,6.394,3.282l0.597-2.642h8.013L114.671,263.876z M100.307,253.092c-0.213,1.407,0,2.558,0.681,3.453
		c0.682,0.895,1.662,1.322,2.941,1.322c1.236,0,2.344-0.469,3.324-1.364c0.981-0.895,1.578-2.046,1.791-3.41
		c0.213-1.321-0.043-2.429-0.725-3.324c-0.681-0.894-1.662-1.363-2.898-1.363c-1.279,0-2.386,0.426-3.324,1.321
		c-0.938,0.895-1.535,2.004-1.748,3.367H100.307z"/>
	<path fill="#989999" d="M151.877,241.797c2.472,0,4.39,0.81,5.711,2.43c1.322,1.619,1.705,3.708,1.108,6.266l-3.069,13.426h-7.971
		l2.728-11.764c0.213-0.98,0.127-1.791-0.299-2.387s-1.066-0.894-1.961-0.894c-0.98,0-1.833,0.341-2.599,1.023
		c-0.767,0.681-1.364,1.619-1.662,2.855l-2.6,11.125h-7.971l2.728-11.764c0.213-0.98,0.128-1.79-0.298-2.387
		c-0.426-0.597-1.066-0.894-1.961-0.894c-0.938,0-1.791,0.341-2.558,0.98c-0.767,0.639-1.322,1.535-1.705,2.685l-2.599,11.338
		h-8.013l4.987-21.524h7.971l-0.426,1.79c1.619-1.619,3.666-2.429,6.138-2.429c1.619,0,3.026,0.341,4.177,1.023
		c1.15,0.682,1.961,1.619,2.429,2.814c2.089-2.515,4.689-3.794,7.8-3.794L151.877,241.797z"/>
	<path fill="#989999" d="M174.418,241.754c3.367,0,6.095,1.066,8.141,3.197c2.046,2.131,2.814,4.859,2.302,8.184
		c-0.511,3.324-2.089,6.052-4.731,8.184c-2.643,2.131-5.626,3.197-8.952,3.197c-3.367,0-6.095-1.066-8.141-3.197
		c-2.046-2.131-2.771-4.859-2.259-8.141c0.554-3.367,2.089-6.095,4.731-8.227c2.643-2.131,5.627-3.197,8.994-3.197H174.418z
		 M171.988,257.867c1.193,0,2.302-0.469,3.324-1.364c1.023-0.895,1.619-2.003,1.833-3.324c0.213-1.322-0.043-2.429-0.767-3.324
		c-0.725-0.895-1.705-1.364-2.941-1.364c-1.236,0-2.344,0.469-3.325,1.364c-0.98,0.895-1.577,2.003-1.79,3.324
		c-0.213,1.322,0.043,2.429,0.767,3.324c0.725,0.895,1.705,1.364,2.941,1.364H171.988z"/>
	<path fill="#989999" d="M192.955,256.673c0.17,0.725,0.554,1.279,1.15,1.662c0.598,0.384,1.279,0.555,2.047,0.555
		c0.597,0,1.107-0.128,1.492-0.383c0.383-0.256,0.597-0.555,0.597-0.895c0-0.299-0.17-0.555-0.512-0.725
		c-0.341-0.17-0.98-0.383-1.875-0.639l-2.259-0.639c-3.496-0.98-5.285-2.813-5.285-6.01c0-2.344,0.895-4.263,2.685-5.712
		c1.791-1.449,4.22-2.173,7.288-2.173c2.643,0,4.859,0.554,6.65,1.662c1.79,1.107,2.898,2.685,3.367,4.774l-7.076,1.236
		c-0.127-0.639-0.468-1.193-1.023-1.662c-0.554-0.469-1.279-0.682-2.173-0.682c-1.236,0-1.875,0.426-1.875,1.236
		c0,0.598,0.468,1.066,1.449,1.364l2.515,0.767c2.089,0.639,3.58,1.449,4.518,2.472c0.938,1.024,1.407,2.344,1.407,3.922
		c0,2.386-0.938,4.262-2.814,5.626c-1.875,1.363-4.347,2.046-7.46,2.046c-2.599,0-4.858-0.554-6.776-1.619
		c-1.918-1.066-3.111-2.728-3.58-4.987L192.955,256.673z"/>
	<path fill="#989999" d="M236.851,242.437c0.639,0,1.107,0.043,1.406,0.17l-1.193,4.263c-0.213-0.043-0.597-0.043-1.151-0.043
		c-2.599,0-4.731,0.853-6.436,2.558s-2.898,4.05-3.58,7.033l-1.748,7.459h-4.433l4.859-21.141h4.476l-0.853,3.751
		c2.6-2.685,5.499-4.007,8.695-4.007L236.851,242.437z"/>
	<path fill="#989999" d="M241.878,254.84c0,1.875,0.512,3.324,1.535,4.39c1.023,1.066,2.472,1.578,4.39,1.578
		c2.771,0,4.944-1.279,6.521-3.836l3.921,1.023c-1.023,2.131-2.472,3.751-4.39,4.902c-1.918,1.15-4.007,1.705-6.308,1.705
		c-2.941,0-5.285-0.895-7.075-2.643c-1.791-1.748-2.686-4.091-2.686-7.032c0-3.623,1.279-6.65,3.794-9.079
		c2.515-2.429,5.414-3.666,8.696-3.666c3.111,0,5.541,1.108,7.246,3.367c1.705,2.26,2.26,5.201,1.663,8.823h-17.391L241.878,254.84z
		 M250.019,246.103c-1.747,0-3.282,0.511-4.603,1.492c-1.322,0.98-2.259,2.259-2.855,3.835h12.957
		c-0.086-1.705-0.597-3.026-1.577-3.964c-0.981-0.937-2.303-1.406-3.965-1.406L250.019,246.103z"/>
	<path fill="#989999" d="M261.822,263.876l7.118-30.689h4.433l-7.076,30.689H261.822z"/>
	<path fill="#989999" d="M293.914,263.834h-4.433l0.512-2.173c-2.004,1.833-4.519,2.77-7.544,2.77c-2.856,0-5.158-1.066-6.905-3.154
		c-1.748-2.089-2.344-4.774-1.834-8.055c0.512-3.283,1.918-5.968,4.22-8.013s4.945-3.069,7.971-3.069
		c3.752,0,6.308,1.406,7.63,4.177l0.81-3.58h4.433L293.914,263.834z M283.728,260.637c1.833,0,3.58-0.681,5.2-2.046
		c1.619-1.363,2.6-3.111,2.941-5.285c0.341-2.173-0.086-3.921-1.279-5.243c-1.193-1.321-2.685-2.003-4.518-2.003
		c-2.004,0-3.752,0.639-5.243,1.961c-1.492,1.321-2.43,3.069-2.814,5.243c-0.383,2.173,0,3.921,1.108,5.243
		c1.107,1.321,2.642,2.003,4.646,2.003L283.728,260.637z"/>
	<path fill="#989999" d="M311.172,260.339c1.407,0,2.686-0.383,3.836-1.108c1.151-0.724,2.046-1.748,2.685-3.069l4.22,0.767
		c-0.937,2.259-2.429,4.092-4.475,5.456c-2.047,1.364-4.263,2.046-6.693,2.046c-3.282,0-5.839-1.066-7.715-3.154
		s-2.558-4.774-2.046-8.055c0.511-3.24,2.003-5.925,4.518-8.013s5.328-3.154,8.44-3.154c2.43,0,4.476,0.682,6.181,2.046
		c1.705,1.364,2.685,3.154,2.983,5.413l-4.56,0.895c-0.127-1.322-0.682-2.344-1.662-3.069c-0.98-0.725-2.174-1.108-3.58-1.108
		c-2.003,0-3.751,0.639-5.243,1.961c-1.492,1.321-2.429,3.026-2.771,5.114c-0.298,2.089,0.086,3.794,1.194,5.115
		c1.107,1.322,2.642,1.961,4.646,1.961L311.172,260.339z"/>
	<path fill="#989999" d="M325.277,263.876l4.859-21.141h4.433l-4.859,21.141H325.277z M333.844,233.614
		c0.81,0,1.492,0.256,2.047,0.81c0.554,0.555,0.81,1.194,0.81,1.961c0,0.81-0.256,1.449-0.768,1.961
		c-0.511,0.511-1.193,0.767-2.003,0.767s-1.492-0.256-2.004-0.767c-0.511-0.512-0.767-1.151-0.767-1.961
		c0-0.767,0.256-1.406,0.767-1.961c0.512-0.554,1.194-0.81,2.004-0.81H333.844z"/>
	<path fill="#989999" d="M350.21,242.352c3.197,0,5.797,1.023,7.757,3.111c1.961,2.089,2.643,4.731,2.174,7.928
		c-0.512,3.24-1.918,5.882-4.305,7.928c-2.386,2.046-5.157,3.069-8.311,3.069c-3.24,0-5.839-1.024-7.8-3.112
		s-2.685-4.731-2.216-7.928c0.511-3.239,1.96-5.882,4.39-7.971c2.429-2.089,5.2-3.111,8.354-3.111L350.21,242.352z M347.695,260.637
		c1.875,0,3.623-0.681,5.2-2.003c1.578-1.322,2.558-3.068,2.899-5.2c0.341-2.131-0.086-3.879-1.279-5.243
		c-1.194-1.364-2.728-2.047-4.603-2.047c-1.918,0-3.666,0.682-5.243,2.047c-1.578,1.363-2.558,3.111-2.899,5.243
		c-0.341,2.131,0.086,3.878,1.279,5.2c1.194,1.322,2.771,2.003,4.689,2.003H347.695z"/>
	<path fill="#989999" d="M378.636,242.181c2.855,0,4.901,0.938,6.18,2.814c1.279,1.875,1.619,4.22,0.98,6.991l-2.77,11.892h-4.433
		l2.771-12.063c0.383-1.747,0.213-3.153-0.555-4.177c-0.767-1.023-1.96-1.534-3.623-1.534c-1.917,0-3.538,0.681-4.858,2.046
		c-1.322,1.363-2.26,3.367-2.856,5.968l-2.259,9.76h-4.476l4.902-21.141h4.433l-0.639,2.771c1.833-2.26,4.22-3.367,7.161-3.367
		L378.636,242.181z"/>
	<path fill="#989999" d="M394.018,254.84c0,1.875,0.512,3.324,1.535,4.39c1.023,1.066,2.472,1.578,4.39,1.578
		c2.771,0,4.944-1.279,6.521-3.836l3.921,1.023c-1.023,2.131-2.472,3.751-4.39,4.902c-1.918,1.15-4.007,1.705-6.308,1.705
		c-2.941,0-5.285-0.895-7.075-2.643c-1.791-1.748-2.686-4.091-2.686-7.032c0-3.623,1.279-6.65,3.794-9.079
		c2.515-2.429,5.414-3.666,8.696-3.666c3.111,0,5.541,1.108,7.246,3.367c1.705,2.26,2.26,5.201,1.663,8.823h-17.391L394.018,254.84z
		 M402.159,246.103c-1.747,0-3.282,0.511-4.603,1.492c-1.322,0.98-2.259,2.259-2.855,3.835h12.957
		c-0.086-1.705-0.597-3.026-1.578-3.964c-0.98-0.937-2.302-1.406-3.964-1.406L402.159,246.103z"/>
	<path fill="#989999" d="M417.755,257.398c0.213,1.15,0.81,2.046,1.833,2.685c1.023,0.639,2.174,0.98,3.495,0.98
		c1.322,0,2.387-0.298,3.197-0.853c0.81-0.554,1.236-1.278,1.236-2.13c0-0.981-0.81-1.791-2.429-2.302l-3.922-1.279
		c-3.154-1.023-4.731-2.814-4.731-5.499c0-2.004,0.767-3.623,2.302-4.902c1.535-1.279,3.623-1.918,6.223-1.918
		c2.344,0,4.348,0.555,5.968,1.62c1.619,1.066,2.6,2.429,2.941,4.091l-3.836,1.193c-0.128-1.023-0.639-1.833-1.577-2.472
		c-0.938-0.639-2.089-0.937-3.496-0.937c-1.363,0-2.386,0.256-3.069,0.81c-0.682,0.554-1.023,1.236-1.023,2.046
		c0,0.554,0.213,1.023,0.639,1.406c0.426,0.384,1.15,0.768,2.131,1.066l2.685,0.853c1.833,0.597,3.239,1.407,4.177,2.302
		c0.937,0.895,1.406,2.089,1.406,3.58c0,2.089-0.853,3.709-2.558,4.902c-1.704,1.193-3.878,1.79-6.479,1.79
		c-2.344,0-4.39-0.511-6.137-1.534c-1.748-1.023-2.856-2.473-3.283-4.348L417.755,257.398z"/>
	<path fill="#989999" d="M462.419,242.181c2.855,0,5.157,1.066,6.905,3.154c1.747,2.089,2.343,4.775,1.833,8.056
		c-0.554,3.282-1.961,5.968-4.263,8.013c-2.302,2.046-4.944,3.069-7.971,3.069c-3.751,0-6.266-1.406-7.587-4.22l-0.853,3.623h-4.475
		l7.118-30.689h4.433l-2.728,11.764c2.089-1.875,4.646-2.813,7.629-2.813L462.419,242.181z M458.796,260.552
		c2.003,0,3.751-0.682,5.243-2.004c1.492-1.321,2.429-3.069,2.813-5.243c0.342-2.173-0.042-3.921-1.15-5.243
		c-1.108-1.321-2.643-2.003-4.603-2.003c-1.833,0-3.58,0.682-5.2,2.046c-1.62,1.364-2.6,3.111-2.941,5.285
		c-0.342,2.174,0.085,3.921,1.236,5.243c1.15,1.322,2.685,1.961,4.56,1.961L458.796,260.552z"/>
	<path fill="#989999" d="M494.254,263.834h-4.433l0.512-2.173c-2.004,1.833-4.519,2.77-7.544,2.77c-2.856,0-5.158-1.066-6.905-3.154
		c-1.748-2.089-2.344-4.774-1.834-8.055c0.512-3.283,1.918-5.968,4.22-8.013s4.945-3.069,7.971-3.069
		c3.752,0,6.308,1.406,7.63,4.177l0.81-3.58h4.433L494.254,263.834z M484.067,260.637c1.833,0,3.58-0.681,5.2-2.046
		c1.619-1.363,2.6-3.111,2.941-5.285c0.341-2.173-0.086-3.921-1.279-5.243c-1.193-1.321-2.685-2.003-4.518-2.003
		c-2.004,0-3.752,0.639-5.243,1.961c-1.492,1.321-2.43,3.069-2.814,5.243c-0.383,2.173,0,3.921,1.108,5.243
		c1.108,1.321,2.642,2.003,4.646,2.003L484.067,260.637z"/>
	<path fill="#989999" d="M504.735,257.398c0.213,1.15,0.81,2.046,1.833,2.685c1.023,0.639,2.174,0.98,3.495,0.98
		c1.322,0,2.387-0.298,3.197-0.853c0.81-0.554,1.236-1.278,1.236-2.13c0-0.981-0.81-1.791-2.429-2.302l-3.922-1.279
		c-3.154-1.023-4.731-2.814-4.731-5.499c0-2.004,0.767-3.623,2.302-4.902s3.623-1.918,6.223-1.918c2.344,0,4.348,0.555,5.968,1.62
		c1.619,1.066,2.6,2.429,2.941,4.091l-3.836,1.193c-0.127-1.023-0.639-1.833-1.577-2.472c-0.938-0.639-2.089-0.937-3.496-0.937
		c-1.363,0-2.386,0.256-3.069,0.81c-0.682,0.554-1.023,1.236-1.023,2.046c0,0.554,0.213,1.023,0.639,1.406
		c0.426,0.384,1.15,0.768,2.131,1.066l2.685,0.853c1.833,0.597,3.239,1.407,4.177,2.302c0.937,0.895,1.406,2.089,1.406,3.58
		c0,2.089-0.853,3.709-2.558,4.902c-1.704,1.193-3.878,1.79-6.479,1.79c-2.344,0-4.39-0.511-6.137-1.534
		c-1.748-1.023-2.856-2.473-3.283-4.348L504.735,257.398z"/>
	<path fill="#989999" d="M543.348,263.834h-4.433l0.512-2.173c-2.004,1.833-4.519,2.77-7.544,2.77c-2.856,0-5.158-1.066-6.905-3.154
		c-1.748-2.089-2.344-4.774-1.834-8.055c0.512-3.283,1.918-5.968,4.22-8.013s4.945-3.069,7.971-3.069
		c3.752,0,6.308,1.406,7.63,4.177l0.81-3.58h4.433L543.348,263.834z M533.161,260.637c1.833,0,3.58-0.681,5.2-2.046
		c1.619-1.363,2.6-3.111,2.941-5.285c0.341-2.173-0.086-3.921-1.279-5.243c-1.193-1.321-2.685-2.003-4.518-2.003
		c-2.004,0-3.752,0.639-5.243,1.961c-1.492,1.321-2.43,3.069-2.814,5.243c-0.383,2.173,0,3.921,1.109,5.243
		c1.107,1.321,2.642,2.003,4.646,2.003L533.161,260.637z"/>
	<path fill="#989999" d="M570.75,263.834h-4.476l0.512-2.173c-2.089,1.833-4.603,2.77-7.587,2.77c-2.855,0-5.157-1.066-6.905-3.154
		c-1.748-2.089-2.344-4.774-1.833-8.055c0.554-3.283,1.96-5.968,4.262-8.013s4.945-3.069,7.971-3.069
		c3.752,0,6.266,1.406,7.587,4.177l3.027-13.129h4.475L570.75,263.834z M560.478,260.637c1.833,0,3.58-0.681,5.2-2.046
		c1.619-1.363,2.6-3.111,2.941-5.285c0.342-2.173-0.085-3.921-1.236-5.243c-1.15-1.321-2.685-2.003-4.56-2.003
		c-2.004,0-3.751,0.639-5.243,1.961c-1.492,1.321-2.43,3.069-2.814,5.243c-0.341,2.173,0.043,3.921,1.151,5.243
		c1.107,1.321,2.642,2.003,4.603,2.003L560.478,260.637z"/>
	<path fill="#989999" d="M598.28,263.834h-4.433l0.512-2.173c-2.004,1.833-4.519,2.77-7.544,2.77c-2.856,0-5.158-1.066-6.905-3.154
		c-1.748-2.089-2.344-4.774-1.834-8.055c0.512-3.283,1.918-5.968,4.22-8.013s4.945-3.069,7.971-3.069
		c3.752,0,6.308,1.406,7.63,4.177l0.81-3.58h4.433L598.28,263.834z M588.094,260.637c1.833,0,3.58-0.681,5.2-2.046
		c1.619-1.363,2.6-3.111,2.941-5.285c0.341-2.173-0.086-3.921-1.279-5.243c-1.193-1.321-2.685-2.003-4.518-2.003
		c-2.004,0-3.752,0.639-5.243,1.961c-1.492,1.321-2.43,3.069-2.814,5.243c-0.383,2.173,0,3.921,1.108,5.243
		c1.108,1.321,2.642,2.003,4.646,2.003L588.094,260.637z"/>
	<path fill="#989999" d="M608.762,257.398c0.213,1.15,0.81,2.046,1.833,2.685c1.023,0.639,2.174,0.98,3.495,0.98
		c1.322,0,2.387-0.298,3.197-0.853c0.81-0.554,1.236-1.278,1.236-2.13c0-0.981-0.81-1.791-2.429-2.302l-3.922-1.279
		c-3.154-1.023-4.731-2.814-4.731-5.499c0-2.004,0.767-3.623,2.302-4.902c1.535-1.279,3.623-1.918,6.223-1.918
		c2.344,0,4.348,0.555,5.968,1.62c1.619,1.066,2.6,2.429,2.941,4.091l-3.836,1.193c-0.128-1.023-0.639-1.833-1.577-2.472
		c-0.938-0.639-2.089-0.937-3.496-0.937c-1.363,0-2.386,0.256-3.069,0.81c-0.682,0.554-1.023,1.236-1.023,2.046
		c0,0.554,0.213,1.023,0.639,1.406c0.426,0.384,1.15,0.768,2.131,1.066l2.685,0.853c1.833,0.597,3.239,1.407,4.177,2.302
		c0.937,0.895,1.406,2.089,1.406,3.58c0,2.089-0.853,3.709-2.558,4.902c-1.704,1.193-3.878,1.79-6.479,1.79
		c-2.344,0-4.39-0.511-6.137-1.534c-1.748-1.023-2.856-2.473-3.283-4.348L608.762,257.398z"/>
</g>
<g>
	<path fill="#989999" d="M27.231,308.361c0,1.875,0.512,3.324,1.535,4.39c1.023,1.066,2.472,1.578,4.39,1.578
		c2.771,0,4.944-1.279,6.521-3.836l3.921,1.023c-1.023,2.131-2.472,3.751-4.39,4.902c-1.918,1.15-4.007,1.705-6.308,1.705
		c-2.941,0-5.285-0.895-7.075-2.643c-1.791-1.748-2.686-4.091-2.686-7.032c0-3.623,1.279-6.65,3.794-9.079
		c2.515-2.429,5.414-3.666,8.696-3.666c3.111,0,5.541,1.108,7.246,3.367c1.705,2.26,2.26,5.201,1.663,8.823H27.146L27.231,308.361z
		 M35.372,299.623c-1.747,0-3.282,0.511-4.603,1.492c-1.322,0.98-2.259,2.259-2.855,3.835h12.957
		c-0.086-1.705-0.597-3.026-1.577-3.964c-0.981-0.937-2.303-1.406-3.965-1.406L35.372,299.623z"/>
	<path fill="#989999" d="M63.159,295.701c2.855,0,4.901,0.938,6.18,2.814s1.619,4.22,0.98,6.991l-2.77,11.892h-4.433l2.771-12.063
		c0.383-1.747,0.213-3.153-0.555-4.177c-0.767-1.023-1.96-1.534-3.623-1.534c-1.917,0-3.538,0.681-4.858,2.046
		c-1.322,1.363-2.26,3.367-2.856,5.968l-2.259,9.76H47.26l4.902-21.141h4.433l-0.639,2.771c1.833-2.26,4.22-3.367,7.161-3.367
		L63.159,295.701z"/>
	<path fill="#989999" d="M94.225,311.344c0.938,0,1.791-0.299,2.558-0.853c0.767-0.554,1.363-1.364,1.748-2.43l7.203,1.279
		c-0.853,2.643-2.429,4.775-4.731,6.351c-2.302,1.578-4.859,2.387-7.673,2.387c-3.409,0-6.095-1.066-8.098-3.197
		c-2.003-2.131-2.728-4.859-2.216-8.184c0.554-3.367,2.173-6.095,4.816-8.227c2.642-2.131,5.626-3.197,8.951-3.197
		c2.814,0,5.157,0.768,6.991,2.344c1.833,1.578,2.813,3.666,2.898,6.265l-7.673,1.364c-0.042-1.023-0.341-1.833-0.937-2.387
		c-0.597-0.554-1.364-0.853-2.344-0.853c-1.236,0-2.344,0.426-3.282,1.322c-0.938,0.895-1.535,2.003-1.748,3.324
		c-0.213,1.322,0.043,2.43,0.725,3.324c0.681,0.895,1.662,1.322,2.898,1.322L94.225,311.344z"/>
	<path fill="#989999" d="M121.671,295.275c3.367,0,6.095,1.066,8.141,3.197c2.046,2.131,2.814,4.859,2.302,8.184
		c-0.511,3.324-2.089,6.052-4.731,8.184c-2.643,2.131-5.626,3.197-8.952,3.197c-3.367,0-6.095-1.066-8.141-3.197
		c-2.046-2.131-2.771-4.859-2.259-8.141c0.554-3.367,2.089-6.095,4.731-8.227c2.643-2.131,5.627-3.197,8.994-3.197H121.671z
		 M119.242,311.387c1.193,0,2.302-0.469,3.324-1.364c1.023-0.895,1.619-2.003,1.833-3.324c0.213-1.322-0.043-2.429-0.767-3.324
		c-0.725-0.895-1.705-1.364-2.941-1.364c-1.237,0-2.344,0.469-3.325,1.364c-0.98,0.895-1.577,2.003-1.79,3.324
		c-0.213,1.322,0.043,2.429,0.767,3.324c0.725,0.895,1.705,1.364,2.941,1.364H119.242z"/>
	<path fill="#989999" d="M151.204,295.19c2.686,0,4.646,0.853,5.882,2.599c1.237,1.748,1.62,3.965,0.981,6.65l-2.984,12.914h-8.013
		l2.685-11.721c0.256-1.023,0.171-1.833-0.255-2.472c-0.426-0.639-1.108-0.938-2.047-0.938c-1.066,0-1.96,0.383-2.728,1.151
		c-0.767,0.767-1.406,1.833-1.705,3.197l-2.472,10.826h-7.971l4.945-21.524h7.971l-0.426,1.875c1.747-1.662,3.794-2.515,6.137-2.515
		V295.19z"/>
	<path fill="#989999" d="M173.449,295.02l-0.213,0.853h5.285l-1.406,6.223h-5.285l-3.538,15.302h-7.971l3.538-15.302h-2.898
		l1.449-6.223h2.898l0.299-1.364c0.554-2.6,1.875-4.646,3.794-6.138c1.918-1.492,4.22-2.259,6.905-2.259
		c1.662,0,3.069,0.256,4.22,0.767l-1.492,6.351c-0.725-0.298-1.578-0.426-2.558-0.426
		C174.856,292.803,173.833,293.528,173.449,295.02z"/>
	<path fill="#989999" d="M175.918,317.44l4.944-21.525h7.971l-4.944,21.525H175.918z M186.318,285.259
		c1.322,0,2.387,0.426,3.24,1.279c0.853,0.853,1.279,1.875,1.279,3.027c0,1.236-0.426,2.259-1.279,3.069
		c-0.853,0.81-1.918,1.236-3.24,1.236c-1.278,0-2.343-0.426-3.196-1.236c-0.853-0.81-1.279-1.833-1.279-3.069
		c0-1.194,0.426-2.217,1.279-3.069c0.853-0.853,1.918-1.279,3.196-1.279V285.259z"/>
	<path fill="#989999" d="M211.976,317.397h-7.971l0.299-1.279c-1.662,1.279-3.666,1.918-6.011,1.918
		c-2.983,0-5.285-1.066-6.905-3.197c-1.619-2.131-2.173-4.901-1.619-8.268c0.554-3.367,1.961-6.095,4.22-8.184
		s4.944-3.154,8.055-3.154c3.027,0,5.158,1.107,6.394,3.282l0.597-2.642h8.013L211.976,317.397z M197.612,306.613
		c-0.213,1.407,0,2.558,0.681,3.453c0.682,0.895,1.662,1.322,2.941,1.322c1.236,0,2.344-0.469,3.324-1.364
		c0.981-0.895,1.578-2.046,1.791-3.41c0.213-1.321-0.043-2.429-0.725-3.324c-0.681-0.894-1.662-1.363-2.898-1.363
		c-1.279,0-2.386,0.426-3.324,1.321c-0.937,0.895-1.535,2.004-1.748,3.367H197.612z"/>
	<path fill="#989999" d="M234.732,295.19c2.686,0,4.646,0.853,5.882,2.599c1.237,1.748,1.62,3.965,0.981,6.65l-2.984,12.914h-8.013
		l2.685-11.721c0.256-1.023,0.171-1.833-0.255-2.472c-0.426-0.639-1.108-0.938-2.047-0.938c-1.066,0-1.96,0.383-2.728,1.151
		c-0.767,0.767-1.406,1.833-1.705,3.197l-2.472,10.826h-7.971l4.945-21.524h7.971l-0.426,1.875c1.747-1.662,3.794-2.515,6.137-2.515
		V295.19z"/>
	<path fill="#989999" d="M254.249,311.174h9.931l-1.449,6.223h-20.715l1.15-5.115l11.977-10.187h-9.377l1.449-6.223h20.204
		l-1.193,5.243L254.249,311.174z"/>
	<path fill="#989999" d="M289.196,317.397h-7.971l0.299-1.279c-1.662,1.279-3.666,1.918-6.011,1.918
		c-2.983,0-5.285-1.066-6.905-3.197c-1.619-2.131-2.173-4.901-1.619-8.268c0.554-3.367,1.961-6.095,4.22-8.184
		c2.259-2.089,4.944-3.154,8.055-3.154c3.027,0,5.158,1.107,6.394,3.282l0.597-2.642h8.013L289.196,317.397z M274.833,306.613
		c-0.213,1.407,0,2.558,0.681,3.453c0.682,0.895,1.662,1.322,2.941,1.322c1.236,0,2.344-0.469,3.324-1.364
		c0.981-0.895,1.578-2.046,1.791-3.41c0.213-1.321-0.043-2.429-0.725-3.324c-0.681-0.894-1.662-1.363-2.898-1.363
		c-1.279,0-2.386,0.426-3.324,1.321c-0.938,0.895-1.535,2.004-1.748,3.367H274.833z"/>
	<path fill="#989999" d="M310.374,324.642h-5.072l5.2-7.757l-4.22-20.629h4.646l3.07,15.429l10.357-15.429h4.902L310.374,324.642z"
		/>
	<path fill="#989999" d="M356.699,295.616c0.682,0,1.193,0.043,1.535,0.128l-2.217,8.227h-1.236c-4.518,0-7.587,2.003-8.567,6.181
		l-1.662,7.246h-7.971l4.944-21.524h8.013l-0.937,3.964c2.259-2.814,4.944-4.22,8.055-4.22H356.699z"/>
	<path fill="#989999" d="M370.293,295.233c3.452,0,6.095,1.193,7.885,3.58c1.791,2.386,2.344,5.626,1.619,9.76h-15.216
		c0.213,2.216,1.363,3.324,3.495,3.324c1.834,0,3.197-0.724,4.049-2.173l6.948,1.491c-1.151,2.26-2.728,3.965-4.774,5.115
		c-2.047,1.151-4.305,1.705-6.777,1.705c-3.154,0-5.712-0.895-7.63-2.685c-1.918-1.791-2.898-4.22-2.898-7.246
		c0-3.622,1.322-6.692,3.964-9.164c2.643-2.472,5.755-3.708,9.378-3.708H370.293z M372.893,304.184
		c-0.255-1.875-1.321-2.814-3.196-2.814c-1.791,0-3.197,0.938-4.22,2.814H372.893z"/>
	<path fill="#989999" d="M388.319,310.193c0.17,0.725,0.554,1.279,1.15,1.662c0.598,0.384,1.279,0.555,2.047,0.555
		c0.597,0,1.108-0.128,1.492-0.383c0.383-0.256,0.597-0.555,0.597-0.895c0-0.299-0.171-0.555-0.512-0.725
		c-0.341-0.17-0.98-0.383-1.875-0.639l-2.259-0.639c-3.496-0.98-5.285-2.813-5.285-6.01c0-2.344,0.895-4.263,2.685-5.712
		c1.791-1.449,4.22-2.173,7.288-2.173c2.643,0,4.859,0.554,6.65,1.662c1.79,1.107,2.898,2.685,3.367,4.774l-7.076,1.236
		c-0.128-0.639-0.468-1.193-1.023-1.662c-0.554-0.469-1.279-0.682-2.173-0.682c-1.236,0-1.875,0.426-1.875,1.236
		c0,0.598,0.468,1.066,1.449,1.364l2.515,0.767c2.089,0.639,3.58,1.449,4.518,2.472c0.938,1.024,1.407,2.344,1.407,3.922
		c0,2.386-0.938,4.262-2.814,5.626c-1.875,1.363-4.347,2.046-7.46,2.046c-2.599,0-4.858-0.554-6.776-1.619
		c-1.918-1.066-3.111-2.728-3.58-4.987L388.319,310.193z"/>
	<path fill="#989999" d="M425.524,317.44h-7.971l0.426-1.875c-1.747,1.662-3.794,2.515-6.137,2.515c-2.686,0-4.646-0.853-5.882-2.6
		c-1.236-1.748-1.62-3.964-0.981-6.649l2.984-12.915h8.013l-2.685,11.722c-0.256,1.023-0.171,1.833,0.255,2.472
		c0.426,0.639,1.108,0.937,2.047,0.937c1.066,0,1.96-0.383,2.728-1.15c0.767-0.768,1.449-1.834,1.747-3.197l2.473-10.826h7.971
		L425.524,317.44z"/>
	<path fill="#989999" d="M429.527,317.397l7.119-30.689h7.971l-7.119,30.689H429.527z"/>
	<path fill="#989999" d="M452.926,308.574c-0.213,0.81-0.17,1.449,0.086,1.918c0.256,0.469,0.724,0.682,1.406,0.682
		c0.895,0,2.046-0.256,3.453-0.81l0.383,6.223c-1.833,0.98-4.134,1.492-6.905,1.492c-2.6,0-4.519-0.768-5.712-2.302
		c-1.193-1.535-1.535-3.666-0.895-6.351l1.705-7.331h-3.026l1.406-6.223h3.026l1.449-6.181h7.971l-1.406,6.181h5.712l-1.449,6.223
		h-5.669L452.926,308.574z"/>
	<path fill="#989999" d="M483.313,317.397h-7.971l0.299-1.279c-1.662,1.279-3.666,1.918-6.011,1.918
		c-2.983,0-5.285-1.066-6.905-3.197c-1.619-2.131-2.173-4.901-1.619-8.268c0.554-3.367,1.961-6.095,4.22-8.184
		c2.259-2.089,4.944-3.154,8.055-3.154c3.027,0,5.158,1.107,6.394,3.282l0.597-2.642h8.013L483.313,317.397z M468.95,306.613
		c-0.213,1.407,0,2.558,0.681,3.453c0.682,0.895,1.662,1.322,2.941,1.322c1.236,0,2.344-0.469,3.324-1.364
		c0.981-0.895,1.578-2.046,1.791-3.41c0.213-1.321-0.043-2.429-0.725-3.324c-0.681-0.894-1.662-1.363-2.898-1.363
		c-1.279,0-2.386,0.426-3.324,1.321c-0.937,0.895-1.535,2.004-1.748,3.367H468.95z"/>
	<path fill="#989999" d="M510.928,317.397h-7.971l0.299-1.236c-1.705,1.236-3.708,1.875-5.968,1.875
		c-2.983,0-5.284-1.066-6.948-3.197c-1.662-2.131-2.216-4.901-1.662-8.268c0.555-3.367,1.961-6.095,4.22-8.184
		c2.259-2.089,4.945-3.154,8.013-3.154c3.027,0,5.157,1.107,6.394,3.282l2.728-11.807h7.971L510.928,317.397z M496.607,306.613
		c-0.213,1.407,0,2.558,0.681,3.453c0.682,0.895,1.662,1.322,2.941,1.322c1.236,0,2.344-0.469,3.324-1.364
		c0.981-0.895,1.578-2.046,1.791-3.41c0.213-1.321,0-2.429-0.682-3.324c-0.682-0.894-1.662-1.363-2.898-1.363
		c-1.322,0-2.429,0.426-3.367,1.321c-0.937,0.895-1.535,2.004-1.748,3.367H496.607z"/>
	<path fill="#989999" d="M529.934,295.275c3.367,0,6.095,1.066,8.141,3.197c2.046,2.131,2.814,4.859,2.302,8.184
		c-0.511,3.324-2.089,6.052-4.731,8.184c-2.643,2.131-5.626,3.197-8.952,3.197c-3.367,0-6.095-1.066-8.141-3.197
		c-2.046-2.131-2.771-4.859-2.259-8.141c0.554-3.367,2.089-6.095,4.731-8.227c2.643-2.131,5.627-3.197,8.994-3.197H529.934z
		 M527.505,311.387c1.193,0,2.302-0.469,3.324-1.364s1.619-2.003,1.833-3.324s-0.043-2.429-0.767-3.324
		c-0.725-0.895-1.705-1.364-2.941-1.364s-2.344,0.469-3.325,1.364c-0.98,0.895-1.577,2.003-1.79,3.324s0.043,2.429,0.767,3.324
		c0.725,0.895,1.705,1.364,2.941,1.364H527.505z"/>
	<path fill="#989999" d="M548.471,310.193c0.17,0.725,0.554,1.279,1.15,1.662c0.598,0.384,1.279,0.555,2.047,0.555
		c0.597,0,1.107-0.128,1.492-0.383c0.383-0.256,0.597-0.555,0.597-0.895c0-0.299-0.171-0.555-0.512-0.725
		c-0.341-0.17-0.98-0.383-1.875-0.639l-2.259-0.639c-3.496-0.98-5.286-2.813-5.286-6.01c0-2.344,0.895-4.263,2.685-5.712
		c1.791-1.449,4.22-2.173,7.288-2.173c2.643,0,4.859,0.554,6.65,1.662c1.79,1.107,2.898,2.685,3.367,4.774l-7.076,1.236
		c-0.127-0.639-0.468-1.193-1.023-1.662c-0.554-0.469-1.279-0.682-2.173-0.682c-1.236,0-1.875,0.426-1.875,1.236
		c0,0.598,0.468,1.066,1.449,1.364l2.515,0.767c2.089,0.639,3.58,1.449,4.518,2.472c0.938,1.024,1.407,2.344,1.407,3.922
		c0,2.386-0.938,4.262-2.814,5.626c-1.875,1.363-4.347,2.046-7.46,2.046c-2.599,0-4.858-0.554-6.776-1.619
		c-1.918-1.066-3.111-2.728-3.58-4.987L548.471,310.193z"/>
	<path fill="#989999" d="M570.93,310.151c0.853,0.894,1.279,1.917,1.279,3.111c0,1.236-0.426,2.259-1.279,3.069
		c-0.853,0.81-1.918,1.236-3.197,1.236c-1.279,0-2.344-0.426-3.197-1.236c-0.853-0.81-1.279-1.833-1.279-3.069
		c0-1.194,0.426-2.217,1.279-3.111c0.853-0.895,1.918-1.322,3.197-1.322C569.011,308.83,570.077,309.256,570.93,310.151z"/>
</g>
</svg>
