<?xml version="1.0" encoding="UTF-8"?>
<svg id="Layer_1" data-name="Layer 1" xmlns="http://www.w3.org/2000/svg" version="1.1" viewBox="0 0 300 300">
  <path d="M33.946,245.496h4.524v2.198c-.593,1.091-2.567,2.775-5.464,2.775-3.584,0-6.086-2.563-6.086-6.232,0-3.69,2.446-6.17,6.086-6.17,3.489,0,4.873,2.28,5.215,2.979l.074.151,1.544-.441-.091-.211c-.848-1.944-3.063-4.021-6.741-4.021-4.528,0-7.692,3.18-7.692,7.733,0,4.48,3.209,7.733,7.629,7.733,2.913,0,4.702-1.409,5.558-2.328-.005.337-.011.894-.011,1.878v.201h1.501v-7.768h-6.045v1.522Z" fill="#ac1f2d" stroke-width="0"/>
  <path d="M50.497,236.524c-4.457,0-7.692,3.252-7.692,7.733s3.235,7.733,7.692,7.733,7.691-3.252,7.691-7.733-3.235-7.733-7.691-7.733M56.584,244.257c0,3.657-2.503,6.211-6.086,6.211s-6.087-2.554-6.087-6.211,2.503-6.19,6.087-6.19,6.086,2.545,6.086,6.19" fill="#ac1f2d" stroke-width="0"/>
  <path d="M69.127,243.709c1.015-.447,1.926-1.45,1.926-3.166,0-2.23-1.823-3.728-4.538-3.728h-5.118v14.927h5.658c3.179,0,5.077-1.572,5.077-4.206,0-2.367-1.675-3.456-3.005-3.827M62.981,243.186v-4.911h3.327c1.966,0,3.14.902,3.14,2.414,0,1.563-1.104,2.497-2.953,2.497h-3.513ZM70.486,247.515c0,2.407-2.175,2.766-3.472,2.766h-4.033v-5.72h3.991c1.692,0,3.513.924,3.513,2.953" fill="#ac1f2d" stroke-width="0"/>
  <rect x="75.32" y="236.815" width="1.584" height="14.926" fill="#ac1f2d" stroke-width="0"/>
  <polygon points="82.568 244.666 89.167 244.666 89.167 243.123 82.568 243.123 82.568 238.337 90.931 238.337 90.931 236.815 80.984 236.815 80.984 251.741 90.951 251.741 90.951 250.219 82.568 250.219 82.568 244.666" fill="#ac1f2d" stroke-width="0"/>
  <path d="M104.251,241.436c0-2.893-2.06-4.621-5.513-4.621h-4.35v14.926h1.584v-5.955h3.232l3.465,5.955h1.921l-3.709-6.223c2.206-.499,3.369-1.905,3.369-4.082M95.972,238.337h2.766c1.783,0,3.908.544,3.908,3.14,0,1.959-1.237,2.912-3.783,2.912h-2.891v-6.052Z" fill="#ac1f2d" stroke-width="0"/>
  <path d="M109.252,242.307c0-1.088-.023-2.13-.044-2.855l8.87,12.289h1.507v-14.926h-1.585v9.393c0,.841.01,1.809.029,2.777l-8.856-12.169h-1.506v14.926h1.585v-9.434Z" fill="#ac1f2d" stroke-width="0"/>
  <path d="M130.485,236.524c-4.456,0-7.691,3.252-7.691,7.733s3.235,7.733,7.691,7.733,7.692-3.252,7.692-7.733-3.235-7.733-7.692-7.733M136.572,244.257c0,3.657-2.503,6.211-6.087,6.211s-6.086-2.554-6.086-6.211,2.503-6.19,6.086-6.19,6.087,2.545,6.087,6.19" fill="#ac1f2d" stroke-width="0"/>
  <path d="M152.501,236.815h-4.891v14.926h5.056c4.651,0,7.774-2.974,7.774-7.401,0-4.501-3.191-7.525-7.94-7.525M158.836,244.34c0,3.572-2.438,5.879-6.211,5.879h-3.431v-11.882h3.264c3.874,0,6.377,2.357,6.377,6.003" fill="#ac1f2d" stroke-width="0"/>
  <polygon points="165.234 244.666 171.832 244.666 171.832 243.123 165.234 243.123 165.234 238.337 173.595 238.337 173.595 236.815 163.649 236.815 163.649 251.741 173.616 251.741 173.616 250.219 165.234 250.219 165.234 244.666" fill="#ac1f2d" stroke-width="0"/>
  <path d="M197.098,247.381l-1.549-.415-.071.151c-.989,2.098-3.031,3.35-5.462,3.35-3.535,0-6.003-2.562-6.003-6.232,0-3.748,2.373-6.17,6.044-6.17,3.362,0,4.767,2.084,5.215,2.981l.074.149,1.543-.441-.092-.21c-.846-1.944-3.062-4.022-6.741-4.022-4.504,0-7.65,3.171-7.65,7.712,0,4.565,3.146,7.754,7.65,7.754,3.165,0,5.763-1.644,6.949-4.396l.092-.213Z" fill="#ac1f2d" stroke-width="0"/>
  <polygon points="210.232 243.123 201.96 243.123 201.96 236.815 200.375 236.815 200.375 251.741 201.96 251.741 201.96 244.666 210.232 244.666 210.232 251.741 211.836 251.741 211.836 236.815 210.232 236.815 210.232 243.123" fill="#ac1f2d" stroke-width="0"/>
  <rect x="215.896" y="236.815" width="1.584" height="14.926" fill="#ac1f2d" stroke-width="0"/>
  <path d="M226.797,236.815l-6.525,14.927h1.705l1.847-4.254h7.435l1.846,4.254h1.725l-6.504-14.927h-1.529ZM230.626,245.986h-6.152l1.642-3.787c.262-.606.606-1.419.909-2.131.201-.472.395-.928.525-1.231.112.264.272.643.437,1.034.322.762.711,1.682.997,2.348l1.642,3.766Z" fill="#ac1f2d" stroke-width="0"/>
  <path d="M241.93,236.815h-4.309v14.926h1.585v-5.748h2.725c3.504,0,5.513-1.676,5.513-4.599,0-2.953-1.958-4.579-5.513-4.579M245.858,241.415c0,2.042-1.315,3.077-3.908,3.077h-2.746v-6.155h2.746c2.593,0,3.908,1.035,3.908,3.078" fill="#ac1f2d" stroke-width="0"/>
  <path d="M253.854,236.815l-6.525,14.927h1.705l1.847-4.254h7.435l1.847,4.254h1.725l-6.504-14.927h-1.529ZM257.683,245.986h-6.152l1.642-3.787c.258-.6.599-1.4.899-2.106.205-.483.403-.949.535-1.256.11.259.266.629.428,1.011.323.767.717,1.698,1.007,2.371l1.642,3.766Z" fill="#ac1f2d" stroke-width="0"/>
  <path d="M269.628,243.334c-2.189-.437-3.864-.924-3.864-2.832,0-1.61,1.182-2.497,3.327-2.497,2.128,0,3.417.891,3.83,2.647l.048.201,1.551-.415-.046-.191c-.585-2.401-2.496-3.722-5.383-3.722-3.088,0-4.932,1.51-4.932,4.04,0,3.155,2.931,3.797,4.679,4.179.217.05.446.096.679.144,1.671.339,3.565.723,3.565,2.897,0,2.252-1.934,2.725-3.555,2.725-1.231,0-4.11-.309-4.261-3.171l-.013-.248-1.548.422.02.171c.422,3.748,3.79,4.307,5.76,4.307,3.354,0,5.202-1.501,5.202-4.226,0-3.466-3.045-4.046-5.059-4.43" fill="#ac1f2d" stroke-width="0"/>
  <path d="M98.253,269.318l2.212-1.757c1.513-1.189,2.233-1.982,2.233-3.279,0-1.707-1.215-2.809-3.095-2.809-1.782,0-2.956.911-3.139,2.438l-.021.173,1.188.319.017-.243c.032-.465.278-1.547,1.88-1.547,1.42,0,1.925.862,1.925,1.669,0,.79-.425,1.386-1.748,2.451l-3.198,2.518v1.233h6.236v-1.171h-3.774c-.282,0-.524.002-.717.005" fill="#ac1f2d" stroke-width="0"/>
  <path d="M110.157,261.474c-2.258,0-3.502,1.629-3.502,4.588s1.244,4.604,3.502,4.604c2.226,0,3.503-1.678,3.503-4.604s-1.277-4.588-3.503-4.588M112.414,266.062c0,2.268-.76,3.418-2.257,3.418-1.529,0-2.271-1.118-2.271-3.418s.743-3.403,2.271-3.403c1.519,0,2.257,1.113,2.257,3.403" fill="#ac1f2d" stroke-width="0"/>
  <path d="M119.347,269.318l2.212-1.757c1.513-1.189,2.233-1.982,2.233-3.279,0-1.707-1.215-2.809-3.095-2.809-1.782,0-2.956.911-3.14,2.438l-.021.173,1.188.319.017-.243c.032-.465.278-1.547,1.88-1.547,1.42,0,1.925.862,1.925,1.669,0,.79-.425,1.386-1.748,2.451l-3.198,2.518v1.233h6.236v-1.171h-3.774c-.282,0-.523.002-.716.005" fill="#ac1f2d" stroke-width="0"/>
  <path d="M133.352,261.639h-1.507l-4.172,5.47v1.053h4.448v2.321h1.231v-2.321h1.266v-1.141h-1.266v-5.383ZM129.087,267.022l3.034-3.897v3.897h-3.034Z" fill="#ac1f2d" stroke-width="0"/>
  <rect x="146.294" y="265.318" width="7.292" height="1.156" fill="#ac1f2d" stroke-width="0"/>
  <path d="M167.083,269.318l2.212-1.757c1.513-1.189,2.233-1.982,2.233-3.279,0-1.707-1.215-2.809-3.096-2.809-1.782,0-2.955.911-3.139,2.438l-.021.173,1.188.319.017-.243c.031-.465.278-1.547,1.88-1.547,1.42,0,1.925.862,1.925,1.669,0,.79-.425,1.386-1.748,2.451l-3.197,2.518v1.233h6.236v-1.171h-3.774c-.282,0-.523.002-.716.005" fill="#ac1f2d" stroke-width="0"/>
  <path d="M178.987,261.474c-2.258,0-3.503,1.629-3.503,4.588s1.244,4.604,3.503,4.604c2.226,0,3.503-1.678,3.503-4.604s-1.277-4.588-3.503-4.588M181.244,266.062c0,2.268-.76,3.418-2.257,3.418-1.529,0-2.272-1.118-2.272-3.418s.743-3.403,2.272-3.403c1.519,0,2.257,1.113,2.257,3.403" fill="#ac1f2d" stroke-width="0"/>
  <path d="M191.417,265.851c.678-.313,1.235-.982,1.235-2.006,0-1.485-1.112-2.371-2.975-2.371s-3.014.864-3.229,2.435l-.024.174,1.143.32.032-.228c.102-.734.421-1.576,1.987-1.576.837,0,1.835.24,1.835,1.383,0,.897-.633,1.352-1.88,1.352h-.985v1.08h1c.892,0,1.955.25,1.955,1.443,0,.799-.502,1.654-1.91,1.654-1.22,0-2.022-.625-2.199-1.716l-.036-.222-1.125.321.025.173c.227,1.555,1.561,2.6,3.32,2.6,1.858,0,3.156-1.118,3.156-2.719,0-.995-.504-1.764-1.326-2.094" fill="#ac1f2d" stroke-width="0"/>
  <path d="M200.036,261.474c-2.259,0-3.503,1.629-3.503,4.588s1.244,4.604,3.503,4.604c2.226,0,3.503-1.678,3.503-4.604s-1.277-4.588-3.503-4.588M202.292,266.062c0,2.268-.76,3.418-2.256,3.418-1.529,0-2.272-1.118-2.272-3.418s.743-3.403,2.272-3.403c1.518,0,2.256,1.113,2.256,3.403" fill="#ac1f2d" stroke-width="0"/>
  <rect x="72.547" y="48.642" width="47.135" height="10.339" transform="translate(-9.898 83.729) rotate(-45.002)" fill="#009685" stroke-width="0"/>
  <polygon points="79.715 121.121 45.466 86.873 95.693 36.645 88.383 29.335 30.845 86.873 72.404 128.431 79.715 121.121" fill="#009685" stroke-width="0"/>
  <polygon points="121.565 45.948 88.243 79.27 95.554 86.58 121.565 60.569 121.565 45.948" fill="#009685" stroke-width="0"/>
  <rect x="198.717" y="30.244" width="10.339" height="47.135" transform="translate(21.662 159.923) rotate(-44.998)" fill="#009685" stroke-width="0"/>
  <polygon points="220.286 121.121 254.535 86.873 204.307 36.645 211.617 29.335 269.156 86.873 227.597 128.431 220.286 121.121" fill="#009685" stroke-width="0"/>
  <polygon points="178.436 45.948 211.757 79.27 204.447 86.58 178.436 60.569 178.436 45.948" fill="#009685" stroke-width="0"/>
  <path d="M150.007,127.029l-18.028-18.027,18.028-18.027,18.027,18.027-18.027,18.027ZM140.508,109.002l9.499,9.498,9.498-9.498-9.498-9.498-9.499,9.498Z" fill="#009685" stroke-width="0"/>
  <polygon points="151.779 107.009 151.779 102.596 150.007 102.596 148.235 102.596 148.235 107.009 143.821 107.009 143.821 110.553 148.235 110.553 148.235 114.966 151.779 114.966 151.779 110.553 156.192 110.553 156.192 107.009 151.779 107.009" fill="#009685" stroke-width="0"/>
  <polygon points="150.007 141.309 100.35 91.651 125.517 66.484 147.666 88.633 129.638 106.661 114.357 91.38 125.406 80.331 134.013 88.939 129.748 93.204 125.406 88.86 122.886 91.38 129.638 98.131 139.137 88.633 125.517 75.013 108.879 91.651 150.007 132.78 191.135 91.651 174.497 75.013 160.877 88.633 170.375 98.131 177.128 91.38 174.608 88.86 170.265 93.204 166.001 88.939 174.608 80.331 185.657 91.38 170.375 106.661 152.348 88.633 174.497 66.484 199.664 91.651 150.007 141.309" fill="#c71d68" stroke-width="0"/>
  <path d="M16.779,223.114h118.666v-2.442H16.779v2.442ZM164.555,223.114h118.666v-2.442h-118.666v2.442Z" fill="#009685" stroke-width="0"/>
  <path d="M150,230.831l-8.938-8.938,8.938-8.938,8.938,8.938-8.938,8.938ZM145.342,221.893l4.659,4.659,4.658-4.659-4.658-4.659-4.659,4.659Z" fill="#e91177" stroke-width="0"/>
  <polygon points="153.074 221.012 150.881 221.012 150.881 218.82 149.12 218.82 149.12 221.012 146.927 221.012 146.927 222.773 149.12 222.773 149.12 224.966 150.881 224.966 150.881 222.773 153.074 222.773 153.074 221.012" fill="#009685" stroke-width="0"/>
  <polygon points="39.393 150.871 39.393 172.737 34.145 172.737 34.145 164.241 25.962 164.241 25.962 172.737 20.714 172.737 20.714 150.871 25.962 150.871 25.962 159.337 34.145 159.337 34.145 150.871 39.393 150.871" fill="#ac1f2d" stroke-width="0"/>
  <path d="M61.916,150.871l-.031,12.213c0,1.666-.229,3.113-.687,4.342-.458,1.25-1.114,2.311-1.968,3.186-.854.874-1.864,1.53-3.03,1.968-1.208.416-2.52.625-3.936.625-1.437,0-2.759-.209-3.967-.625-1.166-.437-2.176-1.093-3.03-1.968-.833-.875-1.489-1.937-1.968-3.186-.458-1.229-.687-2.687-.687-4.373v-12.152h5.248v12.026c0,1.916.375,3.29,1.125,4.123.749.833,1.843,1.249,3.28,1.249s2.53-.427,3.28-1.281c.749-.854,1.125-2.228,1.125-4.123v-12.026h5.247Z" fill="#ac1f2d" stroke-width="0"/>
  <path d="M86.968,150.871v21.865h-5.154v-5.31c0-2.582.031-4.519.094-5.81.042-.75.068-1.234.078-1.453.011-.219.005-.38-.015-.484h-.031l-.281.469c-.063.125-.177.312-.344.562-.167.25-.272.416-.313.5-.062.083-.172.26-.328.531-.156.271-.276.469-.359.594-.209.354-.333.572-.375.656l-2.561,4.373h-2.718l-2.561-4.373c-.021-.083-.146-.302-.375-.656-.083-.125-.203-.323-.359-.594-.156-.27-.265-.447-.328-.531-.063-.083-.172-.25-.328-.5-.156-.25-.266-.437-.328-.562l-.281-.469h-.032v.484c0,.198.021.672.063,1.421.063,1.271.094,3.207.094,5.81v5.341h-5.154v-21.865h4.935l4.092,6.622c.145.25.328.552.546.906.219.354.359.583.422.687.271.458.458.781.562.969.104.208.198.375.281.5l.094.124h.032l.094-.124c.083-.125.177-.292.281-.5.104-.188.292-.511.562-.969.063-.104.203-.333.422-.687.219-.354.401-.656.547-.906l4.092-6.622h4.935Z" fill="#ac1f2d" stroke-width="0"/>
  <path d="M103.649,169.332h-8.653l-1.249,3.405h-5.623l8.715-21.834h4.967l8.747,21.834h-5.654l-1.249-3.405ZM102.025,164.709l-1.624-4.217c-.125-.312-.25-.656-.375-1.031-.021-.063-.125-.406-.312-1.031-.021-.083-.063-.219-.125-.406-.063-.187-.104-.322-.125-.406l-.094-.344h-.032l-.094.312c-.021.083-.063.214-.125.391-.063.177-.104.318-.125.422-.188.624-.292.968-.313,1.031-.125.375-.25.718-.375,1.031l-1.562,4.248h5.279Z" fill="#ac1f2d" stroke-width="0"/>
  <path d="M131.419,150.871v21.96h-4.935l-4.467-6.06c-.5-.687-1.031-1.437-1.593-2.249-.562-.812-1.093-1.561-1.594-2.249-.166-.229-.39-.541-.671-.937-.281-.396-.474-.667-.578-.813l-.5-.687h-.031v12.932h-5.248v-21.834h4.935l4.654,6.247c.562.771,1,1.375,1.312,1.812.125.187.369.531.734,1.031s.64.885.828,1.156c.396.583.833,1.187,1.312,1.812l.562.749h.031v-12.869h5.248Z" fill="#ac1f2d" stroke-width="0"/>
  <rect x="135.044" y="150.871" width="5.248" height="21.865" fill="#ac1f2d" stroke-width="0"/>
  <path d="M154.629,157.806h-.125c-.27-.958-.77-1.676-1.499-2.155-.708-.458-1.458-.687-2.249-.687s-1.396.167-1.812.5c-.437.354-.656.739-.656,1.156,0,.354.125.656.375.906.271.271.615.511,1.031.718.521.25,1.031.458,1.53.625.583.187,1.208.406,1.874.656.833.291,1.635.635,2.405,1.031.813.417,1.52.885,2.124,1.406.625.521,1.125,1.145,1.499,1.874.375.729.562,1.552.562,2.468,0,1.02-.198,1.937-.593,2.749-.396.833-.969,1.561-1.718,2.186-.729.604-1.635,1.083-2.718,1.437-1.062.313-2.228.469-3.498.469-2.311,0-4.238-.583-5.779-1.75-1.582-1.207-2.728-2.832-3.436-4.873l5.029-1.343c.145.354.354.76.624,1.218.229.375.541.729.938,1.062.375.313.801.562,1.281.75.479.187,1.01.281,1.593.281.937,0,1.624-.188,2.062-.562.437-.375.656-.833.656-1.375,0-.458-.156-.822-.469-1.093-.333-.312-.739-.583-1.218-.812-.562-.271-1.156-.511-1.781-.718-.603-.188-1.333-.437-2.186-.75-.667-.25-1.322-.531-1.968-.844-.646-.312-1.239-.718-1.781-1.218s-.979-1.093-1.312-1.781c-.333-.666-.5-1.489-.5-2.467,0-.833.208-1.645.625-2.436.416-.792.979-1.479,1.686-2.062.708-.583,1.573-1.052,2.593-1.406s2.113-.531,3.279-.531c1.041,0,2.031.156,2.968.468.958.313,1.801.729,2.53,1.25.749.521,1.384,1.156,1.905,1.905.562.792.958,1.583,1.187,2.374l-5.06,1.374Z" fill="#ac1f2d" stroke-width="0"/>
  <path d="M183.68,150.871v21.865h-5.154v-5.31c0-2.582.031-4.519.094-5.81.042-.75.068-1.234.078-1.453.011-.219.005-.38-.015-.484h-.031l-.281.469c-.063.125-.177.312-.344.562-.167.25-.272.416-.313.5-.062.083-.172.26-.328.531-.156.271-.276.469-.359.594-.209.354-.334.572-.375.656l-2.561,4.373h-2.718l-2.561-4.373c-.021-.083-.146-.302-.375-.656-.083-.125-.203-.323-.359-.594-.156-.27-.265-.447-.328-.531-.063-.083-.172-.25-.328-.5-.156-.25-.266-.437-.328-.562l-.281-.469h-.032v.484c0,.198.021.672.063,1.421.063,1.271.094,3.207.094,5.81v5.341h-5.154v-21.865h4.935l4.092,6.622c.145.25.328.552.546.906.219.354.359.583.422.687.271.458.458.781.562.969.104.208.198.375.281.5l.094.124h.032l.094-.124c.083-.125.177-.292.281-.5.104-.188.291-.511.562-.969.063-.104.203-.333.422-.687.219-.354.401-.656.547-.906l4.092-6.622h4.935Z" fill="#ac1f2d" stroke-width="0"/>
  <path d="M185.804,161.929c0-1.624.302-3.155.906-4.592.604-1.417,1.416-2.624,2.436-3.624s2.228-1.781,3.624-2.343c1.374-.562,2.843-.844,4.404-.844s3.03.281,4.405.844c1.395.562,2.603,1.343,3.624,2.343,1.041,1,1.853,2.197,2.436,3.592.604,1.437.906,2.968.906,4.592,0,1.687-.292,3.218-.875,4.592-.583,1.395-1.395,2.592-2.436,3.592-1.02,1-2.228,1.781-3.623,2.343-1.396.541-2.863.812-4.405.812s-3.009-.27-4.405-.812c-1.353-.562-2.551-1.343-3.592-2.343-1.02-1-1.833-2.207-2.436-3.624-.583-1.374-.875-2.905-.875-4.592l-.094.063ZM191.365,161.867c0,.895.146,1.729.437,2.499.271.75.667,1.395,1.187,1.937.479.5,1.093.916,1.843,1.25.729.312,1.53.468,2.405.468.917,0,1.729-.156,2.436-.468.708-.313,1.333-.739,1.875-1.281.521-.521.926-1.166,1.218-1.937.291-.771.437-1.604.437-2.499,0-.937-.135-1.77-.406-2.499-.291-.771-.698-1.417-1.218-1.937-.541-.541-1.166-.968-1.874-1.28-.729-.313-1.541-.469-2.436-.469s-1.697.156-2.405.469c-.749.333-1.364.749-1.843,1.249-.521.541-.916,1.187-1.187,1.937-.271.729-.406,1.562-.406,2.499l-.063.063Z" fill="#ac1f2d" stroke-width="0"/>
  <path d="M224.758,172.893l-.031.063c-1.229-.25-2.385-.708-3.468-1.375-1.041-.645-1.957-1.458-2.748-2.436-.771-.937-1.374-2.03-1.812-3.28-.437-1.207-.656-2.52-.656-3.936,0-1.624.302-3.155.906-4.592.604-1.416,1.416-2.624,2.436-3.624,1.02-1,2.228-1.781,3.624-2.343,1.374-.562,2.843-.844,4.405-.844s3.03.281,4.404.844c1.396.562,2.603,1.343,3.624,2.343,1.041,1,1.853,2.197,2.436,3.592.604,1.437.906,2.968.906,4.592,0,1.395-.219,2.707-.656,3.936-.437,1.187-1.052,2.28-1.843,3.28-.771.958-1.697,1.77-2.78,2.436-1.083.667-2.249,1.125-3.498,1.374v3.967h-5.248v-3.998ZM227.444,168.052c.916,0,1.729-.156,2.436-.469.708-.312,1.333-.739,1.874-1.28.521-.521.927-1.166,1.218-1.937.292-.77.438-1.603.438-2.499,0-.937-.136-1.77-.406-2.499-.292-.77-.698-1.416-1.218-1.937-.541-.541-1.166-.968-1.874-1.281-.729-.312-1.541-.468-2.437-.468s-1.697.156-2.405.468c-.75.334-1.364.75-1.843,1.25-.521.541-.916,1.187-1.187,1.937-.27.729-.406,1.562-.406,2.499,0,.895.145,1.728.437,2.499.27.749.666,1.395,1.187,1.937.479.5,1.094.916,1.843,1.25.729.312,1.531.468,2.405.468l-.063.063Z" fill="#ac1f2d" stroke-width="0"/>
  <path d="M260.056,150.871l-.031,12.213c0,1.666-.229,3.113-.687,4.342-.458,1.25-1.114,2.311-1.968,3.186-.854.874-1.864,1.53-3.03,1.968-1.208.416-2.52.625-3.936.625-1.437,0-2.759-.209-3.967-.625-1.166-.437-2.176-1.093-3.03-1.968-.833-.875-1.489-1.937-1.968-3.186-.458-1.229-.687-2.687-.687-4.373v-12.152h5.248v12.026c0,1.916.375,3.29,1.125,4.123.749.833,1.843,1.249,3.28,1.249s2.53-.427,3.28-1.281c.749-.854,1.124-2.228,1.124-4.123v-12.026h5.248Z" fill="#ac1f2d" stroke-width="0"/>
  <polygon points="279.361 167.833 279.361 172.737 263.274 172.737 263.274 150.871 279.173 150.871 279.173 155.776 268.522 155.776 268.522 159.368 276.862 159.368 276.862 163.96 268.522 163.96 268.522 167.833 279.361 167.833" fill="#ac1f2d" stroke-width="0"/>
  <polygon points="41.607 178.293 41.607 184.462 33.237 184.462 33.237 205.799 26.636 205.799 26.636 184.462 18.384 184.462 18.384 178.293 41.607 178.293" fill="#ac1f2d" stroke-width="0"/>
  <path d="M58.543,205.839l-5.148-8.92h-3.379v8.92h-6.601v-27.467h10.256c1.755,0,3.314.236,4.676.707,1.415.498,2.581,1.14,3.497,1.926.969.838,1.703,1.82,2.201,2.947.524,1.179.786,2.463.786,3.851,0,1.86-.432,3.458-1.296,4.794-.891,1.362-2.122,2.41-3.694,3.143l6.091,10.099h-7.388ZM50.094,190.985l4.519.079c.55,0,1.061-.105,1.533-.315.419-.183.773-.445,1.061-.786.288-.315.485-.668.589-1.061.131-.446.197-.826.197-1.14,0-.419-.052-.799-.157-1.14-.131-.393-.327-.747-.589-1.061-.288-.341-.642-.603-1.061-.786-.472-.209-.982-.314-1.533-.314h-4.558v6.523Z" fill="#ac1f2d" stroke-width="0"/>
  <path d="M85.066,201.516h-10.884l-1.572,4.283h-7.073l10.964-27.467h6.248l11.003,27.467h-7.113l-1.572-4.283ZM83.023,195.701l-2.043-5.305c-.157-.393-.314-.826-.472-1.297-.026-.079-.157-.511-.393-1.297-.026-.105-.078-.275-.157-.511s-.131-.406-.157-.511l-.118-.432h-.039l-.118.393c-.026.105-.079.269-.157.491-.079.223-.131.4-.157.531-.236.786-.367,1.218-.393,1.297-.157.471-.315.904-.472,1.297l-1.965,5.344h6.641Z" fill="#ac1f2d" stroke-width="0"/>
  <path d="M119.999,178.293v27.625h-6.209l-5.619-7.623c-.628-.864-1.297-1.808-2.004-2.83-.708-1.022-1.375-1.965-2.004-2.829-.21-.288-.491-.681-.845-1.179-.353-.498-.596-.839-.727-1.022l-.629-.865h-.039v16.268h-6.602v-27.467h6.209l5.855,7.859c.707.969,1.258,1.729,1.65,2.279.157.236.465.668.924,1.297.458.629.805,1.113,1.041,1.454.497.733,1.048,1.493,1.65,2.279l.708.943h.039v-16.19h6.601Z" fill="#ac1f2d" stroke-width="0"/>
  <path d="M138.035,187.016h-.157c-.341-1.205-.969-2.109-1.886-2.712-.891-.576-1.834-.864-2.83-.864s-1.755.21-2.279.629c-.55.445-.825.93-.825,1.453,0,.446.157.826.471,1.14.341.341.773.642,1.297.904.655.314,1.297.576,1.926.786.733.236,1.519.511,2.358.825,1.048.367,2.056.799,3.026,1.297,1.022.524,1.912,1.113,2.672,1.769.786.655,1.415,1.44,1.886,2.358.472.917.708,1.951.708,3.104,0,1.284-.249,2.436-.747,3.458-.497,1.048-1.218,1.965-2.161,2.751-.917.76-2.056,1.362-3.419,1.807-1.336.393-2.803.589-4.401.589-2.908,0-5.331-.733-7.27-2.2-1.991-1.519-3.432-3.563-4.322-6.13l6.326-1.69c.183.446.446.956.786,1.533.288.471.681.917,1.179,1.336.471.393,1.009.707,1.611.943.603.236,1.271.354,2.005.354,1.178,0,2.043-.236,2.593-.708.55-.471.826-1.048.826-1.729,0-.577-.197-1.035-.59-1.375-.419-.393-.93-.734-1.533-1.022-.707-.341-1.453-.642-2.24-.904-.759-.235-1.676-.55-2.75-.943-.839-.314-1.664-.668-2.476-1.061-.813-.393-1.559-.904-2.24-1.533-.681-.628-1.231-1.375-1.651-2.24-.419-.838-.628-1.873-.628-3.104,0-1.048.261-2.069.786-3.065.524-.995,1.231-1.86,2.122-2.594s1.978-1.323,3.261-1.769c1.284-.445,2.659-.668,4.126-.668,1.31,0,2.554.197,3.733.59,1.205.393,2.266.917,3.183,1.571.943.655,1.742,1.454,2.397,2.397.707.995,1.205,1.991,1.493,2.987l-6.366,1.729Z" fill="#ac1f2d" stroke-width="0"/>
  <polygon points="153.713 184.462 153.713 189.845 163.812 189.845 163.812 195.779 153.713 195.779 153.713 205.8 147.112 205.8 147.112 178.293 166.72 178.293 166.72 184.462 153.713 184.462" fill="#ac1f2d" stroke-width="0"/>
  <path d="M167.702,192.203c0-2.043.38-3.969,1.14-5.776.76-1.782,1.781-3.301,3.065-4.558,1.284-1.257,2.803-2.24,4.558-2.947,1.729-.707,3.576-1.061,5.541-1.061s3.811.354,5.541,1.061c1.755.708,3.275,1.69,4.558,2.947,1.31,1.258,2.332,2.763,3.065,4.519.76,1.807,1.139,3.733,1.139,5.776,0,2.122-.366,4.047-1.1,5.776-.733,1.756-1.755,3.261-3.065,4.519-1.284,1.257-2.803,2.24-4.558,2.947-1.756.681-3.602,1.022-5.541,1.022s-3.786-.341-5.541-1.022c-1.703-.708-3.209-1.69-4.519-2.947-1.284-1.258-2.305-2.777-3.065-4.558-.733-1.729-1.1-3.655-1.1-5.776l-.118.079ZM174.697,192.125c0,1.126.183,2.174.55,3.143.34.943.838,1.756,1.493,2.436.603.629,1.375,1.153,2.318,1.572.917.393,1.926.589,3.026.589,1.153,0,2.174-.196,3.065-.589.891-.393,1.677-.93,2.358-1.611.655-.655,1.166-1.467,1.533-2.436.366-.969.55-2.017.55-3.143,0-1.179-.17-2.227-.511-3.143-.367-.97-.878-1.782-1.533-2.436-.681-.681-1.467-1.218-2.358-1.611-.917-.393-1.938-.589-3.065-.589s-2.136.196-3.026.589c-.943.419-1.716.943-2.318,1.572-.655.681-1.153,1.493-1.493,2.436-.341.917-.511,1.965-.511,3.143l-.079.079Z" fill="#ac1f2d" stroke-width="0"/>
  <path d="M214.384,205.839l-5.148-8.92h-3.379v8.92h-6.601v-27.467h10.256c1.755,0,3.314.236,4.676.707,1.415.498,2.581,1.14,3.497,1.926.969.838,1.703,1.82,2.2,2.947.524,1.179.786,2.463.786,3.851,0,1.86-.432,3.458-1.297,4.794-.891,1.362-2.122,2.41-3.693,3.143l6.091,10.099h-7.388ZM205.936,190.985l4.519.079c.55,0,1.061-.105,1.533-.315.419-.183.773-.445,1.061-.786.288-.315.485-.668.589-1.061.131-.446.197-.826.197-1.14,0-.419-.052-.799-.157-1.14-.13-.393-.327-.747-.589-1.061-.288-.341-.642-.603-1.061-.786-.472-.209-.982-.314-1.533-.314h-4.558v6.523Z" fill="#ac1f2d" stroke-width="0"/>
  <path d="M251.95,178.293v27.507h-6.484v-6.68c0-3.248.039-5.685.117-7.309.052-.943.085-1.552.098-1.827.013-.275.007-.478-.02-.609h-.039l-.353.589c-.079.157-.223.393-.432.707-.21.314-.341.524-.393.629-.079.105-.216.328-.412.668-.197.341-.347.59-.452.747-.262.445-.419.72-.471.825l-3.223,5.501h-3.419l-3.222-5.501c-.026-.105-.183-.38-.472-.825-.105-.157-.255-.406-.452-.747-.197-.34-.334-.563-.413-.668-.079-.105-.216-.315-.413-.629-.196-.314-.334-.55-.412-.707l-.354-.589h-.039v.609c0,.249.026.845.079,1.788.079,1.598.118,4.035.118,7.309v6.719h-6.483v-27.507h6.208l5.148,8.331c.183.314.412.694.687,1.14.275.445.452.733.531.864.341.577.576.982.707,1.218.131.262.249.472.354.629l.118.157h.039l.118-.157c.105-.157.222-.367.353-.629.131-.236.367-.642.708-1.218.079-.131.255-.419.53-.864.275-.446.505-.825.688-1.14l5.147-8.331h6.209Z" fill="#ac1f2d" stroke-width="0"/>
  <path d="M272.933,201.516h-10.884l-1.572,4.283h-7.073l10.964-27.467h6.248l11.003,27.467h-7.113l-1.572-4.283ZM270.889,195.701l-2.043-5.305c-.157-.393-.314-.826-.472-1.297-.026-.079-.157-.511-.393-1.297-.026-.105-.078-.275-.157-.511s-.131-.406-.157-.511l-.118-.432h-.039l-.118.393c-.026.105-.079.269-.157.491-.079.223-.131.4-.157.531-.235.786-.366,1.218-.393,1.297-.157.471-.315.904-.472,1.297l-1.965,5.344h6.641Z" fill="#ac1f2d" stroke-width="0"/>
</svg>