<?xml version="1.0" encoding="utf-8"?>
<!-- Generator: Adobe Illustrator 28.4.0, SVG Export Plug-In . SVG Version: 6.00 Build 0)  -->
<svg version="1.1" baseProfile="tiny" id="Layer_1" xmlns="http://www.w3.org/2000/svg" xmlns:xlink="http://www.w3.org/1999/xlink"
	 x="0px" y="0px" viewBox="0 0 300 300" overflow="visible" xml:space="preserve">
<g>
	<path fill="#AC1F2D" d="M33.946,245.496h4.524v2.198c-0.593,1.091-2.567,2.775-5.464,2.775c-3.584,0-6.086-2.563-6.086-6.232
		c0-3.69,2.446-6.17,6.086-6.17c3.489,0,4.873,2.28,5.215,2.979l0.074,0.151l1.544-0.441l-0.091-0.211
		c-0.848-1.944-3.063-4.021-6.741-4.021c-4.528,0-7.692,3.18-7.692,7.733c0,4.48,3.209,7.733,7.629,7.733
		c2.913,0,4.702-1.409,5.558-2.328c-0.005,0.337-0.011,0.894-0.011,1.878v0.201h1.501v-7.768h-6.045V245.496z"/>
	<path fill="#AC1F2D" d="M50.497,236.524c-4.457,0-7.692,3.252-7.692,7.733c0,4.481,3.235,7.733,7.692,7.733
		c4.456,0,7.691-3.252,7.691-7.733C58.188,239.777,54.954,236.524,50.497,236.524 M56.584,244.257c0,3.657-2.503,6.211-6.086,6.211
		c-3.584,0-6.087-2.554-6.087-6.211c0-3.645,2.503-6.19,6.087-6.19C54.08,238.067,56.584,240.612,56.584,244.257"/>
	<path fill="#AC1F2D" d="M69.127,243.709c1.015-0.447,1.926-1.45,1.926-3.166c0-2.23-1.823-3.728-4.538-3.728h-5.118v14.927h5.658
		c3.179,0,5.077-1.572,5.077-4.206C72.132,245.169,70.458,244.08,69.127,243.709 M62.981,243.186v-4.911h3.327
		c1.966,0,3.14,0.902,3.14,2.414c0,1.563-1.104,2.497-2.953,2.497H62.981z M70.486,247.515c0,2.407-2.175,2.766-3.472,2.766h-4.033
		v-5.72h3.991C68.665,244.562,70.486,245.485,70.486,247.515"/>
	<rect x="75.32" y="236.815" fill="#AC1F2D" width="1.584" height="14.926"/>
	<polygon fill="#AC1F2D" points="82.568,244.666 89.167,244.666 89.167,243.123 82.568,243.123 82.568,238.337 90.931,238.337 
		90.931,236.815 80.984,236.815 80.984,251.741 90.951,251.741 90.951,250.219 82.568,250.219 	"/>
	<path fill="#AC1F2D" d="M104.251,241.436c0-2.893-2.06-4.621-5.513-4.621h-4.35v14.926h1.584v-5.955h3.232l3.465,5.955h1.921
		l-3.709-6.223C103.088,245.019,104.251,243.613,104.251,241.436 M95.972,238.337h2.766c1.783,0,3.908,0.544,3.908,3.14
		c0,1.959-1.237,2.912-3.783,2.912h-2.891V238.337z"/>
	<path fill="#AC1F2D" d="M109.252,242.307c0-1.088-0.023-2.13-0.044-2.855l8.87,12.289h1.507v-14.926h-1.585v9.393
		c0,0.841,0.01,1.809,0.029,2.777l-8.856-12.169h-1.507v14.926h1.585V242.307z"/>
	<path fill="#AC1F2D" d="M130.485,236.524c-4.456,0-7.691,3.252-7.691,7.733c0,4.481,3.235,7.733,7.691,7.733
		c4.457,0,7.692-3.252,7.692-7.733C138.177,239.777,134.942,236.524,130.485,236.524 M136.572,244.257
		c0,3.657-2.503,6.211-6.087,6.211c-3.583,0-6.086-2.554-6.086-6.211c0-3.645,2.503-6.19,6.086-6.19
		C134.069,238.067,136.572,240.612,136.572,244.257"/>
	<path fill="#AC1F2D" d="M152.501,236.815h-4.891v14.926h5.056c4.651,0,7.774-2.974,7.774-7.401
		C160.44,239.839,157.25,236.815,152.501,236.815 M158.836,244.34c0,3.572-2.438,5.879-6.211,5.879h-3.431v-11.882h3.264
		C156.333,238.337,158.836,240.693,158.836,244.34"/>
	<polygon fill="#AC1F2D" points="165.234,244.666 171.832,244.666 171.832,243.123 165.234,243.123 165.234,238.337 
		173.595,238.337 173.595,236.815 163.649,236.815 163.649,251.741 173.616,251.741 173.616,250.219 165.234,250.219 	"/>
	<path fill="#AC1F2D" d="M197.098,247.381l-1.549-0.415l-0.071,0.151c-0.989,2.098-3.031,3.35-5.462,3.35
		c-3.535,0-6.003-2.562-6.003-6.232c0-3.748,2.373-6.17,6.044-6.17c3.362,0,4.767,2.084,5.215,2.981l0.074,0.149l1.543-0.441
		l-0.092-0.21c-0.846-1.944-3.062-4.022-6.741-4.022c-4.504,0-7.65,3.171-7.65,7.712c0,4.565,3.146,7.754,7.65,7.754
		c3.165,0,5.763-1.644,6.949-4.396L197.098,247.381z"/>
	<polygon fill="#AC1F2D" points="210.232,243.123 201.96,243.123 201.96,236.815 200.375,236.815 200.375,251.741 201.96,251.741 
		201.96,244.666 210.232,244.666 210.232,251.741 211.836,251.741 211.836,236.815 210.232,236.815 	"/>
	<rect x="215.896" y="236.815" fill="#AC1F2D" width="1.584" height="14.926"/>
	<path fill="#AC1F2D" d="M226.797,236.815l-6.525,14.927h1.705l1.847-4.254h7.435l1.846,4.254h1.725l-6.504-14.927H226.797z
		 M230.626,245.986h-6.152l1.642-3.787c0.262-0.606,0.606-1.419,0.909-2.131c0.201-0.472,0.395-0.928,0.525-1.231
		c0.112,0.264,0.272,0.643,0.437,1.034c0.322,0.762,0.711,1.682,0.997,2.348L230.626,245.986z"/>
	<path fill="#AC1F2D" d="M241.93,236.815h-4.309v14.926h1.585v-5.748h2.725c3.504,0,5.513-1.676,5.513-4.599
		C247.443,238.441,245.485,236.815,241.93,236.815 M245.858,241.415c0,2.042-1.315,3.077-3.908,3.077h-2.745v-6.155h2.745
		C244.543,238.337,245.858,239.372,245.858,241.415"/>
	<path fill="#AC1F2D" d="M253.854,236.815l-6.525,14.927h1.705l1.847-4.254h7.435l1.847,4.254h1.725l-6.504-14.927H253.854z
		 M257.683,245.986h-6.152l1.642-3.787c0.258-0.6,0.599-1.4,0.899-2.106c0.205-0.483,0.403-0.949,0.535-1.256
		c0.11,0.259,0.266,0.629,0.428,1.011c0.323,0.767,0.717,1.698,1.007,2.371L257.683,245.986z"/>
	<path fill="#AC1F2D" d="M269.628,243.334c-2.189-0.437-3.864-0.924-3.864-2.833c0-1.61,1.182-2.497,3.327-2.497
		c2.128,0,3.417,0.891,3.83,2.647l0.048,0.201l1.551-0.415l-0.046-0.191c-0.585-2.401-2.496-3.722-5.383-3.722
		c-3.088,0-4.932,1.51-4.932,4.04c0,3.155,2.931,3.797,4.679,4.179c0.217,0.05,0.446,0.096,0.679,0.144
		c1.671,0.339,3.565,0.723,3.565,2.897c0,2.252-1.934,2.725-3.555,2.725c-1.231,0-4.11-0.309-4.261-3.171l-0.013-0.248l-1.548,0.422
		l0.02,0.171c0.422,3.748,3.79,4.307,5.76,4.307c3.354,0,5.202-1.501,5.202-4.226C274.687,244.298,271.641,243.718,269.628,243.334"
		/>
	<path fill="#AC1F2D" d="M98.254,269.318l2.212-1.757c1.513-1.189,2.233-1.982,2.233-3.279c0-1.707-1.215-2.809-3.095-2.809
		c-1.782,0-2.956,0.911-3.139,2.438l-0.021,0.173l1.188,0.319l0.017-0.243c0.032-0.465,0.278-1.547,1.88-1.547
		c1.42,0,1.925,0.862,1.925,1.669c0,0.79-0.425,1.386-1.748,2.451l-3.198,2.518v1.233h6.236v-1.171H98.97
		C98.688,269.314,98.446,269.316,98.254,269.318"/>
	<path fill="#AC1F2D" d="M110.157,261.474c-2.258,0-3.502,1.629-3.502,4.588c0,2.968,1.244,4.604,3.502,4.604
		c2.226,0,3.503-1.678,3.503-4.604C113.66,263.146,112.383,261.474,110.157,261.474 M112.414,266.062
		c0,2.268-0.76,3.418-2.257,3.418c-1.529,0-2.271-1.118-2.271-3.418c0-2.29,0.743-3.403,2.271-3.403
		C111.676,262.659,112.414,263.772,112.414,266.062"/>
	<path fill="#AC1F2D" d="M119.347,269.318l2.212-1.757c1.513-1.189,2.233-1.982,2.233-3.279c0-1.707-1.215-2.809-3.095-2.809
		c-1.782,0-2.956,0.911-3.14,2.438l-0.021,0.173l1.188,0.319l0.017-0.243c0.032-0.465,0.278-1.547,1.88-1.547
		c1.42,0,1.925,0.862,1.925,1.669c0,0.79-0.425,1.386-1.748,2.451l-3.198,2.518v1.233h6.236v-1.171h-3.774
		C119.781,269.314,119.54,269.316,119.347,269.318"/>
	<path fill="#AC1F2D" d="M133.352,261.639h-1.507l-4.172,5.47v1.053h4.448v2.321h1.231v-2.321h1.266v-1.141h-1.266V261.639z
		 M129.087,267.022l3.034-3.897v3.897H129.087z"/>
	<rect x="146.294" y="265.318" fill="#AC1F2D" width="7.292" height="1.156"/>
	<path fill="#AC1F2D" d="M167.083,269.318l2.212-1.757c1.513-1.189,2.233-1.982,2.233-3.279c0-1.707-1.215-2.809-3.096-2.809
		c-1.782,0-2.955,0.911-3.139,2.438l-0.021,0.173l1.188,0.319l0.017-0.243c0.031-0.465,0.278-1.547,1.88-1.547
		c1.42,0,1.925,0.862,1.925,1.669c0,0.79-0.425,1.386-1.748,2.451l-3.197,2.518v1.233h6.236v-1.171h-3.774
		C167.517,269.314,167.276,269.316,167.083,269.318"/>
	<path fill="#AC1F2D" d="M178.987,261.474c-2.258,0-3.503,1.629-3.503,4.588c0,2.968,1.244,4.604,3.503,4.604
		c2.226,0,3.503-1.678,3.503-4.604C182.489,263.146,181.213,261.474,178.987,261.474 M181.244,266.062
		c0,2.268-0.76,3.418-2.257,3.418c-1.529,0-2.272-1.118-2.272-3.418c0-2.29,0.743-3.403,2.272-3.403
		C180.506,262.659,181.244,263.772,181.244,266.062"/>
	<path fill="#AC1F2D" d="M191.417,265.852c0.678-0.313,1.235-0.982,1.235-2.006c0-1.485-1.112-2.371-2.975-2.371
		c-1.867,0-3.014,0.864-3.229,2.435l-0.024,0.174l1.143,0.32l0.032-0.228c0.102-0.734,0.421-1.576,1.987-1.576
		c0.837,0,1.835,0.24,1.835,1.383c0,0.897-0.633,1.352-1.88,1.352h-0.985v1.08h1c0.892,0,1.955,0.25,1.955,1.443
		c0,0.799-0.502,1.654-1.91,1.654c-1.22,0-2.022-0.625-2.199-1.716l-0.036-0.222l-1.125,0.321l0.025,0.173
		c0.227,1.555,1.561,2.6,3.32,2.6c1.858,0,3.156-1.118,3.156-2.719C192.743,266.951,192.239,266.182,191.417,265.852"/>
	<path fill="#AC1F2D" d="M200.036,261.474c-2.259,0-3.503,1.629-3.503,4.588c0,2.968,1.244,4.604,3.503,4.604
		c2.226,0,3.503-1.678,3.503-4.604C203.538,263.146,202.262,261.474,200.036,261.474 M202.292,266.062
		c0,2.268-0.76,3.418-2.257,3.418c-1.529,0-2.272-1.118-2.272-3.418c0-2.29,0.743-3.403,2.272-3.403
		C201.554,262.659,202.292,263.772,202.292,266.062"/>
	
		<rect x="72.547" y="48.642" transform="matrix(0.7071 -0.7071 0.7071 0.7071 -9.8981 83.7286)" fill="#009685" width="47.135" height="10.339"/>
	<polygon fill="#009685" points="79.715,121.121 45.466,86.873 95.693,36.645 88.383,29.335 30.845,86.873 72.404,128.432 	"/>
	<polygon fill="#009685" points="121.565,45.948 88.243,79.27 95.554,86.58 121.565,60.569 	"/>
	
		<rect x="198.717" y="30.244" transform="matrix(0.7071 -0.7071 0.7071 0.7071 21.6621 159.9232)" fill="#009685" width="10.339" height="47.135"/>
	<polygon fill="#009685" points="220.286,121.121 254.535,86.873 204.307,36.645 211.617,29.335 269.156,86.873 227.597,128.432 	
		"/>
	<polygon fill="#009685" points="178.436,45.948 211.757,79.27 204.447,86.58 178.436,60.569 	"/>
	<path fill="#009685" d="M150.007,127.029l-18.028-18.027l18.028-18.027l18.027,18.027L150.007,127.029z M140.508,109.002
		l9.499,9.498l9.498-9.498l-9.498-9.498L140.508,109.002z"/>
	<polygon fill="#009685" points="151.779,107.009 151.779,102.596 150.007,102.596 148.235,102.596 148.235,107.009 
		143.821,107.009 143.821,110.553 148.235,110.553 148.235,114.966 151.779,114.966 151.779,110.553 156.192,110.553 
		156.192,107.009 	"/>
	<polygon fill="#C71D68" points="150.007,141.309 100.35,91.651 125.517,66.484 147.666,88.633 129.638,106.661 114.357,91.38 
		125.406,80.331 134.013,88.939 129.748,93.204 125.406,88.86 122.886,91.38 129.638,98.131 139.137,88.633 125.517,75.013 
		108.879,91.651 150.007,132.78 191.135,91.651 174.497,75.013 160.877,88.633 170.375,98.131 177.128,91.38 174.608,88.86 
		170.265,93.204 166.001,88.939 174.608,80.331 185.657,91.38 170.375,106.661 152.348,88.633 174.497,66.484 199.664,91.651 	"/>
	<path fill="#009685" d="M16.779,223.114h118.666v-2.442H16.779V223.114z M164.555,223.114h118.666v-2.442H164.555V223.114z"/>
	<path fill="#E91177" d="M150,230.831l-8.938-8.938l8.938-8.938l8.938,8.938L150,230.831z M145.342,221.893l4.659,4.659l4.658-4.659
		L150,217.234L145.342,221.893z"/>
	<polygon fill="#009685" points="153.074,221.012 150.881,221.012 150.881,218.82 149.12,218.82 149.12,221.012 146.927,221.012 
		146.927,222.773 149.12,222.773 149.12,224.966 150.881,224.966 150.881,222.773 153.074,222.773 	"/>
	<polygon fill="#AC1F2D" points="39.393,150.871 39.393,172.737 34.145,172.737 34.145,164.241 25.962,164.241 25.962,172.737 
		20.714,172.737 20.714,150.871 25.962,150.871 25.962,159.337 34.145,159.337 34.145,150.871 	"/>
	<path fill="#AC1F2D" d="M61.916,150.871l-0.031,12.213c0,1.666-0.229,3.113-0.687,4.342c-0.458,1.25-1.114,2.311-1.968,3.186
		c-0.854,0.874-1.864,1.53-3.03,1.968c-1.208,0.416-2.52,0.625-3.936,0.625c-1.437,0-2.759-0.209-3.967-0.625
		c-1.166-0.437-2.176-1.093-3.03-1.968c-0.833-0.875-1.489-1.937-1.968-3.186c-0.458-1.229-0.687-2.687-0.687-4.373v-12.152h5.248
		v12.026c0,1.916,0.375,3.29,1.125,4.123c0.749,0.833,1.843,1.249,3.28,1.249c1.437,0,2.53-0.427,3.28-1.281
		c0.749-0.854,1.125-2.228,1.125-4.123v-12.026H61.916z"/>
	<path fill="#AC1F2D" d="M86.968,150.871v21.865h-5.154v-5.31c0-2.582,0.031-4.519,0.094-5.81c0.042-0.75,0.068-1.234,0.078-1.453
		c0.011-0.219,0.005-0.38-0.015-0.484h-0.031l-0.281,0.469c-0.063,0.125-0.177,0.312-0.344,0.562c-0.167,0.25-0.272,0.416-0.313,0.5
		c-0.062,0.083-0.172,0.26-0.328,0.531c-0.156,0.271-0.276,0.469-0.359,0.594c-0.209,0.354-0.333,0.572-0.375,0.656l-2.561,4.373
		h-2.718l-2.561-4.373c-0.021-0.083-0.146-0.302-0.375-0.656c-0.083-0.125-0.203-0.323-0.359-0.594
		c-0.156-0.27-0.265-0.447-0.328-0.531c-0.063-0.083-0.172-0.25-0.328-0.5c-0.156-0.25-0.266-0.437-0.328-0.562L70.1,159.68h-0.032
		v0.484c0,0.198,0.021,0.672,0.063,1.421c0.063,1.271,0.094,3.207,0.094,5.81v5.341h-5.154v-21.865h4.935l4.092,6.622
		c0.145,0.25,0.328,0.552,0.546,0.906c0.219,0.354,0.359,0.583,0.422,0.687c0.271,0.458,0.458,0.781,0.562,0.969
		c0.104,0.208,0.198,0.375,0.281,0.5l0.094,0.124h0.032l0.094-0.124c0.083-0.125,0.177-0.292,0.281-0.5
		c0.104-0.188,0.292-0.511,0.562-0.969c0.063-0.104,0.203-0.333,0.422-0.687c0.219-0.354,0.401-0.656,0.547-0.906l4.092-6.622
		H86.968z"/>
	<path fill="#AC1F2D" d="M103.649,169.333h-8.653l-1.249,3.405h-5.623l8.715-21.834h4.967l8.747,21.834h-5.654L103.649,169.333z
		 M102.025,164.709l-1.624-4.217c-0.125-0.312-0.25-0.656-0.375-1.031c-0.021-0.063-0.125-0.406-0.312-1.031
		c-0.021-0.083-0.063-0.219-0.125-0.406c-0.063-0.187-0.104-0.322-0.125-0.406l-0.094-0.344h-0.032l-0.094,0.312
		c-0.021,0.083-0.063,0.214-0.125,0.391c-0.063,0.177-0.104,0.318-0.125,0.422c-0.188,0.624-0.292,0.968-0.313,1.031
		c-0.125,0.375-0.25,0.718-0.375,1.031l-1.562,4.248H102.025z"/>
	<path fill="#AC1F2D" d="M131.419,150.871v21.96h-4.935l-4.467-6.06c-0.5-0.687-1.031-1.437-1.593-2.249
		c-0.562-0.812-1.093-1.561-1.594-2.249c-0.166-0.229-0.39-0.541-0.671-0.937c-0.281-0.396-0.474-0.667-0.578-0.813l-0.5-0.687
		h-0.031v0.593v1.687v2.561v3.28v4.81h-5.248v-21.834h4.935l4.654,6.247c0.562,0.771,1,1.375,1.312,1.812
		c0.125,0.187,0.369,0.531,0.734,1.031s0.64,0.885,0.828,1.156c0.396,0.583,0.833,1.187,1.312,1.812l0.562,0.749h0.031v-0.687
		v-1.781v-2.499v-2.905v-4.998H131.419z"/>
	<rect x="135.044" y="150.871" fill="#AC1F2D" width="5.248" height="21.865"/>
	<path fill="#AC1F2D" d="M154.629,157.806h-0.125c-0.27-0.958-0.77-1.676-1.499-2.155c-0.708-0.458-1.458-0.687-2.249-0.687
		c-0.792,0-1.396,0.167-1.812,0.5c-0.437,0.354-0.656,0.739-0.656,1.156c0,0.354,0.125,0.656,0.375,0.906
		c0.271,0.271,0.615,0.511,1.031,0.718c0.521,0.25,1.031,0.458,1.53,0.625c0.583,0.187,1.208,0.406,1.874,0.656
		c0.833,0.291,1.635,0.635,2.405,1.031c0.813,0.417,1.52,0.885,2.124,1.406c0.625,0.521,1.125,1.145,1.499,1.874
		c0.375,0.729,0.562,1.552,0.562,2.468c0,1.02-0.198,1.937-0.593,2.749c-0.396,0.833-0.969,1.561-1.718,2.186
		c-0.729,0.604-1.635,1.083-2.718,1.437c-1.062,0.313-2.228,0.469-3.498,0.469c-2.311,0-4.238-0.583-5.779-1.75
		c-1.582-1.207-2.728-2.832-3.436-4.873l5.029-1.343c0.145,0.354,0.354,0.76,0.624,1.218c0.229,0.375,0.541,0.729,0.938,1.062
		c0.375,0.313,0.801,0.562,1.281,0.75c0.479,0.187,1.01,0.281,1.593,0.281c0.937,0,1.624-0.188,2.062-0.562
		c0.437-0.375,0.656-0.833,0.656-1.375c0-0.458-0.156-0.822-0.469-1.093c-0.333-0.312-0.739-0.583-1.218-0.812
		c-0.562-0.271-1.156-0.511-1.781-0.718c-0.603-0.188-1.333-0.437-2.186-0.75c-0.667-0.25-1.322-0.531-1.968-0.844
		c-0.646-0.312-1.239-0.718-1.781-1.218c-0.541-0.5-0.979-1.093-1.312-1.781c-0.333-0.666-0.5-1.489-0.5-2.467
		c0-0.833,0.208-1.645,0.625-2.436c0.416-0.792,0.979-1.479,1.686-2.062c0.708-0.583,1.573-1.052,2.593-1.406
		c1.02-0.354,2.113-0.531,3.279-0.531c1.041,0,2.031,0.156,2.968,0.468c0.958,0.313,1.801,0.729,2.53,1.25
		c0.749,0.521,1.384,1.156,1.905,1.905c0.562,0.792,0.958,1.583,1.187,2.374L154.629,157.806z"/>
	<path fill="#AC1F2D" d="M183.68,150.871v21.865h-5.154v-5.31c0-2.582,0.031-4.519,0.094-5.81c0.042-0.75,0.068-1.234,0.078-1.453
		c0.011-0.219,0.005-0.38-0.015-0.484h-0.031l-0.281,0.469c-0.063,0.125-0.177,0.312-0.344,0.562c-0.167,0.25-0.272,0.416-0.313,0.5
		c-0.062,0.083-0.172,0.26-0.328,0.531c-0.156,0.271-0.276,0.469-0.359,0.594c-0.209,0.354-0.334,0.572-0.375,0.656l-2.561,4.373
		h-2.718l-2.561-4.373c-0.021-0.083-0.146-0.302-0.375-0.656c-0.083-0.125-0.203-0.323-0.359-0.594
		c-0.156-0.27-0.265-0.447-0.328-0.531c-0.063-0.083-0.172-0.25-0.328-0.5c-0.156-0.25-0.266-0.437-0.328-0.562l-0.281-0.469h-0.032
		v0.484c0,0.198,0.021,0.672,0.063,1.421c0.063,1.271,0.094,3.207,0.094,5.81v5.341h-5.154v-21.865h4.935l4.092,6.622
		c0.145,0.25,0.328,0.552,0.546,0.906c0.219,0.354,0.359,0.583,0.422,0.687c0.271,0.458,0.458,0.781,0.562,0.969
		c0.104,0.208,0.198,0.375,0.281,0.5l0.094,0.124h0.032l0.094-0.124c0.083-0.125,0.177-0.292,0.281-0.5
		c0.104-0.188,0.291-0.511,0.562-0.969c0.063-0.104,0.203-0.333,0.422-0.687c0.219-0.354,0.401-0.656,0.547-0.906l4.092-6.622
		H183.68z"/>
	<path fill="#AC1F2D" d="M185.804,161.929c0-1.624,0.302-3.155,0.906-4.592c0.604-1.417,1.416-2.624,2.436-3.624
		c1.02-1,2.228-1.781,3.624-2.343c1.374-0.562,2.843-0.844,4.404-0.844c1.562,0,3.03,0.281,4.405,0.844
		c1.395,0.562,2.603,1.343,3.624,2.343c1.041,1,1.853,2.197,2.436,3.592c0.604,1.437,0.906,2.968,0.906,4.592
		c0,1.687-0.292,3.218-0.875,4.592c-0.583,1.395-1.395,2.592-2.436,3.592c-1.02,1-2.228,1.781-3.623,2.343
		c-1.396,0.541-2.863,0.812-4.405,0.812c-1.541,0-3.009-0.27-4.405-0.812c-1.353-0.562-2.551-1.343-3.592-2.343
		c-1.02-1-1.833-2.207-2.436-3.624c-0.583-1.374-0.875-2.905-0.875-4.592L185.804,161.929z M191.365,161.867
		c0,0.895,0.146,1.729,0.437,2.499c0.271,0.75,0.667,1.395,1.187,1.937c0.479,0.5,1.093,0.916,1.843,1.25
		c0.729,0.312,1.53,0.468,2.405,0.468c0.917,0,1.729-0.156,2.436-0.468c0.708-0.313,1.333-0.739,1.875-1.281
		c0.521-0.521,0.926-1.166,1.218-1.937c0.291-0.771,0.437-1.604,0.437-2.499c0-0.937-0.135-1.77-0.406-2.499
		c-0.291-0.771-0.698-1.417-1.218-1.937c-0.541-0.541-1.166-0.968-1.874-1.28c-0.729-0.313-1.541-0.469-2.436-0.469
		c-0.895,0-1.697,0.156-2.405,0.469c-0.749,0.333-1.364,0.749-1.843,1.249c-0.521,0.541-0.916,1.187-1.187,1.937
		c-0.271,0.729-0.406,1.562-0.406,2.499L191.365,161.867z"/>
	<path fill="#AC1F2D" d="M224.758,172.893l-0.031,0.063c-1.229-0.25-2.385-0.708-3.468-1.375c-1.041-0.645-1.957-1.458-2.749-2.436
		c-0.771-0.937-1.374-2.03-1.812-3.28c-0.437-1.207-0.656-2.52-0.656-3.936c0-1.624,0.302-3.155,0.906-4.592
		c0.604-1.416,1.416-2.624,2.436-3.624c1.02-1,2.229-1.781,3.624-2.343c1.374-0.562,2.843-0.844,4.405-0.844
		c1.561,0,3.03,0.281,4.404,0.844c1.396,0.562,2.603,1.343,3.624,2.343c1.041,1,1.853,2.197,2.436,3.592
		c0.604,1.437,0.906,2.968,0.906,4.592c0,1.395-0.219,2.707-0.656,3.936c-0.437,1.187-1.052,2.28-1.843,3.28
		c-0.771,0.958-1.697,1.77-2.78,2.436c-1.083,0.667-2.249,1.125-3.498,1.374v3.967h-5.248V172.893z M227.444,168.052
		c0.916,0,1.729-0.156,2.436-0.469c0.708-0.312,1.333-0.739,1.874-1.28c0.521-0.521,0.927-1.166,1.218-1.937
		c0.292-0.77,0.438-1.603,0.438-2.499c0-0.937-0.136-1.77-0.406-2.499c-0.292-0.77-0.698-1.416-1.218-1.937
		c-0.541-0.541-1.166-0.968-1.874-1.281c-0.729-0.312-1.541-0.468-2.437-0.468c-0.895,0-1.697,0.156-2.405,0.468
		c-0.75,0.334-1.364,0.75-1.843,1.25c-0.521,0.541-0.916,1.187-1.187,1.937c-0.27,0.729-0.406,1.562-0.406,2.499
		c0,0.895,0.145,1.728,0.437,2.499c0.27,0.749,0.666,1.395,1.187,1.937c0.479,0.5,1.094,0.916,1.843,1.25
		c0.729,0.312,1.531,0.468,2.405,0.468L227.444,168.052z"/>
	<path fill="#AC1F2D" d="M260.056,150.871l-0.031,12.213c0,1.666-0.229,3.113-0.687,4.342c-0.458,1.25-1.114,2.311-1.968,3.186
		c-0.854,0.874-1.864,1.53-3.03,1.968c-1.208,0.416-2.52,0.625-3.936,0.625c-1.437,0-2.759-0.209-3.967-0.625
		c-1.166-0.437-2.176-1.093-3.03-1.968c-0.833-0.875-1.489-1.937-1.968-3.186c-0.458-1.229-0.687-2.687-0.687-4.373v-12.152H246
		v12.026c0,1.916,0.375,3.29,1.125,4.123c0.749,0.833,1.843,1.249,3.28,1.249c1.437,0,2.53-0.427,3.28-1.281
		c0.749-0.854,1.124-2.228,1.124-4.123v-12.026H260.056z"/>
	<polygon fill="#AC1F2D" points="279.361,167.833 279.361,172.737 263.274,172.737 263.274,150.871 279.173,150.871 
		279.173,155.776 268.522,155.776 268.522,159.368 276.862,159.368 276.862,163.96 268.522,163.96 268.522,167.833 	"/>
	<polygon fill="#AC1F2D" points="41.607,178.293 41.607,184.462 33.237,184.462 33.237,205.799 26.636,205.799 26.636,184.462 
		18.384,184.462 18.384,178.293 	"/>
	<path fill="#AC1F2D" d="M58.543,205.839l-5.148-8.92h-3.379v8.92h-6.601v-27.467H53.67c1.755,0,3.314,0.236,4.676,0.707
		c1.415,0.498,2.581,1.14,3.497,1.926c0.969,0.838,1.703,1.82,2.2,2.947c0.524,1.179,0.786,2.463,0.786,3.851
		c0,1.86-0.432,3.458-1.296,4.794c-0.891,1.362-2.122,2.41-3.694,3.143l6.091,10.099H58.543z M50.094,190.985l4.519,0.079
		c0.55,0,1.061-0.105,1.533-0.315c0.419-0.183,0.773-0.445,1.061-0.786c0.288-0.315,0.485-0.668,0.589-1.061
		c0.131-0.446,0.197-0.826,0.197-1.14c0-0.419-0.052-0.799-0.157-1.14c-0.131-0.393-0.327-0.747-0.589-1.061
		c-0.288-0.341-0.642-0.603-1.061-0.786c-0.472-0.209-0.982-0.314-1.533-0.314h-4.558V190.985z"/>
	<path fill="#AC1F2D" d="M85.066,201.516H74.182l-1.572,4.283h-7.073L76.5,178.332h6.248l11.003,27.467h-7.113L85.066,201.516z
		 M83.023,195.701l-2.043-5.305c-0.157-0.393-0.314-0.826-0.472-1.297c-0.026-0.079-0.157-0.511-0.393-1.297
		c-0.026-0.105-0.078-0.275-0.157-0.511c-0.079-0.236-0.131-0.406-0.157-0.511l-0.118-0.432h-0.039l-0.118,0.393
		c-0.026,0.105-0.079,0.269-0.157,0.491c-0.079,0.223-0.131,0.4-0.157,0.531c-0.236,0.786-0.367,1.218-0.393,1.297
		c-0.157,0.471-0.315,0.904-0.472,1.297l-1.965,5.344H83.023z"/>
	<path fill="#AC1F2D" d="M119.999,178.293v27.625h-6.209l-5.619-7.623c-0.628-0.864-1.297-1.808-2.004-2.83
		c-0.708-1.022-1.375-1.965-2.004-2.829c-0.21-0.288-0.491-0.681-0.845-1.179c-0.353-0.498-0.596-0.839-0.727-1.022l-0.629-0.865
		h-0.039v0.747v2.122v3.222v4.126v6.051h-6.602v-27.467h6.209l5.855,7.859c0.707,0.969,1.258,1.729,1.65,2.279
		c0.157,0.236,0.465,0.668,0.924,1.297c0.458,0.629,0.805,1.113,1.041,1.454c0.497,0.733,1.048,1.493,1.65,2.279l0.708,0.943h0.039
		v-0.864v-2.24v-3.144v-3.654v-6.288H119.999z"/>
	<path fill="#AC1F2D" d="M138.035,187.016h-0.157c-0.341-1.205-0.969-2.109-1.886-2.712c-0.891-0.576-1.834-0.864-2.83-0.864
		c-0.995,0-1.755,0.21-2.279,0.629c-0.55,0.445-0.825,0.93-0.825,1.453c0,0.446,0.157,0.826,0.471,1.14
		c0.341,0.341,0.773,0.642,1.297,0.904c0.655,0.314,1.297,0.576,1.926,0.786c0.733,0.236,1.519,0.51,2.358,0.825
		c1.048,0.367,2.056,0.799,3.026,1.297c1.022,0.524,1.912,1.113,2.672,1.769c0.786,0.655,1.415,1.44,1.886,2.358
		c0.472,0.917,0.708,1.951,0.708,3.104c0,1.284-0.249,2.436-0.747,3.458c-0.497,1.048-1.218,1.965-2.161,2.751
		c-0.917,0.76-2.056,1.362-3.419,1.807c-1.336,0.393-2.803,0.589-4.401,0.589c-2.908,0-5.331-0.733-7.27-2.2
		c-1.991-1.519-3.432-3.563-4.322-6.13l6.326-1.69c0.184,0.446,0.446,0.956,0.786,1.533c0.288,0.471,0.681,0.917,1.179,1.336
		c0.471,0.393,1.008,0.707,1.611,0.943c0.603,0.236,1.271,0.354,2.005,0.354c1.178,0,2.043-0.236,2.593-0.708
		c0.55-0.471,0.826-1.048,0.826-1.729c0-0.577-0.197-1.035-0.59-1.375c-0.419-0.393-0.93-0.734-1.533-1.022
		c-0.707-0.341-1.453-0.642-2.24-0.904c-0.759-0.235-1.676-0.55-2.75-0.943c-0.839-0.314-1.664-0.668-2.476-1.061
		c-0.813-0.393-1.559-0.904-2.24-1.533c-0.681-0.628-1.231-1.375-1.651-2.24c-0.419-0.838-0.628-1.873-0.628-3.104
		c0-1.048,0.261-2.069,0.786-3.065c0.524-0.995,1.231-1.86,2.122-2.594s1.978-1.323,3.261-1.769
		c1.284-0.445,2.659-0.668,4.126-0.668c1.31,0,2.554,0.197,3.733,0.59c1.205,0.393,2.266,0.917,3.183,1.571
		c0.943,0.655,1.742,1.454,2.397,2.397c0.707,0.995,1.205,1.991,1.493,2.987L138.035,187.016z"/>
	<polygon fill="#AC1F2D" points="153.713,184.462 153.713,189.845 163.812,189.845 163.812,195.779 153.713,195.779 153.713,205.8 
		147.112,205.8 147.112,178.293 166.72,178.293 166.72,184.462 	"/>
	<path fill="#AC1F2D" d="M167.702,192.203c0-2.043,0.38-3.969,1.14-5.776c0.76-1.782,1.781-3.301,3.065-4.558
		c1.284-1.257,2.803-2.24,4.558-2.947c1.729-0.707,3.576-1.061,5.541-1.061c1.965,0,3.811,0.354,5.541,1.061
		c1.755,0.708,3.275,1.69,4.558,2.947c1.31,1.258,2.332,2.763,3.065,4.519c0.76,1.807,1.139,3.733,1.139,5.776
		c0,2.122-0.366,4.047-1.1,5.776c-0.733,1.756-1.755,3.261-3.065,4.519c-1.284,1.257-2.803,2.24-4.558,2.947
		c-1.756,0.681-3.602,1.022-5.54,1.022c-1.939,0-3.786-0.341-5.541-1.022c-1.702-0.708-3.209-1.69-4.519-2.947
		c-1.284-1.258-2.305-2.777-3.065-4.558c-0.733-1.729-1.1-3.655-1.1-5.776L167.702,192.203z M174.697,192.125
		c0,1.126,0.183,2.174,0.55,3.143c0.34,0.943,0.838,1.756,1.493,2.436c0.603,0.629,1.375,1.153,2.318,1.572
		c0.917,0.393,1.926,0.589,3.026,0.589c1.153,0,2.174-0.196,3.065-0.589c0.891-0.393,1.677-0.93,2.358-1.611
		c0.655-0.655,1.166-1.467,1.533-2.436c0.366-0.969,0.55-2.017,0.55-3.143c0-1.179-0.17-2.227-0.511-3.143
		c-0.367-0.97-0.878-1.782-1.533-2.436c-0.682-0.681-1.467-1.218-2.358-1.611c-0.917-0.393-1.938-0.589-3.065-0.589
		c-1.126,0-2.136,0.196-3.026,0.589c-0.943,0.419-1.716,0.943-2.318,1.572c-0.655,0.681-1.153,1.493-1.493,2.436
		c-0.341,0.917-0.511,1.965-0.511,3.143L174.697,192.125z"/>
	<path fill="#AC1F2D" d="M214.384,205.839l-5.148-8.92h-3.379v8.92h-6.601v-27.467h10.256c1.755,0,3.314,0.236,4.676,0.707
		c1.415,0.498,2.581,1.14,3.497,1.926c0.969,0.838,1.703,1.82,2.2,2.947c0.524,1.179,0.786,2.463,0.786,3.851
		c0,1.86-0.432,3.458-1.297,4.794c-0.891,1.362-2.122,2.41-3.693,3.143l6.091,10.099H214.384z M205.936,190.985l4.519,0.079
		c0.55,0,1.061-0.105,1.533-0.315c0.419-0.183,0.773-0.445,1.061-0.786c0.288-0.315,0.485-0.668,0.589-1.061
		c0.131-0.446,0.197-0.826,0.197-1.14c0-0.419-0.052-0.799-0.157-1.14c-0.13-0.393-0.327-0.747-0.589-1.061
		c-0.288-0.341-0.642-0.603-1.061-0.786c-0.472-0.209-0.982-0.314-1.533-0.314h-4.558V190.985z"/>
	<path fill="#AC1F2D" d="M251.95,178.293v27.507h-6.484v-6.68c0-3.248,0.039-5.685,0.117-7.309c0.052-0.943,0.085-1.552,0.098-1.827
		c0.013-0.275,0.007-0.478-0.02-0.609h-0.039l-0.353,0.589c-0.079,0.157-0.223,0.393-0.432,0.707
		c-0.21,0.314-0.341,0.524-0.393,0.629c-0.079,0.105-0.216,0.328-0.412,0.668c-0.197,0.341-0.347,0.59-0.452,0.747
		c-0.262,0.445-0.419,0.72-0.471,0.825l-3.223,5.501h-3.419l-3.222-5.501c-0.026-0.105-0.183-0.38-0.472-0.825
		c-0.105-0.157-0.255-0.406-0.452-0.747c-0.197-0.34-0.334-0.563-0.413-0.668c-0.079-0.105-0.216-0.315-0.413-0.629
		c-0.196-0.314-0.334-0.55-0.412-0.707l-0.354-0.589h-0.039v0.609c0,0.249,0.026,0.845,0.079,1.788
		c0.079,1.598,0.118,4.035,0.118,7.309v6.719h-6.483v-27.507h6.208l5.148,8.331c0.183,0.314,0.412,0.694,0.687,1.14
		c0.275,0.445,0.452,0.733,0.531,0.864c0.341,0.577,0.576,0.982,0.707,1.218c0.131,0.262,0.249,0.472,0.354,0.629l0.118,0.157h0.039
		l0.118-0.157c0.105-0.157,0.222-0.367,0.353-0.629c0.131-0.236,0.367-0.642,0.708-1.218c0.079-0.131,0.255-0.419,0.53-0.864
		c0.275-0.446,0.505-0.825,0.688-1.14l5.147-8.331H251.95z"/>
	<path fill="#AC1F2D" d="M272.932,201.516h-10.884l-1.572,4.283h-7.073l10.964-27.467h6.248l11.003,27.467h-7.113L272.932,201.516z
		 M270.889,195.701l-2.043-5.305c-0.157-0.393-0.315-0.826-0.472-1.297c-0.026-0.079-0.157-0.511-0.393-1.297
		c-0.026-0.105-0.078-0.275-0.157-0.511c-0.079-0.236-0.131-0.406-0.157-0.511l-0.118-0.432h-0.039l-0.118,0.393
		c-0.026,0.105-0.079,0.269-0.157,0.491c-0.079,0.223-0.131,0.4-0.157,0.531c-0.235,0.786-0.366,1.218-0.393,1.297
		c-0.157,0.471-0.315,0.904-0.472,1.297l-1.965,5.344H270.889z"/>
</g>
</svg>
