<?xml version="1.0" encoding="utf-8"?>
<!-- Generator: Adobe Illustrator 29.5.0, SVG Export Plug-In . SVG Version: 9.03 Build 0)  -->
<svg version="1.1" baseProfile="tiny" id="Capa_1" xmlns="http://www.w3.org/2000/svg" xmlns:xlink="http://www.w3.org/1999/xlink"
	 x="0px" y="0px" viewBox="0 0 380 380" overflow="visible" xml:space="preserve">
<g>
	
		<line fill="none" stroke="#3A3A3A" stroke-width="2" stroke-linecap="round" stroke-linejoin="round" stroke-miterlimit="10" x1="297.07" y1="55.566" x2="307.087" y2="49.783"/>
	
		<line fill="none" stroke="#3A3A3A" stroke-width="2" stroke-linecap="round" stroke-linejoin="round" stroke-miterlimit="10" x1="307.087" y1="55.566" x2="297.07" y2="49.783"/>
</g>
<g>
	<circle fill="#34CACC" cx="138.052" cy="47.834" r="26.087"/>
	<g>
		<path fill="#FFFFFF" d="M144.569,48.396c1.082,0.542,1.999,1.208,2.623,2.207c0.625,1,0.958,2.166,0.958,3.498
			c0,2.665-0.916,4.83-2.748,6.454c-1.833,1.624-4.206,2.457-7.163,2.457c-2.914,0-5.288-0.791-7.162-2.415
			s-2.915-3.748-3.123-6.413l5.289-1.041c0.458,3.29,2.123,4.956,5.038,4.956c1.374,0,2.499-0.375,3.373-1.125
			c0.874-0.749,1.332-1.707,1.332-2.873c0-1.082-0.374-1.957-1.124-2.623c-0.749-0.666-1.79-1-3.123-1h-3.206v-4.497h2.873
			c1.291,0,2.29-0.333,2.998-0.958c0.708-0.624,1.083-1.457,1.083-2.498c0-1.124-0.375-2.04-1.166-2.707
			c-0.791-0.666-1.832-0.999-3.123-0.999c-1.374,0-2.499,0.416-3.373,1.249c-0.875,0.833-1.374,2.082-1.499,3.79l-5.164-1.041
			c0.209-2.665,1.208-4.831,2.999-6.496c1.79-1.666,4.08-2.499,6.87-2.499c2.832,0,5.122,0.791,6.871,2.415s2.623,3.706,2.623,6.288
			c0,2.748-1.041,4.664-3.123,5.788L144.569,48.396z"/>
	</g>
</g>
<g>
	
		<ellipse transform="matrix(0.1435 -0.9897 0.9897 0.1435 -68.5445 623.8456)" fill="#E1E1E1" cx="326.13" cy="351.522" rx="4.696" ry="8"/>
	<g id="XMLID_00000173143131769113798140000016178795689880066236_">
		<g>
			<path fill="#FFFFFF" d="M326.893,319.625v29.77c0,0.64-0.424,1.276-1.267,1.762c-1.686,0.974-4.417,0.974-6.103,0
				c-0.847-0.487-1.266-1.122-1.266-1.762v-29.797c0,0.635,0.419,1.276,1.266,1.762c1.686,0.974,4.417,0.974,6.103,0
				C326.456,320.883,326.879,320.256,326.893,319.625z"/>
			<path fill="#FFFFFF" d="M326.893,319.598v0.027c-0.014,0.631-0.437,1.258-1.267,1.735c-1.686,0.974-4.417,0.974-6.103,0
				c-0.847-0.487-1.266-1.127-1.266-1.762c0-0.64,0.419-1.276,1.262-1.762c1.69-0.974,4.421-0.974,6.107,0
				C326.469,318.322,326.893,318.962,326.893,319.598z"/>
		</g>
		<g>
			<path fill="none" stroke="#373A3A" stroke-width="2" stroke-linecap="round" stroke-linejoin="round" stroke-miterlimit="10" d="
				M326.893,319.625c-0.014,0.631-0.437,1.258-1.267,1.735c-1.686,0.974-4.417,0.974-6.103,0c-0.847-0.487-1.266-1.127-1.266-1.762
				c0-0.64,0.419-1.276,1.262-1.762c1.69-0.974,4.421-0.974,6.107,0c0.843,0.487,1.267,1.127,1.267,1.762V319.625z"/>
			<path fill="none" stroke="#373A3A" stroke-width="2" stroke-linecap="round" stroke-linejoin="round" stroke-miterlimit="10" d="
				M326.893,319.598v29.797c0,0.64-0.424,1.276-1.267,1.762c-1.686,0.974-4.417,0.974-6.103,0c-0.847-0.487-1.266-1.122-1.266-1.762
				v-29.797"/>
		</g>
	</g>
</g>
<ellipse fill="#34CACC" cx="168.087" cy="275.44" rx="119.149" ry="71.714"/>

<g id="dashboard">
	<g>
		<path fill="#FFFFFF" d="M125.368,96.658v72.022c0,1.432-0.871,3.097-1.948,3.718L46.7,216.69v-77.208l76.72-44.292
			c0.474-0.274,0.912-0.301,1.25-0.119l0.027,0.014C125.108,95.326,125.368,95.874,125.368,96.658z M111.41,124.451
			c1.464-0.848,2.655-2.906,2.655-4.598s-1.191-2.381-2.655-1.533c-1.464,0.844-2.655,2.906-2.655,4.598
			S109.946,125.295,111.41,124.451z M94.966,136.959c2.244-1.295,4.064-4.447,4.064-7.038c0-2.591-1.82-3.645-4.064-2.349
			c-2.244,1.3-4.064,4.452-4.064,7.043C90.902,137.205,92.722,138.255,94.966,136.959z M90.272,161.441
			c3.599-2.075,6.514-7.13,6.514-11.281c0-4.156-2.915-5.839-6.514-3.763c-0.99,0.575-1.93,1.373-2.769,2.313
			c-1.893-2.367-5.237-2.732-9.045-0.538c-5.907,3.412-10.697,11.709-10.697,18.533s4.79,9.588,10.697,6.176
			c3.69-2.13,6.943-6.163,8.863-10.551C88.206,162.339,89.209,162.057,90.272,161.441z M78.339,140.257
			c1.724-0.994,3.12-3.417,3.12-5.405c0-1.989-1.396-2.796-3.12-1.802c-1.724,0.994-3.12,3.417-3.12,5.405
			C75.219,140.444,76.615,141.251,78.339,140.257z"/>
		<path fill="#3A3A3A" d="M119.954,92.348l4.717,2.723c-0.338-0.182-0.775-0.155-1.25,0.119l-94.907,54.793
			c-1.077,0.62-1.948,2.285-1.948,3.718v72.022c0,0.734,0.228,1.264,0.593,1.524l-4.657-2.687c-0.415-0.237-0.675-0.789-0.675-1.574
			v-72.022c0-1.432,0.871-3.097,1.948-3.718l94.907-54.793C119.169,92.17,119.616,92.151,119.954,92.348z"/>
		<path fill="#FFFFFF" d="M114.065,119.853c0,1.692-1.191,3.75-2.655,4.598c-1.464,0.844-2.655,0.16-2.655-1.533
			s1.191-3.754,2.655-4.598C112.874,117.472,114.065,118.161,114.065,119.853z"/>
		<path fill="#FFFFFF" d="M99.03,129.921c0,2.591-1.82,5.743-4.064,7.038s-4.064,0.246-4.064-2.345c0-2.591,1.82-5.743,4.064-7.043
			C97.21,126.276,99.03,127.33,99.03,129.921z"/>
		<path fill="#C3C7CD" d="M96.786,150.16c0,4.151-2.915,9.205-6.514,11.281c-1.063,0.616-2.066,0.899-2.951,0.889
			c1.159-2.641,1.838-5.415,1.838-7.978c0-2.427-0.607-4.338-1.656-5.643c0.839-0.94,1.779-1.738,2.769-2.313
			C93.871,144.321,96.786,146.005,96.786,150.16z"/>
		<path fill="#3A3A3A" d="M87.503,148.71c1.049,1.305,1.656,3.216,1.656,5.643c0,2.564-0.68,5.337-1.838,7.978
			c-2.112-0.023-3.563-1.72-3.563-4.648C83.758,154.671,85.291,151.191,87.503,148.71z"/>
		<path fill="#34CACC" d="M87.321,162.33c-1.92,4.388-5.173,8.421-8.863,10.551c-5.907,3.412-10.697,0.648-10.697-6.176
			s4.79-15.121,10.697-18.533c3.809-2.194,7.152-1.829,9.045,0.538c-2.212,2.481-3.745,5.962-3.745,8.972
			C83.758,160.611,85.209,162.307,87.321,162.33z"/>
		<path fill="#FFFFFF" d="M81.459,134.852c0,1.989-1.396,4.411-3.12,5.405s-3.12,0.187-3.12-1.802c0-1.989,1.396-4.411,3.12-5.405
			C80.063,132.055,81.459,132.863,81.459,134.852z"/>
		<path fill="#FFFFFF" d="M46.7,139.486v77.204L28.514,227.19c-0.488,0.278-0.931,0.301-1.273,0.105l-0.082-0.05
			c-0.365-0.26-0.593-0.789-0.593-1.524V153.7c0-1.432,0.871-3.097,1.948-3.718L46.7,139.482V139.486z"/>
	</g>
	<g>
		<path fill="none" stroke="#3A3A3A" stroke-width="2" stroke-linecap="round" stroke-linejoin="round" stroke-miterlimit="10" d="
			M27.159,227.245c-0.365-0.26-0.593-0.789-0.593-1.524V153.7c0-1.432,0.871-3.097,1.948-3.718l94.907-54.793
			c0.474-0.274,0.912-0.301,1.25-0.119"/>
		<path fill="none" stroke="#3A3A3A" stroke-width="2" stroke-linecap="round" stroke-linejoin="round" stroke-miterlimit="10" d="
			M124.698,95.084c0.411,0.242,0.671,0.789,0.671,1.574v72.022c0,1.432-0.871,3.097-1.948,3.718L28.514,227.19
			c-0.488,0.278-0.931,0.301-1.273,0.105"/>
		
			<line fill="none" stroke="#3A3A3A" stroke-width="2" stroke-linecap="round" stroke-linejoin="round" stroke-miterlimit="10" x1="46.7" y1="139.486" x2="46.7" y2="216.694"/>
		
			<polyline fill="none" stroke="#3A3A3A" stroke-width="2" stroke-linecap="round" stroke-linejoin="round" stroke-miterlimit="10" points="
			57.283,143.683 57.283,196.382 114.973,163.074 		"/>
		<path fill="none" stroke="#3A3A3A" stroke-width="2" stroke-linecap="round" stroke-linejoin="round" stroke-miterlimit="10" d="
			M87.321,162.33c1.157-2.642,1.838-5.415,1.838-7.978c0-2.427-0.609-4.337-1.656-5.643c-1.896-2.365-5.237-2.732-9.045-0.538
			c-5.907,3.412-10.697,11.709-10.697,18.533s4.79,9.588,10.697,6.176C82.148,170.751,85.398,166.718,87.321,162.33z"/>
		<path fill="none" stroke="#3A3A3A" stroke-width="2" stroke-linecap="round" stroke-linejoin="round" stroke-miterlimit="10" d="
			M99.03,129.921c0-2.591-1.82-3.645-4.064-2.349c-2.244,1.3-4.064,4.452-4.064,7.043c0,2.591,1.82,3.64,4.064,2.345
			S99.03,132.512,99.03,129.921z"/>
		<path fill="none" stroke="#3A3A3A" stroke-width="2" stroke-linecap="round" stroke-linejoin="round" stroke-miterlimit="10" d="
			M81.459,134.852c0-1.989-1.396-2.796-3.12-1.802c-1.724,0.994-3.12,3.417-3.12,5.405c0,1.989,1.396,2.796,3.12,1.802
			S81.459,136.841,81.459,134.852z"/>
		<path fill="none" stroke="#3A3A3A" stroke-width="2" stroke-linecap="round" stroke-linejoin="round" stroke-miterlimit="10" d="
			M114.065,119.853c0-1.692-1.191-2.381-2.655-1.533c-1.464,0.844-2.655,2.906-2.655,4.598s1.191,2.377,2.655,1.533
			C112.874,123.603,114.065,121.546,114.065,119.853z"/>
		<path fill="none" stroke="#3A3A3A" stroke-width="2" stroke-linecap="round" stroke-linejoin="round" stroke-miterlimit="10" d="
			M87.321,162.33c0.885,0.009,1.888-0.274,2.951-0.889c3.599-2.075,6.514-7.13,6.514-11.281c0-4.156-2.915-5.839-6.514-3.763
			c-0.99,0.575-1.93,1.373-2.769,2.313c-2.213,2.48-3.745,5.962-3.745,8.972C83.758,160.611,85.209,162.308,87.321,162.33z"/>
		
			<line fill="none" stroke="#3A3A3A" stroke-width="2" stroke-linecap="round" stroke-linejoin="round" stroke-miterlimit="10" x1="32.459" y1="157.212" x2="40.273" y2="152.701"/>
		
			<line fill="none" stroke="#3A3A3A" stroke-width="2" stroke-linecap="round" stroke-linejoin="round" stroke-miterlimit="10" x1="32.459" y1="160.583" x2="40.273" y2="156.072"/>
		
			<line fill="none" stroke="#3A3A3A" stroke-width="2" stroke-linecap="round" stroke-linejoin="round" stroke-miterlimit="10" x1="32.459" y1="163.95" x2="40.273" y2="159.443"/>
		<path fill="none" stroke="#3A3A3A" stroke-width="2" stroke-linecap="round" stroke-linejoin="round" stroke-miterlimit="10" d="
			M27.241,227.295l-4.739-2.737c-0.415-0.237-0.675-0.789-0.675-1.574v-72.022c0-1.432,0.871-3.097,1.948-3.718l94.907-54.793
			c0.488-0.283,0.935-0.301,1.273-0.105l4.744,2.737"/>
	</g>
</g>
<g>
	<g id="XMLID_00000107569467415711496360000006086913426280849846_">
		<g>
			<path fill="#979B9E" d="M299.187,137.196v114.614c0,1.196-0.398,2.038-1.027,2.401l-6.685,3.859
				c0.629-0.363,1.027-1.204,1.027-2.401V141.055L299.187,137.196z"/>
			<path fill="#C3C7CD" d="M299.187,130.863v6.333l-6.685,3.859v-6.333c0-2.188-1.328-4.728-2.968-5.677l-129.82-74.946
				c-0.722-0.417-1.382-0.455-1.895-0.185l6.638-3.832c0.521-0.301,1.2-0.274,1.941,0.158l129.82,74.946
				C297.859,126.135,299.187,128.674,299.187,130.863z"/>
			<path fill="#FFFFFF" d="M214.082,112.584c-0.289-0.164-0.567-0.336-0.853-0.502c-15.236-8.825-28.175-4.998-32.987,7.958
				c-0.08,0.216-0.158,0.432-0.232,0.656c-0.069,0.209-0.139,0.421-0.205,0.637c-0.012,0.023-0.016,0.046-0.023,0.069
				c-0.055,0.166-0.102,0.336-0.151,0.509c-0.318,1.135-0.596,2.324-0.81,3.574c-0.023,0.131-0.123,0.787-0.151,0.984
				c-0.031,0.22-0.062,0.44-0.085,0.664c-0.012,0.062-0.019,0.12-0.023,0.178c-0.031,0.243-0.053,0.486-0.077,0.733
				c-0.053,0.548-0.094,1.104-0.127,1.667c-0.013,0.216-0.028,0.432-0.035,0.648c-0.004,0.124-0.027,0.807-0.031,1.027
				c-0.004,0.286-0.008,0.575-0.008,0.868c0,22.288,15.646,49.385,34.943,60.527c19.301,11.146,34.947,2.111,34.947-20.173
				c0-1.034-0.035-2.076-0.1-3.13c-0.019-0.309-0.083-1.135-0.093-1.235c-0.031-0.312-0.055-0.621-0.089-0.938
				c-0.199-1.867-0.493-3.757-0.868-5.662c-0.056-0.281-0.336-1.575-0.421-1.941c-0.101-0.436-0.473-1.898-0.552-2.192
				c-0.123-0.458-0.542-1.925-0.625-2.196c-0.456-1.479-0.943-2.965-1.494-4.442c-0.127-0.34-0.672-1.744-0.818-2.107
				c-0.143-0.363-0.293-0.726-0.448-1.085c-0.301-0.722-0.614-1.44-0.942-2.154c-0.174-0.39-0.84-1.807-0.996-2.123
				c-0.008-0.015-0.015-0.031-0.027-0.046c-0.166-0.343-0.844-1.677-1.015-2.003c-0.228-0.434-1.184-2.2-1.212-2.25
				c-0.174-0.315-0.93-1.621-1.135-1.961c-0.401-0.675-0.814-1.343-1.235-2.007c-0.004-0.012-0.012-0.019-0.019-0.031
				c-0.21-0.325-0.413-0.652-0.625-0.973c0-0.004-0.004-0.004-0.004-0.008c-0.432-0.66-0.873-1.309-1.32-1.957
				c-0.215-0.311-1.128-1.589-1.335-1.868c-0.291-0.392-1.263-1.671-1.455-1.918c-0.24-0.308-0.479-0.614-0.726-0.915
				c-0.243-0.305-0.486-0.602-0.737-0.899c-0.243-0.301-0.496-0.593-0.749-0.888c-0.214-0.249-0.428-0.502-0.645-0.749
				c-0.474-0.541-0.959-1.071-1.447-1.598c-0.136-0.146-1.533-1.601-1.798-1.868c-0.267-0.269-1.437-1.399-1.756-1.694
				c-0.233-0.215-1.63-1.469-1.806-1.621c-0.218-0.187-1.691-1.412-1.891-1.571c-0.185-0.146-1.101-0.859-1.378-1.065
				c-0.236-0.176-0.475-0.355-0.718-0.529c-0.008-0.008-0.015-0.015-0.027-0.019c-0.212-0.154-0.861-0.613-0.969-0.687
				c-0.26-0.179-1.38-0.919-1.675-1.108c-0.268-0.171-0.533-0.34-0.799-0.498C214.183,112.642,214.132,112.612,214.082,112.584z
				 M292.502,141.055v114.614c0,1.196-0.398,2.038-1.027,2.401c-0.521,0.301-1.2,0.274-1.941-0.154l-129.82-74.95
				c-1.64-0.946-2.968-3.489-2.968-5.673V62.674L292.502,141.055z M266.47,149.824c0-1.66-1.162-3.678-2.597-4.508
				c-1.44-0.826-2.601-0.154-2.601,1.501c0,1.66,1.162,3.678,2.601,4.508C265.309,152.155,266.47,151.48,266.47,149.824z
				 M266.47,177.369c0-1.66-1.162-3.678-2.597-4.504c-1.44-0.83-2.601-0.158-2.601,1.501c0,1.656,1.162,3.674,2.601,4.504
				C265.309,179.7,266.47,179.028,266.47,177.369z M266.47,205.994c0-1.66-1.162-3.674-2.597-4.504
				c-1.44-0.83-2.601-0.158-2.601,1.501c0,1.66,1.162,3.674,2.601,4.504C265.309,208.325,266.47,207.654,266.47,205.994z"/>
			<path fill="#3A3A3A" d="M292.502,134.722v6.333L156.747,62.674v-6.333c0-1.193,0.398-2.038,1.027-2.401l0.046-0.027
				c0.513-0.27,1.173-0.232,1.895,0.185l129.82,74.946C291.175,129.994,292.502,132.534,292.502,134.722z"/>
			<path fill="#34CACC" d="M263.873,145.316c1.436,0.83,2.597,2.848,2.597,4.508c0,1.656-1.162,2.331-2.597,1.501
				c-1.44-0.83-2.601-2.848-2.601-4.508C261.272,145.162,262.433,144.49,263.873,145.316z"/>
			<path fill="#34CACC" d="M263.873,172.865c1.436,0.826,2.597,2.844,2.597,4.504s-1.162,2.331-2.597,1.501
				c-1.44-0.83-2.601-2.848-2.601-4.504C261.272,172.707,262.433,172.035,263.873,172.865z"/>
			<path fill="#34CACC" d="M263.873,201.49c1.436,0.83,2.597,2.844,2.597,4.504c0,1.66-1.162,2.331-2.597,1.501
				c-1.44-0.83-2.601-2.844-2.601-4.504C261.272,201.332,262.433,200.66,263.873,201.49z"/>
			<path fill="#FFFFFF" d="M248.076,169.48c0.066,1.054,0.1,2.096,0.1,3.13c0,22.284-15.646,31.319-34.947,20.173
				c-19.297-11.142-34.943-38.239-34.943-60.527c0-0.293,0.003-0.583,0.008-0.868c0.003-0.22,0.027-0.903,0.031-1.027
				c0.007-0.22,0.022-0.432,0.035-0.648c0.034-0.563,0.075-1.119,0.127-1.667c0.024-0.247,0.046-0.49,0.077-0.733
				c0.004-0.058,0.012-0.116,0.023-0.178c0.023-0.224,0.054-0.444,0.085-0.664c0.027-0.197,0.128-0.853,0.151-0.984
				c0.214-1.249,0.493-2.439,0.81-3.574c0.048-0.173,0.096-0.344,0.151-0.509c0.008-0.023,0.012-0.046,0.023-0.069
				c0.066-0.216,0.134-0.429,0.205-0.637c0.076-0.224,0.153-0.44,0.232-0.656c4.709-12.994,17.75-16.783,32.987-7.958
				c0.286,0.166,0.564,0.338,0.853,0.502c0.05,0.028,0.1,0.058,0.147,0.093c0.266,0.162,1.393,0.88,1.69,1.077
				c0.262,0.174,0.524,0.352,0.783,0.529c0.108,0.074,0.214,0.153,0.324,0.232c0.213,0.152,0.432,0.301,0.645,0.455
				c0.012,0.004,0.019,0.012,0.027,0.019c0.243,0.174,0.481,0.353,0.718,0.529c0.277,0.206,1.782,1.387,1.98,1.551
				c0.211,0.175,1.072,0.896,1.289,1.085c0.173,0.151,1.574,1.406,1.806,1.621c0.319,0.295,0.633,0.595,0.946,0.899
				c0.27,0.263,1.341,1.333,1.606,1.606c0.199,0.206,0.868,0.911,1.003,1.057c0.488,0.527,0.973,1.057,1.447,1.598
				c0.216,0.247,1.146,1.335,1.393,1.636c0.247,0.297,1.224,1.509,1.463,1.814c0.193,0.247,1.165,1.525,1.455,1.918
				c0.204,0.278,1.12,1.559,1.335,1.868c0.449,0.644,0.888,1.297,1.32,1.957c0,0.004,0.004,0.004,0.004,0.008
				c0.208,0.32,0.413,0.647,0.625,0.973c0.008,0.012,0.015,0.019,0.019,0.031c0.421,0.664,0.83,1.332,1.235,2.007
				c0.201,0.34,1.188,2.057,1.216,2.107c0.145,0.267,1.47,2.756,1.636,3.084c0.173,0.34,0.343,0.679,0.509,1.023
				c0.012,0.015,0.019,0.031,0.027,0.046c0.154,0.315,0.822,1.733,0.996,2.123c0.324,0.714,0.641,1.432,0.942,2.154
				c0.154,0.359,0.305,0.722,0.448,1.085c0.147,0.359,0.691,1.767,0.818,2.107c0.551,1.477,1.041,2.962,1.494,4.442
				c0.084,0.274,0.501,1.738,0.625,2.196c0.078,0.29,0.451,1.756,0.552,2.192c0.084,0.363,0.363,1.659,0.421,1.941
				c0.388,1.902,0.668,3.795,0.868,5.662c0.033,0.313,0.106,1.139,0.112,1.239C248.026,168.859,248.057,169.171,248.076,169.48z
				 M239.952,167.863c0-0.552-0.013-1.108-0.039-1.671c-0.012-0.278-0.027-0.56-0.046-0.841c-0.035-0.517-0.084-1.037-0.135-1.563
				c-0.018-0.185-0.04-0.37-0.062-0.556c-0.045-0.386-0.094-0.776-0.151-1.166c-0.036-0.247-0.17-1.092-0.201-1.274
				c-0.032-0.189-0.187-1.015-0.232-1.235c-0.049-0.243-0.379-1.733-0.428-1.941c-0.248-1.038-0.535-2.08-0.849-3.118
				c-0.07-0.231-0.63-1.933-0.699-2.134c-0.066-0.193-0.322-0.902-0.386-1.069c-0.518-1.356-1.059-2.717-1.667-4.06
				c-0.128-0.282-0.26-0.567-0.394-0.849c-0.651-1.375-1.348-2.733-2.092-4.072c-0.148-0.266-0.968-1.675-1-1.729
				c-4.704-8.032-11.243-14.909-18.344-19.008c-14.758-8.522-26.723-1.613-26.723,15.426c0,6.04,1.501,12.539,4.099,18.795
				c0.151,0.367,0.772,1.783,0.93,2.127c0.185,0.401,0.84,1.764,0.98,2.046c0.375,0.751,0.769,1.493,1.177,2.231
				c0.128,0.231,0.256,0.462,0.39,0.695c0.536,0.934,1.085,1.857,1.66,2.771c0.16,0.254,0.325,0.509,0.49,0.76
				c0.516,0.786,1.048,1.562,1.594,2.327c0.151,0.212,0.306,0.424,0.463,0.637c0.547,0.739,1.107,1.471,1.683,2.184
				c0.162,0.201,0.328,0.401,0.498,0.602c0.012,0.019,0.027,0.039,0.046,0.058c0.162,0.197,1.304,1.521,1.717,1.98
				c0.125,0.138,0.722,0.779,0.899,0.965c0.228,0.239,1.281,1.305,1.579,1.59c0.27,0.259,0.541,0.513,0.81,0.764
				c0.228,0.212,0.456,0.416,0.683,0.618c0.639,0.568,1.289,1.114,1.941,1.64c0.194,0.157,0.387,0.311,0.583,0.459
				c0.622,0.473,1.239,0.937,1.868,1.37c0.286,0.197,0.573,0.388,0.861,0.575c0.264,0.172,0.888,0.564,0.93,0.59
				c0.277,0.175,0.56,0.339,0.841,0.502C227.994,191.799,239.952,184.902,239.952,167.863z"/>
			<path fill="#FFFFFF" d="M248.007,168.546c0.027,0.313,0.05,0.625,0.069,0.934C248.057,169.171,248.034,168.859,248.007,168.546z"
				/>
			<path fill="#FFFFFF" d="M247.984,168.245c-0.027-0.313-0.054-0.625-0.089-0.938C247.93,167.624,247.957,167.932,247.984,168.245z
				"/>
			<path fill="#FFFFFF" d="M247.026,161.645c-0.058-0.282-0.116-0.567-0.178-0.849C246.911,161.082,246.972,161.364,247.026,161.645
				z"/>
			<path fill="#FFFFFF" d="M246.849,160.796c-0.077-0.363-0.158-0.729-0.243-1.092C246.691,160.071,246.772,160.434,246.849,160.796
				z"/>
			<path fill="#FFFFFF" d="M246.282,158.388c-0.073-0.293-0.147-0.587-0.228-0.876C246.135,157.805,246.212,158.099,246.282,158.388
				z"/>
			<path fill="#FFFFFF" d="M245.668,156.13c-0.077-0.27-0.154-0.54-0.239-0.814C245.514,155.586,245.595,155.86,245.668,156.13z"/>
			<path fill="#FFFFFF" d="M243.935,150.874c-0.127-0.34-0.259-0.683-0.39-1.023C243.68,150.191,243.808,150.534,243.935,150.874z"
				/>
			<path fill="#FFFFFF" d="M243.545,149.851c-0.139-0.363-0.282-0.726-0.428-1.085C243.264,149.129,243.406,149.488,243.545,149.851
				z"/>
			<path fill="#FFFFFF" d="M242.669,147.682c-0.301-0.722-0.618-1.44-0.942-2.154C242.056,146.242,242.368,146.96,242.669,147.682z"
				/>
			<path fill="#FFFFFF" d="M241.187,144.359c-0.151-0.32-0.305-0.637-0.455-0.953C240.886,143.722,241.037,144.039,241.187,144.359z
				"/>
			<path fill="#FFFFFF" d="M240.705,143.359c-0.166-0.343-0.336-0.683-0.509-1.023C240.369,142.676,240.539,143.016,240.705,143.359
				z"/>
			<path fill="#FFFFFF" d="M240.195,142.337c-0.166-0.328-0.332-0.656-0.506-0.98C239.863,141.681,240.033,142.009,240.195,142.337z
				"/>
			<path fill="#FFFFFF" d="M239.914,166.192c0.025,0.564,0.039,1.119,0.039,1.671c0,17.039-11.958,23.936-26.723,15.426
				c-0.282-0.162-0.561-0.326-0.841-0.502c-0.043-0.027-0.666-0.419-0.93-0.59c-0.288-0.187-0.575-0.378-0.861-0.575
				c-0.629-0.433-1.246-0.897-1.868-1.37c-0.195-0.149-0.389-0.303-0.583-0.459c-0.652-0.526-1.3-1.075-1.941-1.64
				c-0.23-0.203-0.458-0.41-0.683-0.618c-0.273-0.252-0.541-0.505-0.81-0.764c-0.297-0.285-0.595-0.583-0.888-0.88
				c-0.232-0.235-0.463-0.471-0.691-0.71c-0.177-0.186-0.776-0.83-0.899-0.965c-0.417-0.456-0.817-0.923-1.223-1.393
				c-0.168-0.195-0.332-0.39-0.494-0.587c-0.019-0.019-0.035-0.039-0.046-0.058c-0.17-0.197-0.336-0.401-0.498-0.602
				c-0.576-0.714-1.136-1.445-1.683-2.184c-0.158-0.213-0.312-0.425-0.463-0.637c-0.546-0.766-1.078-1.542-1.594-2.327
				c-0.165-0.251-0.328-0.506-0.49-0.76c-0.579-0.911-1.121-1.839-1.66-2.771c-0.133-0.229-0.261-0.46-0.39-0.695
				c-0.405-0.739-0.803-1.48-1.177-2.231c-0.14-0.281-0.795-1.644-0.98-2.046c-0.158-0.343-0.78-1.76-0.93-2.127
				c-2.597-6.256-4.099-12.755-4.099-18.795c0-17.039,11.964-23.948,26.723-15.426c7.101,4.099,13.64,10.976,18.344,19.008
				c0.031,0.054,0.853,1.467,1,1.729c0.748,1.336,1.441,2.697,2.092,4.072c0.134,0.282,0.265,0.564,0.394,0.849
				c0.605,1.345,1.163,2.699,1.667,4.06c0.061,0.166,0.32,0.876,0.386,1.069c0.069,0.201,0.626,1.902,0.699,2.134
				c0.322,1.036,0.601,2.081,0.849,3.118c0.05,0.208,0.38,1.699,0.428,1.941c0.044,0.22,0.198,1.046,0.232,1.235
				c0.032,0.181,0.165,1.031,0.201,1.274c0.057,0.39,0.105,0.78,0.151,1.166c0.022,0.185,0.044,0.371,0.062,0.556
				c0.051,0.526,0.1,1.046,0.135,1.563C239.886,165.632,239.901,165.914,239.914,166.192z M231.732,163.116
				c0-0.332-0.006-0.664-0.019-1c-0.003-0.085-0.035-0.679-0.035-0.687c-0.012-0.181-0.027-0.367-0.042-0.552
				c-0.016-0.189-0.035-0.378-0.054-0.567c-0.01-0.104-0.019-0.205-0.035-0.309c-0.012-0.143-0.032-0.285-0.05-0.428
				c-0.044-0.343-0.092-0.687-0.147-1.03c-0.083-0.517-0.185-1.037-0.293-1.559c-0.008-0.039-0.015-0.077-0.027-0.12
				c-0.081-0.386-0.173-0.771-0.27-1.162c-0.048-0.193-0.098-0.385-0.151-0.579c-0.104-0.385-0.212-0.772-0.332-1.162
				c-0.174-0.579-0.363-1.162-0.571-1.741c-0.131-0.386-0.276-0.767-0.425-1.154c-0.074-0.193-0.384-0.956-0.463-1.146
				c-0.08-0.192-0.163-0.382-0.247-0.575c-0.152-0.35-0.31-0.702-0.475-1.05c-0.458-0.967-0.949-1.928-1.474-2.871
				c-0.101-0.181-0.517-0.903-0.625-1.084c-0.509-0.853-1.05-1.688-1.609-2.509c-0.105-0.154-0.538-0.763-0.648-0.915
				c-0.109-0.15-0.22-0.301-0.332-0.452c-0.555-0.745-1.139-1.466-1.733-2.169c-0.117-0.138-0.237-0.277-0.359-0.417
				c-0.121-0.138-0.858-0.945-1.108-1.208c-0.124-0.131-0.249-0.26-0.378-0.39c-0.255-0.255-0.51-0.512-0.768-0.76
				c-0.132-0.127-0.26-0.249-0.39-0.367c-0.661-0.6-1.322-1.177-1.999-1.725c-0.136-0.11-0.271-0.215-0.409-0.32
				c-0.993-0.754-1.999-1.443-3.034-2.038c-10.216-5.901-18.498-1.115-18.498,10.679c0,7.086,3.068,15.035,7.584,21.632
				c0.008,0.011,0.386,0.544,0.571,0.795c0.433,0.586,0.882,1.16,1.339,1.721c0.147,0.181,0.296,0.36,0.444,0.536
				c0.195,0.233,0.392,0.461,0.59,0.683c0.118,0.132,0.637,0.698,0.78,0.849c0.186,0.196,0.371,0.394,0.56,0.587
				c0.517,0.529,1.043,1.041,1.586,1.528c0.138,0.124,0.279,0.246,0.421,0.37c0.148,0.13,0.299,0.256,0.448,0.382
				c0.152,0.129,0.298,0.254,0.448,0.374c1.21,0.973,2.451,1.849,3.728,2.586C223.449,179.696,231.732,174.914,231.732,163.116z"/>
			<path fill="#FFFFFF" d="M239.914,166.192c-0.012-0.278-0.027-0.56-0.046-0.841C239.887,165.632,239.902,165.914,239.914,166.192z
				"/>
			<path fill="#FFFFFF" d="M239.732,163.787c-0.015-0.185-0.039-0.37-0.062-0.556C239.694,163.417,239.717,163.602,239.732,163.787z
				"/>
			<path fill="#FFFFFF" d="M239.52,162.066c-0.035-0.243-0.069-0.49-0.112-0.737C239.447,161.576,239.485,161.819,239.52,162.066z"
				/>
			<path fill="#FFFFFF" d="M239.408,161.329c-0.027-0.178-0.058-0.355-0.089-0.536C239.35,160.974,239.381,161.151,239.408,161.329z
				"/>
			<path fill="#FFFFFF" d="M239.319,160.792c-0.035-0.189-0.066-0.382-0.104-0.575C239.254,160.41,239.288,160.603,239.319,160.792z
				"/>
			<path fill="#FFFFFF" d="M239.088,159.557c-0.046-0.243-0.096-0.486-0.151-0.726C238.991,159.071,239.041,159.314,239.088,159.557
				z"/>
			<path fill="#FFFFFF" d="M238.999,140.056c-0.147-0.266-0.293-0.536-0.44-0.803C238.709,139.519,238.856,139.786,238.999,140.056z
				"/>
			<path fill="#FFFFFF" d="M238.937,158.832c-0.042-0.197-0.085-0.394-0.131-0.59C238.852,158.438,238.895,158.635,238.937,158.832z
				"/>
			<path fill="#FFFFFF" d="M238.806,158.241c-0.046-0.208-0.096-0.417-0.147-0.625C238.709,157.825,238.76,158.033,238.806,158.241z
				"/>
			<path fill="#FFFFFF" d="M238.478,139.106c-0.178-0.313-0.355-0.625-0.536-0.938C238.123,138.481,238.3,138.794,238.478,139.106z"
				/>
			<path fill="#FFFFFF" d="M237.941,138.169c-0.197-0.343-0.398-0.683-0.598-1.023C237.548,137.485,237.745,137.825,237.941,138.169
				z"/>
			<path fill="#FFFFFF" d="M237.81,154.498c-0.073-0.232-0.143-0.463-0.22-0.695C237.667,154.035,237.741,154.266,237.81,154.498z"
				/>
			<path fill="#FFFFFF" d="M237.59,153.803c-0.089-0.282-0.178-0.56-0.274-0.837C237.413,153.243,237.505,153.521,237.59,153.803z"
				/>
			<path fill="#FFFFFF" d="M237.112,152.364c-0.066-0.193-0.135-0.382-0.205-0.571C236.977,151.981,237.046,152.171,237.112,152.364
				z"/>
			<path fill="#FFFFFF" d="M236.907,151.792c-0.058-0.166-0.12-0.332-0.181-0.498C236.791,151.46,236.849,151.626,236.907,151.792z"
				/>
			<path fill="#FFFFFF" d="M237.343,137.146c-0.405-0.675-0.814-1.343-1.235-2.007C236.529,135.803,236.942,136.47,237.343,137.146z
				"/>
			<path fill="#FFFFFF" d="M236.089,135.108c-0.208-0.328-0.417-0.652-0.625-0.973C235.676,134.456,235.884,134.78,236.089,135.108z
				"/>
			<path fill="#FFFFFF" d="M235.058,147.234c-0.127-0.286-0.259-0.567-0.394-0.849C234.8,146.667,234.931,146.953,235.058,147.234z"
				/>
			<path fill="#FFFFFF" d="M235.46,134.128c-0.432-0.66-0.872-1.312-1.32-1.957C234.591,132.815,235.028,133.468,235.46,134.128z"/>
			<path fill="#FFFFFF" d="M234.14,132.171c-0.216-0.309-0.432-0.618-0.652-0.926C233.708,131.55,233.928,131.858,234.14,132.171z"
				/>
			<path fill="#FFFFFF" d="M233.414,131.144c-0.201-0.282-0.405-0.563-0.61-0.841C233.013,130.581,233.214,130.863,233.414,131.144z
				"/>
			<path fill="#FFFFFF" d="M232.573,142.314c-0.147-0.262-0.297-0.525-0.448-0.787C232.276,141.785,232.426,142.047,232.573,142.314
				z"/>
			<path fill="#FFFFFF" d="M232.125,141.526c-0.151-0.262-0.305-0.521-0.459-0.783C231.824,141.001,231.975,141.264,232.125,141.526
				z"/>
			<path fill="#FFFFFF" d="M231.921,129.126c-0.189-0.247-0.378-0.494-0.571-0.741C231.542,128.632,231.735,128.875,231.921,129.126
				z"/>
			<path fill="#FFFFFF" d="M231.712,162.116c0.012,0.336,0.019,0.668,0.019,1C231.732,162.784,231.724,162.452,231.712,162.116z"/>
			<path fill="#FFFFFF" d="M231.712,162.116c0.013,0.336,0.019,0.668,0.019,1c0,11.798-8.282,16.58-18.502,10.679
				c-1.277-0.737-2.526-1.603-3.728-2.586c-0.151-0.123-0.746-0.624-0.895-0.756c-0.14-0.123-0.282-0.246-0.421-0.37
				c-0.543-0.487-1.069-1-1.586-1.528c-0.189-0.193-1.221-1.303-1.339-1.436c-0.199-0.222-0.394-0.451-0.59-0.683
				c-0.151-0.177-0.297-0.356-0.444-0.536c-0.457-0.561-0.907-1.135-1.339-1.721c-0.185-0.251-0.563-0.784-0.571-0.795
				c-4.516-6.598-7.584-14.546-7.584-21.632c0-11.794,8.282-16.58,18.498-10.679c1.034,0.594,2.041,1.284,3.034,2.038
				c0.138,0.105,0.274,0.213,0.409,0.32c0.682,0.542,1.343,1.119,1.999,1.725c0.13,0.12,0.262,0.244,0.39,0.367
				c0.258,0.248,1.019,1.018,1.146,1.15c0.252,0.261,0.497,0.53,0.741,0.799c0.123,0.136,0.606,0.687,0.726,0.826
				c0.599,0.698,1.178,1.424,1.733,2.169c0.112,0.15,0.551,0.753,0.66,0.907c0.107,0.151,0.215,0.305,0.32,0.459
				c0.56,0.821,1.103,1.654,1.609,2.509c0.105,0.177,0.524,0.903,0.625,1.084c0.526,0.943,1.019,1.903,1.474,2.871
				c0.162,0.351,0.32,0.699,0.475,1.05c0.085,0.193,0.406,0.957,0.482,1.146c0.078,0.193,0.152,0.381,0.228,0.575
				c0.15,0.385,0.289,0.768,0.425,1.154c0.205,0.579,0.398,1.162,0.571,1.741c0.116,0.386,0.229,0.775,0.332,1.162
				c0.051,0.193,0.101,0.386,0.151,0.579c0.099,0.389,0.189,0.776,0.27,1.162c0.012,0.042,0.019,0.081,0.027,0.12
				c0.106,0.521,0.21,1.042,0.293,1.559c0.055,0.343,0.102,0.687,0.147,1.03c0.018,0.143,0.039,0.286,0.05,0.428
				c0.015,0.104,0.025,0.205,0.035,0.309c0.019,0.19,0.038,0.378,0.054,0.567c0.015,0.185,0.031,0.37,0.042,0.552
				C231.678,161.437,231.709,162.031,231.712,162.116z M223.496,158.913c0.004-0.178,0.012-0.359,0.012-0.544
				c0-6.557-4.6-14.527-10.278-17.804c-0.865-0.502-1.708-0.853-2.509-1.092c-0.112-0.034-0.224-0.062-0.332-0.089
				c-0.185-0.046-0.371-0.083-0.556-0.116c-0.143-0.025-0.282-0.046-0.421-0.062c-3.787-0.428-6.461,2.296-6.461,7.294
				c0,6.553,4.6,14.523,10.278,17.8c4.16,2.401,7.742,1.617,9.359-1.551c0.004-0.004,0.004-0.012,0.008-0.015
				c0.066-0.127,0.124-0.258,0.181-0.39c0.086-0.196,0.163-0.401,0.235-0.614c0.035-0.104,0.067-0.213,0.1-0.324
				c0.022-0.074,0.042-0.151,0.062-0.228c0.034-0.131,0.065-0.263,0.093-0.398c0.034-0.162,0.063-0.325,0.093-0.49
				c0.007-0.039,0.013-0.081,0.019-0.12c0.027-0.158,0.042-0.324,0.058-0.49c0.008-0.039,0.012-0.073,0.012-0.112
				c0.019-0.154,0.029-0.317,0.039-0.479C223.491,159.033,223.494,158.975,223.496,158.913z"/>
			<path fill="#FFFFFF" d="M231.701,161.865l-0.023-0.417L231.701,161.865z"/>
			<path fill="#FFFFFF" d="M231.678,161.429c-0.012-0.181-0.027-0.367-0.042-0.552C231.651,161.063,231.666,161.248,231.678,161.429
				z"/>
			<path fill="#FFFFFF" d="M231.635,160.877c-0.015-0.189-0.031-0.378-0.054-0.567C231.604,160.499,231.62,160.688,231.635,160.877z
				"/>
			<path fill="#FFFFFF" d="M231.546,160.001c-0.012-0.143-0.031-0.286-0.05-0.428C231.515,159.716,231.535,159.859,231.546,160.001z
				"/>
			<path fill="#FFFFFF" d="M231.349,128.385c-0.239-0.305-0.482-0.61-0.726-0.915C230.871,127.771,231.11,128.076,231.349,128.385z"
				/>
			<path fill="#FFFFFF" d="M231.056,156.983c0.112,0.521,0.208,1.042,0.293,1.559C231.265,158.025,231.164,157.504,231.056,156.983z
				"/>
			<path fill="#FFFFFF" d="M231.029,156.864c-0.081-0.386-0.174-0.772-0.27-1.162C230.859,156.092,230.948,156.478,231.029,156.864z
				"/>
			<path fill="#FFFFFF" d="M230.759,155.702l-0.151-0.579C230.663,155.316,230.713,155.509,230.759,155.702z"/>
			<path fill="#FFFFFF" d="M230.624,127.47c-0.243-0.301-0.49-0.602-0.737-0.899C230.138,126.868,230.381,127.165,230.624,127.47z"
				/>
			<path fill="#FFFFFF" d="M230.608,155.123c-0.104-0.386-0.216-0.776-0.332-1.162C230.396,154.351,230.508,154.737,230.608,155.123
				z"/>
			<path fill="#FFFFFF" d="M230.277,153.961c-0.174-0.579-0.367-1.162-0.571-1.741C229.914,152.8,230.103,153.382,230.277,153.961z"
				/>
			<path fill="#FFFFFF" d="M229.887,126.571c-0.247-0.301-0.498-0.594-0.749-0.888C229.393,125.977,229.644,126.27,229.887,126.571z
				"/>
			<path fill="#FFFFFF" d="M229.705,152.221c-0.135-0.386-0.278-0.768-0.425-1.154C229.431,151.453,229.574,151.835,229.705,152.221
				z"/>
			<path fill="#FFFFFF" d="M229.281,151.067c-0.077-0.193-0.151-0.382-0.228-0.575C229.134,150.685,229.208,150.874,229.281,151.067
				z"/>
			<path fill="#FFFFFF" d="M229.138,125.683c-0.212-0.251-0.428-0.502-0.645-0.749C228.71,125.182,228.926,125.432,229.138,125.683z
				"/>
			<path fill="#FFFFFF" d="M229.053,150.492c-0.077-0.189-0.158-0.382-0.235-0.571C228.899,150.11,228.98,150.303,229.053,150.492z"
				/>
			<path fill="#FFFFFF" d="M228.818,149.92c-0.081-0.193-0.162-0.382-0.247-0.575C228.656,149.538,228.741,149.728,228.818,149.92z"
				/>
			<path fill="#FFFFFF" d="M228.571,149.345c-0.154-0.351-0.313-0.699-0.475-1.05C228.262,148.643,228.42,148.994,228.571,149.345z"
				/>
			<path fill="#FFFFFF" d="M227.046,123.337c-0.135-0.147-0.27-0.293-0.413-0.44C226.772,123.043,226.911,123.19,227.046,123.337z"
				/>
			<path fill="#FFFFFF" d="M226.622,145.424c-0.1-0.181-0.205-0.363-0.309-0.544C226.417,145.061,226.521,145.243,226.622,145.424z"
				/>
			<path fill="#FFFFFF" d="M226.313,144.88c-0.104-0.181-0.212-0.363-0.316-0.54C226.105,144.521,226.209,144.699,226.313,144.88z"
				/>
			<path fill="#FFFFFF" d="M226.043,122.279c-0.262-0.274-0.529-0.544-0.795-0.81C225.514,121.735,225.78,122.005,226.043,122.279z"
				/>
			<path fill="#FFFFFF" d="M225.248,121.469c-0.27-0.27-0.54-0.533-0.81-0.795C224.711,120.936,224.981,121.199,225.248,121.469z"/>
			<path fill="#FFFFFF" d="M224.387,141.831c-0.104-0.154-0.212-0.309-0.32-0.459C224.175,141.522,224.283,141.677,224.387,141.831z
				"/>
			<path fill="#FFFFFF" d="M224.067,141.372c-0.108-0.154-0.216-0.305-0.328-0.455C223.851,141.067,223.959,141.217,224.067,141.372
				z"/>
			<path fill="#FFFFFF" d="M223.739,140.916c-0.108-0.151-0.22-0.301-0.332-0.452C223.519,140.615,223.631,140.766,223.739,140.916z
				"/>
			<path fill="#C3C7CD" d="M223.507,158.369c0,0.185-0.008,0.367-0.012,0.544c-0.001,0.062-0.004,0.12-0.008,0.178
				c-0.009,0.162-0.019,0.32-0.039,0.479c0,0.039-0.004,0.073-0.012,0.112c-0.012,0.166-0.035,0.328-0.058,0.49
				c-0.008,0.039-0.012,0.081-0.019,0.12c-0.03,0.165-0.059,0.332-0.093,0.49c-0.028,0.135-0.059,0.266-0.093,0.398
				c-0.02,0.077-0.042,0.154-0.062,0.228c-0.03,0.112-0.065,0.22-0.1,0.324c-0.072,0.213-0.151,0.417-0.235,0.614
				c-0.058,0.135-0.116,0.262-0.181,0.39c-0.004,0.004-0.004,0.012-0.008,0.015c-1.617,3.169-5.199,3.952-9.359,1.551
				c-5.677-3.277-10.278-11.246-10.278-17.8c0-4.998,2.674-7.723,6.461-7.294c0.139,0.016,0.278,0.036,0.421,0.062
				c0.185,0.033,0.37,0.07,0.556,0.116c0.112,0.027,0.22,0.055,0.332,0.089c0.8,0.24,1.644,0.59,2.509,1.092
				C218.907,143.842,223.507,151.812,223.507,158.369z"/>
			<path fill="#FFFFFF" d="M223.496,158.913c0.008-0.178,0.012-0.359,0.012-0.544C223.507,158.554,223.503,158.735,223.496,158.913z
				"/>
			<path fill="#FFFFFF" d="M223.488,159.09c0.004-0.058,0.008-0.116,0.008-0.178C223.496,158.975,223.492,159.033,223.488,159.09z"
				/>
			<path fill="#FFFFFF" d="M223.492,119.774c-0.232-0.216-0.463-0.428-0.695-0.637C223.029,119.346,223.26,119.558,223.492,119.774z
				"/>
			<path fill="#FFFFFF" d="M223.449,159.569c0.019-0.158,0.031-0.316,0.039-0.479C223.48,159.253,223.469,159.415,223.449,159.569z"
				/>
			<path fill="#FFFFFF" d="M223.38,160.171c0.023-0.162,0.046-0.324,0.058-0.49C223.422,159.847,223.403,160.013,223.38,160.171z"/>
			<path fill="#FFFFFF" d="M223.268,160.781c0.035-0.158,0.066-0.324,0.093-0.49C223.333,160.457,223.303,160.619,223.268,160.781z"
				/>
			<path fill="#FFFFFF" d="M223.113,161.406c0.019-0.073,0.042-0.151,0.062-0.228C223.156,161.256,223.137,161.333,223.113,161.406z
				"/>
			<path fill="#FFFFFF" d="M223.013,161.73c0.035-0.104,0.069-0.212,0.1-0.324C223.083,161.518,223.048,161.626,223.013,161.73z"/>
			<path fill="#FFFFFF" d="M222.797,119.138c-0.197-0.178-0.394-0.355-0.59-0.529C222.403,118.783,222.6,118.956,222.797,119.138z"
				/>
			<path fill="#FFFFFF" d="M222.596,162.734c0.066-0.127,0.124-0.255,0.181-0.39C222.72,162.475,222.662,162.606,222.596,162.734z"
				/>
			<path fill="#FFFFFF" d="M222.206,118.609c-0.174-0.154-0.347-0.305-0.521-0.455C221.863,118.304,222.037,118.455,222.206,118.609
				z"/>
			<path fill="#FFFFFF" d="M221.674,138.296l-0.359-0.417C221.438,138.018,221.558,138.157,221.674,138.296z"/>
			<path fill="#FFFFFF" d="M221.315,137.879c-0.12-0.135-0.243-0.274-0.367-0.409C221.072,137.605,221.195,137.74,221.315,137.879z"
				/>
			<path fill="#FFFFFF" d="M221.033,117.598c-0.212-0.178-0.425-0.355-0.637-0.529C220.609,117.243,220.821,117.416,221.033,117.598
				z"/>
			<path fill="#FFFFFF" d="M220.207,136.671c-0.127-0.131-0.251-0.262-0.378-0.39C219.96,136.409,220.084,136.54,220.207,136.671z"
				/>
			<path fill="#FFFFFF" d="M219.794,116.583c-0.185-0.147-0.37-0.293-0.556-0.436C219.424,116.289,219.609,116.436,219.794,116.583z
				"/>
			<path fill="#FFFFFF" d="M219.829,136.281c-0.255-0.259-0.509-0.513-0.768-0.76C219.32,135.768,219.578,136.023,219.829,136.281z"
				/>
			<path fill="#FFFFFF" d="M219.061,135.521c-0.127-0.124-0.259-0.247-0.39-0.367C218.802,135.27,218.93,135.394,219.061,135.521z"
				/>
			<path fill="#FFFFFF" d="M218.417,115.518c-0.235-0.178-0.475-0.355-0.718-0.529C217.942,115.162,218.181,115.34,218.417,115.518z
				"/>
			<path fill="#FFFFFF" d="M217.672,114.969c-0.212-0.154-0.428-0.309-0.645-0.455C217.243,114.661,217.459,114.815,217.672,114.969
				z"/>
			<path fill="#FFFFFF" d="M216.703,114.282c-0.259-0.178-0.521-0.355-0.783-0.529C216.182,113.924,216.444,114.101,216.703,114.282
				z"/>
			<path fill="#FFFFFF" d="M216.672,133.429c-0.135-0.108-0.27-0.216-0.409-0.32C216.402,133.213,216.537,133.317,216.672,133.429z"
				/>
			<path fill="#FFFFFF" d="M215.919,113.754c-0.297-0.197-0.594-0.39-0.892-0.579C215.325,113.36,215.622,113.553,215.919,113.754z"
				/>
			<path fill="#FFFFFF" d="M215.028,113.175c-0.266-0.17-0.533-0.336-0.799-0.498C214.495,112.835,214.762,113.001,215.028,113.175z
				"/>
			<path fill="#FFFFFF" d="M212.388,182.787c0.282,0.174,0.56,0.34,0.841,0.502C212.948,183.127,212.666,182.961,212.388,182.787z"
				/>
			<path fill="#FFFFFF" d="M211.458,182.197c0.262,0.174,0.529,0.343,0.795,0.506C211.987,182.54,211.72,182.371,211.458,182.197z"
				/>
			<path fill="#FFFFFF" d="M210.597,181.622c0.286,0.197,0.571,0.39,0.861,0.575C211.169,182.012,210.883,181.819,210.597,181.622z"
				/>
			<path fill="#FFFFFF" d="M210.721,139.473c-0.112-0.035-0.22-0.062-0.332-0.089C210.497,139.411,210.609,139.438,210.721,139.473z
				"/>
			<path fill="#FFFFFF" d="M209.833,139.268c-0.143-0.027-0.282-0.046-0.421-0.062C209.551,139.222,209.69,139.241,209.833,139.268z
				"/>
			<path fill="#FFFFFF" d="M209.054,170.835c0.147,0.127,0.297,0.251,0.448,0.374C209.351,171.089,209.204,170.966,209.054,170.835z
				"/>
			<path fill="#FFFFFF" d="M208.606,170.453c0.151,0.131,0.297,0.259,0.448,0.382C208.903,170.711,208.753,170.584,208.606,170.453z
				"/>
			<path fill="#FFFFFF" d="M208.147,179.792c0.193,0.158,0.386,0.313,0.583,0.459C208.533,180.105,208.34,179.951,208.147,179.792z"
				/>
			<path fill="#FFFFFF" d="M208.185,170.082c0.139,0.124,0.282,0.247,0.421,0.37C208.463,170.329,208.324,170.206,208.185,170.082z"
				/>
			<path fill="#FFFFFF" d="M206.039,167.967c0.185,0.201,0.37,0.394,0.56,0.587C206.41,168.361,206.225,168.164,206.039,167.967z"/>
			<path fill="#FFFFFF" d="M205.522,177.535c0.224,0.208,0.452,0.417,0.683,0.618C205.978,177.952,205.75,177.747,205.522,177.535z"
				/>
			<path fill="#FFFFFF" d="M205.26,167.118c0.12,0.131,0.239,0.266,0.359,0.394C205.495,167.381,205.379,167.249,205.26,167.118z"/>
			<path fill="#FFFFFF" d="M204.712,176.771c0.27,0.259,0.536,0.513,0.81,0.764C205.252,177.284,204.982,177.029,204.712,176.771z"
				/>
			<path fill="#FFFFFF" d="M204.225,165.899c0.147,0.181,0.293,0.359,0.444,0.536C204.523,166.257,204.372,166.08,204.225,165.899z"
				/>
			<path fill="#FFFFFF" d="M203.133,175.18c0.228,0.239,0.459,0.475,0.691,0.71C203.592,175.659,203.361,175.42,203.133,175.18z"/>
			<path fill="#FFFFFF" d="M202.612,174.625c0.17,0.185,0.343,0.37,0.521,0.556C202.956,174.995,202.782,174.81,202.612,174.625z"/>
			<path fill="#FFFFFF" d="M202.338,163.417c0.181,0.255,0.363,0.509,0.548,0.76C202.701,163.926,202.52,163.672,202.338,163.417z"
				/>
			<path fill="#FFFFFF" d="M202.234,174.216c0.124,0.135,0.251,0.274,0.378,0.409C202.485,174.49,202.357,174.355,202.234,174.216z"
				/>
			<path fill="#FFFFFF" d="M200.516,172.236c0.162,0.197,0.324,0.394,0.494,0.587C200.841,172.629,200.679,172.433,200.516,172.236z
				"/>
			<path fill="#FFFFFF" d="M200.47,172.178c-0.17-0.201-0.336-0.401-0.498-0.602C200.134,171.776,200.3,171.981,200.47,172.178z"/>
			<path fill="#FFFFFF" d="M197.826,168.755c0.151,0.212,0.305,0.425,0.463,0.637C198.131,169.179,197.977,168.967,197.826,168.755z
				"/>
			<path fill="#FFFFFF" d="M195.742,165.667c0.162,0.255,0.324,0.509,0.49,0.76C196.067,166.176,195.901,165.922,195.742,165.667z"
				/>
			<path fill="#FFFFFF" d="M193.693,162.201c0.127,0.235,0.255,0.467,0.39,0.695C193.948,162.664,193.82,162.433,193.693,162.201z"
				/>
			<path fill="#FFFFFF" d="M192.103,159.125c0.135,0.282,0.274,0.563,0.413,0.845C192.377,159.689,192.238,159.407,192.103,159.125z
				"/>
			<path fill="#FFFFFF" d="M191.072,156.891c0.151,0.347,0.305,0.691,0.463,1.034C191.377,157.581,191.223,157.234,191.072,156.891z
				"/>
			<path fill="#FFFFFF" d="M180.243,120.041c-0.077,0.216-0.154,0.432-0.232,0.656C180.085,120.473,180.162,120.257,180.243,120.041
				z"/>
			<path fill="#FFFFFF" d="M180.011,120.697c-0.069,0.208-0.139,0.421-0.205,0.637C179.872,121.118,179.942,120.905,180.011,120.697
				z"/>
			<path fill="#FFFFFF" d="M179.784,121.403c-0.054,0.166-0.104,0.336-0.151,0.509C179.679,121.739,179.73,121.569,179.784,121.403z
				"/>
			<path fill="#FFFFFF" d="M178.757,125.888c0.019-0.135,0.042-0.27,0.066-0.401C178.799,125.618,178.776,125.753,178.757,125.888z"
				/>
			<path fill="#FFFFFF" d="M178.672,126.471c-0.031,0.22-0.062,0.44-0.085,0.664C178.61,126.911,178.641,126.691,178.672,126.471z"
				/>
			<path fill="#FFFFFF" d="M178.564,127.312c-0.031,0.243-0.054,0.486-0.077,0.733C178.51,127.798,178.533,127.555,178.564,127.312z
				"/>
			<path fill="#FFFFFF" d="M178.359,129.712c-0.015,0.216-0.027,0.428-0.035,0.648C178.332,130.145,178.344,129.929,178.359,129.712
				z"/>
			<path fill="#FFFFFF" d="M178.325,130.361l-0.012,0.374L178.325,130.361z"/>
			<path fill="#FFFFFF" d="M178.294,131.387c-0.004,0.286-0.008,0.575-0.008,0.868C178.286,131.963,178.29,131.673,178.294,131.387z
				"/>
		</g>
		<g>
			<path fill="none" stroke="#3A3A3A" stroke-width="2" stroke-linecap="round" stroke-linejoin="round" stroke-miterlimit="10" d="
				M157.82,53.913c0.513-0.27,1.173-0.232,1.895,0.185l129.82,74.946c1.64,0.949,2.968,3.489,2.968,5.677v120.947
				c0,1.196-0.398,2.038-1.027,2.401c-0.521,0.301-1.2,0.274-1.941-0.154l-129.82-74.95c-1.64-0.946-2.968-3.489-2.968-5.673V56.341
				c0-1.193,0.398-2.038,1.027-2.401"/>
			<path fill="none" stroke="#3A3A3A" stroke-width="2" stroke-linecap="round" stroke-linejoin="round" stroke-miterlimit="10" d="
				M223.449,159.569c0.019-0.154,0.029-0.317,0.039-0.479c0.003-0.058,0.006-0.116,0.008-0.178c0.004-0.178,0.012-0.359,0.012-0.544
				"/>
			<path fill="none" stroke="#3A3A3A" stroke-width="2" stroke-linecap="round" stroke-linejoin="round" stroke-miterlimit="10" d="
				M223.38,160.171c0.023-0.158,0.042-0.324,0.058-0.49"/>
			<path fill="none" stroke="#3A3A3A" stroke-width="2" stroke-linecap="round" stroke-linejoin="round" stroke-miterlimit="10" d="
				M223.268,160.781c0.035-0.162,0.066-0.324,0.093-0.49"/>
			<path fill="none" stroke="#3A3A3A" stroke-width="2" stroke-linecap="round" stroke-linejoin="round" stroke-miterlimit="10" d="
				M223.013,161.73c0.035-0.104,0.07-0.212,0.1-0.324c0.02-0.073,0.042-0.151,0.062-0.228"/>
			<path fill="none" stroke="#3A3A3A" stroke-width="2" stroke-linecap="round" stroke-linejoin="round" stroke-miterlimit="10" d="
				M222.596,162.734c0.066-0.127,0.124-0.259,0.181-0.39"/>
			<path fill="none" stroke="#3A3A3A" stroke-width="2" stroke-linecap="round" stroke-linejoin="round" stroke-miterlimit="10" d="
				M209.833,139.268c-0.143-0.027-0.282-0.046-0.421-0.062c-3.787-0.428-6.461,2.296-6.461,7.294c0,6.553,4.6,14.523,10.278,17.8
				c4.16,2.401,7.742,1.617,9.359-1.551"/>
			<path fill="none" stroke="#3A3A3A" stroke-width="2" stroke-linecap="round" stroke-linejoin="round" stroke-miterlimit="10" d="
				M210.721,139.473c-0.112-0.035-0.224-0.062-0.332-0.089"/>
			<path fill="none" stroke="#3A3A3A" stroke-width="2" stroke-linecap="round" stroke-linejoin="round" stroke-miterlimit="10" d="
				M208.185,170.082c0.139,0.124,1.166,1.003,1.316,1.127"/>
			<path fill="none" stroke="#3A3A3A" stroke-width="2" stroke-linecap="round" stroke-linejoin="round" stroke-miterlimit="10" d="
				M206.039,167.967c0.185,0.197,0.37,0.394,0.56,0.587"/>
			<path fill="none" stroke="#3A3A3A" stroke-width="2" stroke-linecap="round" stroke-linejoin="round" stroke-miterlimit="10" d="
				M205.26,167.118c0.12,0.131,0.239,0.266,0.359,0.394"/>
			<path fill="none" stroke="#3A3A3A" stroke-width="2" stroke-linecap="round" stroke-linejoin="round" stroke-miterlimit="10" d="
				M204.225,165.899c0.147,0.181,0.297,0.359,0.444,0.536"/>
			<path fill="none" stroke="#3A3A3A" stroke-width="2" stroke-linecap="round" stroke-linejoin="round" stroke-miterlimit="10" d="
				M202.338,163.417c0.181,0.255,0.363,0.509,0.548,0.76"/>
			<path fill="none" stroke="#3A3A3A" stroke-width="2" stroke-linecap="round" stroke-linejoin="round" stroke-miterlimit="10" d="
				M216.672,133.429c-0.135-0.112-0.271-0.215-0.409-0.32c-0.993-0.754-1.999-1.443-3.034-2.038
				c-10.216-5.901-18.498-1.115-18.498,10.679c0,7.086,2.987,15.09,7.584,21.632"/>
			<path fill="none" stroke="#3A3A3A" stroke-width="2" stroke-linecap="round" stroke-linejoin="round" stroke-miterlimit="10" d="
				M220.207,136.671c-0.124-0.131-0.249-0.26-0.378-0.39c-0.255-0.255-0.51-0.512-0.768-0.76c-0.132-0.127-0.259-0.251-0.39-0.367"
				/>
			<path fill="none" stroke="#3A3A3A" stroke-width="2" stroke-linecap="round" stroke-linejoin="round" stroke-miterlimit="10" d="
				M221.674,138.296c-0.116-0.139-0.237-0.277-0.359-0.417c-0.121-0.138-0.243-0.274-0.367-0.409"/>
			<path fill="none" stroke="#3A3A3A" stroke-width="2" stroke-linecap="round" stroke-linejoin="round" stroke-miterlimit="10" d="
				M224.387,141.831c-0.104-0.154-0.213-0.308-0.32-0.459c-0.109-0.154-0.548-0.756-0.66-0.907"/>
			<path fill="none" stroke="#3A3A3A" stroke-width="2" stroke-linecap="round" stroke-linejoin="round" stroke-miterlimit="10" d="
				M226.622,145.424c-0.1-0.181-0.521-0.907-0.625-1.084"/>
			<path fill="none" stroke="#3A3A3A" stroke-width="2" stroke-linecap="round" stroke-linejoin="round" stroke-miterlimit="10" d="
				M231.029,156.864c-0.081-0.386-0.171-0.772-0.27-1.162c-0.049-0.193-0.099-0.386-0.151-0.579
				c-0.102-0.386-0.216-0.776-0.332-1.162c-0.174-0.579-0.368-1.161-0.571-1.741c-0.136-0.386-0.275-0.769-0.425-1.154
				c-0.076-0.194-0.625-1.528-0.71-1.721c-0.154-0.351-0.313-0.699-0.475-1.05"/>
			<path fill="none" stroke="#3A3A3A" stroke-width="2" stroke-linecap="round" stroke-linejoin="round" stroke-miterlimit="10" d="
				M231.349,158.542c-0.085-0.517-0.185-1.038-0.293-1.559"/>
			<path fill="none" stroke="#3A3A3A" stroke-width="2" stroke-linecap="round" stroke-linejoin="round" stroke-miterlimit="10" d="
				M231.546,160.001c-0.012-0.143-0.031-0.286-0.05-0.428"/>
			<path fill="none" stroke="#3A3A3A" stroke-width="2" stroke-linecap="round" stroke-linejoin="round" stroke-miterlimit="10" d="
				M231.678,161.429c-0.012-0.181-0.027-0.367-0.042-0.552c-0.016-0.189-0.031-0.378-0.054-0.567"/>
			
				<line fill="none" stroke="#3A3A3A" stroke-width="2" stroke-linecap="round" stroke-linejoin="round" stroke-miterlimit="10" x1="231.701" y1="161.865" x2="231.678" y2="161.449"/>
			<path fill="none" stroke="#3A3A3A" stroke-width="2" stroke-linecap="round" stroke-linejoin="round" stroke-miterlimit="10" d="
				M231.732,163.116c0-0.332-0.008-0.664-0.019-1"/>
			<path fill="none" stroke="#3A3A3A" stroke-width="2" stroke-linecap="round" stroke-linejoin="round" stroke-miterlimit="10" d="
				M212.388,182.787c0.278,0.174,0.56,0.34,0.841,0.502"/>
			<path fill="none" stroke="#3A3A3A" stroke-width="2" stroke-linecap="round" stroke-linejoin="round" stroke-miterlimit="10" d="
				M210.597,181.622c0.286,0.197,0.573,0.388,0.861,0.575c0.264,0.172,0.529,0.343,0.795,0.506"/>
			<path fill="none" stroke="#3A3A3A" stroke-width="2" stroke-linecap="round" stroke-linejoin="round" stroke-miterlimit="10" d="
				M208.147,179.792c0.193,0.158,0.386,0.313,0.583,0.459"/>
			<path fill="none" stroke="#3A3A3A" stroke-width="2" stroke-linecap="round" stroke-linejoin="round" stroke-miterlimit="10" d="
				M204.712,176.771c0.27,0.259,0.541,0.513,0.81,0.764c0.228,0.212,0.455,0.417,0.683,0.618"/>
			<path fill="none" stroke="#3A3A3A" stroke-width="2" stroke-linecap="round" stroke-linejoin="round" stroke-miterlimit="10" d="
				M202.234,174.216c0.124,0.135,0.722,0.779,0.899,0.965c0.228,0.239,0.459,0.479,0.691,0.71"/>
			<path fill="none" stroke="#3A3A3A" stroke-width="2" stroke-linecap="round" stroke-linejoin="round" stroke-miterlimit="10" d="
				M200.516,172.236c0.162,0.197,0.324,0.394,0.494,0.587"/>
			<path fill="none" stroke="#3A3A3A" stroke-width="2" stroke-linecap="round" stroke-linejoin="round" stroke-miterlimit="10" d="
				M199.972,171.576c0.162,0.201,0.328,0.405,0.498,0.602"/>
			<path fill="none" stroke="#3A3A3A" stroke-width="2" stroke-linecap="round" stroke-linejoin="round" stroke-miterlimit="10" d="
				M197.826,168.755c0.151,0.212,0.305,0.425,0.463,0.637"/>
			<path fill="none" stroke="#3A3A3A" stroke-width="2" stroke-linecap="round" stroke-linejoin="round" stroke-miterlimit="10" d="
				M195.742,165.667c0.162,0.255,0.324,0.509,0.49,0.76"/>
			<path fill="none" stroke="#3A3A3A" stroke-width="2" stroke-linecap="round" stroke-linejoin="round" stroke-miterlimit="10" d="
				M193.693,162.201c0.127,0.232,0.255,0.463,0.39,0.695"/>
			<path fill="none" stroke="#3A3A3A" stroke-width="2" stroke-linecap="round" stroke-linejoin="round" stroke-miterlimit="10" d="
				M192.103,159.125c0.135,0.282,0.274,0.563,0.413,0.845"/>
			<path fill="none" stroke="#3A3A3A" stroke-width="2" stroke-linecap="round" stroke-linejoin="round" stroke-miterlimit="10" d="
				M191.072,156.891c0.151,0.343,0.305,0.691,0.463,1.034"/>
			<path fill="none" stroke="#3A3A3A" stroke-width="2" stroke-linecap="round" stroke-linejoin="round" stroke-miterlimit="10" d="
				M231.573,140.585c-4.79-7.981-11.243-14.909-18.344-19.008c-14.758-8.522-26.723-1.613-26.723,15.426
				c0,6.04,1.501,12.539,4.099,18.795"/>
			<path fill="none" stroke="#3A3A3A" stroke-width="2" stroke-linecap="round" stroke-linejoin="round" stroke-miterlimit="10" d="
				M232.573,142.314c-0.147-0.262-0.753-1.308-0.907-1.571"/>
			<path fill="none" stroke="#3A3A3A" stroke-width="2" stroke-linecap="round" stroke-linejoin="round" stroke-miterlimit="10" d="
				M235.058,147.234c-0.127-0.282-0.259-0.567-0.394-0.849"/>
			<path fill="none" stroke="#3A3A3A" stroke-width="2" stroke-linecap="round" stroke-linejoin="round" stroke-miterlimit="10" d="
				M237.112,152.364c-0.066-0.193-0.137-0.382-0.205-0.571c-0.059-0.165-0.12-0.332-0.181-0.498"/>
			<path fill="none" stroke="#3A3A3A" stroke-width="2" stroke-linecap="round" stroke-linejoin="round" stroke-miterlimit="10" d="
				M237.81,154.498c-0.073-0.232-0.398-1.254-0.494-1.532"/>
			<path fill="none" stroke="#3A3A3A" stroke-width="2" stroke-linecap="round" stroke-linejoin="round" stroke-miterlimit="10" d="
				M239.088,159.557c-0.046-0.243-0.098-0.486-0.151-0.726c-0.043-0.197-0.228-1.007-0.278-1.216"/>
			<path fill="none" stroke="#3A3A3A" stroke-width="2" stroke-linecap="round" stroke-linejoin="round" stroke-miterlimit="10" d="
				M239.52,162.066c-0.035-0.243-0.17-1.092-0.201-1.274c-0.032-0.189-0.066-0.382-0.104-0.575"/>
			<path fill="none" stroke="#3A3A3A" stroke-width="2" stroke-linecap="round" stroke-linejoin="round" stroke-miterlimit="10" d="
				M239.732,163.787c-0.015-0.185-0.039-0.37-0.062-0.556"/>
			<path fill="none" stroke="#3A3A3A" stroke-width="2" stroke-linecap="round" stroke-linejoin="round" stroke-miterlimit="10" d="
				M239.914,166.192c-0.012-0.278-0.027-0.56-0.046-0.841"/>
			<path fill="none" stroke="#3A3A3A" stroke-width="2" stroke-linecap="round" stroke-linejoin="round" stroke-miterlimit="10" d="
				M178.294,131.387c-0.004,0.286-0.008,0.575-0.008,0.868"/>
			<path fill="none" stroke="#3A3A3A" stroke-width="2" stroke-linecap="round" stroke-linejoin="round" stroke-miterlimit="10" d="
				M178.359,129.712c-0.015,0.216-0.028,0.432-0.035,0.648c-0.004,0.124-0.008,0.251-0.012,0.374"/>
			<path fill="none" stroke="#3A3A3A" stroke-width="2" stroke-linecap="round" stroke-linejoin="round" stroke-miterlimit="10" d="
				M178.564,127.312c-0.031,0.243-0.054,0.486-0.077,0.733"/>
			<path fill="none" stroke="#3A3A3A" stroke-width="2" stroke-linecap="round" stroke-linejoin="round" stroke-miterlimit="10" d="
				M178.672,126.471c-0.031,0.22-0.062,0.44-0.085,0.664"/>
			<path fill="none" stroke="#3A3A3A" stroke-width="2" stroke-linecap="round" stroke-linejoin="round" stroke-miterlimit="10" d="
				M178.823,125.486c-0.023,0.131-0.046,0.266-0.066,0.401"/>
			<path fill="none" stroke="#3A3A3A" stroke-width="2" stroke-linecap="round" stroke-linejoin="round" stroke-miterlimit="10" d="
				M179.784,121.403c-0.054,0.166-0.104,0.336-0.151,0.509"/>
			<path fill="none" stroke="#3A3A3A" stroke-width="2" stroke-linecap="round" stroke-linejoin="round" stroke-miterlimit="10" d="
				M214.082,112.584c-0.286-0.17-0.567-0.336-0.853-0.502c-15.236-8.825-28.175-4.998-32.987,7.958
				c-0.08,0.216-0.158,0.432-0.232,0.656c-0.069,0.209-0.139,0.421-0.205,0.637"/>
			<path fill="none" stroke="#3A3A3A" stroke-width="2" stroke-linecap="round" stroke-linejoin="round" stroke-miterlimit="10" d="
				M216.703,114.282c-0.259-0.178-1.378-0.918-1.675-1.108c-0.266-0.17-0.533-0.336-0.799-0.498"/>
			<path fill="none" stroke="#3A3A3A" stroke-width="2" stroke-linecap="round" stroke-linejoin="round" stroke-miterlimit="10" d="
				M217.672,114.969c-0.212-0.154-0.428-0.309-0.645-0.455"/>
			<path fill="none" stroke="#3A3A3A" stroke-width="2" stroke-linecap="round" stroke-linejoin="round" stroke-miterlimit="10" d="
				M218.417,115.518c-0.235-0.178-0.475-0.355-0.718-0.529"/>
			<path fill="none" stroke="#3A3A3A" stroke-width="2" stroke-linecap="round" stroke-linejoin="round" stroke-miterlimit="10" d="
				M219.794,116.583c-0.185-0.147-0.37-0.293-0.556-0.436"/>
			<path fill="none" stroke="#3A3A3A" stroke-width="2" stroke-linecap="round" stroke-linejoin="round" stroke-miterlimit="10" d="
				M221.033,117.598c-0.212-0.178-0.425-0.355-0.637-0.529"/>
			<path fill="none" stroke="#3A3A3A" stroke-width="2" stroke-linecap="round" stroke-linejoin="round" stroke-miterlimit="10" d="
				M223.492,119.774c-0.232-0.216-1.629-1.47-1.806-1.621"/>
			<path fill="none" stroke="#3A3A3A" stroke-width="2" stroke-linecap="round" stroke-linejoin="round" stroke-miterlimit="10" d="
				M226.043,122.279c-0.262-0.274-1.335-1.343-1.606-1.606"/>
			<path fill="none" stroke="#3A3A3A" stroke-width="2" stroke-linecap="round" stroke-linejoin="round" stroke-miterlimit="10" d="
				M227.046,123.337c-0.135-0.147-0.274-0.293-0.413-0.44"/>
			<path fill="none" stroke="#3A3A3A" stroke-width="2" stroke-linecap="round" stroke-linejoin="round" stroke-miterlimit="10" d="
				M231.921,129.126c-0.189-0.247-1.053-1.352-1.297-1.656c-0.242-0.302-1.914-2.289-2.13-2.536"/>
			<path fill="none" stroke="#3A3A3A" stroke-width="2" stroke-linecap="round" stroke-linejoin="round" stroke-miterlimit="10" d="
				M233.414,131.144c-0.201-0.282-0.405-0.563-0.61-0.841"/>
			<path fill="none" stroke="#3A3A3A" stroke-width="2" stroke-linecap="round" stroke-linejoin="round" stroke-miterlimit="10" d="
				M235.46,134.128c-0.432-0.66-0.871-1.313-1.32-1.957c-0.216-0.309-0.432-0.618-0.652-0.926"/>
			<path fill="none" stroke="#3A3A3A" stroke-width="2" stroke-linecap="round" stroke-linejoin="round" stroke-miterlimit="10" d="
				M236.089,135.108c-0.208-0.328-0.417-0.652-0.625-0.973"/>
			<path fill="none" stroke="#3A3A3A" stroke-width="2" stroke-linecap="round" stroke-linejoin="round" stroke-miterlimit="10" d="
				M238.478,139.106c-0.178-0.313-0.933-1.622-1.135-1.961c-0.403-0.677-0.814-1.343-1.235-2.007"/>
			<path fill="none" stroke="#3A3A3A" stroke-width="2" stroke-linecap="round" stroke-linejoin="round" stroke-miterlimit="10" d="
				M238.999,140.056c-0.147-0.266-0.293-0.536-0.44-0.803"/>
			<path fill="none" stroke="#3A3A3A" stroke-width="2" stroke-linecap="round" stroke-linejoin="round" stroke-miterlimit="10" d="
				M240.705,143.359c-0.166-0.343-0.841-1.679-1.015-2.003"/>
			<path fill="none" stroke="#3A3A3A" stroke-width="2" stroke-linecap="round" stroke-linejoin="round" stroke-miterlimit="10" d="
				M241.187,144.359c-0.151-0.32-0.305-0.637-0.455-0.953"/>
			<path fill="none" stroke="#3A3A3A" stroke-width="2" stroke-linecap="round" stroke-linejoin="round" stroke-miterlimit="10" d="
				M242.669,147.682c-0.301-0.722-0.618-1.44-0.942-2.154"/>
			<path fill="none" stroke="#3A3A3A" stroke-width="2" stroke-linecap="round" stroke-linejoin="round" stroke-miterlimit="10" d="
				M243.935,150.874c-0.127-0.34-0.672-1.748-0.818-2.107"/>
			<path fill="none" stroke="#3A3A3A" stroke-width="2" stroke-linecap="round" stroke-linejoin="round" stroke-miterlimit="10" d="
				M245.668,156.13c-0.077-0.27-0.154-0.54-0.239-0.814"/>
			<path fill="none" stroke="#3A3A3A" stroke-width="2" stroke-linecap="round" stroke-linejoin="round" stroke-miterlimit="10" d="
				M246.282,158.388c-0.073-0.293-0.147-0.587-0.228-0.876"/>
			<path fill="none" stroke="#3A3A3A" stroke-width="2" stroke-linecap="round" stroke-linejoin="round" stroke-miterlimit="10" d="
				M247.026,161.645c-0.058-0.282-0.336-1.579-0.421-1.941"/>
			<path fill="none" stroke="#3A3A3A" stroke-width="2" stroke-linecap="round" stroke-linejoin="round" stroke-miterlimit="10" d="
				M247.984,168.245c-0.027-0.313-0.054-0.625-0.089-0.938"/>
			<path fill="none" stroke="#3A3A3A" stroke-width="2" stroke-linecap="round" stroke-linejoin="round" stroke-miterlimit="10" d="
				M248.076,169.48c-0.019-0.309-0.042-0.621-0.069-0.934"/>
			
				<line fill="none" stroke="#3A3A3A" stroke-width="2" stroke-linecap="round" stroke-linejoin="round" stroke-miterlimit="10" x1="261.565" y1="153.537" x2="276.582" y2="162.205"/>
			
				<line fill="none" stroke="#3A3A3A" stroke-width="2" stroke-linecap="round" stroke-linejoin="round" stroke-miterlimit="10" x1="261.565" y1="157.13" x2="276.582" y2="165.798"/>
			
				<line fill="none" stroke="#3A3A3A" stroke-width="2" stroke-linecap="round" stroke-linejoin="round" stroke-miterlimit="10" x1="261.565" y1="160.723" x2="271.38" y2="166.389"/>
			
				<line fill="none" stroke="#3A3A3A" stroke-width="2" stroke-linecap="round" stroke-linejoin="round" stroke-miterlimit="10" x1="261.565" y1="181.811" x2="271.38" y2="187.477"/>
			
				<line fill="none" stroke="#3A3A3A" stroke-width="2" stroke-linecap="round" stroke-linejoin="round" stroke-miterlimit="10" x1="261.565" y1="185.404" x2="276.582" y2="194.076"/>
			
				<line fill="none" stroke="#3A3A3A" stroke-width="2" stroke-linecap="round" stroke-linejoin="round" stroke-miterlimit="10" x1="261.565" y1="188.997" x2="271.38" y2="194.667"/>
			
				<line fill="none" stroke="#3A3A3A" stroke-width="2" stroke-linecap="round" stroke-linejoin="round" stroke-miterlimit="10" x1="261.565" y1="210.089" x2="276.582" y2="218.757"/>
			
				<line fill="none" stroke="#3A3A3A" stroke-width="2" stroke-linecap="round" stroke-linejoin="round" stroke-miterlimit="10" x1="261.565" y1="213.682" x2="270.411" y2="218.788"/>
			<path fill="none" stroke="#3A3A3A" stroke-width="2" stroke-linecap="round" stroke-linejoin="round" stroke-miterlimit="10" d="
				M266.47,149.824c0-1.66-1.162-3.678-2.597-4.508c-1.44-0.826-2.601-0.154-2.601,1.501c0,1.66,1.162,3.678,2.601,4.508
				C265.309,152.155,266.47,151.48,266.47,149.824z"/>
			<path fill="none" stroke="#3A3A3A" stroke-width="2" stroke-linecap="round" stroke-linejoin="round" stroke-miterlimit="10" d="
				M266.47,177.369c0-1.66-1.162-3.678-2.597-4.504c-1.44-0.83-2.601-0.158-2.601,1.501c0,1.656,1.162,3.674,2.601,4.504
				C265.309,179.7,266.47,179.028,266.47,177.369z"/>
			<path fill="none" stroke="#3A3A3A" stroke-width="2" stroke-linecap="round" stroke-linejoin="round" stroke-miterlimit="10" d="
				M266.47,205.994c0-1.66-1.162-3.674-2.597-4.504c-1.44-0.83-2.601-0.158-2.601,1.501c0,1.66,1.162,3.674,2.601,4.504
				C265.309,208.325,266.47,207.654,266.47,205.994z"/>
			
				<polyline fill="none" stroke="#3A3A3A" stroke-width="2" stroke-linecap="round" stroke-linejoin="round" stroke-miterlimit="10" points="
				156.747,62.674 292.502,141.055 299.187,137.196 			"/>
			<path fill="none" stroke="#3A3A3A" stroke-width="2" stroke-linecap="round" stroke-linejoin="round" stroke-miterlimit="10" d="
				M291.476,258.069l6.685-3.859c0.629-0.363,1.027-1.204,1.027-2.401V130.863c0-2.188-1.328-4.728-2.968-5.677l-129.82-74.946
				c-0.741-0.432-1.42-0.459-1.941-0.158l-6.685,3.859"/>
		</g>
	</g>
	<path fill="#3A3A3A" d="M222.589,164.683c-0.588,0-1.168-0.267-1.549-0.773c-0.47-0.628-0.502-1.447-0.148-2.093
		c0.039-0.08,0.075-0.16,0.111-0.243c0.062-0.144,0.123-0.302,0.179-0.468l0.12-0.413c0.027-0.105,0.051-0.207,0.072-0.31
		l0.065-0.344c0.001-0.004,0.019-0.103,0.02-0.107c0.004-0.028,0.014-0.09,0.019-0.12c0.002-0.033,0.02-0.147,0.028-0.264
		c0.003-0.04,0.007-0.08,0.013-0.12c0.002-0.034,0.005-0.066,0.009-0.1c0.015-0.115,0.02-0.231,0.027-0.349l0.017-0.609
		c0-5.83-4.264-13.215-9.31-16.129c-0.681-0.395-1.385-0.701-2.097-0.914c-0.085-0.025-0.166-0.045-0.251-0.067
		c-0.129-0.031-0.273-0.061-0.418-0.086c-0.103-0.018-0.203-0.034-0.303-0.045c-1.062-0.121-1.824-1.079-1.703-2.14
		c0.12-1.061,1.065-1.823,2.14-1.703c0.176,0.02,0.354,0.046,0.536,0.078c0.227,0.041,0.452,0.087,0.678,0.142
		c0.156,0.039,0.29,0.073,0.429,0.115c1.001,0.299,1.987,0.727,2.926,1.273c6.302,3.638,11.241,12.193,11.241,19.477
		c0,0.133-0.003,0.267-0.007,0.397l-0.016,0.429c-0.01,0.182-0.021,0.353-0.04,0.523c-0.004,0.067-0.01,0.133-0.02,0.199
		c-0.016,0.175-0.039,0.347-0.063,0.52l-0.132,0.734c-0.038,0.175-0.075,0.336-0.118,0.499l-0.078,0.287
		c-0.038,0.127-0.077,0.256-0.119,0.382c-0.094,0.277-0.191,0.528-0.293,0.767c-0.079,0.182-0.153,0.343-0.236,0.506
		c-0.015,0.029-0.03,0.059-0.047,0.087c-0.132,0.233-0.312,0.439-0.525,0.599C223.4,164.557,222.993,164.683,222.589,164.683z
		 M221.515,159.567c0,0,0,0.001,0,0.002C221.515,159.568,221.515,159.567,221.515,159.567z M221.546,159.272
		c0,0.001,0,0.002,0,0.003C221.546,159.274,221.546,159.273,221.546,159.272z"/>
	<path fill="#C3C7CD" d="M221.5,178.268c-2.875,0-6.017-0.938-9.238-2.798c-1.309-0.755-2.609-1.655-3.974-2.754l-0.48-0.401
		c-0.194-0.165-0.339-0.285-0.48-0.41l-0.439-0.386c-0.53-0.475-1.079-1.004-1.674-1.612c-0.196-0.202-1.272-1.359-1.396-1.497
		c-0.189-0.211-0.377-0.43-0.566-0.653l-0.494-0.595c-0.511-0.629-0.98-1.226-1.432-1.837c-0.21-0.285-0.637-0.892-0.645-0.905
		c-0.574-0.902-0.308-2.098,0.593-2.671c0.884-0.56,2.047-0.319,2.633,0.536c0.057,0.081,0.374,0.525,0.534,0.744
		c0.413,0.561,0.845,1.11,1.282,1.648l0.42,0.507c0.221,0.26,0.384,0.452,0.552,0.639c0.119,0.132,1.104,1.192,1.285,1.377
		c0.487,0.499,0.983,0.982,1.494,1.441l1.242,1.064c1.203,0.968,2.342,1.759,3.477,2.413c4.322,2.496,8.281,2.957,11.151,1.298
		c2.87-1.656,4.451-5.315,4.451-10.301c0-0.306-0.005-0.612-0.018-0.921l-0.024-0.485c-0.003-0.059-0.005-0.113-0.007-0.157l0,0
		c-0.012-0.168-0.026-0.34-0.041-0.51l-0.076-0.77c-0.005-0.038-0.009-0.077-0.013-0.114c-0.006-0.076-0.017-0.151-0.027-0.227
		l-0.015-0.118c-0.041-0.316-0.085-0.639-0.136-0.961c-0.08-0.492-0.176-0.983-0.278-1.478c-0.009-0.034-0.019-0.079-0.026-0.114
		c-0.076-0.361-0.163-0.723-0.254-1.09c-0.045-0.184-0.092-0.361-0.141-0.539c-0.1-0.368-0.203-0.736-0.316-1.106
		c-0.168-0.555-0.353-1.111-0.547-1.668c-0.126-0.359-0.26-0.724-0.403-1.093c-0.071-0.186-0.369-0.919-0.445-1.102l-0.234-0.545
		c-0.145-0.333-0.294-0.665-0.449-0.995c-0.459-0.967-0.936-1.895-1.416-2.757c-0.096-0.171-0.493-0.863-0.597-1.036
		c-0.449-0.754-0.955-1.542-1.546-2.409c-0.1-0.147-0.507-0.72-0.612-0.863l-0.319-0.434c-0.542-0.726-1.096-1.421-1.651-2.068
		c-0.111-0.129-0.573-0.656-0.692-0.786c-0.231-0.255-0.463-0.509-0.701-0.757c-0.123-0.128-0.849-0.863-1.096-1.1l-0.362-0.341
		c-0.667-0.616-1.287-1.15-1.889-1.63c-0.123-0.098-0.242-0.194-0.365-0.285c-0.854-0.641-1.027-1.854-0.387-2.709
		c0.643-0.855,1.853-1.026,2.709-0.387c0.154,0.117,0.305,0.236,0.455,0.357c0.675,0.537,1.364,1.131,2.104,1.816l0.417,0.391
		c0.273,0.263,1.07,1.069,1.203,1.207c0.262,0.272,0.522,0.555,0.779,0.839c0.128,0.142,0.632,0.717,0.757,0.861
		c0.617,0.718,1.228,1.483,1.82,2.278l0.341,0.464c0.119,0.163,0.576,0.807,0.687,0.97c0.634,0.93,1.181,1.783,1.672,2.606
		c0.113,0.191,0.547,0.943,0.652,1.132c0.523,0.936,1.038,1.939,1.533,2.985c0.175,0.369,0.341,0.74,0.502,1.109l0.259,0.603
		c0.083,0.198,0.404,0.991,0.482,1.191c0.155,0.404,0.302,0.805,0.444,1.207c0.214,0.614,0.416,1.221,0.598,1.823
		c0.124,0.409,0.239,0.814,0.348,1.22c0.056,0.205,0.109,0.413,0.161,0.62c0.102,0.409,0.199,0.818,0.285,1.227
		c0,0.001,0.028,0.123,0.028,0.125c0.114,0.551,0.221,1.099,0.309,1.645c0.059,0.361,0.109,0.726,0.155,1.09
		c0.027,0.208,0.044,0.34,0.055,0.461c0.013,0.097,0.023,0.192,0.033,0.29l0.061,0.64c0.017,0.195,0.034,0.395,0.045,0.59
		c0.003,0.041,0.004,0.082,0.004,0.123l0.034,0.615c0.015,0.355,0.02,0.713,0.02,1.072c0,6.426-2.268,11.275-6.385,13.652
		C225.545,177.77,223.594,178.268,221.5,178.268z"/>
	<path fill="#34CACC" d="M225.17,188.881c-4,0-8.39-1.313-12.906-3.916c-0.304-0.175-0.605-0.352-0.907-0.542
		c-0.022-0.014-0.676-0.425-0.953-0.605c-0.303-0.198-0.603-0.398-0.903-0.603c-0.655-0.449-1.298-0.933-1.945-1.426
		c-0.205-0.155-0.411-0.32-0.62-0.487c-0.68-0.55-1.349-1.116-2.011-1.7c-0.24-0.211-0.48-0.428-0.714-0.644
		c-0.286-0.266-0.563-0.526-0.841-0.793c-0.308-0.293-0.618-0.606-0.926-0.916c-0.239-0.242-0.479-0.487-0.714-0.735
		c-0.179-0.188-0.806-0.86-0.936-1.003c-0.426-0.473-1.605-1.841-1.773-2.044v-0.001c-0.016-0.018-0.03-0.038-0.046-0.057
		c-0.174-0.206-0.345-0.412-0.511-0.618c-0.592-0.734-1.169-1.488-1.733-2.249c-0.165-0.222-0.325-0.444-0.483-0.664
		c-0.559-0.785-1.106-1.581-1.636-2.388c-0.173-0.264-0.345-0.53-0.511-0.794c-0.586-0.932-1.144-1.878-1.695-2.83
		c-0.142-0.243-0.278-0.489-0.415-0.738c-0.415-0.757-0.824-1.52-1.209-2.292c-0.144-0.288-0.816-1.688-1.006-2.1
		c-0.165-0.357-0.808-1.824-0.963-2.205c-0.404-0.989,0.07-2.118,1.059-2.522c0.99-0.408,2.118,0.071,2.522,1.059
		c0.145,0.354,0.744,1.718,0.896,2.05c0.179,0.389,0.817,1.716,0.954,1.99c0.364,0.729,0.75,1.448,1.143,2.165
		c0.123,0.226,0.245,0.442,0.368,0.657c0.527,0.91,1.06,1.816,1.621,2.709c0.154,0.245,0.314,0.489,0.471,0.732
		c0.502,0.762,1.019,1.518,1.551,2.263c0.145,0.204,0.293,0.406,0.443,0.611c0.53,0.716,1.074,1.426,1.633,2.119
		c0.152,0.189,0.309,0.378,0.468,0.566c0.02,0.023,0.039,0.047,0.058,0.071c0.002,0.002,0.003,0.004,0.005,0.006
		c0.157,0.191,1.263,1.472,1.662,1.916c0.119,0.131,0.688,0.744,0.858,0.919c0.226,0.237,0.448,0.465,0.672,0.692
		c0.279,0.284,0.563,0.568,0.846,0.839c0.267,0.256,0.526,0.502,0.79,0.746c0.21,0.193,0.428,0.391,0.648,0.585
		c0.62,0.548,1.247,1.078,1.878,1.588c0.174,0.14,0.354,0.283,0.535,0.421c0.6,0.457,1.191,0.903,1.795,1.318
		c0.273,0.187,0.547,0.369,0.822,0.548c0.245,0.16,0.818,0.521,0.887,0.564c0.276,0.173,0.534,0.324,0.794,0.474
		c6.521,3.758,12.548,4.423,16.97,1.865c4.418-2.553,6.852-8.099,6.852-15.615c0-0.524-0.014-1.049-0.037-1.585
		c-0.013-0.262-0.026-0.531-0.044-0.798c-0.034-0.499-0.081-0.999-0.13-1.504l-0.059-0.528c-0.042-0.357-0.088-0.73-0.143-1.105
		c-0.035-0.237-0.162-1.046-0.192-1.221c-0.031-0.174-0.181-0.973-0.222-1.187c-0.047-0.234-0.364-1.667-0.412-1.867
		c-0.229-0.956-0.505-1.968-0.82-3.012c-0.067-0.219-0.61-1.87-0.677-2.065c-0.063-0.182-0.305-0.855-0.366-1.014
		c-0.596-1.561-1.111-2.818-1.621-3.95c-0.124-0.276-0.251-0.546-0.379-0.817c-0.628-1.326-1.312-2.658-2.034-3.96
		c-0.142-0.255-0.935-1.617-0.976-1.687c-0.54-0.921-0.233-2.106,0.688-2.648c0.92-0.54,2.104-0.233,2.647,0.686
		c0.031,0.056,0.871,1.497,1.022,1.768c0.764,1.377,1.487,2.784,2.15,4.185c0.14,0.296,0.277,0.589,0.41,0.886
		c0.539,1.199,1.083,2.522,1.71,4.161c0.068,0.183,0.338,0.928,0.407,1.129c0.071,0.209,0.648,1.963,0.72,2.201
		c0.338,1.12,0.634,2.205,0.879,3.23c0.052,0.215,0.395,1.763,0.445,2.015c0.045,0.226,0.205,1.079,0.239,1.274
		c0.034,0.197,0.173,1.078,0.21,1.335c0.059,0.405,0.109,0.812,0.157,1.213l0.066,0.601c0.052,0.54,0.104,1.081,0.14,1.618
		c0.02,0.295,0.036,0.591,0.048,0.884c0.027,0.593,0.041,1.178,0.041,1.758c0,8.956-3.12,15.692-8.784,18.965
		C230.728,188.2,228.051,188.881,225.17,188.881z"/>
	<path fill="#979B9E" d="M228.843,199.509c-5.128,0-10.77-1.694-16.581-5.05c-19.801-11.433-35.911-39.337-35.911-62.203
		c0-0.304,0.003-0.607,0.008-0.904c0.003-0.22,0.027-0.93,0.031-1.057c0.006-0.186,0.017-0.368,0.028-0.551l0.008-0.144
		c0.035-0.591,0.078-1.171,0.134-1.743c0.024-0.259,0.049-0.523,0.082-0.786c0-0.021,0.009-0.104,0.026-0.205
		c0.022-0.203,0.049-0.402,0.077-0.601c0.038-0.271,0.146-0.974,0.171-1.114c0.212-1.241,0.491-2.473,0.852-3.76
		c0.061-0.217,0.114-0.408,0.175-0.593c0.004-0.013,0.009-0.027,0.015-0.042c0.07-0.23,0.143-0.455,0.217-0.677l0.245-0.693
		c0.362-1.005,1.468-1.53,2.475-1.167c1.005,0.361,1.528,1.469,1.167,2.475l-0.222,0.63c-0.062,0.182-0.124,0.377-0.185,0.575
		c-0.008,0.028-0.018,0.056-0.028,0.083c-0.002,0.009-0.005,0.018-0.007,0.025c-0.043,0.13-0.08,0.263-0.118,0.399
		c-0.332,1.187-0.582,2.292-0.773,3.407c-0.023,0.132-0.117,0.74-0.142,0.924c-0.034,0.239-0.059,0.417-0.078,0.596
		c-0.005,0.052-0.013,0.105-0.022,0.156c-0.034,0.287-0.055,0.51-0.076,0.737c-0.051,0.531-0.09,1.063-0.123,1.603l-0.009,0.151
		c-0.008,0.148-0.018,0.295-0.023,0.446c-0.004,0.121-0.026,0.778-0.029,0.99c-0.005,0.282-0.008,0.559-0.008,0.841
		c0,21.633,15.242,48.034,33.977,58.853c8.71,5.029,16.799,5.901,22.776,2.45c5.977-3.451,9.269-10.89,9.269-20.948
		c0-0.971-0.033-1.984-0.098-3.009c-0.018-0.293-0.078-1.064-0.087-1.176l-0.087-0.914c-0.187-1.756-0.47-3.603-0.842-5.49
		c-0.055-0.274-0.325-1.525-0.407-1.879c-0.099-0.426-0.461-1.844-0.536-2.129c-0.12-0.444-0.524-1.862-0.606-2.123
		c-0.517-1.682-0.98-3.059-1.458-4.34c-0.108-0.291-1.091-2.774-1.235-3.114c-0.298-0.704-0.606-1.408-0.923-2.111
		c-0.162-0.357-0.746-1.607-0.938-2.005c-0.023-0.039-0.044-0.079-0.064-0.12c-0.161-0.334-0.82-1.63-0.987-1.947
		c-0.217-0.415-1.117-2.076-1.187-2.205c-0.173-0.312-0.909-1.581-1.107-1.912c-0.394-0.658-0.797-1.313-1.208-1.964
		c-0.006-0.009-0.013-0.02-0.019-0.029l-0.228-0.357c-0.125-0.196-0.249-0.391-0.377-0.584c-0.015-0.023-0.029-0.046-0.044-0.069
		c-0.412-0.629-0.832-1.248-1.258-1.865c-0.207-0.299-1.094-1.541-1.296-1.811c-0.287-0.386-1.241-1.642-1.428-1.885
		c-0.236-0.303-1.188-1.479-1.429-1.772c-0.239-0.291-1.145-1.352-1.355-1.592c-0.462-0.526-0.935-1.044-1.411-1.556
		c-0.149-0.162-1.494-1.562-1.752-1.819c-0.261-0.263-1.391-1.355-1.698-1.639c-0.224-0.206-1.06-0.966-1.253-1.136
		c-0.178-0.158-1.561-1.332-1.765-1.502c-0.192-0.16-1.635-1.292-1.901-1.49c-0.252-0.188-0.463-0.345-0.678-0.5
		c-0.017-0.01-0.033-0.022-0.049-0.035c-0.203-0.148-0.824-0.587-0.928-0.658c-0.249-0.172-1.329-0.886-1.614-1.067
		c-0.253-0.162-0.499-0.319-0.745-0.465c-0.043-0.025-0.086-0.052-0.127-0.082c-0.022-0.013-0.044-0.025-0.066-0.039l-0.165-0.101
		c-0.921-0.539-1.231-1.724-0.691-2.647c0.539-0.92,1.723-1.233,2.647-0.691l0.204,0.124c0.08,0.044,0.16,0.093,0.235,0.146
		c0.262,0.156,0.524,0.322,0.787,0.491c0.301,0.191,1.461,0.959,1.73,1.144c0.11,0.076,0.752,0.53,0.991,0.702
		c0.012,0.008,0.023,0.016,0.034,0.024h0.001c0.239,0.171,0.473,0.346,0.705,0.52c0.332,0.248,1.896,1.476,2.103,1.647
		c0.217,0.181,1.681,1.425,1.86,1.584c0.195,0.172,1.069,0.966,1.308,1.185c0.335,0.309,1.544,1.478,1.82,1.757
		c0.271,0.272,1.71,1.768,1.849,1.92c0.495,0.534,0.992,1.078,1.478,1.632c0.224,0.254,1.18,1.376,1.433,1.682
		c0.253,0.306,1.253,1.543,1.499,1.859c0.193,0.249,1.183,1.551,1.479,1.95c0.212,0.285,1.151,1.6,1.373,1.921
		c0.458,0.662,0.908,1.324,1.349,1.998c0.013,0.019,0.024,0.038,0.036,0.057c0.127,0.193,0.252,0.388,0.376,0.585l0.211,0.328
		c0.021,0.031,0.041,0.064,0.061,0.098c0.423,0.667,0.836,1.34,1.242,2.017c0.21,0.352,0.988,1.694,1.167,2.018
		c0.014,0.023,0.998,1.84,1.232,2.286c0.167,0.318,0.796,1.556,1.01,1.992c0.027,0.048,0.052,0.097,0.072,0.14
		c0.143,0.289,0.825,1.743,1.005,2.143c0.331,0.73,0.649,1.462,0.96,2.196c0.168,0.397,1.162,2.908,1.297,3.27
		c0.505,1.353,0.991,2.799,1.53,4.551c0.085,0.276,0.518,1.79,0.644,2.264c0.082,0.302,0.465,1.808,0.569,2.259
		c0.087,0.376,0.377,1.711,0.433,2.002c0.395,1.998,0.696,3.961,0.894,5.83l0.09,0.949c0.012,0.12,0.079,0.988,0.099,1.311
		c0.069,1.103,0.104,2.197,0.104,3.248c0,11.498-3.979,20.128-11.203,24.299C235.899,198.646,232.503,199.509,228.843,199.509z"/>
</g>
<g id="XMLID_73_">
	<g>
		<path fill="#969A9E" d="M321.731,221.27v36.953c0,0.892-0.296,1.524-0.765,1.796l-4.478,2.585c0.472-0.269,0.768-0.9,0.768-1.796
			v-36.953c0-1.636-0.993-3.531-2.219-4.239l-26.519-15.311c-0.54-0.312-1.036-0.339-1.421-0.133l4.448-2.569
			c0.388-0.225,0.895-0.203,1.451,0.117l26.516,15.311C320.738,217.739,321.731,219.635,321.731,221.27z"/>
		<path fill="#FFFFFF" d="M317.256,223.855v36.953c0,0.895-0.298,1.524-0.77,1.793c-0.388,0.225-0.895,0.203-1.448-0.117
			l-26.519-15.308c-1.223-0.708-2.219-2.607-2.219-4.239v-36.953c0-0.914,0.312-1.551,0.797-1.812
			c0.385-0.206,0.881-0.179,1.421,0.133l26.519,15.311C316.263,220.324,317.256,222.219,317.256,223.855z M309.978,251.675v-9.469
			c0-0.374-0.133-0.792-0.344-1.161c-0.214-0.369-0.51-0.692-0.835-0.879c-0.651-0.377-1.18-0.073-1.18,0.678v9.469
			c0,0.754,0.529,1.665,1.18,2.042C309.449,252.731,309.978,252.429,309.978,251.675z M309.675,232.787
			c0.117-0.57,0.179-1.193,0.179-1.872c0-0.827-0.092-1.684-0.263-2.547c-0.922-4.649-4.161-9.561-8.012-11.785
			c-0.553-0.32-1.096-0.57-1.622-0.751c-1.627-0.564-3.084-0.483-4.218,0.165c-1.503,0.863-2.436,2.718-2.436,5.365
			c0,5.273,3.705,11.69,8.275,14.329C305.563,237.989,308.888,236.66,309.675,232.787z M305.164,248.898v-6.016
			c0-0.377-0.13-0.792-0.344-1.164c-0.212-0.369-0.507-0.692-0.835-0.879c-0.648-0.377-1.177-0.071-1.177,0.681v6.016
			c0,0.751,0.529,1.665,1.177,2.04C304.638,249.953,305.164,249.649,305.164,248.898z M300.35,246.118v-2.56
			c0-0.377-0.13-0.795-0.344-1.164c-0.214-0.369-0.507-0.692-0.833-0.879c-0.654-0.377-1.18-0.073-1.18,0.681v2.56
			c0,0.751,0.526,1.665,1.18,2.04C299.823,247.173,300.35,246.869,300.35,246.118z M295.538,243.338v-4.863
			c0-0.377-0.133-0.792-0.344-1.164c-0.217-0.369-0.513-0.692-0.835-0.879c-0.651-0.377-1.18-0.071-1.18,0.681v4.863
			c0,0.754,0.529,1.665,1.18,2.042C295.009,244.393,295.538,244.092,295.538,243.338z"/>
		<path fill="#C3C7CD" d="M309.978,242.207v9.469c0,0.754-0.529,1.055-1.18,0.681c-0.651-0.377-1.18-1.288-1.18-2.042v-9.469
			c0-0.751,0.529-1.055,1.18-0.678c0.325,0.187,0.621,0.51,0.835,0.879C309.845,241.415,309.978,241.832,309.978,242.207z"/>
		<path fill="#5F656C" d="M309.854,230.915c0,0.678-0.062,1.302-0.179,1.872l-4.299-3.529c0.057-0.266,0.084-0.561,0.084-0.879
			c0-0.388-0.041-0.789-0.122-1.196l4.253,1.185C309.761,229.231,309.854,230.088,309.854,230.915z"/>
		<path fill="#34CACC" d="M309.591,228.368l-4.253-1.185c-0.437-2.181-1.953-4.483-3.759-5.528c-0.26-0.149-0.515-0.266-0.759-0.353
			l-0.862-5.471c0.526,0.182,1.069,0.431,1.622,0.751C305.43,218.807,308.668,223.719,309.591,228.368z"/>
		<path fill="#FFFFFF" d="M305.376,229.258l4.299,3.529c-0.787,3.873-4.112,5.202-8.096,2.905c-4.57-2.639-8.275-9.057-8.275-14.329
			c0-2.647,0.933-4.502,2.436-5.365l3.1,5.381c-0.705,0.404-1.142,1.277-1.142,2.52c0,2.474,1.739,5.482,3.881,6.721
			C303.447,231.696,305.001,231.073,305.376,229.258z"/>
		<path fill="#FFFFFF" d="M305.46,228.379c0,0.317-0.028,0.613-0.084,0.879c-0.381,1.813-1.928,2.438-3.797,1.362
			c-2.143-1.24-3.881-4.248-3.881-6.721c0-1.242,0.437-2.116,1.142-2.52c0.532-0.304,1.216-0.343,1.98-0.076
			c0.245,0.086,0.499,0.203,0.759,0.353c1.806,1.044,3.323,3.347,3.759,5.528C305.419,227.59,305.46,227.991,305.46,228.379z"/>
		<path fill="#C3C7CD" d="M305.164,242.882v6.016c0,0.751-0.526,1.055-1.18,0.678c-0.648-0.374-1.177-1.288-1.177-2.04v-6.016
			c0-0.751,0.529-1.058,1.177-0.681c0.328,0.187,0.624,0.51,0.835,0.879C305.034,242.09,305.164,242.505,305.164,242.882z"/>
		<path fill="#373A3A" d="M299.956,215.832l0.862,5.471c-0.765-0.263-1.448-0.228-1.98,0.076l-3.1-5.381
			C296.872,215.349,298.329,215.268,299.956,215.832z"/>
		<path fill="#C3C7CD" d="M300.35,243.557v2.56c0,0.751-0.526,1.055-1.177,0.678c-0.654-0.374-1.18-1.288-1.18-2.04v-2.56
			c0-0.754,0.526-1.058,1.18-0.681c0.325,0.187,0.618,0.51,0.833,0.879C300.219,242.763,300.35,243.18,300.35,243.557z"/>
		<path fill="#C3C7CD" d="M295.538,238.475v4.863c0,0.754-0.529,1.055-1.18,0.681c-0.651-0.377-1.18-1.288-1.18-2.042v-4.863
			c0-0.751,0.529-1.058,1.18-0.681c0.323,0.187,0.618,0.51,0.835,0.879C295.405,237.682,295.538,238.097,295.538,238.475z"/>
	</g>
	<g>
		<path fill="none" stroke="#373A3A" stroke-width="2" stroke-linecap="round" stroke-linejoin="round" stroke-miterlimit="10" d="
			M309.675,232.787c0.116-0.57,0.179-1.193,0.179-1.872c0-0.827-0.092-1.684-0.263-2.547c-0.922-4.649-4.161-9.561-8.012-11.785
			c-0.553-0.32-1.096-0.569-1.622-0.751c-1.628-0.563-3.085-0.484-4.218,0.165c-1.503,0.861-2.436,2.718-2.436,5.365
			c0,5.273,3.705,11.69,8.275,14.329C305.563,237.989,308.885,236.659,309.675,232.787z"/>
		<path fill="none" stroke="#373A3A" stroke-width="2" stroke-linecap="round" stroke-linejoin="round" stroke-miterlimit="10" d="
			M305.376,229.258c0.056-0.266,0.084-0.561,0.084-0.879c0-0.388-0.041-0.789-0.122-1.196c-0.436-2.181-1.953-4.483-3.759-5.528
			c-0.26-0.149-0.515-0.267-0.759-0.353c-0.764-0.267-1.449-0.228-1.98,0.076c-0.705,0.404-1.142,1.277-1.142,2.52
			c0,2.474,1.739,5.482,3.881,6.721C303.447,231.696,304.994,231.071,305.376,229.258z"/>
		
			<line fill="none" stroke="#373A3A" stroke-width="2" stroke-linecap="round" stroke-linejoin="round" stroke-miterlimit="10" x1="298.839" y1="221.379" x2="295.739" y2="215.997"/>
		
			<line fill="none" stroke="#373A3A" stroke-width="2" stroke-linecap="round" stroke-linejoin="round" stroke-miterlimit="10" x1="299.956" y1="215.832" x2="300.819" y2="221.303"/>
		
			<line fill="none" stroke="#373A3A" stroke-width="2" stroke-linecap="round" stroke-linejoin="round" stroke-miterlimit="10" x1="309.675" y1="232.787" x2="305.376" y2="229.258"/>
		
			<line fill="none" stroke="#373A3A" stroke-width="2" stroke-linecap="round" stroke-linejoin="round" stroke-miterlimit="10" x1="305.338" y1="227.183" x2="309.591" y2="228.368"/>
		<path fill="none" stroke="#373A3A" stroke-width="2" stroke-linecap="round" stroke-linejoin="round" stroke-miterlimit="10" d="
			M294.358,244.018c-0.651-0.377-1.18-1.288-1.18-2.042v-4.863c0-0.751,0.529-1.058,1.18-0.681c0.323,0.187,0.618,0.51,0.835,0.879
			c0.212,0.372,0.344,0.787,0.344,1.164v4.863C295.538,244.092,295.009,244.393,294.358,244.018z"/>
		<path fill="none" stroke="#373A3A" stroke-width="2" stroke-linecap="round" stroke-linejoin="round" stroke-miterlimit="10" d="
			M299.172,246.796c-0.654-0.374-1.18-1.288-1.18-2.04v-2.56c0-0.754,0.526-1.058,1.18-0.681c0.325,0.187,0.618,0.51,0.833,0.879
			c0.214,0.369,0.344,0.787,0.344,1.164v2.56C300.35,246.869,299.823,247.173,299.172,246.796z"/>
		<path fill="none" stroke="#373A3A" stroke-width="2" stroke-linecap="round" stroke-linejoin="round" stroke-miterlimit="10" d="
			M303.984,249.576c-0.648-0.374-1.177-1.288-1.177-2.04v-6.016c0-0.751,0.529-1.058,1.177-0.681
			c0.328,0.187,0.624,0.51,0.835,0.879c0.214,0.372,0.344,0.787,0.344,1.164v6.016C305.164,249.649,304.638,249.953,303.984,249.576
			z"/>
		<path fill="none" stroke="#373A3A" stroke-width="2" stroke-linecap="round" stroke-linejoin="round" stroke-miterlimit="10" d="
			M308.799,252.356c-0.651-0.377-1.18-1.288-1.18-2.042v-9.469c0-0.751,0.529-1.055,1.18-0.678c0.325,0.187,0.621,0.51,0.835,0.879
			c0.212,0.369,0.344,0.787,0.344,1.161v9.469C309.978,252.429,309.449,252.731,308.799,252.356z"/>
		<path fill="none" stroke="#373A3A" stroke-width="2" stroke-linecap="round" stroke-linejoin="round" stroke-miterlimit="10" d="
			M316.485,262.601c-0.389,0.223-0.895,0.203-1.448-0.117l-26.519-15.308c-1.223-0.708-2.219-2.607-2.219-4.239v-36.953
			c0-0.914,0.312-1.552,0.797-1.812c0.385-0.206,0.881-0.179,1.421,0.133l26.519,15.311c1.226,0.708,2.219,2.604,2.219,4.239v36.953
			C317.256,261.703,316.956,262.33,316.485,262.601z"/>
		<path fill="none" stroke="#373A3A" stroke-width="2" stroke-linecap="round" stroke-linejoin="round" stroke-miterlimit="10" d="
			M287.067,204.188l4.478-2.585c0.388-0.225,0.895-0.203,1.451,0.117l26.516,15.311c1.226,0.708,2.219,2.604,2.219,4.239v36.953
			c0,0.892-0.296,1.524-0.765,1.796l-4.478,2.585"/>
	</g>
</g>
<g>
	<g id="XMLID_17_">
		<g>
			<path fill="#969A9E" d="M339.921,169.476v39.31c0,1.177-0.391,2.01-1.011,2.367l-5.154,2.974c0.62-0.357,1.011-1.19,1.011-2.367
				v-39.31c0-2.154-1.309-4.659-2.924-5.592l-41.423-23.915c-0.714-0.413-1.368-0.448-1.875-0.175l5.113-2.956
				c0.513-0.294,1.184-0.266,1.916,0.157l41.42,23.915C338.609,164.817,339.921,167.322,339.921,169.476z"/>
			<path fill="#FFFFFF" d="M334.767,172.45v39.31c0,1.177-0.391,2.01-1.011,2.367c-0.513,0.297-1.18,0.269-1.913-0.153
				l-41.423-23.918c-1.616-0.933-2.928-3.435-2.928-5.592v-39.307c0-1.205,0.41-2.045,1.052-2.389
				c0.507-0.272,1.162-0.238,1.875,0.175l41.423,23.915C333.458,167.791,334.767,170.296,334.767,172.45z M329.288,181.236v-6.666
				c0-1.506-0.917-3.259-2.048-3.914l-6.403-3.698c-1.133-0.651-2.051,0.041-2.051,1.55v6.663c0,1.509,0.917,3.263,2.051,3.914
				l6.403,3.698C328.37,183.437,329.288,182.742,329.288,181.236z M328.458,198.268c0-1.068-0.651-2.308-1.45-2.771l-30.399-17.549
				c-0.013-0.006-0.025-0.016-0.038-0.019l-0.188-0.11c-0.204-0.119-0.401-0.175-0.576-0.175c-0.482,0-0.827,0.42-0.87,1.127
				l-0.003,0.144c0,1.068,0.648,2.308,1.45,2.771l30.624,17.681c0.204,0.119,0.398,0.172,0.573,0.172
				C328.098,199.54,328.458,199.067,328.458,198.268z"/>
			<path fill="#34CACC" d="M329.288,174.57v6.666c0,1.506-0.917,2.201-2.048,1.547l-6.403-3.698
				c-1.133-0.651-2.051-2.405-2.051-3.914v-6.663c0-1.509,0.917-2.201,2.051-1.55l6.403,3.698
				C328.37,171.31,329.288,173.064,329.288,174.57z"/>
			<path fill="#373A3A" d="M327.008,195.498c0.798,0.463,1.45,1.703,1.45,2.771c0,0.798-0.36,1.271-0.877,1.271
				c-0.175,0-0.369-0.053-0.573-0.172l-10.905-6.296c0.269,0.157,0.523,0.229,0.751,0.229c0.548,0,0.924-0.438,0.924-1.196
				c0-1.068-0.748-2.364-1.675-2.899L327.008,195.498z"/>
			<path fill="#DAE0E5" d="M316.103,189.204c0.927,0.535,1.675,1.832,1.675,2.899c0,0.758-0.376,1.196-0.924,1.196
				c-0.229,0-0.482-0.072-0.751-0.229l-19.494-11.256c-0.924-0.532-1.675-1.832-1.675-2.899l0.003-0.144
				c0.047-0.67,0.41-1.052,0.924-1.052c0.216,0,0.454,0.069,0.711,0.21c0.013,0.003,0.025,0.013,0.038,0.019L316.103,189.204z"/>
			<path fill="#FFFFFF" d="M296.609,181.815l-0.225-0.128c-0.802-0.463-1.45-1.703-1.45-2.771
				C294.934,179.983,295.686,181.283,296.609,181.815z"/>
			<path fill="#FFFFFF" d="M296.384,177.82l0.188,0.11c-0.257-0.141-0.495-0.21-0.711-0.21c-0.513,0-0.877,0.382-0.924,1.052
				c0.044-0.708,0.388-1.127,0.87-1.127C295.983,177.644,296.18,177.701,296.384,177.82z"/>
		</g>
		<g>
			<path fill="none" stroke="#373A3A" stroke-width="2" stroke-linecap="round" stroke-linejoin="round" stroke-miterlimit="10" d="
				M333.756,214.127c-0.514,0.297-1.18,0.269-1.913-0.153l-41.423-23.918c-1.616-0.933-2.928-3.435-2.928-5.592v-39.307
				c0-1.205,0.41-2.044,1.052-2.389c0.507-0.272,1.162-0.238,1.875,0.175l41.423,23.915c1.616,0.933,2.924,3.438,2.924,5.592v39.31
				C334.767,212.937,334.375,213.769,333.756,214.127z"/>
			<path fill="none" stroke="#373A3A" stroke-width="2" stroke-linecap="round" stroke-linejoin="round" stroke-miterlimit="10" d="
				M327.24,182.782l-6.403-3.698c-1.133-0.651-2.051-2.405-2.051-3.914v-6.663c0-1.509,0.917-2.201,2.051-1.55l6.403,3.698
				c1.13,0.654,2.048,2.408,2.048,3.914v6.666C329.288,182.742,328.37,183.437,327.24,182.782z"/>
			
				<line fill="none" stroke="#373A3A" stroke-width="1.3" stroke-linecap="round" stroke-linejoin="round" stroke-miterlimit="10" x1="321.394" y1="175.838" x2="321.394" y2="173.731"/>
			
				<line fill="none" stroke="#373A3A" stroke-width="1.3" stroke-linecap="round" stroke-linejoin="round" stroke-miterlimit="10" x1="323.157" y1="176.855" x2="323.157" y2="171.868"/>
			
				<line fill="none" stroke="#373A3A" stroke-width="1.3" stroke-linecap="round" stroke-linejoin="round" stroke-miterlimit="10" x1="324.92" y1="177.873" x2="324.92" y2="173.953"/>
			
				<line fill="none" stroke="#373A3A" stroke-width="1.3" stroke-linecap="round" stroke-linejoin="round" stroke-miterlimit="10" x1="326.683" y1="178.891" x2="326.683" y2="176.226"/>
			<path fill="none" stroke="#373A3A" stroke-width="2" stroke-linecap="round" stroke-linejoin="round" stroke-miterlimit="10" d="
				M294.937,178.772c0.044-0.708,0.388-1.127,0.87-1.127c0.175,0,0.373,0.056,0.576,0.175l0.188,0.11"/>
			<path fill="none" stroke="#373A3A" stroke-width="2" stroke-linecap="round" stroke-linejoin="round" stroke-miterlimit="10" d="
				M296.609,181.815l-0.225-0.128c-0.802-0.463-1.45-1.703-1.45-2.771"/>
			<path fill="none" stroke="#373A3A" stroke-width="2" stroke-linecap="round" stroke-linejoin="round" stroke-miterlimit="10" d="
				M316.103,189.204l10.905,6.293c0.798,0.463,1.45,1.703,1.45,2.771c0,0.798-0.36,1.271-0.877,1.271
				c-0.175,0-0.369-0.053-0.573-0.172l-10.905-6.296"/>
			<path fill="none" stroke="#373A3A" stroke-width="2" stroke-linecap="round" stroke-linejoin="round" stroke-miterlimit="10" d="
				M316.103,193.071l-19.494-11.256c-0.924-0.532-1.675-1.832-1.675-2.899l0.003-0.144c0.047-0.67,0.41-1.052,0.924-1.052
				c0.216,0,0.454,0.069,0.711,0.21c0.013,0.003,0.025,0.013,0.038,0.019l19.494,11.256c0.927,0.535,1.675,1.832,1.675,2.899
				c0,0.758-0.376,1.196-0.924,1.196C316.626,193.3,316.372,193.228,316.103,193.071z"/>
			<path fill="none" stroke="#373A3A" stroke-width="2" stroke-linecap="round" stroke-linejoin="round" stroke-miterlimit="10" d="
				M333.756,214.127l5.154-2.974c0.62-0.357,1.011-1.19,1.011-2.367v-39.31c0-2.154-1.312-4.659-2.928-5.592l-41.42-23.915
				c-0.733-0.423-1.403-0.451-1.916-0.157l-5.154,2.978"/>
		</g>
	</g>
	<g>
		<g>
			<path fill="#373A3A" d="M300.561,160.865c0.482,0.551,0.863,1.158,1.143,1.821c0.28,0.663,0.421,1.323,0.421,1.98
				c0,0.708-0.153,1.242-0.46,1.601c-0.307,0.359-0.725,0.53-1.255,0.512c-0.53-0.018-1.119-0.214-1.768-0.588
				c-1.288-0.744-2.295-1.781-3.023-3.111c-0.727-1.33-1.091-2.84-1.091-4.53c0-1.204,0.197-2.122,0.591-2.754
				c0.394-0.632,0.944-0.967,1.649-1.005c0.705-0.038,1.522,0.211,2.451,0.747c0.49,0.283,0.961,0.618,1.413,1.005
				c0.451,0.387,0.834,0.788,1.15,1.203l-0.788,1.35c-0.456-0.617-1.03-1.126-1.722-1.525c-0.78-0.45-1.397-0.543-1.853-0.281
				c-0.456,0.263-0.701,0.885-0.736,1.866c0.543-0.314,1.301-0.19,2.273,0.372C299.545,159.868,300.079,160.314,300.561,160.865z
				 M299.635,164.503c0.285-0.119,0.427-0.421,0.427-0.907c0-0.485-0.143-0.955-0.427-1.407c-0.285-0.453-0.664-0.816-1.137-1.089
				c-0.464-0.268-0.846-0.339-1.143-0.212c-0.298,0.126-0.447,0.422-0.447,0.888c0,0.466,0.145,0.928,0.434,1.389
				c0.289,0.46,0.683,0.834,1.183,1.123C298.98,164.55,299.35,164.622,299.635,164.503z"/>
			<path fill="#373A3A" d="M304.806,169.097c-0.596-0.779-1.062-1.678-1.4-2.697c-0.337-1.019-0.506-2.1-0.506-3.244
				c0-1.143,0.169-2.03,0.506-2.659c0.337-0.63,0.804-0.99,1.4-1.081c0.596-0.091,1.275,0.083,2.037,0.523
				c0.762,0.44,1.441,1.05,2.037,1.829c0.596,0.779,1.062,1.678,1.4,2.697c0.337,1.019,0.506,2.1,0.506,3.243
				c0,1.143-0.169,2.03-0.506,2.66c-0.338,0.63-0.804,0.99-1.4,1.081c-0.596,0.091-1.275-0.083-2.037-0.524
				C306.081,170.486,305.402,169.876,304.806,169.097z M308.164,168.775c0.32-0.372,0.48-1.139,0.48-2.303s-0.16-2.116-0.48-2.857
				c-0.32-0.741-0.76-1.274-1.321-1.597c-0.552-0.319-0.988-0.292-1.307,0.08c-0.32,0.372-0.48,1.14-0.48,2.303
				c0,1.163,0.16,2.116,0.48,2.856c0.32,0.741,0.756,1.271,1.307,1.59C307.403,169.17,307.844,169.147,308.164,168.775z"/>
		</g>
		<g>
			<polygon fill="#373A3A" points="297.195,170.386 296.464,169.964 296.464,170.789 295.922,170.476 295.922,169.651 
				295.195,169.231 295.195,168.639 295.922,169.059 295.922,168.234 296.464,168.547 296.464,169.372 297.195,169.794 			"/>
			<polygon fill="#373A3A" points="301.108,170.651 301.108,171.16 300.015,173.417 299.275,172.99 300.33,170.842 299.355,170.279 
				299.355,170.833 298.75,170.483 298.75,169.29 			"/>
			<path fill="#373A3A" d="M301.589,172.508c-0.136-0.248-0.204-0.515-0.204-0.8c0-0.285,0.068-0.473,0.204-0.564
				c0.136-0.091,0.312-0.075,0.527,0.05c0.216,0.125,0.391,0.311,0.526,0.558c0.134,0.247,0.202,0.514,0.202,0.798
				c0,0.285-0.067,0.473-0.202,0.565c-0.135,0.092-0.31,0.076-0.526-0.049C301.901,172.943,301.725,172.757,301.589,172.508z
				 M302.342,172.664c0.055-0.059,0.082-0.177,0.082-0.356c0-0.178-0.027-0.328-0.082-0.45c-0.055-0.122-0.13-0.211-0.225-0.266
				c-0.092-0.053-0.167-0.05-0.223,0.01c-0.056,0.06-0.084,0.177-0.084,0.352c0,0.175,0.028,0.324,0.084,0.449
				c0.056,0.125,0.13,0.214,0.223,0.267C302.212,172.725,302.287,172.723,302.342,172.664z M303.869,172.245l0.5,0.289l-2.009,2.237
				l-0.5-0.289L303.869,172.245z M303.737,175.491c-0.111-0.14-0.197-0.299-0.259-0.477c-0.062-0.178-0.092-0.361-0.092-0.548
				c0-0.188,0.031-0.335,0.092-0.442c0.062-0.107,0.148-0.166,0.259-0.178c0.111-0.012,0.236,0.022,0.376,0.103
				c0.216,0.125,0.391,0.311,0.527,0.559c0.136,0.248,0.204,0.515,0.204,0.8c0,0.285-0.068,0.473-0.204,0.564
				c-0.136,0.091-0.312,0.075-0.527-0.05C303.973,175.741,303.848,175.63,303.737,175.491z M304.338,175.415
				c0.055-0.061,0.082-0.178,0.082-0.353s-0.027-0.324-0.082-0.448s-0.13-0.213-0.225-0.268c-0.092-0.053-0.167-0.051-0.223,0.007
				c-0.056,0.058-0.084,0.176-0.084,0.354c0,0.178,0.028,0.328,0.084,0.451c0.056,0.123,0.13,0.211,0.223,0.265
				C304.208,175.479,304.283,175.476,304.338,175.415z"/>
		</g>
	</g>
</g>
<ellipse fill="#309CA0" cx="139.522" cy="304.826" rx="26.696" ry="14.961"/>
<g>
	<g id="XMLID_4_">
		<g>
			<path fill="#FFFFFF" d="M145.594,222.071c-0.177-0.153-0.349-0.314-0.514-0.483c2.606,0.452,6.412-0.973,7.267-3.798
				c0.284,1.177,0.461,2.369,0.56,3.576c0.003,0.042,0.007,0.088,0.008,0.13c0.017,1.257-0.962,2.303-2.219,2.338
				C148.833,223.922,147.006,223.293,145.594,222.071z"/>
			<path fill="#FFFFFF" d="M118.602,211.439c-0.571,0.962-1.092,1.797-1.522,2.48c-1.732-0.376-4.239-3.898-4.76-5.99
				c0.004,0,0.004-0.004,0.004-0.004c1.751-3.196,3.89-6.167,6.366-8.842c2.246-2.415,5.768-3.154,8.8-1.851l1.537,0.667
				l-0.004,0.019c2.2,0.962,4.706,2.119,7.094,3.311c1.947,0.962,3.844,2.024,5.68,3.185c0,0,0.004,0,0.004,0.004
				c0.905,0.567,1.748,1.219,2.533,1.939c2.085,2.016,4.082,3.825,5.626,6.09l0.004,0.004c1.104,1.625,1.912,3.426,2.384,5.335
				v0.004c-0.855,2.825-4.66,4.25-7.267,3.798c0.165,0.169,0.337,0.33,0.514,0.483c-0.441,6.328,0.004,12.08,0.51,17.488v0.011
				c-2.254,1.506-5.147,3.005-7.769,3.005c-4.902,0-11.532-3.127-16.438-7.504h-0.011c0.008-0.732,0.103-9.394,0.103-9.397
				C121.99,219.392,119.698,215.935,118.602,211.439z"/>
			<path fill="#969A9E" d="M151.09,301.834c0.745,0.147,1.226,0.878,1.077,1.621c-0.142,0.594-0.376,1.161-0.69,1.682
				c-1.499,2.595-4.151,2.878-5.3,3.629c-1.15,0.751-3.116,2.066-4.668,3.338c-1.548,1.272-3.867,0.234-4.66-0.226
				c-0.625-0.356-0.625-1.721-0.625-3.277c1.989,1.64,10.013-0.941,10.08-5.642c0-0.004,0-0.004,0-0.008
				c1.514-0.345,3.055-0.773,4.12-1.088C150.642,301.8,150.868,301.79,151.09,301.834z"/>
			<path fill="#FFFFFF" d="M149.96,212.447c-1.545-2.265-3.541-4.074-5.626-6.09c-0.786-0.721-1.629-1.372-2.533-1.939l-0.652-2.204
				c-0.153-0.506-0.506-0.928-0.973-1.173c-0.797-0.395-1.702-1.272-1.897-2.066c-0.307-1.23-0.575-1.855-0.268-2.698
				c0.146-0.399-0.399-1.702-0.759-2.545l-0.004-0.004l0.724-0.724c1.79,1.096,4.473,2.878,5.032,3.66
				C143.705,197.653,147.94,206.315,149.96,212.447z"/>
			<path fill="#373A3A" d="M133.522,259.174c-1.188,10.152-3.913,17.925-4.112,33.259c0,0.004-0.059,4.653-0.057,4.737
				c0.021,1.139-0.494,2.215-1.426,2.867c-0.004,0.004-0.008,0.004-0.012,0.008c-1.79,1.269-4.783,1.134-6.228,0.103
				c-0.471-0.299-0.778-0.801-0.828-1.357c-0.134-3.342-0.395-12.475-0.395-18.768c0-6.293,2.334-12.533,2.334-20.535
				c0-8.002-0.97-11.084-0.97-17.227c0-1.188,0.027-4.116,0.057-7.19h0.011c4.906,4.377,11.536,7.504,16.438,7.504
				c2.621,0,5.515-1.499,7.769-3.005c0.437,4.645,0.92,9.033,0.92,13.311c0,10.356-1.223,14.893-1.223,22.44
				s0.385,21.995,0.502,27.395c0.002,0.077,0,0.241,0,0.245c-0.067,4.7-8.075,7.263-10.08,5.642
				c-0.221-0.178-0.371-0.429-0.418-0.709c-0.492-2.948-1.292-8.769-1.292-19.558c0-10.789,0.429-12.513,0.429-20.209
				C134.944,265.398,134.319,262.282,133.522,259.174z"/>
			<path fill="#373A3A" d="M138.615,176.298c1.123,1.088,1.64,2.66,1.387,4.201c-0.176,0.851-0.448,1.675-0.816,2.46v0.004
				c-0.694,1.541-1.617,2.974-2.188,4.323c-0.184-0.038-0.372-0.065-0.56-0.084c-0.74,0-1.138,1-1.138,1.671
				c0.042,0.54,0.372,1.012,0.858,1.242c-0.885,2.484-3.028,5.665-5.691,5.266c-0.437-0.069-0.855-0.238-1.219-0.487
				c-2.422-1.625-3.706-6.688-3.338-10.244c0.448-4.105,6.673-5.228,9.148-6.262c0.858-0.422,1.571-1.1,2.039-1.935
				c0.046-0.073,0.1-0.138,0.161-0.195C137.646,175.892,138.251,175.915,138.615,176.298z"/>
			<path fill="#FFFFFF" d="M137.971,193.004l-0.855,0.851c-0.686,0.671-1.065,1.594-1.058,2.556l0.061,4.802l-0.004,0.015
				c-2.388-1.192-4.894-2.349-7.094-3.311l0.004-0.019l0.222-3.005c0.364,0.249,0.782,0.418,1.219,0.487
				c2.664,0.399,4.806-2.782,5.691-5.266c-0.487-0.23-0.816-0.701-0.858-1.242c0-0.671,0.399-1.671,1.138-1.671
				c0.188,0.019,0.376,0.046,0.56,0.084c0.571-1.349,1.495-2.782,2.188-4.323c0.345,2.181,0.556,4.377,0.625,6.584
				c0.046,1-0.333,1.97-1.05,2.671L137.971,193.004z"/>
			<path fill="#969A9E" d="M131.161,293.644c0.035,0.924-0.843,1.824-1.805,2.656c0.011-1.108,0.031-2.966,0.054-3.852
				C130.364,292.253,131.119,292.59,131.161,293.644z"/>
			<path fill="#969A9E" d="M127.915,300.045l0.004,0.008l-0.069,1.15c-0.034,0.498-0.341,0.935-0.797,1.142
				c-1.418,0.732-3.097,0.755-4.538,0.061c-0.494-0.199-0.83-0.678-0.836-1.215c-0.003-0.295,0-0.648,0-1.027l0.008-0.015
				C123.132,301.179,126.125,301.313,127.915,300.045z"/>
			<path fill="#FFFFFF" d="M121.986,225.819l-0.077,7.056c-4.361-4.729-7.493-8.554-11.559-13.717
				c-1.326-1.671-1.602-3.948-0.713-5.891c0.882-1.932,1.767-3.691,2.683-5.339c0.521,2.093,3.028,5.615,4.76,5.99
				c-0.004,0-0.004,0.004-0.004,0.004c-0.333,0.525-0.625,0.97-0.851,1.307c-0.322,0.471-0.295,1.096,0.061,1.541
				C118.444,219.518,120.265,223.075,121.986,225.819z"/>
		</g>
		<g>
			<path fill="none" stroke="#373A3A" stroke-width="2" stroke-linecap="round" stroke-linejoin="round" d="M129.026,197.899
				l-1.537-0.667c-3.032-1.303-6.554-0.563-8.8,1.851c-2.476,2.675-4.614,5.645-6.366,8.842c0,0,0,0.004-0.004,0.004
				c-0.916,1.648-1.801,3.407-2.683,5.339c-0.889,1.943-0.613,4.22,0.713,5.891c4.066,5.162,7.198,8.987,11.559,13.717
				c0.008,0.011,0.019,0.023,0.031,0.034"/>
			<path fill="none" stroke="#373A3A" stroke-width="2" stroke-linecap="round" stroke-linejoin="round" d="M149.96,212.447
				c-1.545-2.265-3.541-4.074-5.626-6.09c-0.786-0.721-1.629-1.372-2.533-1.939c0-0.004-0.004-0.004-0.004-0.004
				c-1.836-1.161-3.735-2.219-5.68-3.185c-2.39-1.187-4.894-2.349-7.094-3.311"/>
			<path fill="none" stroke="#373A3A" stroke-width="2" stroke-linecap="round" stroke-linejoin="round" d="M142.015,217.088
				c0.943,1.748,1.893,3.307,3.066,4.499c0.165,0.168,0.337,0.33,0.514,0.483c1.411,1.222,3.239,1.851,5.101,1.763
				c1.257-0.034,2.236-1.08,2.219-2.338c-0.001-0.042-0.004-0.088-0.008-0.13c-0.099-1.206-0.276-2.399-0.56-3.576v-0.004
				c-0.471-1.909-1.28-3.71-2.384-5.335"/>
			<path fill="none" stroke="#373A3A" stroke-width="2" stroke-linecap="round" stroke-linejoin="round" d="M118.023,206.748
				c0.004,1.579,0.199,3.153,0.579,4.691c1.108,4.493,3.388,7.953,3.388,14.234c0,0.004-0.001,0.054-0.004,0.146
				c-0.018,0.69-0.157,15.254-0.157,16.442c0,6.144,0.97,9.225,0.97,17.227c0,8.002-2.334,14.242-2.334,20.535
				c0,6.293,0.261,15.426,0.395,18.768c0.05,0.556,0.356,1.058,0.828,1.357c1.445,1.031,4.438,1.165,6.228-0.103
				c0.004-0.004,0.008-0.004,0.012-0.008c0.931-0.652,1.447-1.728,1.426-2.867c-0.002-0.084,0.057-4.733,0.057-4.737
				c0.199-15.334,2.924-23.107,4.112-33.259c0-0.012,0.004-0.019,0.004-0.031"/>
			<path fill="none" stroke="#373A3A" stroke-width="2" stroke-linecap="round" stroke-linejoin="round" d="M129.839,244.687
				c0.138,3.181,2.219,8.823,3.679,14.472c0,0.004,0.004,0.011,0.004,0.015c0.797,3.108,1.422,6.224,1.422,8.953
				c0,7.696-0.429,9.421-0.429,20.209c0,10.789,0.8,16.609,1.292,19.558c0.047,0.28,0.197,0.531,0.418,0.709
				c2.005,1.621,10.013-0.941,10.08-5.642c0-0.004-0.502-20.094-0.502-27.641s1.223-12.084,1.223-22.44
				c0-4.277-0.483-8.665-0.92-13.311v-0.011c-0.506-5.408-0.95-11.16-0.51-17.488v-0.015"/>
			<path fill="none" stroke="#373A3A" stroke-width="2" stroke-linecap="round" stroke-linejoin="round" d="M121.898,235.071
				c4.906,4.377,11.536,7.504,16.438,7.504c2.621,0,5.515-1.499,7.769-3.005"/>
			<path fill="none" stroke="#373A3A" stroke-width="2" stroke-linecap="round" stroke-linejoin="round" d="M118.602,211.439
				c-0.571,0.962-1.092,1.797-1.522,2.48c-0.004,0-0.004,0.004-0.004,0.004c-0.333,0.525-0.625,0.97-0.851,1.307
				c-0.322,0.471-0.295,1.096,0.061,1.541c2.158,2.748,3.978,6.305,5.699,9.049c0.004,0,0.004,0.004,0.004,0.004"/>
			<path fill="none" stroke="#373A3A" stroke-width="2" stroke-linecap="round" stroke-linejoin="round" d="M112.32,207.925v0.004
				c0.521,2.093,3.028,5.615,4.76,5.99c0.004,0.004,0.008,0.004,0.011,0.004"/>
			<path fill="none" stroke="#373A3A" stroke-width="2" stroke-linecap="round" stroke-linejoin="round" d="M145.081,221.588
				c2.606,0.452,6.412-0.973,7.267-3.798"/>
			<path fill="none" stroke="#373A3A" stroke-width="2" stroke-linecap="round" stroke-linejoin="round" d="M136.224,308.603
				c0,1.556,0,2.92,0.625,3.277c0.793,0.46,3.112,1.499,4.66,0.226c1.552-1.272,3.518-2.587,4.668-3.338
				c1.15-0.751,3.802-1.035,5.3-3.629c0.314-0.521,0.548-1.088,0.69-1.682c0.149-0.744-0.332-1.474-1.077-1.621
				c-0.222-0.044-0.448-0.034-0.667,0.031c-1.065,0.316-2.606,0.743-4.12,1.088"/>
			<path fill="none" stroke="#373A3A" stroke-width="2" stroke-linecap="round" stroke-linejoin="round" d="M121.679,300.163
				c0,0.379-0.003,0.732,0,1.027c0.006,0.537,0.341,1.016,0.836,1.215c1.441,0.694,3.12,0.671,4.538-0.061
				c0.456-0.207,0.763-0.644,0.797-1.142l0.069-1.15"/>
			<path fill="none" stroke="#373A3A" stroke-width="2" stroke-linecap="round" stroke-linejoin="round" d="M129.402,292.448h0.008
				c0.954-0.195,1.709,0.142,1.752,1.196c0.035,0.924-0.843,1.824-1.805,2.656l-0.012,0.011"/>
			
				<line fill="none" stroke="#373A3A" stroke-width="2" stroke-linecap="round" stroke-linejoin="round" x1="129.026" y1="197.899" x2="129.248" y2="194.894"/>
			<path fill="none" stroke="#373A3A" stroke-width="2" stroke-linecap="round" stroke-linejoin="round" d="M136.12,201.214
				l-0.061-4.802c-0.008-0.962,0.372-1.886,1.058-2.556l1.644-1.637c0.717-0.701,1.096-1.671,1.05-2.671
				c-0.069-2.208-0.28-4.404-0.625-6.584"/>
			<path fill="none" stroke="#373A3A" stroke-width="2" stroke-linecap="round" stroke-linejoin="round" d="M129.248,194.894
				c0.365,0.247,0.782,0.418,1.219,0.487c2.664,0.399,4.806-2.782,5.691-5.266c-0.487-0.23-0.816-0.701-0.858-1.242
				c0-0.671,0.399-1.671,1.138-1.671c0.188,0.019,0.376,0.046,0.56,0.084c0.571-1.349,1.495-2.782,2.188-4.323v-0.004
				c0.368-0.786,0.64-1.61,0.816-2.46c0.253-1.541-0.264-3.112-1.387-4.201c-0.364-0.383-0.969-0.406-1.357-0.042
				c-0.061,0.058-0.115,0.123-0.161,0.195c-0.468,0.835-1.18,1.514-2.039,1.935c-2.476,1.035-8.7,2.158-9.148,6.262
				C125.542,188.206,126.834,193.258,129.248,194.894z"/>
			<path fill="none" stroke="#373A3A" stroke-width="2" stroke-linecap="round" stroke-linejoin="round" d="M141.8,204.418
				l-0.652-2.204c-0.153-0.506-0.506-0.928-0.973-1.173c-0.797-0.395-1.702-1.272-1.897-2.066c-0.307-1.23-0.575-1.855-0.268-2.698
				c0.146-0.399-0.399-1.702-0.759-2.545"/>
			<path fill="none" stroke="#373A3A" stroke-width="2" stroke-linecap="round" stroke-linejoin="round" d="M137.968,193.001
				c0,0,0.004,0,0.004,0.004c1.79,1.096,4.473,2.878,5.032,3.66c0.701,0.989,4.936,9.65,6.956,15.783l0.004,0.004"/>
		</g>
	</g>
</g>
</svg>
