<?xml version="1.0" encoding="utf-8"?>
<!-- Generator: Adobe Illustrator 29.5.0, SVG Export Plug-In . SVG Version: 9.03 Build 0)  -->
<svg version="1.1" baseProfile="tiny" id="Capa_1" xmlns="http://www.w3.org/2000/svg" xmlns:xlink="http://www.w3.org/1999/xlink"
	 x="0px" y="0px" viewBox="0 0 68.031 68.031" overflow="visible" xml:space="preserve">
<g>
	<path fill="#A8A8A7" d="M41.466,11.907c-6.37,0-11.533,5.164-11.533,11.534c0,6.37,5.164,11.533,11.533,11.533
		s11.533-5.164,11.533-11.533C52.999,17.071,47.835,11.907,41.466,11.907z M41.536,22.177c2.307,0,4.183,1.877,4.183,4.183
		c0,1.855-1.221,3.413-2.896,3.96v0.385c0,0.711-0.576,1.287-1.287,1.287c-0.711,0-1.287-0.576-1.287-1.287V30.32
		c-1.675-0.547-2.896-2.105-2.896-3.96c0-0.711,0.576-1.287,1.287-1.287s1.287,0.576,1.287,1.287c0,0.887,0.721,1.609,1.609,1.609
		s1.609-0.722,1.609-1.609s-0.721-1.609-1.609-1.609c-2.307,0-4.183-1.877-4.183-4.183c0-1.85,1.216-3.406,2.884-3.956l-0.006-0.507
		c-0.008-0.711,0.562-1.293,1.273-1.302c0.004,0,0.009,0,0.014,0c0.704,0,1.28,0.567,1.287,1.273l0.006,0.529
		c1.681,0.543,2.908,2.104,2.908,3.963c0,0.711-0.576,1.287-1.287,1.287c-0.711,0-1.287-0.576-1.287-1.287
		c0-0.887-0.721-1.609-1.609-1.609s-1.609,0.721-1.609,1.609S40.648,22.177,41.536,22.177z"/>
	<g>
		<path fill="#A8A8A7" d="M16.578,39.251h-4.192c-0.61,0-1.106,0.497-1.106,1.107v12.638c0,0.61,0.496,1.107,1.106,1.107h4.192
			c0.61,0,1.107-0.497,1.107-1.107V40.359C17.686,39.749,17.189,39.251,16.578,39.251z"/>
		<path fill="#A8A8A7" d="M55.337,42.825c-0.611-0.299-1.3-0.339-1.941-0.119l-13.447,4.663c-0.352,0.654-0.855,1.217-1.504,1.619
			c-0.688,0.426-1.463,0.645-2.25,0.645c-0.34,0-0.682-0.041-1.021-0.123l-7.576-1.835c-0.456-0.11-0.736-0.57-0.626-1.026
			c0.111-0.456,0.57-0.739,1.026-0.626l7.576,1.835c0.68,0.167,1.381,0.053,1.976-0.314c0.595-0.368,1.009-0.946,1.165-1.627
			c0.303-1.326-0.479-2.672-1.782-3.064l-8.325-2.507c-1.134-0.341-2.345-0.39-3.5-0.145l-5.723,1.252v10.543l10.11,2.808
			c2.695,0.75,5.612,0.593,8.214-0.438l17.446-6.921c1.25-0.496,1.893-1.883,1.464-3.157C56.403,43.643,55.946,43.124,55.337,42.825
			z"/>
	</g>
</g>
</svg>
