<?xml version="1.0" encoding="utf-8"?>
<!-- Generator: Adobe Illustrator 29.5.0, SVG Export Plug-In . SVG Version: 9.03 Build 0)  -->
<svg version="1.1" baseProfile="tiny" id="Capa_1" xmlns="http://www.w3.org/2000/svg" xmlns:xlink="http://www.w3.org/1999/xlink"
	 x="0px" y="0px" viewBox="0 0 68.031 68.031" overflow="visible" xml:space="preserve">
<g>
	
		<circle fill="none" stroke="#616160" stroke-width="1.7" stroke-linecap="round" stroke-linejoin="round" stroke-miterlimit="10" cx="41.465" cy="23.441" r="11.533"/>
	<path fill="none" stroke="#616160" stroke-width="1.7" stroke-linecap="round" stroke-linejoin="round" stroke-miterlimit="10" d="
		M16.578,54.953h-4.192c-1.081,0-1.957-0.876-1.957-1.957V40.359c0-1.081,0.876-1.957,1.957-1.957h4.192
		c1.081,0,1.957,0.876,1.957,1.957v12.638C18.535,54.077,17.659,54.953,16.578,54.953z"/>
	<path fill="none" stroke="#616160" stroke-width="1.7" stroke-linecap="round" stroke-linejoin="round" stroke-miterlimit="10" d="
		M18.762,40.718l6.169-1.35c1.3-0.276,2.649-0.22,3.921,0.163l8.326,2.506c1.736,0.522,2.77,2.301,2.365,4.068v0
		c-0.429,1.871-2.303,3.03-4.168,2.578l-7.576-1.835"/>
	<path fill="none" stroke="#616160" stroke-width="1.7" stroke-linecap="round" stroke-linejoin="round" stroke-miterlimit="10" d="
		M39.445,46.644l13.672-4.741c1.774-0.615,3.708,0.334,4.308,2.113v0c0.574,1.702-0.286,3.556-1.956,4.219l-17.447,6.921
		c-2.789,1.106-5.863,1.271-8.754,0.468l-10.256-2.849"/>
</g>
<path fill="#616160" d="M41.535,27.969c-0.887,0-1.609-0.722-1.609-1.609c0-0.711-0.576-1.287-1.287-1.287
	c-0.711,0-1.287,0.576-1.287,1.287c0,1.855,1.221,3.413,2.896,3.96v0.385c0,0.711,0.576,1.287,1.287,1.287
	c0.711,0,1.287-0.576,1.287-1.287V30.32c1.675-0.547,2.896-2.105,2.896-3.96c0-2.307-1.877-4.183-4.183-4.183
	c-0.887,0-1.609-0.722-1.609-1.609s0.722-1.609,1.609-1.609c0.887,0,1.609,0.722,1.609,1.609c0,0.711,0.576,1.287,1.287,1.287
	s1.287-0.576,1.287-1.287c0-1.859-1.227-3.42-2.908-3.963l-0.006-0.529c-0.008-0.706-0.583-1.273-1.287-1.273
	c-0.005,0-0.01,0-0.014,0c-0.711,0.008-1.281,0.591-1.273,1.302l0.006,0.507c-1.668,0.55-2.884,2.106-2.884,3.956
	c0,2.307,1.877,4.183,4.183,4.183c0.887,0,1.609,0.722,1.609,1.609S42.423,27.969,41.535,27.969z"/>
</svg>
