<?xml version="1.0" encoding="utf-8"?>
<!-- Generator: Adobe Illustrator 29.5.0, SVG Export Plug-In . SVG Version: 9.03 Build 0)  -->
<svg version="1.1" baseProfile="tiny" id="Capa_1" xmlns="http://www.w3.org/2000/svg" xmlns:xlink="http://www.w3.org/1999/xlink"
	 x="0px" y="0px" viewBox="0 0 68.031 68.031" overflow="visible" xml:space="preserve">
<g>
	<path fill="#616160" d="M22.627,20.612h-9.592v-2.534l6.863-6.863h2.729V20.612z M14.735,18.913h6.193v-5.999h-0.324l-5.869,5.869
		V18.913z"/>
	<g>
		<path fill="#616160" d="M19.141,26.856h15.513c0.47,0,0.85-0.38,0.85-0.85s-0.38-0.85-0.85-0.85H19.141
			c-0.47,0-0.85,0.38-0.85,0.85S18.671,26.856,19.141,26.856z"/>
		<path fill="#616160" d="M29.531,32.29c0-0.47-0.38-0.85-0.85-0.85h-9.54c-0.47,0-0.85,0.38-0.85,0.85c0,0.47,0.38,0.85,0.85,0.85
			h9.54C29.151,33.14,29.531,32.76,29.531,32.29z"/>
		<path fill="#616160" d="M53.513,26.836l-1.347-1.034l2.01-2.678c1.357-1.808,0.99-4.383-0.818-5.739
			c-1.807-1.357-4.383-0.99-5.74,0.818l-1.39,1.852v-6.517c0-1.281-1.042-2.323-2.323-2.323H19.899l-6.863,6.863v36.415
			c0,1.281,1.042,2.323,2.323,2.323h28.545c1.281,0,2.323-1.042,2.323-2.323V33.717l4.918-6.554l1.333,1.023
			c0.49,0.376,0.59,1.085,0.221,1.58l-4.241,5.701c-0.28,0.377-0.202,0.909,0.174,1.189c0.153,0.113,0.331,0.168,0.507,0.168
			c0.26,0,0.517-0.118,0.683-0.342l4.241-5.701C54.983,29.544,54.737,27.774,53.513,26.836z M48.976,19.224
			c0.796-1.06,2.302-1.273,3.361-0.479c1.058,0.794,1.272,2.302,0.479,3.36l-1.999,2.663l-3.809-2.922L48.976,19.224z
			 M44.528,54.493c0,0.344-0.28,0.624-0.624,0.624H15.359c-0.344,0-0.624-0.28-0.624-0.624v-35.71l5.869-5.869h23.3
			c0.344,0,0.624,0.28,0.624,0.624v8.782l-14.932,19.9l-0.13,0.172l-1.253,8.48l7.812-3.558l8.503-11.333V54.493z M35.579,37.078
			l3.792,2.945l-4.446,5.925l-4.573,2.083l0.733-4.963L35.579,37.078z M40.391,38.663l-3.792-2.945l9.388-12.512l3.809,2.922
			L40.391,38.663z"/>
	</g>
</g>
</svg>
