<?xml version="1.0" encoding="utf-8"?>
<!-- Generator: Adobe Illustrator 29.5.0, SVG Export Plug-In . SVG Version: 9.03 Build 0)  -->
<svg version="1.1" baseProfile="tiny" id="Capa_1" xmlns="http://www.w3.org/2000/svg" xmlns:xlink="http://www.w3.org/1999/xlink"
	 x="0px" y="0px" viewBox="0 0 68.031 68.031" overflow="visible" xml:space="preserve">
<g>
	<path fill="#A8A8A7" d="M31.513,35.55c-0.329-0.361-0.638-0.739-0.926-1.135L12.703,52.26l0.086,2.009l4.654-4.654L31.513,35.55z"
		/>
	<path fill="#A8A8A7" d="M41.131,38.421c6.411,0,11.626-5.215,11.626-11.626s-5.215-11.626-11.626-11.626
		s-11.626,5.215-11.626,11.626S34.719,38.421,41.131,38.421z M41.913,20.198c0.793-0.793,1.847-1.229,2.968-1.229
		s2.176,0.437,2.969,1.229c1.637,1.637,1.637,4.301,0,5.938c-0.818,0.818-1.894,1.227-2.969,1.227s-2.149-0.408-2.968-1.227
		C40.276,24.498,40.276,21.834,41.913,20.198z"/>
	<path fill="#A8A8A7" d="M50.572,16.147c-1.995-1.757-4.451-2.916-7.104-3.354c-0.059-0.012-0.981-0.233-2.4-0.232
		c-1.098,0.004-2.313,0.226-2.325,0.228c-2.47,0.406-4.775,1.443-6.681,3.001c-4.737,3.871-6.512,10.094-4.523,15.852
		c0.404,1.166,0.093,2.491-0.793,3.377L12.572,49.192l0.05,1.172l17.187-17.15c-1.08-1.897-1.705-4.084-1.705-6.419
		c0-7.183,5.844-13.026,13.026-13.026s13.026,5.844,13.026,13.026s-5.844,13.026-13.026,13.026c-3.307,0-6.322-1.249-8.622-3.288
		L18.432,50.605l-4.654,4.654l3.883,0.166l-0.007,0.008l0.733,0.033l-0.078-1.706c-0.016-0.354,0.119-0.699,0.369-0.949
		c0.251-0.25,0.616-0.379,0.948-0.366l1.704,0.077l-0.094-2.072c-0.016-0.353,0.119-0.697,0.368-0.947l3.353-3.354
		c0.25-0.25,0.585-0.387,0.946-0.367l2.073,0.094l-0.072-1.6c-0.018-0.384,0.138-0.75,0.428-1.004
		c0.29-0.255,0.678-0.355,1.054-0.293l1.664,0.301l1.974-1.974c0.889-0.89,2.206-1.207,3.357-0.806
		c5.165,1.796,11.007,0.459,14.875-3.408c2.834-2.834,4.324-6.602,4.197-10.608C55.328,22.478,53.593,18.807,50.572,16.147z"/>
</g>
</svg>
