<?xml version="1.0" encoding="utf-8"?>
<!-- Generator: Adobe Illustrator 29.5.0, SVG Export Plug-In . SVG Version: 9.03 Build 0)  -->
<svg version="1.1" baseProfile="tiny" id="Capa_1" xmlns="http://www.w3.org/2000/svg" xmlns:xlink="http://www.w3.org/1999/xlink"
	 x="0px" y="0px" viewBox="0 0 68.031 68.031" overflow="visible" xml:space="preserve">
<circle fill="#FFFFFF" cx="34.016" cy="34.016" r="27.522"/>
<g>
	<path fill="#616160" d="M19.353,49.049c0,0.997,0.808,1.805,1.805,1.805h25.716c0.997,0,1.805-0.808,1.805-1.805V27.772H19.353
		V49.049z M41.902,30.161h4.541v4.541h-4.541V30.161z M41.902,37.043h4.541v4.541h-4.541V37.043z M41.902,43.902h4.541v4.541h-4.541
		V43.902z M35.114,30.161h4.541v4.541h-4.541V30.161z M35.114,37.043h4.541v4.541h-4.541V37.043z M35.114,43.902h4.541v4.541h-4.541
		V43.902z M28.374,30.161h4.541v4.541h-4.541V30.161z M28.374,37.043h4.541v4.541h-4.541V37.043z M28.374,43.902h4.541v4.541h-4.541
		V43.902z M21.634,37.043h4.541v4.541h-4.541V37.043z M21.634,43.902h4.541v4.541h-4.541V43.902z"/>
	<path fill="#616160" d="M34.016,1.972c-17.697,0-32.043,14.346-32.043,32.043s14.346,32.043,32.043,32.043
		s32.044-14.346,32.044-32.043S51.713,1.972,34.016,1.972z M40.575,16.735c0-0.906,0.734-1.64,1.64-1.64
		c0.906,0,1.64,0.734,1.64,1.64v4.982c0,0.906-0.734,1.64-1.64,1.64c-0.906,0-1.64-0.734-1.64-1.64V16.735z M24.177,16.735
		c0-0.906,0.734-1.64,1.64-1.64c0.906,0,1.64,0.734,1.64,1.64v4.982c0,0.906-0.734,1.64-1.64,1.64c-0.906,0-1.64-0.734-1.64-1.64
		V16.735z M51.233,48.3c0,2.56-2.075,4.635-4.635,4.635H21.434c-2.56,0-4.635-2.075-4.635-4.635V23.452
		c0-2.56,2.075-4.635,4.635-4.635H22.7v2.875c0,1.721,1.395,3.117,3.117,3.117c1.721,0,3.117-1.395,3.117-3.117v-2.875h10.038v2.875
		c0,1.721,1.395,3.117,3.117,3.117c1.721,0,3.117-1.395,3.117-3.117v-2.875h1.393c2.56,0,4.635,2.075,4.635,4.635V48.3z"/>
</g>
</svg>
