<?xml version="1.0" encoding="utf-8"?>
<!-- Generator: Adobe Illustrator 29.5.0, SVG Export Plug-In . SVG Version: 9.03 Build 0)  -->
<svg version="1.1" baseProfile="tiny" id="Capa_1" xmlns="http://www.w3.org/2000/svg" xmlns:xlink="http://www.w3.org/1999/xlink"
	 x="0px" y="0px" viewBox="0 0 68.031 68.031" overflow="visible" xml:space="preserve">
<circle fill="#FFFFFF" cx="34.016" cy="34.016" r="27.522"/>
<path fill="#616160" d="M34.016,1.972c-17.697,0-32.044,14.346-32.044,32.043s14.346,32.043,32.044,32.043
	c17.697,0,32.043-14.346,32.043-32.043S51.713,1.972,34.016,1.972z M49.799,22.546l-0.047,0.212
	c-4.951,4.422-9.694,9.073-14.623,13.519c-0.313,0.282-0.905,0.886-1.217,1.077c-0.372,0.228-0.761,0.18-1.08-0.103L18.267,22.755
	l-0.104-0.209H49.799z M16.842,43.991V23.936l9.806,9.628c-3.169,3.546-6.448,6.997-9.667,10.498L16.842,43.991z M49.834,45.486
	H18.198l-0.07-0.139c1.75-1.952,3.57-3.845,5.356-5.769c1.147-1.236,2.242-2.536,3.405-3.756c0.13-0.137,0.911-0.945,0.988-0.965
	c0.08-0.021,0.141,0,0.198,0.058l3.93,3.858c0.667,0.411,1.433,0.558,2.19,0.321c1.056-0.33,3.323-2.796,4.271-3.655
	c0.325-0.295,0.661-0.604,1.021-0.858c0.105-0.009,0.918,0.843,1.067,0.996c1.781,1.833,3.512,3.719,5.281,5.565
	c1.349,1.407,2.762,2.757,4.07,4.204L49.834,45.486z M51.19,44.096l-10.362-10.74l10.362-9.558V44.096z"/>
</svg>
