<?xml version="1.0" encoding="utf-8"?>
<!-- Generator: Adobe Illustrator 29.5.0, SVG Export Plug-In . SVG Version: 9.03 Build 0)  -->
<svg version="1.1" baseProfile="tiny" id="Capa_1" xmlns="http://www.w3.org/2000/svg" xmlns:xlink="http://www.w3.org/1999/xlink"
	 x="0px" y="0px" viewBox="0 0 68.031 68.031" overflow="visible" xml:space="preserve">
<g>
	
		<ellipse transform="matrix(0.3827 -0.9239 0.9239 0.3827 -10.428 52.4249)" fill="#4B4B4D" stroke="#616160" stroke-width="0.75" stroke-miterlimit="10" cx="34.016" cy="34.016" rx="32.043" ry="32.043"/>
</g>
<g>
	<path fill="#A8A8A7" stroke="#A8A8A7" stroke-width="1.5" stroke-miterlimit="10" d="M51.464,47.754
		c0-0.457-0.374-0.831-0.831-0.831H47.31c-0.457,0-0.831,0.374-0.831,0.831v0.831h4.985V47.754z"/>
	<path fill="#A8A8A7" stroke="#A8A8A7" stroke-width="2" stroke-miterlimit="10" d="M18.229,44.133h1.662V34.46
		c0-2.293,1.861-4.154,4.154-4.154c2.293,0,4.154,1.861,4.154,4.154v9.673h1.662V34.46c0-2.293,1.861-4.154,4.154-4.154
		s4.154,1.861,4.154,4.154v9.673h1.662V34.46c0-2.293,1.861-4.154,4.154-4.154c2.293,0,4.154,1.861,4.154,4.154v9.673h1.662V29.177
		H18.229V44.133z"/>
	<path fill="#A8A8A7" stroke="#A8A8A7" stroke-width="1.5" stroke-miterlimit="10" d="M41.494,47.754
		c0-0.457-0.374-0.831-0.831-0.831h-3.323c-0.457,0-0.831,0.374-0.831,0.831v0.831h4.985V47.754z"/>
	<path fill="#A8A8A7" stroke="#A8A8A7" stroke-width="1.5" stroke-miterlimit="10" d="M21.553,47.754
		c0-0.457-0.374-0.831-0.831-0.831h-3.323c-0.457,0-0.831,0.374-0.831,0.831v0.831h4.985V47.754z"/>
	<polygon fill="#A8A8A7" points="14.906,23.343 14.906,26.982 53.126,26.982 53.126,23.343 34.016,13.788 	"/>
	<polygon fill="#A8A8A7" stroke="#A8A8A7" stroke-width="2" stroke-miterlimit="10" points="14.906,51.908 31.523,51.908 
		33.017,51.908 53.126,51.908 53.126,50.247 14.906,50.247 	"/>
	<path fill="#A8A8A7" stroke="#A8A8A7" stroke-width="1.5" stroke-miterlimit="10" d="M31.523,47.754
		c0-0.457-0.374-0.831-0.831-0.831h-3.323c-0.457,0-0.831,0.374-0.831,0.831v0.831h4.985V47.754z"/>
</g>
</svg>
