<?xml version="1.0" encoding="utf-8"?>
<!-- Generator: Adobe Illustrator 29.5.0, SVG Export Plug-In . SVG Version: 9.03 Build 0)  -->
<svg version="1.1" baseProfile="tiny" id="Capa_1" xmlns="http://www.w3.org/2000/svg" xmlns:xlink="http://www.w3.org/1999/xlink"
	 x="0px" y="0px" viewBox="0 0 68.031 68.031" overflow="visible" xml:space="preserve">
<ellipse transform="matrix(0.3827 -0.9239 0.9239 0.3827 -10.428 52.4249)" fill="#FFFFFF" stroke="#616160" stroke-width="0.75" stroke-miterlimit="10" cx="34.016" cy="34.016" rx="32.043" ry="32.043"/>
<path fill="#616160" d="M53.957,28.645c0.457,0,0.831-0.374,0.831-0.831v-4.985c0-0.316-0.174-0.598-0.457-0.74l-19.941-9.97
	c-0.233-0.125-0.515-0.125-0.748,0l-19.941,9.97c-0.282,0.141-0.457,0.424-0.457,0.74v4.985c0,0.457,0.374,0.831,0.831,0.831h2.493
	v16.767c-0.964,0.349-1.662,1.263-1.662,2.343v0.831h-0.831c-0.457,0-0.831,0.374-0.831,0.831v3.323
	c0,0.457,0.374,0.831,0.831,0.831h17.448h1.494h20.939c0.457,0,0.831-0.374,0.831-0.831v-3.323c0-0.457-0.374-0.831-0.831-0.831
	h-0.831v-0.831c0-1.08-0.698-1.994-1.662-2.343V28.645H53.957z M16.567,47.755c0-0.457,0.374-0.831,0.831-0.831h3.323
	c0.457,0,0.831,0.374,0.831,0.831v0.831h-4.985V47.755z M41.494,45.412V34.461c0-1.371,1.122-2.493,2.493-2.493
	s2.493,1.122,2.493,2.493v10.951c-0.964,0.349-1.662,1.263-1.662,2.343v0.831h-1.662v-0.831
	C43.155,46.675,42.457,45.761,41.494,45.412z M46.479,47.755c0-0.457,0.374-0.831,0.831-0.831h3.323
	c0.457,0,0.831,0.374,0.831,0.831v0.831h-4.985V47.755z M49.802,45.262h-1.662V34.461c0-2.293-1.861-4.154-4.154-4.154
	c-2.293,0-4.154,1.861-4.154,4.154v10.801H38.17V34.461c0-2.293-1.861-4.154-4.154-4.154s-4.154,1.861-4.154,4.154v10.801H28.2
	V34.461c0-2.293-1.861-4.154-4.154-4.154c-2.293,0-4.154,1.861-4.154,4.154v10.801h-1.662V28.645h31.573V45.262z M31.523,45.412
	V34.461c0-1.371,1.122-2.493,2.493-2.493s2.493,1.122,2.493,2.493v10.951c-0.964,0.349-1.662,1.263-1.662,2.343v0.831h-1.662v-0.831
	C33.185,46.675,32.487,45.761,31.523,45.412z M36.508,47.755c0-0.457,0.374-0.831,0.831-0.831h3.323
	c0.457,0,0.831,0.374,0.831,0.831v0.831h-4.985V47.755z M21.553,45.412V34.461c0-1.371,1.122-2.493,2.493-2.493
	c1.371,0,2.493,1.122,2.493,2.493v10.951c-0.964,0.349-1.662,1.263-1.662,2.343v0.831h-1.662v-0.831
	C23.214,46.675,22.516,45.761,21.553,45.412z M26.538,47.755c0-0.457,0.374-0.831,0.831-0.831h3.323
	c0.457,0,0.831,0.374,0.831,0.831v0.831h-4.985V47.755z M53.126,50.248v1.662H33.017h-1.494H14.906v-1.662H53.126z M14.906,26.983
	v-3.639l19.11-9.555l19.11,9.555v3.639H14.906z"/>
</svg>
