<?xml version="1.0" encoding="utf-8"?>
<!-- Generator: Adobe Illustrator 29.5.0, SVG Export Plug-In . SVG Version: 9.03 Build 0)  -->
<svg version="1.1" baseProfile="tiny" id="Capa_1" xmlns="http://www.w3.org/2000/svg" xmlns:xlink="http://www.w3.org/1999/xlink"
	 x="0px" y="0px" viewBox="0 0 68.031 68.031" overflow="visible" xml:space="preserve">
<circle fill="#FFFFFF" cx="34.016" cy="34.016" r="27.522"/>
<g>
	<path fill="#616160" d="M34.016,1.972c-17.697,0-32.043,14.346-32.043,32.043s14.346,32.043,32.043,32.043
		s32.044-14.346,32.044-32.043S51.713,1.972,34.016,1.972z M43.171,43.202c-2.575,3.76-5.661,7.288-8.922,10.462h-0.461
		c-3.774-3.702-7.372-7.86-10.165-12.366c-3.772-6.086-6.274-12.732-2.409-19.515c5.288-9.281,18.526-10.001,24.766-1.306
		C51.477,28.136,47.885,36.318,43.171,43.202z"/>
	<path fill="#616160" d="M33.542,22.366c-5.14,0.372-7.99,6.151-5.145,10.473c2.971,4.513,9.939,3.774,11.898-1.264
		C42.091,26.957,38.479,22.009,33.542,22.366z"/>
</g>
</svg>
