<?xml version="1.0" encoding="utf-8"?>
<!-- Generator: Adobe Illustrator 29.5.0, SVG Export Plug-In . SVG Version: 9.03 Build 0)  -->
<svg version="1.1" baseProfile="tiny" id="Capa_1" xmlns="http://www.w3.org/2000/svg" xmlns:xlink="http://www.w3.org/1999/xlink"
	 x="0px" y="0px" viewBox="0 0 68.031 68.031" overflow="visible" xml:space="preserve">
<circle fill="#FFFFFF" cx="34.016" cy="34.016" r="27.522"/>
<g>
	<path fill="#616160" d="M33.665,1.962c22.566-0.308,38.461,22.521,30.28,43.65c-9.137,23.6-40.854,27.776-55.835,7.322
		C-7.286,31.912,7.759,2.315,33.665,1.962z M24.303,30.258l3.348-1.681l0.443-0.862l-2.392-10.694
		c-0.241-1.335-2.456-1.233-3.494-1.129c-4.78,0.481-6.553,4.735-6.342,9.018c0.708,14.377,12.919,26.588,27.296,27.296
		c5.144,0.253,9.608-2.465,9.018-8.153c-0.153-1.476-0.539-1.513-1.823-1.853c-3.259-0.862-6.621-1.402-9.895-2.215
		c-0.283,0.002-0.726,0.198-0.919,0.407c-0.591,0.642-1.233,2.553-1.73,3.377C31.534,41.626,26.448,36.536,24.303,30.258z"/>
</g>
</svg>
