<?xml version="1.0" encoding="utf-8"?>
<!-- Generator: Adobe Illustrator 29.5.0, SVG Export Plug-In . SVG Version: 9.03 Build 0)  -->
<svg version="1.1" baseProfile="tiny" id="Capa_1" xmlns="http://www.w3.org/2000/svg" xmlns:xlink="http://www.w3.org/1999/xlink"
	 x="0px" y="0px" viewBox="0 0 380 380" overflow="visible" xml:space="preserve">
<ellipse fill="#34CACC" cx="146.137" cy="174.744" rx="119.149" ry="71.714"/>
<path fill="#309CA0" d="M263.702,186.433c-3.218-1.149-6.447-2.264-9.673-3.366c-3.07-1.049-6.622,0.95-7.775,3.816
	c-1.239,3.08-0.15,6.449,2.696,8.23c2.311,1.446,4.597,2.934,6.867,4.445c-4.164,1.051-8.09,2.644-12.162,4.389l-6.36,2.726
	c-1.716-0.875-3.791-0.89-5.618,0.127c-2.87,1.598-5.058,3.648-6.698,6.505c-0.075,0.131-0.142,0.265-0.207,0.4
	c-0.937-0.395-1.866-0.809-2.788-1.238c-0.977-1.422-2.141-2.704-3.376-3.745c-2.842-2.398-6.128-3.211-9.553-2.997
	c-0.203-0.105-0.406-0.212-0.61-0.316c-2.461-1.254-4.62-0.197-5.541,1.611c-3.717,1.184-7.198-0.822-3.47,4.503
	c3.652,5.217,26.608,15.049,28.022,15.63C246.252,216.583,259.354,202.396,263.702,186.433z"/>
<path fill="#363838" d="M299.456,207.617c-1.438-5.199-6.194-8.169-10.659-10.54c-5.924-3.146-12.093-5.776-18.359-8.168
	c-2.235-0.853-4.483-1.671-6.736-2.476c-4.348,15.963-17.45,30.15-36.245,40.719c0.935,0.385,1.87,0.767,2.783,1.14
	c1.705,0.697,3.421,1.39,5.154,2.042c3.071,1.155,6.194,2.176,9.401,2.836c6.098,1.254,12.031,0.991,18.121-0.168
	c9.95-1.895,21.023-4.684,29.44-10.536C297.217,219.086,301.188,213.878,299.456,207.617z"/>
<path fill="#309CA0" d="M46.401,143.642c0,0,7.003,38.603,55.168,45.793c48.61,7.257,67.822-6.869,75.197-12.088
	c7.375-5.219,19.316-22.968,17.471-38.752c-1.291-11.046-11.418-27.655-29.807-28.737c-18.389-1.082-53.846,34.146-53.846,34.146
	L46.401,143.642z"/>
<path fill="none" stroke="#8B8B8B" stroke-width="2" stroke-linecap="round" stroke-linejoin="round" stroke-miterlimit="10" d="
	M341.981,348.395c-2.713-1.566-7.402,1.141-10.114-0.425c-2.713-1.566,1.976-4.274-0.737-5.84
	c-2.713-1.566-7.402,1.141-10.115-0.425c-2.713-1.566,1.976-4.274-0.737-5.84c-2.713-1.566-7.402,1.141-10.115-0.426
	c-2.713-1.567,1.976-4.274-0.738-5.84c-2.713-1.567-7.403,1.141-10.116-0.426"/>
<g>
	
		<line fill="none" stroke="#8B8B8B" stroke-width="2" stroke-linecap="round" stroke-linejoin="round" stroke-miterlimit="10" x1="208.026" y1="42.13" x2="218.043" y2="36.347"/>
	
		<line fill="none" stroke="#8B8B8B" stroke-width="2" stroke-linecap="round" stroke-linejoin="round" stroke-miterlimit="10" x1="218.043" y1="42.13" x2="208.026" y2="36.347"/>
</g>
<circle fill="#34CACC" cx="305.06" cy="52.565" r="26.087"/>
<g>
	<path fill="#FFFFFF" d="M314.815,66.356h-18.989v-3.664l9.411-9.328l0.666-0.666l0.708-0.708c0.125-0.125,0.334-0.375,0.625-0.708
		s0.5-0.583,0.625-0.791s0.291-0.5,0.499-0.833s0.375-0.666,0.458-0.958c0.084-0.291,0.167-0.624,0.25-0.999s0.125-0.75,0.125-1.124
		c0-1.166-0.375-2.124-1.124-2.874c-0.75-0.749-1.749-1.124-2.957-1.124c-2.79,0-4.33,1.707-4.58,5.122l-5.164-1.083
		c0.125-2.706,1.083-4.872,2.874-6.496c1.79-1.624,4.122-2.415,6.995-2.415c2.79,0,5.08,0.791,6.829,2.415s2.624,3.706,2.624,6.288
		c0,1.832-0.458,3.498-1.374,4.997c-0.917,1.499-2.457,3.331-4.664,5.497l-4.289,4.205h10.535L314.815,66.356z"/>
</g>
<g>
	
		<ellipse transform="matrix(0.1435 -0.9897 0.9897 0.1435 177.2341 411.1281)" fill="#404141" cx="326.13" cy="103.174" rx="4.696" ry="8"/>
	<g id="XMLID_00000124120117886309853100000003429116609539684539_">
		<g>
			<path fill="#FFFFFF" d="M326.893,71.277v29.77c0,0.64-0.424,1.276-1.267,1.762c-1.686,0.974-4.417,0.974-6.103,0
				c-0.847-0.487-1.266-1.122-1.266-1.762V71.25c0,0.636,0.419,1.276,1.266,1.762c1.686,0.974,4.417,0.974,6.103,0
				C326.456,72.535,326.879,71.908,326.893,71.277z"/>
			<path fill="#FFFFFF" d="M326.893,71.25v0.027c-0.014,0.631-0.437,1.257-1.267,1.735c-1.686,0.974-4.417,0.974-6.103,0
				c-0.847-0.487-1.266-1.127-1.266-1.762c0-0.64,0.419-1.276,1.262-1.762c1.69-0.974,4.421-0.974,6.107,0
				C326.469,69.975,326.893,70.615,326.893,71.25z"/>
		</g>
		<g>
			<path fill="none" stroke="#373A3A" stroke-width="2" stroke-linecap="round" stroke-linejoin="round" stroke-miterlimit="10" d="
				M326.893,71.277c-0.014,0.631-0.437,1.257-1.267,1.735c-1.686,0.974-4.417,0.974-6.103,0c-0.847-0.487-1.266-1.127-1.266-1.762
				c0-0.64,0.419-1.276,1.262-1.762c1.69-0.974,4.421-0.974,6.107,0c0.843,0.487,1.267,1.127,1.267,1.762V71.277z"/>
			<path fill="none" stroke="#373A3A" stroke-width="2" stroke-linecap="round" stroke-linejoin="round" stroke-miterlimit="10" d="
				M326.893,71.25v29.797c0,0.64-0.424,1.276-1.267,1.762c-1.686,0.974-4.417,0.974-6.103,0c-0.847-0.487-1.266-1.122-1.266-1.762
				V71.25"/>
		</g>
	</g>
</g>
<g>
	<polygon fill="#363838" points="369.241,281.593 339.43,298.806 309.616,281.593 339.43,264.38 	"/>
	<polygon fill="#363838" points="325.116,256.114 295.301,273.327 265.491,256.114 295.301,238.902 	"/>
	
		<line fill="none" stroke="#373A3A" stroke-width="2" stroke-linecap="round" stroke-linejoin="round" stroke-miterlimit="10" x1="140.287" y1="149.855" x2="357.526" y2="275.269"/>
	<path fill="none" stroke="#373A3A" stroke-width="2" stroke-linecap="round" stroke-linejoin="round" stroke-miterlimit="10" d="
		M231.541,297.709L206.758,283.4c-9.972-5.757-9.972-20.151,0-25.908l23.262-13.43c9.972-5.757,9.972-20.151,0-25.908
		l-38.005-21.942"/>
	<g id="XMLID_00000160869370399259842900000009524693989300804489_">
		<g>
			<path fill="#C3C7CD" d="M266.841,179.462v16.086c0,5.53-3.651,11.06-10.961,15.279c-14.612,8.437-38.311,8.437-52.923,0
				c-7.311-4.219-10.961-9.749-10.961-15.279v-16.086c0,5.53,3.651,11.061,10.961,15.279c14.612,8.437,38.311,8.437,52.923,0
				C263.19,190.523,266.841,184.992,266.841,179.462z"/>
			<path fill="#969A9E" d="M266.841,163.376v16.086c0,5.53-3.651,11.061-10.961,15.279c-14.612,8.437-38.311,8.437-52.923,0
				c-7.311-4.219-10.961-9.749-10.961-15.279v-16.086c0,5.53,3.651,11.06,10.961,15.279c14.612,8.437,38.311,8.437,52.923,0
				C263.19,174.437,266.841,168.907,266.841,163.376z"/>
			<path fill="#C3C7CD" d="M266.841,147.417v15.96c0,5.53-3.651,11.06-10.961,15.279c-14.612,8.437-38.311,8.437-52.923,0
				c-7.311-4.219-10.961-9.749-10.961-15.279v-15.96c0,5.53,3.655,11.056,10.961,15.275c14.612,8.437,38.311,8.437,52.923,0
				C263.186,158.473,266.841,152.947,266.841,147.417z"/>
			<path fill="#FFFFFF" d="M255.88,132.137c7.311,4.219,10.966,9.749,10.961,15.279c0,5.53-3.655,11.056-10.961,15.275
				c-14.612,8.437-38.311,8.437-52.923,0c-7.306-4.219-10.961-9.744-10.961-15.275c-0.005-5.53,3.651-11.061,10.961-15.279
				C217.569,123.7,241.268,123.7,255.88,132.137z M252.68,147.417c0.005-3.439-2.267-6.873-6.81-9.497
				c-9.086-5.246-23.816-5.246-32.898,0c-4.543,2.623-6.815,6.058-6.815,9.497c0,3.439,2.272,6.873,6.815,9.497
				c9.082,5.242,23.811,5.242,32.898,0C250.408,154.29,252.68,150.855,252.68,147.417z"/>
			<path fill="#3A3A3A" d="M245.87,137.92c4.543,2.623,6.815,6.058,6.81,9.497c0,3.439-2.272,6.873-6.81,9.497
				c-9.086,5.242-23.816,5.242-32.898,0c-4.543-2.623-6.815-6.058-6.815-9.497c0-3.439,2.272-6.873,6.815-9.497
				C222.054,132.674,236.783,132.674,245.87,137.92z"/>
		</g>
		<g>
			<path fill="none" stroke="#373A3A" stroke-width="2" stroke-linecap="round" stroke-linejoin="round" stroke-miterlimit="10" d="
				M266.841,147.417c-0.002,5.53-3.655,11.056-10.961,15.275c-14.612,8.437-38.311,8.437-52.923,0
				c-7.306-4.219-10.959-9.744-10.961-15.275c-0.002-5.53,3.651-11.061,10.961-15.279c14.612-8.437,38.311-8.437,52.923,0
				C263.19,136.356,266.843,141.886,266.841,147.417z"/>
			<path fill="none" stroke="#373A3A" stroke-width="2" stroke-linecap="round" stroke-linejoin="round" stroke-miterlimit="10" d="
				M252.68,147.417c0,3.439-2.272,6.873-6.81,9.497c-9.086,5.242-23.816,5.242-32.898,0c-4.543-2.623-6.815-6.058-6.815-9.497
				c0-3.439,2.272-6.873,6.815-9.497c9.082-5.246,23.811-5.246,32.898,0C250.413,140.543,252.684,143.978,252.68,147.417z"/>
			<path fill="none" stroke="#373A3A" stroke-width="2" stroke-linecap="round" stroke-linejoin="round" stroke-miterlimit="10" d="
				M266.841,147.417v48.132c0,5.53-3.651,11.06-10.961,15.279c-14.612,8.437-38.311,8.437-52.923,0
				c-7.311-4.219-10.961-9.749-10.961-15.279v-48.132"/>
			<path fill="none" stroke="#373A3A" stroke-width="2" stroke-linecap="round" stroke-linejoin="round" stroke-miterlimit="10" d="
				M266.841,179.462c0,5.53-3.651,11.061-10.961,15.279c-14.612,8.437-38.311,8.437-52.923,0
				c-7.311-4.219-10.961-9.749-10.961-15.279"/>
			<path fill="none" stroke="#373A3A" stroke-width="2" stroke-linecap="round" stroke-linejoin="round" stroke-miterlimit="10" d="
				M266.841,163.376c0,5.53-3.651,11.06-10.961,15.279c-14.612,8.437-38.311,8.437-52.923,0
				c-7.311-4.219-10.961-9.749-10.961-15.279"/>
			<path fill="none" stroke="#373A3A" stroke-width="2" stroke-linecap="round" stroke-linejoin="round" stroke-miterlimit="10" d="
				M258.638,168.514c-0.681,0.491-1.406,0.969-2.172,1.433"/>
			<path fill="none" stroke="#373A3A" stroke-width="2" stroke-linecap="round" stroke-linejoin="round" stroke-miterlimit="10" d="
				M252.68,171.944c-0.856,0.392-1.731,0.757-2.628,1.1"/>
			<path fill="none" stroke="#373A3A" stroke-width="2" stroke-linecap="round" stroke-linejoin="round" stroke-miterlimit="10" d="
				M246.275,174.311c-1.023,0.297-2.064,0.568-3.119,0.807"/>
			<path fill="none" stroke="#373A3A" stroke-width="2" stroke-linecap="round" stroke-linejoin="round" stroke-miterlimit="10" d="
				M258.638,184.429c-0.681,0.491-1.406,0.969-2.172,1.429"/>
			<path fill="none" stroke="#373A3A" stroke-width="2" stroke-linecap="round" stroke-linejoin="round" stroke-miterlimit="10" d="
				M252.68,187.854c-0.856,0.392-1.731,0.762-2.628,1.1"/>
			<path fill="none" stroke="#373A3A" stroke-width="2" stroke-linecap="round" stroke-linejoin="round" stroke-miterlimit="10" d="
				M246.275,190.225c-1.023,0.297-2.064,0.563-3.119,0.807"/>
			<path fill="none" stroke="#373A3A" stroke-width="2" stroke-linecap="round" stroke-linejoin="round" stroke-miterlimit="10" d="
				M258.638,200.339c-0.681,0.491-1.406,0.969-2.172,1.433"/>
			<path fill="none" stroke="#373A3A" stroke-width="2" stroke-linecap="round" stroke-linejoin="round" stroke-miterlimit="10" d="
				M252.68,203.769c-0.856,0.392-1.731,0.757-2.628,1.1"/>
			<path fill="none" stroke="#373A3A" stroke-width="2" stroke-linecap="round" stroke-linejoin="round" stroke-miterlimit="10" d="
				M246.275,206.135c-1.023,0.297-2.064,0.568-3.119,0.807"/>
		</g>
	</g>
	<g id="XMLID_00000070810575073866787480000006052332502570014655_">
		<g>
			
				<path fill="#C3C7CD" stroke="#373A3A" stroke-width="2" stroke-linecap="round" stroke-linejoin="round" stroke-miterlimit="10" d="
				M366.085,273.029l-29.81,17.213l-29.815-17.213l29.815-17.213L366.085,273.029z M342.445,272.38c1.339-0.775,1.339-2.028,0-2.799
				c-1.339-0.775-3.507-0.775-4.845,0c-0.802,0.46-1.118,1.1-0.96,1.695v0.005h-0.005c-2.848-0.388-6.77-0.509-11.592,2.272
				l10.52,6.076c4.823-2.785,4.611-5.05,3.939-6.695C340.539,273.027,341.643,272.84,342.445,272.38z"/>
			<path fill="#FFFFFF" d="M342.445,269.581c1.339,0.771,1.339,2.024,0,2.799c-0.802,0.46-1.902,0.641-2.939,0.55
				c-0.698-0.061-1.37-0.248-1.902-0.554H337.6c-0.532-0.306-0.852-0.694-0.96-1.095v-0.005c-0.158-0.595,0.158-1.235,0.96-1.695
				C338.939,268.806,341.107,268.806,342.445,269.581z"/>
			<path fill="#34CACC" d="M339.502,272.932c0.672,1.645,0.883,3.91-3.939,6.695l-10.52-6.076c4.823-2.781,8.744-2.659,11.592-2.272
				h0.005c0.108,0.401,0.428,0.789,0.96,1.095h0.005C338.137,272.682,338.804,272.874,339.502,272.932z"/>
			<polygon fill="#FFFFFF" points="321.961,247.55 292.146,264.763 262.336,247.55 292.146,230.338 			"/>
		</g>
		<g>
			
				<polygon fill="none" stroke="#373A3A" stroke-width="2" stroke-linecap="round" stroke-linejoin="round" stroke-miterlimit="10" points="
				292.146,264.763 262.336,247.55 292.146,230.338 321.961,247.55 			"/>
			
				<polygon fill="none" stroke="#373A3A" stroke-width="1.3521" stroke-linecap="round" stroke-linejoin="round" stroke-miterlimit="10" points="
				336.275,290.242 306.461,273.029 336.275,255.816 366.085,273.029 			"/>
			
				<line fill="none" stroke="#373A3A" stroke-width="2" stroke-linecap="round" stroke-linejoin="round" stroke-miterlimit="10" x1="291.168" y1="240.623" x2="304.148" y2="248.118"/>
			
				<line fill="none" stroke="#373A3A" stroke-width="2" stroke-linecap="round" stroke-linejoin="round" stroke-miterlimit="10" x1="285.656" y1="243.805" x2="298.641" y2="251.3"/>
			
				<line fill="none" stroke="#373A3A" stroke-width="2" stroke-linecap="round" stroke-linejoin="round" stroke-miterlimit="10" x1="280.148" y1="246.987" x2="293.129" y2="254.482"/>
			
				<path fill="none" stroke="#373A3A" stroke-width="1.3521" stroke-linecap="round" stroke-linejoin="round" stroke-miterlimit="10" d="
				M339.502,272.932c1.037,0.091,2.141-0.092,2.943-0.552c1.339-0.775,1.339-2.028,0-2.799c-1.339-0.775-3.507-0.775-4.845,0
				c-0.802,0.46-1.118,1.1-0.96,1.695v0.005c0.108,0.401,0.428,0.789,0.96,1.095h0.005
				C338.137,272.682,338.804,272.871,339.502,272.932z"/>
			
				<path fill="none" stroke="#373A3A" stroke-width="1.3521" stroke-linecap="round" stroke-linejoin="round" stroke-miterlimit="10" d="
				M339.502,272.932c0.672,1.645,0.883,3.91-3.939,6.695l-10.52-6.076c4.823-2.781,8.744-2.659,11.592-2.272"/>
		</g>
	</g>
	<g id="dasboard_00000034056632362093344690000010391070080417160893_">
		<g>
			<path fill="#D7DCE0" d="M251.101,272.086v46.831c0,2.084-1.27,4.504-2.83,5.406l-54.395,31.405
				c-0.707,0.407-1.355,0.433-1.85,0.15l-0.039-0.023c-0.576-0.358-0.941-1.153-0.941-2.266v-46.831c0-2.084,1.267-4.504,2.83-5.409
				l54.395-31.402c0.684-0.397,1.312-0.433,1.804-0.176l0.046,0.026C250.72,270.142,251.101,270.946,251.101,272.086z
				 M240.785,317.474V296.19l-4.38,2.53v21.284L240.785,317.474z M240.785,291.836v-7.031l-4.38,2.53v7.027L240.785,291.836z
				 M232.025,322.531v-13.159l-4.38,2.534v13.156L232.025,322.531z M232.025,304.666v-14.804l-4.38,2.53v14.8L232.025,304.666z
				 M223.265,327.588v-19.633l-4.383,2.53v19.633L223.265,327.588z M223.265,303.601v-8.678l-4.383,2.527v8.678L223.265,303.601z
				 M214.502,332.649v-10.688l-4.38,2.53v10.684L214.502,332.649z M214.502,317.607V299.98l-4.38,2.527v17.627L214.502,317.607z
				 M205.743,337.706v-23.283l-4.38,2.53v23.283L205.743,337.706z M205.743,311.127v-6.086l-4.38,2.527v6.086L205.743,311.127z"/>
			<path fill="#FFFFFF" stroke="#373A3A" stroke-width="2" stroke-miterlimit="10" d="M245.911,267.367l4.165,2.403
				c-0.492-0.257-1.12-0.221-1.804,0.176l-54.395,31.402c-1.563,0.905-2.83,3.325-2.83,5.409v46.831
				c0,1.114,0.365,1.908,0.941,2.266l-4.171-2.406c-0.599-0.348-0.98-1.153-0.98-2.293v-46.831c0-2.084,1.267-4.504,2.83-5.406
				l54.395-31.405C244.768,267.107,245.416,267.081,245.911,267.367z"/>
			<polygon fill="#373A3A" points="240.785,296.19 240.785,317.474 236.405,320.004 236.405,298.72 			"/>
			<polygon fill="#373A3A" points="240.785,284.805 240.785,291.836 236.405,294.363 236.405,287.336 			"/>
			<polygon fill="#373A3A" points="232.025,309.372 232.025,322.531 227.645,325.061 227.645,311.905 			"/>
			<polygon fill="#373A3A" points="232.025,289.863 232.025,304.666 227.645,307.193 227.645,292.393 			"/>
			<polygon fill="#373A3A" points="223.265,307.955 223.265,327.588 218.882,330.118 218.882,310.486 			"/>
			<polygon fill="#373A3A" points="223.265,294.923 223.265,303.601 218.882,306.128 218.882,297.45 			"/>
			<polygon fill="#373A3A" points="214.502,321.961 214.502,332.649 210.123,335.176 210.123,324.491 			"/>
			<polygon fill="#373A3A" points="214.502,299.98 214.502,317.607 210.123,320.134 210.123,302.507 			"/>
			<polygon fill="#373A3A" points="205.743,314.423 205.743,337.706 201.363,340.236 201.363,316.953 			"/>
			<polygon fill="#373A3A" points="205.743,305.041 205.743,311.127 201.363,313.654 201.363,307.568 			"/>
		</g>
		<g>
			
				<path fill="none" stroke="#373A3A" stroke-width="0.9769" stroke-linecap="round" stroke-linejoin="round" stroke-miterlimit="10" d="
				M191.988,355.854c-0.576-0.358-0.941-1.153-0.941-2.266v-46.831c0-2.084,1.267-4.504,2.83-5.409l54.395-31.402
				c0.684-0.397,1.312-0.433,1.804-0.176"/>
			<path fill="none" stroke="#373A3A" stroke-width="2" stroke-linecap="round" stroke-linejoin="round" stroke-miterlimit="10" d="
				M250.121,269.797c0.599,0.345,0.98,1.15,0.98,2.289v46.831c0,2.084-1.27,4.504-2.83,5.406l-54.395,31.405
				c-0.707,0.407-1.355,0.433-1.85,0.15"/>
			
				<polygon fill="none" stroke="#373A3A" stroke-width="0.9769" stroke-linecap="round" stroke-linejoin="round" stroke-miterlimit="10" points="
				205.743,311.127 205.743,305.041 201.363,307.568 201.363,313.654 			"/>
			
				<polygon fill="none" stroke="#373A3A" stroke-width="0.9769" stroke-linecap="round" stroke-linejoin="round" stroke-miterlimit="10" points="
				201.363,316.953 201.363,340.236 205.743,337.706 205.743,314.423 			"/>
			
				<polygon fill="none" stroke="#373A3A" stroke-width="0.9769" stroke-linecap="round" stroke-linejoin="round" stroke-miterlimit="10" points="
				210.123,324.491 210.123,335.176 214.502,332.649 214.502,321.961 			"/>
			
				<polygon fill="none" stroke="#373A3A" stroke-width="0.9769" stroke-linecap="round" stroke-linejoin="round" stroke-miterlimit="10" points="
				214.502,317.607 214.502,299.98 210.123,302.507 210.123,320.134 			"/>
			
				<polygon fill="none" stroke="#373A3A" stroke-width="0.9769" stroke-linecap="round" stroke-linejoin="round" stroke-miterlimit="10" points="
				223.265,303.601 223.265,294.923 218.882,297.45 218.882,306.128 			"/>
			
				<polygon fill="none" stroke="#373A3A" stroke-width="0.9769" stroke-linecap="round" stroke-linejoin="round" stroke-miterlimit="10" points="
				218.882,310.486 218.882,330.118 223.265,327.588 223.265,307.955 			"/>
			
				<polygon fill="none" stroke="#373A3A" stroke-width="0.9769" stroke-linecap="round" stroke-linejoin="round" stroke-miterlimit="10" points="
				232.025,304.666 232.025,289.863 227.645,292.393 227.645,307.193 			"/>
			
				<polygon fill="none" stroke="#373A3A" stroke-width="0.9769" stroke-linecap="round" stroke-linejoin="round" stroke-miterlimit="10" points="
				227.645,311.905 227.645,325.061 232.025,322.531 232.025,309.372 			"/>
			
				<polygon fill="none" stroke="#373A3A" stroke-width="0.9769" stroke-linecap="round" stroke-linejoin="round" stroke-miterlimit="10" points="
				240.785,291.836 240.785,284.805 236.405,287.336 236.405,294.363 			"/>
			
				<polygon fill="none" stroke="#373A3A" stroke-width="0.9769" stroke-linecap="round" stroke-linejoin="round" stroke-miterlimit="10" points="
				236.405,298.72 236.405,320.004 240.785,317.474 240.785,296.19 			"/>
			<path fill="none" stroke="#373A3A" stroke-width="2" stroke-linecap="round" stroke-linejoin="round" stroke-miterlimit="10" d="
				M192.027,355.877l-4.211-2.429c-0.599-0.348-0.98-1.153-0.98-2.293v-46.831c0-2.084,1.267-4.504,2.83-5.406l54.395-31.405
				c0.707-0.407,1.355-0.433,1.85-0.147l4.211,2.429"/>
		</g>
	</g>
</g>
<path fill="none" stroke="#373A3A" stroke-width="2" stroke-linecap="round" stroke-linejoin="round" stroke-miterlimit="10" d="
	M94.217,261.957l-24.783-14.309c-9.972-5.757-9.972-20.151,0-25.908l39.561-23.116c9.972-5.757,9.972-20.151,0-25.908L70.99,150.773
	"/>
<g>
	<polygon fill="#363838" points="77.296,325.046 114.674,337.999 154.272,317.274 105.052,298.4 	"/>
	<g id="server_00000139999314737855936130000016513323653672519348_">
		<g>
			<path fill="#969A9E" d="M118.773,291.047v12.902L81.28,325.596v-12.902L118.773,291.047z M87.808,317.609
				c0.927-0.536,1.677-1.835,1.677-2.907c0-1.068-0.75-1.5-1.677-0.968c-0.923,0.536-1.677,1.835-1.677,2.907
				C86.13,317.71,86.884,318.141,87.808,317.609z"/>
			<path fill="#34CACC" d="M118.773,273.415v12.902L81.28,307.965v-12.902L118.773,273.415z M87.808,299.881
				c0.927-0.532,1.677-1.835,1.677-2.903c0-1.068-0.75-1.504-1.677-0.968c-0.923,0.532-1.677,1.835-1.677,2.903
				C86.13,299.982,86.884,300.417,87.808,299.881z"/>
			<path fill="#969A9E" d="M118.773,255.787v12.902L81.28,290.337v-12.902L118.773,255.787z M87.808,282.152
				c0.927-0.532,1.677-1.835,1.677-2.903c0-1.068-0.75-1.504-1.677-0.968c-0.923,0.536-1.677,1.835-1.677,2.903
				C86.13,282.257,86.884,282.689,87.808,282.152z"/>
			<path fill="#FFFFFF" d="M118.773,255.787L81.28,277.435l-37.497-21.648L81.28,234.14L118.773,255.787z M81.28,263.335
				l13.076-7.548l-13.076-7.552l-13.076,7.552L81.28,263.335z"/>
			<polygon fill="#5F656C" points="118.773,273.415 81.28,295.063 43.783,273.415 47.879,271.052 81.28,290.337 114.681,271.052 			
				"/>
			<polygon fill="#5F656C" points="118.773,291.047 81.28,312.694 43.783,291.047 47.879,288.68 81.28,307.965 114.681,288.682 			
				"/>
			<polygon fill="#FFFFFF" points="94.356,255.787 81.28,263.335 81.28,248.236 			"/>
			<path fill="#FFFFFF" d="M89.485,279.249c0,1.068-0.75,2.371-1.677,2.903c-0.923,0.536-1.677,0.105-1.677-0.968
				c0-1.068,0.754-2.367,1.677-2.903C88.735,277.745,89.485,278.181,89.485,279.249z"/>
			<path fill="#FFFFFF" d="M89.485,296.978c0,1.069-0.75,2.371-1.677,2.903c-0.923,0.536-1.677,0.101-1.677-0.968
				c0-1.068,0.754-2.371,1.677-2.903C88.735,295.474,89.485,295.909,89.485,296.978z"/>
			<path fill="#FFFFFF" d="M89.485,314.702c0,1.073-0.75,2.371-1.677,2.907c-0.923,0.532-1.677,0.101-1.677-0.968
				c0-1.072,0.754-2.371,1.677-2.907C88.735,313.202,89.485,313.634,89.485,314.702z"/>
			<polygon fill="#FFFFFF" points="81.28,312.694 81.28,325.596 43.783,303.949 43.783,291.047 			"/>
			<polygon fill="#34CACC" points="81.28,295.063 81.28,307.965 43.783,286.317 43.783,273.415 			"/>
			<polygon fill="#FFFFFF" points="81.28,277.435 81.28,290.337 43.783,268.69 43.783,255.787 			"/>
			<polygon fill="#373A3A" points="81.28,248.236 81.28,263.335 68.204,255.787 			"/>
		</g>
		<g>
			
				<polygon fill="none" stroke="#373A3A" stroke-width="2" stroke-linecap="round" stroke-linejoin="round" stroke-miterlimit="10" points="
				81.28,277.435 43.783,255.787 81.28,234.14 118.773,255.787 			"/>
			
				<polygon fill="none" stroke="#373A3A" stroke-width="2" stroke-linecap="round" stroke-linejoin="round" stroke-miterlimit="10" points="
				81.28,263.335 68.204,255.787 81.28,248.236 94.356,255.787 			"/>
			
				<polyline fill="none" stroke="#373A3A" stroke-width="2" stroke-linecap="round" stroke-linejoin="round" stroke-miterlimit="10" points="
				118.773,255.787 118.773,268.69 81.28,290.337 43.783,268.69 43.783,255.787 			"/>
			
				<polyline fill="none" stroke="#373A3A" stroke-width="2" stroke-linecap="round" stroke-linejoin="round" stroke-miterlimit="10" points="
				114.681,271.052 118.773,273.415 81.28,295.063 43.783,273.415 47.879,271.052 			"/>
			
				<polyline fill="none" stroke="#373A3A" stroke-width="2" stroke-linecap="round" stroke-linejoin="round" stroke-miterlimit="10" points="
				118.773,273.415 118.773,286.317 81.28,307.965 43.783,286.317 43.783,273.415 			"/>
			
				<polyline fill="none" stroke="#373A3A" stroke-width="2" stroke-linecap="round" stroke-linejoin="round" stroke-miterlimit="10" points="
				114.681,288.682 118.773,291.047 81.28,312.694 43.783,291.047 47.879,288.68 			"/>
			
				<polyline fill="none" stroke="#373A3A" stroke-width="2" stroke-linecap="round" stroke-linejoin="round" stroke-miterlimit="10" points="
				118.773,291.047 118.773,303.949 81.28,325.596 43.783,303.949 43.783,291.047 			"/>
			
				<line fill="none" stroke="#373A3A" stroke-width="2" stroke-linecap="round" stroke-linejoin="round" stroke-miterlimit="10" x1="81.28" y1="248.236" x2="81.28" y2="263.335"/>
			
				<line fill="none" stroke="#373A3A" stroke-width="2" stroke-linecap="round" stroke-linejoin="round" stroke-miterlimit="10" x1="81.28" y1="277.435" x2="81.28" y2="290.337"/>
			
				<line fill="none" stroke="#373A3A" stroke-width="2" stroke-linecap="round" stroke-linejoin="round" stroke-miterlimit="10" x1="81.28" y1="295.063" x2="81.28" y2="307.965"/>
			
				<line fill="none" stroke="#373A3A" stroke-width="2" stroke-linecap="round" stroke-linejoin="round" stroke-miterlimit="10" x1="81.28" y1="312.694" x2="81.28" y2="325.596"/>
			<path fill="none" stroke="#373A3A" stroke-width="2" stroke-linecap="round" stroke-linejoin="round" stroke-miterlimit="10" d="
				M89.485,279.249c0,1.068-0.75,2.371-1.677,2.903c-0.923,0.536-1.677,0.105-1.677-0.968c0-1.068,0.754-2.367,1.677-2.903
				C88.735,277.745,89.485,278.181,89.485,279.249z"/>
			<path fill="none" stroke="#373A3A" stroke-width="2" stroke-linecap="round" stroke-linejoin="round" stroke-miterlimit="10" d="
				M89.485,296.978c0,1.069-0.75,2.371-1.677,2.903c-0.923,0.536-1.677,0.101-1.677-0.968c0-1.068,0.754-2.371,1.677-2.903
				C88.735,295.474,89.485,295.909,89.485,296.978z"/>
			<path fill="none" stroke="#373A3A" stroke-width="2" stroke-linecap="round" stroke-linejoin="round" stroke-miterlimit="10" d="
				M89.485,314.702c0,1.073-0.75,2.371-1.677,2.907c-0.923,0.532-1.677,0.101-1.677-0.968c0-1.072,0.754-2.371,1.677-2.907
				C88.735,313.202,89.485,313.634,89.485,314.702z"/>
		</g>
	</g>
</g>
<g>
	<polygon fill="#FFFFFF" points="128.756,71.031 129.016,72.661 140.56,79.053 140.886,35.227 	"/>
	<g>
		<g>
			<path fill="#FFFFFF" d="M172.98,104.531v28.704c0,9.121-5.657,18.236-16.964,25.449c-12.303,6.543-13.543,6.804-26.264,10.227
				c-7.262,1.525-14.889,2.285-22.522,2.291c-16.711-0.006-33.415-3.656-46.217-10.968c2.76-2.18,5.447-5.718,6.348-11.147
				c0.364,0.006,0.741,0.012,1.13,0.012c0.908,0,1.704-0.63,1.908-1.519c0.92-3.989,1.365-7.59,1.569-10.998
				c10.721,3.94,22.991,5.91,35.262,5.91c16.822,0,33.65-3.705,46.483-11.116C166.557,123.959,172.98,114.245,172.98,104.531z"/>
			<path fill="#FFFFFF" d="M172.98,75.828v28.704c0,9.714-6.422,19.428-19.267,26.845c-12.833,7.411-29.661,11.116-46.483,11.116
				c-12.271,0-24.541-1.97-35.262-5.91c0.525-8.88-0.605-16.47,0.735-26.314c0.093-0.685,0.364-1.322,0.778-1.853
				c10.356,3.582,22.053,5.373,33.749,5.373c16.822,0,33.65-3.705,46.483-11.116c12.845-7.417,19.255-17.131,19.255-26.845H172.98z"
				/>
			<path fill="#FFFFFF" stroke="#3A3A3A" stroke-width="2" stroke-miterlimit="10" d="M153.712,48.983
				c12.845,7.411,19.255,17.131,19.255,26.845s-6.41,19.428-19.255,26.845c-12.833,7.411-29.661,11.116-46.483,11.116
				c-11.696,0-23.393-1.791-33.749-5.373c0.432-0.568,1.025-1.013,1.723-1.272c6.305-2.334,12.462-4.959,17.742-7.898
				c6.892-3.829,11.258-10.875,11.801-18.57c0.086-1.241,0.074-2.501-0.043-3.767c1.099-1.217,1.828-2.754,2.044-4.428l2.618-19.57
				c0.729-5.607-1.774-11.148-6.472-14.29c-0.315-0.21-0.63-0.426-0.945-0.636c1.76-0.08,3.52-0.117,5.28-0.117
				c10.579,0,21.163,1.464,30.748,4.397l-9.411,28.765l12.394,7.157l12.4-7.157l-8.639-26.394
				C147.882,45.901,150.896,47.353,153.712,48.983z"/>
			<polygon fill="#34CACC" points="144.721,44.635 153.36,71.029 140.96,78.187 140.96,33.143 			"/>
			<path fill="#FFFFFF" d="M79.699,55.356c-3.353-0.414-6.04-2.161-7.701-4.984l2.995-12.938c0.587-2.797,2.34-5.206,4.817-6.626
				l0.253-0.148c0.321-0.185,0.655-0.358,0.994-0.5l0.76-0.049l0.019,0.278c0.204,3.001,3.292,4.928,6.077,3.786l0.216-0.086v1.729
				c0,1.581,1.278,2.859,2.853,2.859c1.593,0,2.878-1.297,2.859-2.89c0,0,0.037-1.161,0.062-2.927
				c2.532,1.519,5.249,3.261,8.047,5.126c0.315,0.21,0.63,0.426,0.945,0.636c4.698,3.142,7.201,8.683,6.472,14.29l-2.242,16.748
				h-0.012c-0.519,0.049-1.037,0.074-1.556,0.074c-2.872,0-5.681-0.778-7.67-2.643l-0.284,2.68
				c-0.093,0.883-0.568,1.674-1.303,2.168l-9.967,6.707c-1.606-0.834-3.162-1.964-4.601-3.421c-0.482-0.488-0.871-1.05-1.149-1.674
				c-0.296-0.673-0.469-1.402-0.488-2.155L79.699,55.356z"/>
			<path fill="#FFFFFF" d="M107.124,69.658l-0.377,2.822c-0.216,1.674-0.945,3.211-2.044,4.428
				c-0.729,0.809-1.619,1.473-2.637,1.951c-0.47,0.221-2.137,0.976-4.533,2.032c-4.99,2.205-13.141,5.743-20.243,8.572
				c-3.187,1.272-6.156,2.4-8.541,3.199c-0.537,0.18-1.124,0.031-1.507-0.383l-0.012-0.012c-0.611-0.655-0.482-1.704,0.272-2.186
				l3.681-2.378l-2.347-0.951c-0.303-0.124-0.481-0.444-0.408-0.784c0.069-0.321,0.377-0.531,0.704-0.525l5.694,0.08
				c0.815,0.012,1.618-0.228,2.291-0.685l19.181-12.901c0.735-0.494,1.21-1.284,1.303-2.168l0.284-2.68
				c1.988,1.865,4.798,2.643,7.67,2.643c0.519,0,1.037-0.025,1.556-0.074H107.124z"/>
			<path fill="#FFFFFF" stroke="#3A3A3A" stroke-width="2" stroke-miterlimit="10" d="M104.704,76.908
				c0.117,1.266,0.13,2.526,0.043,3.767c-1.618,0.191-3.199,0.272-4.811,0.272c-0.79,0-1.587-0.019-2.402-0.056
				c2.396-1.056,4.063-1.811,4.533-2.032C103.084,78.381,103.975,77.717,104.704,76.908z"/>
			<path fill="#3A3A3A" d="M99.936,80.947c1.612,0,3.193-0.08,4.811-0.272c-0.543,7.695-4.909,14.741-11.801,18.57
				c-5.28,2.94-11.437,5.564-17.742,7.898c-0.698,0.259-1.291,0.704-1.723,1.272c-0.414,0.531-0.685,1.167-0.778,1.853
				c-1.34,9.844-0.21,17.433-0.735,26.314c-0.204,3.409-0.648,7.009-1.569,10.998c-0.204,0.889-1,1.519-1.908,1.519
				c-0.389,0-0.766-0.005-1.13-0.012c-2.44-0.052-4.366-0.345-5.842-0.945c-0.364-0.148-0.704-0.316-1.013-0.506
				c-0.654-0.403-0.988-1.173-0.871-1.939l2.038-41.833c0.062-0.408,0.161-0.803,0.29-1.186L62,102.703l19.113-11.029l-3.823-2.211
				c7.102-2.828,15.253-6.367,20.243-8.572C98.349,80.929,99.146,80.947,99.936,80.947z"/>
			<path fill="#FFFFFF" d="M93.903,32.859c-0.025,1.766-0.062,2.927-0.062,2.927c0.019,1.593-1.266,2.89-2.859,2.89
				c-1.575,0-2.853-1.278-2.853-2.859v-1.729l-0.216,0.086c-2.785,1.142-5.873-0.784-6.077-3.786l-0.358-5.379
				c0.29,0.099,0.581,0.178,0.883,0.235c3.016,0.567,7.546-1.451,7.546-1.451l0.982,4.138l3.044,0.124
				C93.94,29.845,93.921,31.525,93.903,32.859z"/>
			<path fill="#3A3A3A" d="M93.934,28.054l-3.044-0.124l-0.982-4.138c0,0-4.53,2.019-7.546,1.451
				c-0.302-0.057-0.593-0.136-0.883-0.235c-2.605-0.885-4.743-3.483-6.373-9.269c2.612,1.846,7.114,2.137,11.283,1.229
				c4.175-0.908,4.576,2.328,4.576,2.328l1.037,0.012c0.939,0.012,1.711,0.747,1.76,1.686C93.878,23.2,93.928,25.72,93.934,28.054z"
				/>
			<path fill="#3A3A3A" d="M86.332,78.644l-9.214,6.194c-0.673,0.457-1.476,0.698-2.291,0.685l-4.471-0.062l-9.912-5.725
				l-0.006-0.136l20.144-6.052c0.278,0.624,0.667,1.186,1.149,1.674C83.17,76.68,84.726,77.81,86.332,78.644z"/>
			
				<path fill="#FFFFFF" stroke="#3A3A3A" stroke-width="2" stroke-linecap="round" stroke-linejoin="round" stroke-miterlimit="10" d="
				M81.113,91.674L62,102.703l-5.873-17.359l1.704-2.353l1.142,1.118c0.321,0.309,0.812,0.341,1.173,0.08
				c0.245-0.176,0.383-0.457,0.377-0.76l-0.08-3.693l9.912,5.725l-1.223-0.019c-0.327-0.006-0.635,0.204-0.704,0.525
				c-0.073,0.34,0.105,0.661,0.408,0.784l2.347,0.951l-3.681,2.378c-0.753,0.482-0.883,1.532-0.272,2.186l0.012,0.012
				c0.383,0.414,0.97,0.563,1.507,0.383c2.385-0.799,5.354-1.927,8.541-3.199L81.113,91.674z"/>
			<path fill="#FFFFFF" d="M80.095,71.394c0.019,0.753,0.191,1.482,0.488,2.155l-20.144,6.052l-0.006-0.352l16.791-17.081
				c0.741-0.753,1.266-1.698,1.519-2.73l0.963-3.946L80.095,71.394z"/>
			<path fill="#FFFFFF" d="M79.705,55.479v0.012l-0.963,3.946c-0.253,1.031-0.778,1.976-1.519,2.73L60.432,79.249l0.006,0.352
				l0.086,3.829c0.006,0.303-0.132,0.583-0.377,0.76c-0.362,0.261-0.852,0.228-1.173-0.08l-1.142-1.118l-1.704,2.353l-1.698-5.008
				v-0.006l1.18-2.588l0.006-0.019l0.401-0.889l13.598-18.57c0.568-0.784,0.97-1.68,1.167-2.631l1.217-5.261
				c1.661,2.822,4.348,4.57,7.701,4.984L79.705,55.479z"/>
			<path fill="#FFFFFF" d="M71.998,50.372l-1.217,5.261c-0.198,0.951-0.599,1.846-1.167,2.631l-13.598,18.57
				c-0.062,0.08-0.111,0.167-0.161,0.259L52.2,74.975l-2.538,1.47l-7.824-4.52c1.488-8.38,7.787-16.526,18.909-22.942
				c3.965-2.291,8.306-4.224,12.919-5.811L71.998,50.372z"/>
			<path fill="#FFFFFF" d="M61.976,102.641L62,102.703l-0.037-0.025C61.97,102.666,61.97,102.654,61.976,102.641z"/>
			<path fill="#FFFFFF" d="M56.128,85.344l5.848,17.297c-0.006,0.012-0.006,0.025-0.012,0.037L33.087,86.011l-8.053-23.788
				l28.92,16.698l0.476,1.408v0.006L56.128,85.344z"/>
			<path fill="#FFFFFF" d="M51.095,96.41l10.869,6.268c-0.13,0.383-0.228,0.778-0.29,1.186l-1.328,27.277
				c-4.453-2.612-8.115-5.502-10.986-8.572c0.099-6.713-1.075-13.148-1.112-22.633c0-1.34,0.766-2.563,1.982-3.125L51.095,96.41z"/>
			<path fill="#FFFFFF" d="M67.361,149.087c-0.902,5.428-3.588,8.967-6.348,11.147c-2.717,2.143-5.484,2.964-6.676,2.964
				c-0.84,0-1.217-0.445-1.217-0.939c0-1.149,1.544-2.538,3.409-4.848c1.711-2.124,3.699-5.045,4.99-9.269
				C62.995,148.741,64.921,149.025,67.361,149.087z"/>
			<path fill="#FFFFFF" d="M60.506,147.636c0.309,0.191,0.648,0.358,1.013,0.506c-1.291,4.224-3.279,7.145-4.99,9.269
				c-7.133-4.977-11.727-10.758-13.79-16.766c0.685-1.037,1.217-2.168,1.519-3.39c0.395,0.012,0.815,0.015,1.26,0.006
				c0.753-0.015,1.414-0.513,1.636-1.229c1.587-5.113,2.143-9.337,2.205-13.462c2.872,3.069,6.534,5.959,10.986,8.572l-0.71,14.556
				C59.518,146.462,59.852,147.233,60.506,147.636z"/>
			<path fill="#FFFFFF" d="M56.016,76.834l-0.124,0.278l-0.037-0.019C55.905,77.001,55.955,76.914,56.016,76.834z"/>
			<path fill="#FFFFFF" d="M55.893,77.112l-0.278,0.611c0.043-0.216,0.13-0.432,0.241-0.63L55.893,77.112z"/>
			<path fill="#FFFFFF" d="M52.2,74.975l3.656,2.118c-0.111,0.198-0.198,0.414-0.241,0.63l-0.006,0.019l-1.18,2.588l-0.476-1.408
				l-4.292-2.476L52.2,74.975z"/>
			<path fill="#3A3A3A" d="M44.258,137.255c-0.908-0.033-1.717-0.13-2.464-0.29c-1.26-0.266-2.342-0.708-3.409-1.359
				c-0.303-0.185-0.612-0.388-0.92-0.605c-0.526-0.369-0.79-1.013-0.71-1.649l1.18-42.073c0.105-0.741,0.321-1.451,0.636-2.1
				l12.524,7.231l-0.865,0.401c-1.217,0.562-1.982,1.785-1.982,3.125c0.037,9.485,1.21,15.92,1.112,22.633
				c-0.062,4.125-0.618,8.349-2.205,13.462c-0.222,0.716-0.883,1.214-1.636,1.229C45.074,137.27,44.654,137.269,44.258,137.255z"/>
			<path fill="#FFFFFF" d="M44.258,137.255c-0.303,1.223-0.834,2.353-1.519,3.39c-0.42-1.217-0.735-2.445-0.945-3.674v-0.006
				C42.542,137.125,43.351,137.218,44.258,137.255z"/>
			<path fill="#FFFFFF" d="M41.794,136.971c0.21,1.229,0.525,2.458,0.945,3.674c-3.434,5.206-10.745,7.954-12.363,7.954
				c-1.402,0-2.075-0.865-2.075-2.038v-0.012c0.019-1.908,6.805-4.224,10.085-10.943c1.068,0.648,2.149,1.093,3.409,1.359V136.971z"
				/>
			
				<polygon fill="none" stroke="#3A3A3A" stroke-width="2" stroke-linecap="round" stroke-linejoin="round" stroke-miterlimit="10" points="
				140.96,78.187 128.566,71.029 140.96,33.143 153.36,71.029 			"/>
			
				<line fill="none" stroke="#3A3A3A" stroke-width="2" stroke-linecap="round" stroke-linejoin="round" stroke-miterlimit="10" x1="140.96" y1="33.143" x2="140.96" y2="78.187"/>
			<path fill="none" stroke="#3A3A3A" stroke-width="2" stroke-linecap="round" stroke-linejoin="round" stroke-miterlimit="10" d="
				M41.838,71.925c1.488-8.38,7.787-16.526,18.909-22.942c3.965-2.291,8.306-4.224,12.919-5.811"/>
			<path fill="none" stroke="#3A3A3A" stroke-width="2" stroke-linecap="round" stroke-linejoin="round" stroke-miterlimit="10" d="
				M101.949,37.984c1.76-0.08,3.52-0.117,5.28-0.117c10.381,0,20.767,1.409,30.208,4.234"/>
			<path fill="none" stroke="#3A3A3A" stroke-width="2" stroke-linecap="round" stroke-linejoin="round" stroke-miterlimit="10" d="
				M145.087,44.783c3.028,1.231,5.918,2.632,8.625,4.2c12.845,7.411,19.255,17.131,19.255,26.845s-6.41,19.428-19.255,26.845
				c-12.833,7.411-29.661,11.116-46.483,11.116c-11.696,0-23.393-1.791-33.749-5.373"/>
			<path fill="none" stroke="#3A3A3A" stroke-width="2" stroke-linecap="round" stroke-linejoin="round" stroke-miterlimit="10" d="
				M172.98,104.531c0,9.714-6.422,19.428-19.267,26.845c-12.833,7.411-29.661,11.116-46.483,11.116
				c-12.271,0-24.541-1.97-35.262-5.91"/>
			
				<path fill="none" stroke="#3A3A3A" stroke-width="2.4702" stroke-linecap="round" stroke-linejoin="round" stroke-miterlimit="10" d="
				M60.345,131.141c-4.453-2.612-8.115-5.502-10.986-8.572"/>
			<path fill="none" stroke="#3A3A3A" stroke-width="2" stroke-linecap="round" stroke-linejoin="round" stroke-miterlimit="10" d="
				M172.98,75.828v57.407c0,9.121-5.608,18.314-16.964,25.449c-9.825,6.173-18.434,8.347-26.264,10.227
				c-7.216,1.732-14.889,2.285-22.522,2.291c-16.711-0.006-33.415-3.656-46.217-10.968"/>
			<path fill="none" stroke="#3A3A3A" stroke-width="2" stroke-linecap="round" stroke-linejoin="round" stroke-miterlimit="10" d="
				M56.529,157.412c-7.133-4.977-11.722-10.759-13.79-16.766"/>
			<path fill="none" stroke="#3A3A3A" stroke-width="2" stroke-linecap="round" stroke-linejoin="round" stroke-miterlimit="10" d="
				M81.478,25.016l0.358,5.373c0.204,3.001,3.292,4.928,6.077,3.786l0.216-0.086v1.729c0,1.581,1.278,2.859,2.853,2.859
				c1.593,0,2.878-1.297,2.859-2.89c0,0,0.098-5.941,0.093-7.732c-0.007-2.334-0.056-4.854-0.173-7.059
				c-0.049-0.939-0.821-1.674-1.76-1.686l-1.037-0.012c0,0-0.401-3.236-4.576-2.328c-4.168,0.908-8.67,0.618-11.283-1.229
				c1.63,5.786,3.768,8.384,6.373,9.269c0.29,0.099,0.581,0.178,0.883,0.235c3.016,0.567,7.546-1.451,7.546-1.451l0.982,4.138
				l3.038,0.124"/>
			<path fill="none" stroke="#3A3A3A" stroke-width="2" stroke-linecap="round" stroke-linejoin="round" stroke-miterlimit="10" d="
				M79.705,55.492l0.389,15.902c0.019,0.753,0.19,1.483,0.488,2.155c0.277,0.624,0.667,1.186,1.149,1.674
				c1.439,1.457,2.995,2.588,4.601,3.421"/>
			
				<line fill="none" stroke="#3A3A3A" stroke-width="2" stroke-linecap="round" stroke-linejoin="round" stroke-miterlimit="10" x1="79.434" y1="44.537" x2="79.705" y2="55.479"/>
			<path fill="none" stroke="#3A3A3A" stroke-width="2" stroke-linecap="round" stroke-linejoin="round" stroke-miterlimit="10" d="
				M81.058,30.16c-0.34,0.142-0.673,0.315-0.994,0.5l-0.253,0.148c-2.476,1.42-4.23,3.829-4.817,6.626l-4.212,18.199
				c-0.198,0.951-0.599,1.846-1.167,2.631l-13.598,18.57c-0.062,0.08-0.11,0.167-0.161,0.259c-0.109,0.199-0.198,0.414-0.241,0.63"
				/>
			
				<polyline fill="none" stroke="#3A3A3A" stroke-width="2" stroke-linecap="round" stroke-linejoin="round" stroke-miterlimit="10" points="
				55.893,77.112 52.2,74.975 49.662,76.445 			"/>
			
				<polyline fill="none" stroke="#3A3A3A" stroke-width="2.4702" stroke-linecap="round" stroke-linejoin="round" stroke-miterlimit="10" points="
				62,102.703 81.113,91.674 77.291,89.463 			"/>
			
				<line fill="none" stroke="#3A3A3A" stroke-width="2" stroke-linecap="round" stroke-linejoin="round" stroke-miterlimit="10" x1="70.356" y1="85.461" x2="60.444" y2="79.737"/>
			<path fill="none" stroke="#3A3A3A" stroke-width="2" stroke-linecap="round" stroke-linejoin="round" stroke-miterlimit="10" d="
				M93.767,32.778c0.043,0.025,0.093,0.055,0.136,0.08c2.548,1.492,5.249,3.261,8.047,5.126c0.315,0.21,0.63,0.426,0.945,0.636
				c4.698,3.142,7.201,8.683,6.472,14.29l-2.618,19.57c-0.216,1.674-0.946,3.21-2.044,4.428c-0.729,0.808-1.619,1.473-2.637,1.951
				c-0.47,0.221-2.137,0.975-4.533,2.032c-4.991,2.202-13.143,5.74-20.243,8.572c-3.187,1.271-6.156,2.4-8.541,3.199
				c-0.537,0.18-1.124,0.031-1.507-0.383l-0.012-0.012c-0.611-0.655-0.482-1.704,0.272-2.186l3.681-2.378l-2.347-0.951
				c-0.303-0.124-0.481-0.444-0.408-0.784c0.069-0.321,0.377-0.531,0.704-0.525l5.694,0.08c0.815,0.012,1.618-0.228,2.291-0.685
				l19.181-12.901c0.735-0.494,1.21-1.284,1.303-2.168l2.242-21.293"/>
			
				<polygon fill="none" stroke="#3A3A3A" stroke-width="2" stroke-linecap="round" stroke-linejoin="round" stroke-miterlimit="10" points="
				54.429,80.336 62,102.703 33.087,86.011 25.034,62.223 53.954,78.921 54.429,80.329 			"/>
			
				<polyline fill="none" stroke="#3A3A3A" stroke-width="2.4702" stroke-linecap="round" stroke-linejoin="round" stroke-miterlimit="10" points="
				56.016,76.834 55.615,77.723 55.609,77.742 54.429,80.329 54.429,80.336 			"/>
			<path fill="none" stroke="#3A3A3A" stroke-width="2" stroke-linecap="round" stroke-linejoin="round" stroke-miterlimit="10" d="
				M56.128,85.344l1.704-2.353l1.142,1.118c0.321,0.309,0.812,0.341,1.173,0.08c0.245-0.176,0.383-0.457,0.377-0.76l-0.093-4.181
				l16.791-17.081c0.741-0.753,1.266-1.698,1.519-2.73l0.963-3.946v-0.012"/>
			
				<path fill="none" stroke="#3A3A3A" stroke-width="2.4702" stroke-linecap="round" stroke-linejoin="round" stroke-miterlimit="10" d="
				M104.704,76.908c0.117,1.266,0.13,2.526,0.043,3.767c-0.54,7.695-4.909,14.741-11.801,18.57
				c-5.28,2.94-11.437,5.564-17.742,7.898c-0.698,0.259-1.287,0.706-1.723,1.272c-0.411,0.533-0.685,1.167-0.778,1.853
				c-1.34,9.844-0.207,17.433-0.735,26.314c-0.203,3.409-0.648,7.009-1.569,10.998c-0.204,0.889-1,1.519-1.908,1.519
				c-0.389,0-0.766-0.005-1.13-0.012c-2.44-0.052-4.366-0.345-5.842-0.945c-0.364-0.148-0.704-0.316-1.013-0.506
				c-0.654-0.403-0.988-1.173-0.871-1.939l2.038-41.833c0.062-0.408,0.161-0.803,0.29-1.186c0.006-0.012,0.006-0.025,0.012-0.037"/>
			<path fill="none" stroke="#3A3A3A" stroke-width="2" stroke-linecap="round" stroke-linejoin="round" stroke-miterlimit="10" d="
				M61.519,148.142c-1.291,4.224-3.278,7.146-4.99,9.269c-1.863,2.311-3.409,3.699-3.409,4.848c0,0.494,0.377,0.939,1.217,0.939
				c1.192,0,3.959-0.82,6.676-2.964c2.761-2.179,5.447-5.718,6.348-11.147"/>
			
				<line fill="none" stroke="#3A3A3A" stroke-width="2.4702" stroke-linecap="round" stroke-linejoin="round" stroke-miterlimit="10" x1="80.582" y1="73.549" x2="60.438" y2="79.601"/>
			<path fill="none" stroke="#3A3A3A" stroke-width="2" stroke-linecap="round" stroke-linejoin="round" stroke-miterlimit="10" d="
				M38.571,89.179c-0.315,0.648-0.531,1.359-0.636,2.1l-1.18,42.073c-0.08,0.636,0.185,1.279,0.71,1.649
				c0.308,0.217,0.617,0.42,0.92,0.605c1.067,0.65,2.15,1.091,3.409,1.359c0.748,0.159,1.556,0.258,2.464,0.29
				c0.395,0.014,0.815,0.015,1.26,0.006c0.753-0.015,1.414-0.513,1.636-1.229c1.587-5.113,2.143-9.337,2.205-13.462
				c0.1-6.713-1.075-13.148-1.112-22.633c0-1.34,0.766-2.563,1.982-3.125l0.865-0.401"/>
			<path fill="none" stroke="#3A3A3A" stroke-width="2" stroke-linecap="round" stroke-linejoin="round" stroke-miterlimit="10" d="
				M38.385,135.606c-3.279,6.719-10.066,9.035-10.085,10.943v0.012c0,1.173,0.673,2.038,2.075,2.038
				c1.618,0,8.928-2.749,12.363-7.954c0.685-1.038,1.217-2.168,1.519-3.39v-0.006"/>
			
				<path fill="none" stroke="#3A3A3A" stroke-width="2.4702" stroke-linecap="round" stroke-linejoin="round" stroke-miterlimit="10" d="
				M97.534,80.891c0.815,0.037,1.612,0.056,2.402,0.056c1.612,0,3.193-0.08,4.811-0.272"/>
			
				<path fill="none" stroke="#3A3A3A" stroke-width="2.4702" stroke-linecap="round" stroke-linejoin="round" stroke-miterlimit="10" d="
				M97.886,67.089c1.988,1.865,4.798,2.643,7.67,2.643c0.519,0,1.037-0.025,1.556-0.074"/>
			<path fill="none" stroke="#3A3A3A" stroke-width="2" stroke-linecap="round" stroke-linejoin="round" stroke-miterlimit="10" d="
				M71.918,50.243c0.025,0.043,0.049,0.086,0.08,0.13c1.661,2.822,4.348,4.57,7.701,4.984"/>
		</g>
	</g>
</g>
</svg>
