<?xml version="1.0" encoding="utf-8"?>
<!-- Generator: Adobe Illustrator 29.5.0, SVG Export Plug-In . SVG Version: 9.03 Build 0)  -->
<svg version="1.1" baseProfile="tiny" id="Capa_1" xmlns="http://www.w3.org/2000/svg" xmlns:xlink="http://www.w3.org/1999/xlink"
	 x="0px" y="0px" viewBox="0 0 380 380" overflow="visible" xml:space="preserve">
<g>
	<circle fill="#34CACC" cx="66.37" cy="52.565" r="26.087"/>
	<g>
		<path fill="#FFFFFF" d="M70.937,67.078H65.44V45.8l-6.871,3.539v-5.038l8.87-5.122h3.498V67.078z"/>
	</g>
</g>
<ellipse fill="#34CACC" cx="185.491" cy="230.105" rx="119.149" ry="71.714"/>
<path fill="none" stroke="#8B8B8B" stroke-width="2" stroke-linecap="round" stroke-linejoin="round" stroke-miterlimit="10" d="
	M281.46,56.439c-2.713-1.566-7.402,1.141-10.114-0.425c-2.713-1.566,1.976-4.274-0.737-5.84c-2.713-1.566-7.402,1.141-10.115-0.425
	c-2.713-1.566,1.976-4.274-0.737-5.84c-2.713-1.566-7.402,1.141-10.115-0.426c-2.713-1.567,1.976-4.274-0.738-5.84
	c-2.713-1.567-7.403,1.141-10.116-0.426"/>
<path fill="#309CA0" d="M223.88,235.781c-0.178-5.618-4.263-9.796-8.201-13.295c-9.75-8.665-20.792-15.745-31.761-22.74
	c-2.851-1.818-6.939-0.667-8.812,1.951c-2.012,2.814-1.738,6.493,0.706,8.997c1.985,2.033,3.933,4.102,5.861,6.19
	c-4.476,0.04-8.842,0.687-13.396,1.452l-7.111,1.196c-1.522-1.309-3.62-1.833-5.72-1.253c-3.3,0.912-6.02,2.45-8.383,4.939
	c-0.108,0.114-0.209,0.234-0.309,0.354c-0.631-0.467-1.248-0.952-1.866-1.437c-1.05,3.855-23.098-16.588-23.434-12.563
	c6.179,26.432,35.96,36.359,40.786,38.637c5.866,2.77,13.123,4.747,19.541,5.484c11.348,1.304,21.292-0.768,31.255-4.624
	C218.792,246.845,224.094,242.549,223.88,235.781z"/>
<g>
	<path fill="#363838" d="M227.662,308.207c-8.053-3.76-16.288-7.143-24.652-10.147c-3.372-1.211-7.263,1.366-8.161,4.634
		c-0.98,3.567,1.203,7.085,4.634,8.161c7.368,2.312,14.639,4.918,21.784,7.849c2.244,0.921,4.578,1.76,6.834,2.724
		c-0.619,0.354-1.237,0.708-1.858,1.058c-6.56,3.698-13.28,7.132-20.072,10.383c-2.592,1.241-5.134,2.186-7.965,1.237
		c-1.345-0.451-2.568-1.16-3.849-1.754c-1.467-0.68-3.285-0.686-4.865-0.449c-0.796,0.119-1.39,1.062-1.381,1.814
		c0.075,6.7,8.871,10.973,14.754,10.837c3.797-0.088,7.341-1.929,10.746-3.418c3.459-1.512,6.852-3.158,10.216-4.871
		c3.36-1.71,6.685-3.489,9.973-5.335c3.302-1.854,7.221-3.624,8.266-7.627C244.23,315.02,233.446,310.907,227.662,308.207z"/>
	<g id="XMLID_00000149375438952094679080000005836018893220424101_">
		<g>
			<path fill="#D7DCE0" d="M145.769,304.627v5.302c0,0.751,0.455,1.463,1.379,1.997l50.433,29.118
				c0.919,0.535,2.161,0.795,3.455,0.795c1.564,0,3.212-0.38,4.502-1.122l27.095-15.646c1.29-0.742,1.953-1.697,1.953-2.603v-5.302
				c0,0.906-0.663,1.856-1.953,2.602l-27.095,15.642c-1.29,0.747-2.938,1.127-4.502,1.127c-1.295,0-2.536-0.261-3.455-0.795
				l-50.433-29.118C146.224,306.09,145.769,305.374,145.769,304.627z"/>
			<path fill="#FFFFFF" d="M147.718,302.029l17.082-9.862l57.821,33.382l-17.082,9.862c-1.29,0.747-2.938,1.127-4.502,1.127
				c-1.295,0-2.536-0.261-3.455-0.795l-50.433-29.118c-0.924-0.535-1.379-1.25-1.379-1.997
				C145.769,303.726,146.432,302.772,147.718,302.029z M166.214,310.504c1.171,0.676,3.217,0.592,4.569-0.186l2.607-1.507
				c1.352-0.782,1.502-1.962,0.331-2.638l-7.666-4.427c-1.171-0.676-3.221-0.592-4.573,0.19l-2.602,1.502
				c-1.357,0.782-1.498,1.962-0.331,2.642L166.214,310.504z"/>
			<path fill="#34CACC" d="M158.879,303.439c-1.357,0.782-1.498,1.962-0.331,2.642l7.666,4.423c1.171,0.676,3.217,0.592,4.569-0.186
				l2.607-1.507c1.352-0.782,1.502-1.962,0.331-2.638l-7.666-4.427c-1.171-0.676-3.221-0.592-4.573,0.19L158.879,303.439z"/>
			<polygon fill="#3A3A3A" points="164.8,292.167 222.621,325.549 228.656,322.067 170.835,288.681 			"/>
			<path fill="#FFFFFF" d="M170.835,288.681l57.821,33.387l3.977-2.298c1.29-0.747,1.953-1.697,1.953-2.602
				c0-0.747-0.455-1.463-1.379-1.993l-24.13-13.931l-26.304-15.187c-0.901-0.521-2.099-0.782-3.358-0.795
				c-1.595-0.013-3.287,0.367-4.6,1.122L170.835,288.681z"/>
		</g>
		<g>
			<path fill="none" stroke="#3A3A3A" stroke-width="2" stroke-linecap="round" stroke-linejoin="round" stroke-miterlimit="10" d="
				M164.8,292.167l-3.746,2.162l-4.851,2.801l-8.486,4.899c-1.286,0.742-1.949,1.697-1.949,2.598c0,0.747,0.455,1.462,1.379,1.997
				l11.5,6.64l2.946,1.701l10.338,5.969l1.224,0.707l18.549,10.709l5.876,3.392c0.919,0.535,2.161,0.795,3.455,0.795
				c1.564,0,3.212-0.38,4.502-1.127l5.651-3.262l5.328-3.076l16.115-9.303c1.29-0.747,1.953-1.697,1.953-2.602
				c0-0.747-0.455-1.463-1.379-1.993l-29.1-16.801l-3.801-2.195l-2.382-1.375l-15.151-8.747c-0.901-0.521-2.099-0.782-3.358-0.795
				c-1.595-0.013-3.287,0.367-4.6,1.122L164.8,292.167z"/>
			
				<line fill="none" stroke="#3A3A3A" stroke-width="1.4312" stroke-linecap="round" stroke-linejoin="round" stroke-miterlimit="10" x1="228.656" y1="322.067" x2="170.835" y2="288.681"/>
			
				<line fill="none" stroke="#3A3A3A" stroke-width="1.4312" stroke-linecap="round" stroke-linejoin="round" stroke-miterlimit="10" x1="222.621" y1="325.549" x2="164.8" y2="292.167"/>
			<path fill="none" stroke="#3A3A3A" stroke-width="2" stroke-linecap="round" stroke-linejoin="round" stroke-miterlimit="10" d="
				M158.547,306.081l3.574,2.062l0.887,0.512l0.91,0.525l2.294,1.324c1.171,0.676,3.217,0.592,4.569-0.186l1.157-0.669l1.45-0.838
				c1.352-0.782,1.502-1.962,0.331-2.638l-2.387-1.379l-1.515-0.875l-1.765-1.019l-1.999-1.154c-1.171-0.676-3.221-0.592-4.573,0.19
				l-1.405,0.811l-1.197,0.691C157.522,304.221,157.381,305.401,158.547,306.081z"/>
			<path fill="none" stroke="#3A3A3A" stroke-width="2" stroke-linecap="round" stroke-linejoin="round" stroke-miterlimit="10" d="
				M145.769,304.627v5.302c0,0.751,0.455,1.463,1.379,1.997l50.433,29.118c0.919,0.535,2.161,0.795,3.455,0.795
				c1.564,0,3.212-0.38,4.502-1.122l27.095-15.646c1.29-0.742,1.953-1.697,1.953-2.603v-5.302"/>
		</g>
	</g>
</g>
<g>
	<path fill="#C3C7CD" d="M255.547,109.03v129.429c0,2.346-0.77,4.004-2,4.729l-9.42,5.63l-0.004-0.004
		c1.231-0.716,1.992-2.375,1.992-4.721V114.673c0-4.334-2.617-9.359-5.865-11.227L90.918,17.225
		c-1.436-0.823-2.745-0.901-3.766-0.35l9.318-5.577c1.029-0.609,2.383-0.56,3.873,0.296l149.332,86.22
		C252.918,99.684,255.547,104.709,255.547,109.03z"/>
	<path fill="#3A3A3A" d="M246.115,228.442v15.651c0,2.346-0.761,4.004-1.992,4.721c-1.037,0.621-2.391,0.568-3.873-0.288
		L91.19,162.479c-3.803-2.198-6.149-6.264-6.149-10.663V21.666c0-2.42,0.819-4.095,2.111-4.79c1.021-0.551,2.329-0.473,3.766,0.35
		l149.332,86.22c3.247,1.868,5.865,6.894,5.865,11.227V228.442z M239.789,236.731V114.718c0-2.445-1.486-5.288-3.317-6.35
		L94.696,26.522c-1.831-1.062-3.321,0.062-3.321,2.506v122.013c0,2.449,1.49,5.288,3.321,6.35l141.776,81.85
		C238.303,240.299,239.789,239.18,239.789,236.731z"/>
	<path fill="#FFFFFF" d="M240.505,115.004v32.792v11.452v43.231v14.315v20.223c0,2.449-1.486,3.568-3.317,2.51l-59.426-34.308
		l-8.516-4.916l-22.327-12.89l-26.879-15.518l-24.627-14.218c-1.831-1.062-3.321-3.902-3.321-6.35v-33.02v-16.892v-6.585V87.96
		v-5.153V29.315c0-2.445,1.49-3.568,3.321-2.506l34.76,20.067l11.87,6.852l17.404,10.047l27.804,16.051l49.937,28.828
		C239.019,109.716,240.505,112.56,240.505,115.004z"/>
	<path fill="#DAE0E5" d="M191.251,220.248l15.52,8.959c-1.482,1.222-3.165,2.399-5.066,3.49c-8.614,4.976-19.894,7.461-31.183,7.461
		c-11.272,0-22.557-2.486-31.175-7.461c-17.215-9.935-17.215-26.059,0-35.998c1.901-1.091,3.934-2.07,6.062-2.922l9.363,5.408
		l-6.116,11.7c-2.35,4.494-0.444,9.581,5.716,13.141c4.465,2.58,10.309,3.864,16.149,3.864c5.861,0,11.692-1.284,16.166-3.864
		C188.633,222.903,190.16,221.61,191.251,220.248z"/>
	<path fill="#969A9E" d="M154.771,199.185l36.48,21.063c-1.091,1.362-2.617,2.655-4.564,3.778
		c-4.474,2.58-10.305,3.864-16.166,3.864c-5.84,0-11.684-1.284-16.149-3.864c-6.161-3.56-8.066-8.647-5.716-13.141l0.181-0.35
		l0.037-0.086l0.025-0.041L154.771,199.185z"/>
	
		<path fill="none" stroke="#3A3A3A" stroke-width="1.2347" stroke-linecap="round" stroke-linejoin="round" stroke-miterlimit="10" d="
		M145.408,193.777L91.19,162.479c-3.803-2.198-6.149-6.264-6.149-10.663V21.666c0-2.42,0.82-4.094,2.111-4.79
		c1.021-0.551,2.329-0.473,3.766,0.35l149.332,86.22c3.247,1.868,5.865,6.894,5.865,11.227v129.421c0,2.346-0.766,3.997-1.992,4.721
		c-1.041,0.615-2.391,0.568-3.873-0.288L145.408,193.777z"/>
	<path fill="none" stroke="#3A3A3A" stroke-width="2" stroke-linecap="round" stroke-linejoin="round" stroke-miterlimit="10" d="
		M244.123,248.822l0.004-0.004l9.42-5.63c1.231-0.724,2-2.383,2-4.729V109.03c0-4.321-2.63-9.346-5.873-11.215l-149.332-86.22
		c-1.49-0.856-2.844-0.905-3.873-0.296l-9.425,5.634"/>
	<path fill="none" stroke="#3A3A3A" stroke-width="2" stroke-linecap="round" stroke-linejoin="round" stroke-miterlimit="10" d="
		M154.771,199.185l-6.116,11.7c-2.35,4.494-0.444,9.581,5.716,13.141c4.465,2.58,10.309,3.864,16.149,3.864
		c5.861,0,11.692-1.284,16.166-3.864c1.947-1.124,3.473-2.416,4.564-3.778"/>
	<path fill="none" stroke="#3A3A3A" stroke-width="2" stroke-linecap="round" stroke-linejoin="round" stroke-miterlimit="10" d="
		M206.77,229.208c-1.482,1.222-3.165,2.399-5.066,3.49c-8.614,4.976-19.894,7.461-31.183,7.461c-11.272,0-22.557-2.486-31.175-7.461
		c-17.215-9.935-17.215-26.059,0-35.998c1.901-1.091,3.934-2.07,6.062-2.922"/>
	
		<path fill="none" stroke="#3A3A3A" stroke-width="1.2384" stroke-linecap="round" stroke-linejoin="round" stroke-miterlimit="10" d="
		M237.356,239.241l-142.64-81.85c-1.843-1.062-3.341-3.902-3.341-6.35V29.029c0-2.445,1.499-3.568,3.341-2.506l142.64,81.845
		c1.843,1.062,3.337,3.906,3.337,6.35v122.013C240.694,239.18,239.199,240.299,237.356,239.241z"/>
</g>
<g>
	<path fill="#FFFFFF" d="M358.21,146.273v59.261l-13.815,7.977v-9.049c3.927-4.465,6.638-10.679,6.638-16.058
		c0-7.493-5.26-10.531-11.751-6.787c-6.49,3.749-11.755,12.862-11.755,20.36c0,5.379,2.712,8.461,6.643,8.387v9.049L297.63,240.51
		v-59.261c8.713-5.033,15.776-17.268,15.776-27.329l29.028-16.759v0.005C342.434,147.227,349.497,151.302,358.21,146.273z"/>
	<path fill="#3A3A3A" d="M358.21,128.052v18.221c-8.713,5.028-15.776,0.953-15.776-9.108v-0.005L358.21,128.052z"/>
	<path fill="#34CACC" d="M351.033,188.405c0,5.379-2.712,11.592-6.638,16.058c-1.546,1.753-3.28,3.24-5.112,4.297
		c-1.832,1.062-3.566,1.576-5.112,1.605c-3.932,0.074-6.643-3.008-6.643-8.387c0-7.498,5.265-16.611,11.755-20.36
		C345.773,177.875,351.033,180.912,351.033,188.405z M339.283,200.299c2.44-1.413,4.421-4.84,4.421-7.661
		c0-2.82-1.981-3.966-4.421-2.554c-2.445,1.408-4.426,4.84-4.426,7.661C334.857,200.566,336.838,201.712,339.283,200.299z"/>
	<path fill="#34CACC" d="M344.395,213.512v9.933l-5.068-0.524l-5.157,6.426v-18.982c1.546-0.03,3.28-0.543,5.112-1.605
		c1.832-1.057,3.566-2.544,5.112-4.297V213.512z"/>
	<path fill="#FFFFFF" d="M343.703,192.638c0,2.82-1.981,6.248-4.421,7.661c-2.445,1.413-4.426,0.267-4.426-2.554
		c0-2.82,1.981-6.253,4.426-7.661C341.723,188.672,343.703,189.818,343.703,192.638z"/>
	<polygon fill="#D7DCE0" points="341.1,118.174 341.1,137.931 297.63,163.027 297.63,220.753 280.52,230.631 280.52,153.149 	"/>
	<path fill="#3A3A3A" d="M297.63,163.027l15.776-9.108c0,10.061-7.063,22.296-15.776,27.329V163.027z"/>
	
		<polyline fill="none" stroke="#3A3A3A" stroke-width="2" stroke-linecap="round" stroke-linejoin="round" stroke-miterlimit="10" points="
		334.17,219.414 297.63,240.51 297.63,163.027 358.21,128.052 358.21,205.535 344.395,213.512 	"/>
	
		<path fill="none" stroke="#3A3A3A" stroke-width="1.9757" stroke-linecap="round" stroke-linejoin="round" stroke-miterlimit="10" d="
		M297.63,181.248c8.713-5.033,15.776-17.268,15.776-27.329"/>
	
		<path fill="none" stroke="#3A3A3A" stroke-width="1.9757" stroke-linecap="round" stroke-linejoin="round" stroke-miterlimit="10" d="
		M342.434,137.165c0,10.061,7.063,14.136,15.776,9.108"/>
	<path fill="none" stroke="#3A3A3A" stroke-width="2" stroke-linecap="round" stroke-linejoin="round" stroke-miterlimit="10" d="
		M344.395,204.463c3.93-4.463,6.638-10.679,6.638-16.058c0-7.493-5.26-10.531-11.751-6.787c-6.49,3.749-11.755,12.862-11.755,20.36
		c0,5.379,2.712,8.462,6.643,8.387c1.546-0.029,3.28-0.543,5.112-1.605C341.115,207.703,342.85,206.217,344.395,204.463z"/>
	<path fill="none" stroke="#3A3A3A" stroke-width="2" stroke-linecap="round" stroke-linejoin="round" stroke-miterlimit="10" d="
		M343.703,192.638c0-2.82-1.981-3.966-4.421-2.554c-2.445,1.408-4.426,4.84-4.426,7.661c0,2.82,1.981,3.966,4.426,2.554
		C341.723,198.886,343.703,195.459,343.703,192.638z"/>
	
		<polyline fill="none" stroke="#3A3A3A" stroke-width="1.9757" stroke-linecap="round" stroke-linejoin="round" stroke-miterlimit="10" points="
		344.395,204.463 344.395,223.445 339.327,222.921 334.17,229.347 334.17,210.365 	"/>
	
		<line fill="none" stroke="#3A3A3A" stroke-width="2" stroke-linecap="round" stroke-linejoin="round" stroke-miterlimit="10" x1="315.322" y1="175.41" x2="340.522" y2="160.859"/>
	
		<line fill="none" stroke="#3A3A3A" stroke-width="2" stroke-linecap="round" stroke-linejoin="round" stroke-miterlimit="10" x1="315.322" y1="181.446" x2="340.522" y2="166.895"/>
	
		<line fill="none" stroke="#3A3A3A" stroke-width="2" stroke-linecap="round" stroke-linejoin="round" stroke-miterlimit="10" x1="315.322" y1="187.477" x2="340.522" y2="172.931"/>
	
		<polyline fill="none" stroke="#3A3A3A" stroke-width="2" stroke-linecap="round" stroke-linejoin="round" stroke-miterlimit="10" points="
		297.63,220.753 280.52,230.631 280.52,153.149 341.1,118.174 341.1,137.931 	"/>
</g>
<g>
	<g id="XMLID_00000081629262306077683680000016477145297771378091_">
		<g>
			<path fill="#FFFFFF" d="M167.966,174.951v-38.649l-12.942-7.475v38.649L167.966,174.951z M188.149,186.602v-44.655l-12.946-7.479
				v44.655L188.149,186.602z M209.108,125.686c-9.357-3.072-14.043,0.38-19.911,1.174c-5.82-3.464-11.166-8.762-17.35-12.335
				c-3.359-1.943-6.451-3.12-9.239-3.638c5.455,4.262,8.527,9.705,14.197,12.979c5.261,3.035,9.021,3.456,12.392,2.995
				c0.142,0.085,0.283,0.17,0.425,0.251C198.906,132.444,203.151,127.827,209.108,125.686z M208.323,198.249v-43.882l-12.942-7.471
				v43.878L208.323,198.249z M215.559,202.424l12.946,7.476v-60.904l-12.946-7.471V202.424z M111.393,132.971v-11.603l-10.049-5.803
				v11.603L111.393,132.971z M111.393,104.933V93.33l-10.049-5.803V99.13L111.393,104.933z M111.393,76.891V65.289l-10.049-5.799
				v11.603L111.393,76.891z"/>
			<polygon fill="#34CACC" points="228.505,159.807 228.505,209.901 215.559,202.424 215.559,152.332 			"/>
			<polygon fill="#373A3A" points="228.505,148.997 228.505,159.807 215.559,152.332 215.559,141.526 			"/>
			<polygon fill="#34CACC" points="208.323,163.781 208.323,198.249 195.381,190.774 195.381,156.31 			"/>
			<polygon fill="#373A3A" points="208.323,154.367 208.323,163.781 195.381,156.31 195.381,146.897 			"/>
			<path fill="#FFFFFF" d="M189.197,126.86c5.868-0.793,10.555-4.245,19.911-1.174c-5.957,2.141-10.203,6.758-19.486,1.425
				C189.48,127.03,189.338,126.945,189.197,126.86z"/>
			<polygon fill="#34CACC" points="188.149,148.107 188.149,186.602 175.202,179.123 175.202,140.636 			"/>
			<polygon fill="#373A3A" points="188.149,141.947 188.149,148.107 175.202,140.636 175.202,134.468 			"/>
			<path fill="#FFFFFF" d="M189.197,126.86c-3.371,0.461-7.131,0.04-12.392-2.995c-5.67-3.274-8.742-8.717-14.197-12.979
				c2.788,0.518,5.88,1.696,9.239,3.638C178.031,118.098,183.377,123.396,189.197,126.86z"/>
			<polygon fill="#34CACC" points="167.966,143.169 167.966,174.951 155.024,167.476 155.024,135.695 			"/>
			<polygon fill="#373A3A" points="167.966,136.302 167.966,143.169 155.024,135.695 155.024,128.827 			"/>
			<polygon fill="#C3C7CD" points="111.393,121.368 111.393,132.971 101.344,127.167 101.344,115.565 			"/>
			<polygon fill="#C3C7CD" points="111.393,93.33 111.393,104.933 101.344,99.13 101.344,87.527 			"/>
			<polygon fill="#34CACC" points="111.393,65.289 111.393,76.891 101.344,71.092 101.344,59.489 			"/>
		</g>
		<g>
			
				<polygon fill="none" stroke="#3A3A3A" stroke-width="2" stroke-linecap="round" stroke-linejoin="round" stroke-miterlimit="10" points="
				111.393,76.891 101.344,71.092 101.344,59.489 111.393,65.289 			"/>
			
				<line fill="none" stroke="#3A3A3A" stroke-width="2" stroke-linecap="round" stroke-linejoin="round" stroke-miterlimit="10" x1="117.872" y1="69.032" x2="134.736" y2="78.769"/>
			
				<line fill="none" stroke="#3A3A3A" stroke-width="2" stroke-linecap="round" stroke-linejoin="round" stroke-miterlimit="10" x1="117.872" y1="75.382" x2="134.736" y2="85.115"/>
			
				<line fill="none" stroke="#3A3A3A" stroke-width="2" stroke-linecap="round" stroke-linejoin="round" stroke-miterlimit="10" x1="117.872" y1="81.732" x2="134.736" y2="91.469"/>
			
				<polygon fill="none" stroke="#3A3A3A" stroke-width="2" stroke-linecap="round" stroke-linejoin="round" stroke-miterlimit="10" points="
				111.393,104.933 101.344,99.13 101.344,87.527 111.393,93.33 			"/>
			
				<line fill="none" stroke="#3A3A3A" stroke-width="2" stroke-linecap="round" stroke-linejoin="round" stroke-miterlimit="10" x1="117.872" y1="97.07" x2="134.736" y2="106.803"/>
			
				<line fill="none" stroke="#3A3A3A" stroke-width="2" stroke-linecap="round" stroke-linejoin="round" stroke-miterlimit="10" x1="117.872" y1="103.424" x2="134.736" y2="113.157"/>
			
				<line fill="none" stroke="#3A3A3A" stroke-width="2" stroke-linecap="round" stroke-linejoin="round" stroke-miterlimit="10" x1="117.872" y1="109.773" x2="134.736" y2="119.506"/>
			
				<polygon fill="none" stroke="#3A3A3A" stroke-width="2" stroke-linecap="round" stroke-linejoin="round" stroke-miterlimit="10" points="
				111.393,132.971 101.344,127.167 101.344,115.565 111.393,121.368 			"/>
			
				<line fill="none" stroke="#3A3A3A" stroke-width="2" stroke-linecap="round" stroke-linejoin="round" stroke-miterlimit="10" x1="117.872" y1="125.108" x2="134.736" y2="134.845"/>
			
				<line fill="none" stroke="#3A3A3A" stroke-width="2" stroke-linecap="round" stroke-linejoin="round" stroke-miterlimit="10" x1="117.872" y1="131.457" x2="134.736" y2="141.194"/>
			
				<line fill="none" stroke="#3A3A3A" stroke-width="2" stroke-linecap="round" stroke-linejoin="round" stroke-miterlimit="10" x1="117.872" y1="137.811" x2="134.736" y2="147.544"/>
			
				<line fill="none" stroke="#3A3A3A" stroke-width="2" stroke-linecap="round" stroke-linejoin="round" stroke-miterlimit="10" x1="215.559" y1="202.424" x2="228.505" y2="209.901"/>
			
				<line fill="none" stroke="#3A3A3A" stroke-width="2" stroke-linecap="round" stroke-linejoin="round" stroke-miterlimit="10" x1="155.024" y1="167.476" x2="215.559" y2="202.424"/>
			
				<polyline fill="none" stroke="#3A3A3A" stroke-width="2" stroke-linecap="round" stroke-linejoin="round" stroke-miterlimit="10" points="
				167.966,174.951 167.966,143.169 155.024,135.695 155.024,167.476 			"/>
			
				<polyline fill="none" stroke="#3A3A3A" stroke-width="2" stroke-linecap="round" stroke-linejoin="round" stroke-miterlimit="10" points="
				167.966,143.169 167.966,136.302 155.024,128.827 155.024,135.695 			"/>
			
				<polyline fill="none" stroke="#3A3A3A" stroke-width="2" stroke-linecap="round" stroke-linejoin="round" stroke-miterlimit="10" points="
				188.149,186.602 188.149,148.107 175.202,140.636 175.202,179.123 			"/>
			
				<polyline fill="none" stroke="#3A3A3A" stroke-width="2" stroke-linecap="round" stroke-linejoin="round" stroke-miterlimit="10" points="
				188.149,148.107 188.149,141.947 175.202,134.468 175.202,140.636 			"/>
			
				<polyline fill="none" stroke="#3A3A3A" stroke-width="2" stroke-linecap="round" stroke-linejoin="round" stroke-miterlimit="10" points="
				208.323,198.249 208.323,163.781 195.381,156.31 195.381,190.774 			"/>
			
				<polyline fill="none" stroke="#3A3A3A" stroke-width="2" stroke-linecap="round" stroke-linejoin="round" stroke-miterlimit="10" points="
				208.323,163.781 208.323,154.367 195.381,146.897 195.381,156.31 			"/>
			
				<polyline fill="none" stroke="#3A3A3A" stroke-width="2" stroke-linecap="round" stroke-linejoin="round" stroke-miterlimit="10" points="
				228.505,209.901 228.505,159.807 215.559,152.332 215.559,202.424 			"/>
			
				<polyline fill="none" stroke="#3A3A3A" stroke-width="2" stroke-linecap="round" stroke-linejoin="round" stroke-miterlimit="10" points="
				228.505,159.807 228.505,148.997 215.559,141.526 215.559,152.332 			"/>
			
				<line fill="none" stroke="#3A3A3A" stroke-width="2" stroke-linecap="round" stroke-linejoin="round" stroke-miterlimit="10" x1="157.917" y1="177.561" x2="162.495" y2="176.472"/>
			
				<line fill="none" stroke="#3A3A3A" stroke-width="2" stroke-linecap="round" stroke-linejoin="round" stroke-miterlimit="10" x1="178.411" y1="189.394" x2="182.989" y2="188.306"/>
			
				<line fill="none" stroke="#3A3A3A" stroke-width="2" stroke-linecap="round" stroke-linejoin="round" stroke-miterlimit="10" x1="198.586" y1="201.042" x2="203.155" y2="199.949"/>
			
				<line fill="none" stroke="#3A3A3A" stroke-width="2" stroke-linecap="round" stroke-linejoin="round" stroke-miterlimit="10" x1="218.752" y1="212.685" x2="223.329" y2="211.596"/>
			<path fill="none" stroke="#3A3A3A" stroke-width="2" stroke-linecap="round" stroke-linejoin="round" stroke-miterlimit="10" d="
				M154.522,111.461c2.295-0.911,5.006-1.146,8.086-0.575c2.789,0.517,5.88,1.696,9.239,3.638
				c6.184,3.574,11.536,8.861,17.35,12.335c0.142,0.085,0.283,0.17,0.425,0.251c9.284,5.333,13.529,0.715,19.486-1.425
				c3.856-1.385,8.43-1.724,15.545,2.384c1.356,0.781,2.707,1.728,4.043,2.849"/>
			<path fill="none" stroke="#3A3A3A" stroke-width="2" stroke-linecap="round" stroke-linejoin="round" stroke-miterlimit="10" d="
				M154.753,106.601c3.189,1.109,5.706,2.607,7.855,4.286c5.455,4.262,8.527,9.705,14.197,12.979
				c5.261,3.035,9.02,3.453,12.392,2.995c5.867-0.798,10.553-4.24,19.911-1.174c2.387,0.782,5.083,1.991,8.179,3.78
				c3.614,2.084,7.224,4.763,10.652,7.904"/>
		</g>
	</g>
</g>
<g>
	<g id="XMLID_00000064344674530890644020000002155265490379029128_">
		<g>
			<path fill="#FFFFFF" d="M126.696,194.211c6.904-5.788,22.484-18.653,29.541-22.822c1.36-0.802,2.597-1.305,3.698-1.568
				c6.385-1.525,8.377,4.951,4.774,7.918c-0.585,0.475-1.434,1.198-2.483,2.102c-6.546,5.647-20.751,18.401-25.179,23.745
				c-0.739,0.892-1.666,2.09-2.707,3.493c-3.096,4.153-7.234,10.083-10.605,14.994c-1.332,1.941-2.55,3.717-3.536,5.171
				c-0.853,1.261,0.334,2.896,1.8,2.479l10.15-2.868c1.01-0.287,1.855-0.967,2.35-1.882c1.014-1.882,6.193-11.544,6.723-12.57
				c1.965-3.78,5.533-3.835,5.533-0.66c0,3.175-0.185,15.572-2,19.655c-1.529,3.434-14.193,14.264-21.136,19.136
				c-0.829,0.578-1.615,1.081-2.365,1.517c-11.631,6.711-17.289-2.676-41.349,10.299c-1.391,0.751-3.104,1.67-5.45,2.951
				c0.157-1.191,0.236-2.456,0.236-3.792c0-14.099-8.924-30.681-19.93-37.038c-1.642-0.947-3.242-1.616-4.766-2.017
				c3.933-2.193,4.479-2.49,6.106-3.429c3.576-2.063,6.841-4.519,9.454-7.784c1.666-2.086,3.124-4.028,4.071-5.525
				c3.98-6.299,11.301-17.855,16.311-20.421c5.006-2.57,11.91-3.87,12.138,2.621c0.927-0.967,6.464-1.878,9.179-0.825
				c2.723,1.061,3.041,5.764,3.041,5.764s8.935-4.751,12.711-2.479C124.723,191.41,125.91,192.895,126.696,194.211z"/>
			<path fill="#FFFFFF" d="M139.058,215.509c0,0.338-0.07,0.658-0.216,0.963c-0.023,0.047-0.043,0.094-0.067,0.137
				c-1.549,2.879-8.955,4.55-15.042,5.466c3.371-4.912,7.509-10.841,10.605-14.994C136.346,210.452,139.058,213.202,139.058,215.509
				z"/>
			<path fill="#3A3A3A" d="M74.687,261.51c0,1.336-0.079,2.601-0.236,3.792c-0.358,2.786-1.128,5.163-2.224,7.085
				c-1.084,1.898-2.495,3.344-4.153,4.295l-12.696,7.277c4.059-2.33,6.613-7.635,6.613-15.175c0-14.099-8.924-30.681-19.93-37.034
				c-5.069-2.923-9.69-3.175-13.207-1.218l12.582-7.214c2.153-1.234,4.728-1.633,7.568-1.088c0.326,0.063,0.652,0.138,0.986,0.227
				c1.523,0.406,3.124,1.07,4.766,2.017C65.763,230.829,74.687,247.411,74.687,261.51z"/>
			<path fill="#D7DCE0" d="M61.991,268.783c0,7.54-2.554,12.845-6.613,15.175c-3.529,2.024-8.197,1.804-13.317-1.151
				c-11.01-6.358-19.934-22.94-19.934-37.038c0-7.544,2.554-12.845,6.617-15.175l0.11-0.063c3.517-1.957,8.138-1.705,13.207,1.218
				C53.067,238.103,61.991,254.685,61.991,268.783z"/>
		</g>
		<g>
			<path fill="none" stroke="#3A3A3A" stroke-width="2" stroke-linecap="round" stroke-linejoin="round" stroke-miterlimit="10" d="
				M74.451,265.302c2.346-1.281,4.059-2.2,5.45-2.951c24.06-12.975,29.718-3.587,41.349-10.299c0.751-0.436,1.536-0.939,2.365-1.517
				c6.943-4.872,19.608-15.702,21.136-19.136c1.815-4.083,2-16.48,2-19.655c0-3.175-3.568-3.12-5.533,0.66
				c-0.53,1.026-5.709,10.688-6.723,12.57c-0.495,0.916-1.34,1.595-2.35,1.882l-10.15,2.868c-1.466,0.417-2.652-1.218-1.8-2.479
				c0.986-1.454,2.204-3.23,3.536-5.171c3.371-4.912,7.513-10.838,10.605-14.994c1.043-1.402,1.969-2.601,2.707-3.493
				c4.428-5.344,18.633-18.099,25.179-23.745c1.049-0.904,1.898-1.627,2.483-2.102c3.603-2.967,1.611-9.442-4.774-7.918
				c-1.1,0.263-2.338,0.766-3.698,1.568c-7.057,4.169-22.636,17.035-29.541,22.822c-2.106,1.765-3.411,2.876-3.411,2.876"/>
			<path fill="none" stroke="#3A3A3A" stroke-width="2" stroke-linecap="round" stroke-linejoin="round" stroke-miterlimit="10" d="
				M49.991,222.455c3.933-2.193,4.479-2.49,6.106-3.429c3.576-2.063,6.841-4.519,9.454-7.784c1.666-2.086,3.124-4.028,4.071-5.525
				c3.98-6.299,11.301-17.855,16.311-20.421c5.006-2.57,11.91-3.87,12.138,2.621c0.927-0.967,6.464-1.878,9.179-0.825
				c2.723,1.061,3.041,5.764,3.041,5.764s8.935-4.751,12.711-2.479c1.721,1.033,2.908,2.519,3.694,3.835"/>
			<path fill="none" stroke="#3A3A3A" stroke-width="2" stroke-linecap="round" stroke-linejoin="round" stroke-miterlimit="10" d="
				M134.335,207.076l0.004,0.004c2.008,3.371,4.719,6.122,4.719,8.429c0,0.338-0.07,0.658-0.216,0.963
				c-0.023,0.047-0.043,0.094-0.067,0.137c-1.549,2.879-8.955,4.55-15.042,5.466"/>
			<path fill="none" stroke="#3A3A3A" stroke-width="2" stroke-linecap="round" stroke-linejoin="round" stroke-miterlimit="10" d="
				M28.855,230.531c3.517-1.957,8.138-1.705,13.207,1.218c11.006,6.354,19.93,22.936,19.93,37.034c0,7.54-2.554,12.846-6.613,15.175
				c-3.528,2.024-8.197,1.804-13.317-1.151c-11.01-6.358-19.934-22.94-19.934-37.038c0-7.544,2.554-12.845,6.617-15.175"/>
			
				<path fill="none" stroke="#3A3A3A" stroke-width="1.2347" stroke-linecap="round" stroke-linejoin="round" stroke-miterlimit="10" d="
				M28.745,230.594l12.692-7.277c2.153-1.234,4.728-1.633,7.568-1.088c0.326,0.063,0.652,0.138,0.986,0.227
				c1.523,0.406,3.124,1.07,4.766,2.017c11.006,6.358,19.93,22.94,19.93,37.038c0,1.336-0.081,2.601-0.236,3.792
				c-0.363,2.785-1.128,5.163-2.224,7.085c-1.084,1.898-2.495,3.344-4.153,4.295l-12.696,7.277"/>
		</g>
	</g>
</g>
</svg>
