<?xml version="1.0" encoding="utf-8"?>
<!-- Generator: Adobe Illustrator 29.5.0, SVG Export Plug-In . SVG Version: 9.03 Build 0)  -->
<svg version="1.1" baseProfile="tiny" id="Capa_1" xmlns="http://www.w3.org/2000/svg" xmlns:xlink="http://www.w3.org/1999/xlink"
	 x="0px" y="0px" viewBox="0 0 380 380" overflow="visible" xml:space="preserve">
<ellipse fill="#34CACC" cx="195.091" cy="242.953" rx="119.149" ry="71.714"/>
<path fill="#309CA0" d="M141.413,287.482c-1.585-0.916-3.309-1.698-5.136-2.35l-22.013-7.858c-7.562-2.697-16.838-3.12-24.965-1.306
	c12.123,14.044,31.737,25.367,55.658,32.055C152.265,301.693,151.086,293.063,141.413,287.482z"/>
<path fill="#363838" d="M89.299,275.968c-3.279,0.732-6.377,1.817-9.091,3.281c-0.235,0.127-0.481,0.243-0.71,0.376
	c-3.02,1.744-5.207,3.786-6.572,5.961c-0.877-0.302-1.753-0.615-2.63-0.915c-2.906-0.993-6.268,0.899-7.359,3.612
	c-1.173,2.915-0.142,6.104,2.552,7.79c2.188,1.369,4.351,2.777,6.5,4.207c-3.942,0.995-7.657,2.503-11.512,4.154l-6.02,2.581
	c-1.624-0.829-3.588-0.842-5.318,0.121c-2.717,1.512-4.788,3.453-6.341,6.157c-0.071,0.124-0.135,0.251-0.196,0.379
	c-0.887-0.374-1.766-0.766-2.639-1.172c-0.925-1.346-2.026-2.559-3.195-3.545c-2.69-2.27-5.801-3.039-9.042-2.837
	c-0.193-0.1-0.385-0.201-0.578-0.299c-2.33-1.187-4.373-0.186-5.245,1.525c-3.518,1.12-6.813-0.778-3.284,4.263
	c3.457,4.939,25.187,14.245,26.525,14.795c0.885,0.364,1.77,0.726,2.635,1.079c1.614,0.66,3.238,1.316,4.878,1.933
	c2.907,1.093,5.863,2.06,8.898,2.684c5.772,1.187,11.388,0.938,17.153-0.159c9.418-1.793,19.899-4.433,27.866-9.973
	c2.75-1.912,5.189-4.446,6.365-7.438c7.056,1.286,14.806,0.929,21.475-1.06c2.518-0.751,4.886-1.727,6.998-2.946
	c1.347-0.778,2.526-1.615,3.544-2.496C121.036,301.334,101.422,290.012,89.299,275.968z"/>
<path fill="#309CA0" d="M230.177,263.979c-0.21-0.42,41.626-1.051,41.626-1.051l17.199-24.705l-69.165-25.521
	C219.838,212.702,230.387,264.399,230.177,263.979z"/>
<path fill="#363838" d="M115.659,153.453c-0.948-3.427-4.083-5.384-7.026-6.947c-3.905-2.074-7.971-3.807-12.101-5.384
	c-1.473-0.562-2.955-1.102-4.44-1.632c-2.121-0.757-4.25-1.492-6.376-2.219c-2.024-0.692-4.365,0.626-5.125,2.515
	c-0.817,2.03-0.099,4.251,1.777,5.425c1.523,0.953,3.03,1.934,4.526,2.93c-2.745,0.693-5.332,1.743-8.017,2.893l-4.192,1.797
	c-1.131-0.577-2.499-0.586-3.703,0.084c-1.892,1.053-3.334,2.404-4.415,4.288c-0.05,0.086-0.094,0.175-0.137,0.264
	c-0.618-0.26-1.23-0.533-1.838-0.816c-0.644-0.937-1.411-1.782-2.225-2.469c-1.874-1.581-4.039-2.116-6.297-1.975
	c-0.134-0.069-0.268-0.14-0.402-0.209c-1.622-0.827-3.045-0.13-3.652,1.062c-2.45,0.78-4.744-0.542-2.287,2.968
	c2.407,3.439,17.539,9.92,18.471,10.303c0.617,0.253,1.232,0.506,1.834,0.752c1.124,0.459,2.255,0.916,3.397,1.346
	c2.024,0.761,4.083,1.434,6.197,1.869c4.019,0.827,7.93,0.653,11.945-0.111c6.558-1.249,13.857-3.087,19.405-6.945
	C114.183,161.013,116.801,157.581,115.659,153.453z"/>
<line fill="none" stroke="#373A3A" stroke-width="2.3512" stroke-linecap="round" stroke-linejoin="round" stroke-miterlimit="10" x1="75.326" y1="152.027" x2="330.717" y2="299.466"/>
<line fill="none" stroke="#373A3A" stroke-width="2.3512" stroke-linecap="round" stroke-linejoin="round" stroke-miterlimit="10" x1="296.368" y1="163.477" x2="40.978" y2="310.916"/>
<g>
	<circle fill="#34CACC" cx="54.774" cy="76.515" r="26.087"/>
	<g>
		<path fill="#FFFFFF" d="M61.533,84.624v5.621h-5.497v-5.621H41.254v-5.206l12.784-17.072h7.495v17.697h3.456v4.581H61.533z
			 M56.036,67.842l-8.578,12.201h8.578V67.842z"/>
	</g>
</g>
<g>
	
		<line fill="none" stroke="#8B8B8B" stroke-width="2" stroke-linecap="round" stroke-linejoin="round" stroke-miterlimit="10" x1="284.2" y1="37.957" x2="294.217" y2="32.173"/>
	
		<line fill="none" stroke="#8B8B8B" stroke-width="2" stroke-linecap="round" stroke-linejoin="round" stroke-miterlimit="10" x1="294.217" y1="37.957" x2="284.2" y2="32.173"/>
</g>
<g>
	<g>
		<g id="XMLID_00000183207424785773378590000005553490398249902269_">
			<g>
				<path fill="#C3C7CD" d="M98.714,132.602v11.582c0,3.982-2.629,7.963-7.892,11.001c-10.521,6.075-27.583,6.075-38.104,0
					c-5.264-3.037-7.892-7.019-7.892-11.001v-11.582c0,3.982,2.629,7.963,7.892,11.001c10.521,6.075,27.583,6.075,38.104,0
					C96.086,140.566,98.714,136.584,98.714,132.602z"/>
				<path fill="#34CACC" d="M98.714,121.02v11.582c0,3.982-2.629,7.963-7.892,11.001c-10.521,6.075-27.583,6.075-38.104,0
					c-5.264-3.037-7.892-7.019-7.892-11.001V121.02c0,3.982,2.629,7.963,7.892,11.001c10.521,6.075,27.583,6.075,38.104,0
					C96.086,128.984,98.714,125.002,98.714,121.02z"/>
				<path fill="#C3C7CD" d="M98.714,109.53v11.491c0,3.982-2.629,7.963-7.892,11.001c-10.521,6.075-27.583,6.075-38.104,0
					c-5.264-3.037-7.892-7.019-7.892-11.001V109.53c0,3.982,2.632,7.96,7.892,10.998c10.521,6.075,27.583,6.075,38.104,0
					C96.082,117.49,98.714,113.511,98.714,109.53z"/>
				<path fill="#FFFFFF" d="M90.822,98.529c5.264,3.037,7.895,7.019,7.892,11.001c0,3.982-2.632,7.96-7.892,10.998
					c-10.521,6.075-27.583,6.075-38.104,0c-5.26-3.037-7.892-7.016-7.892-10.998c-0.003-3.982,2.629-7.963,7.892-11.001
					C63.239,92.454,80.302,92.454,90.822,98.529z M88.518,109.53c0.003-2.476-1.632-4.949-4.903-6.837
					c-6.542-3.777-17.147-3.777-23.686,0c-3.271,1.889-4.907,4.361-4.907,6.837c0,2.476,1.636,4.949,4.907,6.837
					c6.539,3.774,17.144,3.774,23.686,0C86.883,114.478,88.518,112.006,88.518,109.53z"/>
				<path fill="#3A3A3A" d="M83.615,102.692c3.271,1.889,4.907,4.361,4.903,6.837c0,2.476-1.636,4.949-4.903,6.837
					c-6.542,3.774-17.147,3.774-23.686,0c-3.271-1.889-4.907-4.361-4.907-6.837c0-2.476,1.636-4.949,4.907-6.837
					C66.468,98.915,77.073,98.915,83.615,102.692z"/>
			</g>
			<g>
				
					<path fill="none" stroke="#373A3A" stroke-width="2" stroke-linecap="round" stroke-linejoin="round" stroke-miterlimit="10" d="
					M98.714,109.53c-0.002,3.982-2.632,7.96-7.892,10.998c-10.521,6.075-27.583,6.075-38.104,0c-5.26-3.037-7.89-7.016-7.892-10.998
					s2.629-7.963,7.892-11.001c10.521-6.075,27.583-6.075,38.104,0C96.086,101.566,98.716,105.548,98.714,109.53z"/>
				
					<path fill="none" stroke="#373A3A" stroke-width="2" stroke-linecap="round" stroke-linejoin="round" stroke-miterlimit="10" d="
					M88.518,109.53c0,2.476-1.636,4.949-4.903,6.837c-6.542,3.774-17.147,3.774-23.686,0c-3.271-1.889-4.907-4.361-4.907-6.837
					c0-2.476,1.636-4.949,4.907-6.837c6.539-3.777,17.144-3.777,23.686,0C86.886,104.581,88.521,107.054,88.518,109.53z"/>
				
					<path fill="none" stroke="#373A3A" stroke-width="2" stroke-linecap="round" stroke-linejoin="round" stroke-miterlimit="10" d="
					M98.714,109.53v34.654c0,3.982-2.629,7.963-7.892,11.001c-10.521,6.075-27.583,6.075-38.104,0
					c-5.264-3.037-7.892-7.019-7.892-11.001V109.53"/>
				
					<path fill="none" stroke="#373A3A" stroke-width="2" stroke-linecap="round" stroke-linejoin="round" stroke-miterlimit="10" d="
					M98.714,132.602c0,3.982-2.629,7.963-7.892,11.001c-10.521,6.075-27.583,6.075-38.104,0c-5.264-3.037-7.892-7.019-7.892-11.001"
					/>
				
					<path fill="none" stroke="#373A3A" stroke-width="2" stroke-linecap="round" stroke-linejoin="round" stroke-miterlimit="10" d="
					M98.714,121.02c0,3.982-2.629,7.963-7.892,11.001c-10.521,6.075-27.583,6.075-38.104,0c-5.264-3.037-7.892-7.019-7.892-11.001"
					/>
				
					<path fill="none" stroke="#373A3A" stroke-width="2" stroke-linecap="round" stroke-linejoin="round" stroke-miterlimit="10" d="
					M92.808,124.72c-0.49,0.354-1.012,0.698-1.564,1.032"/>
				
					<path fill="none" stroke="#373A3A" stroke-width="2" stroke-linecap="round" stroke-linejoin="round" stroke-miterlimit="10" d="
					M88.518,127.189c-0.617,0.282-1.246,0.545-1.892,0.792"/>
				
					<path fill="none" stroke="#373A3A" stroke-width="2" stroke-linecap="round" stroke-linejoin="round" stroke-miterlimit="10" d="
					M83.907,128.893c-0.737,0.214-1.486,0.409-2.246,0.581"/>
				
					<path fill="none" stroke="#373A3A" stroke-width="2" stroke-linecap="round" stroke-linejoin="round" stroke-miterlimit="10" d="
					M92.808,136.178c-0.49,0.354-1.012,0.698-1.564,1.029"/>
				
					<path fill="none" stroke="#373A3A" stroke-width="2" stroke-linecap="round" stroke-linejoin="round" stroke-miterlimit="10" d="
					M88.518,138.644c-0.617,0.282-1.246,0.548-1.892,0.792"/>
				
					<path fill="none" stroke="#373A3A" stroke-width="2" stroke-linecap="round" stroke-linejoin="round" stroke-miterlimit="10" d="
					M83.907,140.351c-0.737,0.214-1.486,0.406-2.246,0.581"/>
				
					<path fill="none" stroke="#373A3A" stroke-width="2" stroke-linecap="round" stroke-linejoin="round" stroke-miterlimit="10" d="
					M92.808,147.633c-0.49,0.354-1.012,0.698-1.564,1.032"/>
				
					<path fill="none" stroke="#373A3A" stroke-width="2" stroke-linecap="round" stroke-linejoin="round" stroke-miterlimit="10" d="
					M88.518,150.103c-0.617,0.282-1.246,0.545-1.892,0.792"/>
				
					<path fill="none" stroke="#373A3A" stroke-width="2" stroke-linecap="round" stroke-linejoin="round" stroke-miterlimit="10" d="
					M83.907,151.807c-0.737,0.214-1.486,0.409-2.246,0.581"/>
			</g>
		</g>
	</g>
</g>
<path fill="#363838" d="M314.199,313.141c0.34-0.17,22.392,7.664,22.392,7.664l34.844-18.533l-35.836-15.286
	C335.599,286.986,313.859,313.311,314.199,313.141z"/>
<g id="XMLID_00000090253107708184053880000004554860232521555622_">
	<g>
		<path fill="#969A9E" d="M340.492,269.194v28.524l-26.983,15.397v-55.082l26.983-15.397V269.194z M329.116,271.29
			c0.477-0.822,0.774-1.751,0.774-2.589c0-1.674-1.177-2.351-2.625-1.516c-1.445,0.838-2.622,2.87-2.622,4.543
			c0,1.67,1.177,2.347,2.622,1.512C327.987,272.828,328.639,272.112,329.116,271.29z"/>
		<polygon fill="#DAE0E5" points="340.492,242.637 313.509,258.034 279.906,238.632 306.889,223.238 		"/>
		<path fill="#5F656C" d="M329.89,268.701c0,0.838-0.297,1.767-0.774,2.589c-0.477,0.822-1.129,1.538-1.851,1.951
			c-1.445,0.835-2.622,0.158-2.622-1.512c0-1.674,1.177-3.705,2.622-4.543C328.713,266.35,329.89,267.027,329.89,268.701z"/>
		<path fill="#FFFFFF" d="M313.509,258.034v55.082l-33.603-19.402v-55.082L313.509,258.034z M307.034,293.001v-9.58l-20.653-11.924
			v9.58L307.034,293.001z M306.799,265.521c0-1.038-0.729-2.296-1.628-2.815c-0.896-0.519-1.622-0.1-1.622,0.938
			c0,1.035,0.726,2.296,1.622,2.815C306.07,266.976,306.799,266.556,306.799,265.521z M306.799,274.199
			c0-1.038-0.729-2.296-1.628-2.815c-0.896-0.519-1.622-0.1-1.622,0.938c0,1.035,0.726,2.296,1.622,2.815
			C306.07,275.653,306.799,275.234,306.799,274.199z M298.602,269.175v-8.097c0-1.393-0.845-3.02-1.893-3.621
			c-0.267-0.153-0.522-0.226-0.751-0.226c-0.674,0-1.145,0.619-1.145,1.661v8.097c0,1.396,0.848,3.018,1.896,3.621
			C297.754,271.213,298.602,270.574,298.602,269.175z M289.867,255.744c0-1.035-0.726-2.296-1.622-2.815
			c-0.896-0.516-1.625-0.097-1.625,0.938c0,1.038,0.729,2.296,1.625,2.815C289.141,257.202,289.867,256.783,289.867,255.744z
			 M289.867,264.425c0-1.038-0.726-2.296-1.622-2.818c-0.896-0.516-1.625-0.097-1.625,0.938c0,1.038,0.729,2.299,1.625,2.818
			C289.141,265.879,289.867,265.46,289.867,264.425z"/>
		<polygon fill="#34CACC" points="307.034,283.421 307.034,293.001 286.381,281.077 286.381,271.496 		"/>
		<path fill="#969A9E" d="M305.17,262.706c0.9,0.519,1.628,1.777,1.628,2.815c0,1.035-0.729,1.454-1.628,0.938
			c-0.896-0.519-1.622-1.78-1.622-2.815C303.548,262.606,304.274,262.187,305.17,262.706z"/>
		<path fill="#373A3A" d="M305.17,271.384c0.9,0.519,1.628,1.777,1.628,2.815c0,1.035-0.729,1.454-1.628,0.938
			c-0.896-0.519-1.622-1.78-1.622-2.815C303.548,271.284,304.274,270.864,305.17,271.384z"/>
		<path fill="#5F656C" d="M298.602,261.078v8.097c0,1.399-0.848,2.038-1.893,1.435c-1.048-0.603-1.896-2.225-1.896-3.621v-8.097
			c0-1.042,0.471-1.661,1.145-1.661c0.229,0,0.484,0.073,0.751,0.226C297.757,258.057,298.602,259.685,298.602,261.078z"/>
		<path fill="#373A3A" d="M288.245,252.929c0.896,0.519,1.622,1.78,1.622,2.815c0,1.038-0.726,1.458-1.622,0.938
			c-0.896-0.519-1.625-1.777-1.625-2.815C286.62,252.833,287.348,252.413,288.245,252.929z"/>
		<path fill="#C3C7CD" d="M288.245,261.607c0.896,0.522,1.622,1.78,1.622,2.818c0,1.035-0.726,1.454-1.622,0.938
			c-0.896-0.519-1.625-1.78-1.625-2.818C286.62,261.51,287.348,261.091,288.245,261.607z"/>
	</g>
	<g>
		<polyline fill="none" stroke="#373A3A" stroke-width="2" stroke-linecap="round" stroke-linejoin="round" points="
			340.492,297.718 340.492,242.637 306.889,223.238 		"/>
		<path fill="none" stroke="#373A3A" stroke-width="2" stroke-linecap="round" stroke-linejoin="round" d="M303.548,263.645
			c0,1.035,0.726,2.296,1.622,2.815c0.9,0.516,1.628,0.097,1.628-0.938c0-1.038-0.729-2.296-1.628-2.815
			C304.274,262.187,303.548,262.606,303.548,263.645z"/>
		<path fill="none" stroke="#373A3A" stroke-width="2" stroke-linecap="round" stroke-linejoin="round" d="M303.548,272.322
			c0,1.035,0.726,2.296,1.622,2.815c0.9,0.516,1.628,0.097,1.628-0.938c0-1.038-0.729-2.296-1.628-2.815
			C304.274,270.864,303.548,271.284,303.548,272.322z"/>
		<path fill="none" stroke="#373A3A" stroke-width="2" stroke-linecap="round" stroke-linejoin="round" d="M286.62,253.868
			c0,1.038,0.729,2.296,1.625,2.815c0.896,0.519,1.622,0.1,1.622-0.938c0-1.035-0.726-2.296-1.622-2.815
			C287.348,252.413,286.62,252.833,286.62,253.868z"/>
		<path fill="none" stroke="#373A3A" stroke-width="2" stroke-linecap="round" stroke-linejoin="round" d="M286.62,262.545
			c0,1.038,0.729,2.299,1.625,2.818c0.896,0.516,1.622,0.097,1.622-0.938c0-1.038-0.726-2.296-1.622-2.818
			C287.348,261.091,286.62,261.51,286.62,262.545z"/>
		<path fill="none" stroke="#373A3A" stroke-width="2" stroke-linecap="round" stroke-linejoin="round" d="M296.709,270.61
			c1.045,0.603,1.893-0.035,1.893-1.435v-8.097c0-1.393-0.845-3.02-1.893-3.621c-0.267-0.153-0.522-0.226-0.751-0.226
			c-0.674,0-1.145,0.619-1.145,1.661v8.097C294.813,268.385,295.661,270.007,296.709,270.61z"/>
		<polygon fill="none" stroke="#373A3A" stroke-width="2" stroke-linecap="round" stroke-linejoin="round" points="286.381,281.077 
			307.034,293.001 307.034,283.421 286.381,271.496 		"/>
		<polygon fill="none" stroke="#373A3A" stroke-width="2" stroke-linecap="round" stroke-linejoin="round" points="279.906,238.632 
			279.906,293.714 313.509,313.116 313.509,258.034 		"/>
		
			<line fill="none" stroke="#373A3A" stroke-width="2" stroke-linecap="round" stroke-linejoin="round" x1="306.889" y1="223.238" x2="279.906" y2="238.632"/>
		
			<line fill="none" stroke="#373A3A" stroke-width="2" stroke-linecap="round" stroke-linejoin="round" x1="340.492" y1="242.637" x2="313.509" y2="258.034"/>
		
			<line fill="none" stroke="#373A3A" stroke-width="2" stroke-linecap="round" stroke-linejoin="round" x1="340.492" y1="297.718" x2="313.509" y2="313.116"/>
		
			<line fill="none" stroke="#373A3A" stroke-width="2" stroke-linecap="round" stroke-linejoin="round" x1="325.675" y1="286.391" x2="325.675" y2="281.792"/>
		
			<line fill="none" stroke="#373A3A" stroke-width="2" stroke-linecap="round" stroke-linejoin="round" x1="328.326" y1="285.065" x2="328.326" y2="280.467"/>
		<path fill="none" stroke="#373A3A" stroke-width="2" stroke-linecap="round" stroke-linejoin="round" d="M329.89,268.701
			c0,0.838-0.297,1.767-0.774,2.589c-0.477,0.822-1.129,1.538-1.851,1.951c-1.445,0.835-2.622,0.158-2.622-1.512
			c0-1.674,1.177-3.705,2.622-4.543C328.713,266.35,329.89,267.027,329.89,268.701z"/>
	</g>
</g>
<g>
	<polygon fill="#363838" points="304.867,179.914 328.509,187.031 365.623,163.39 334.101,148.392 	"/>
	<g id="server_00000105406075972289476320000001586938292770082226_">
		<g>
			<path fill="#969A9E" d="M339.894,147.887v12.075l-35.09,20.26v-12.075L339.894,147.887z M310.913,172.747
				c0.868-0.502,1.57-1.717,1.57-2.721c0-1-0.702-1.404-1.57-0.906c-0.864,0.502-1.57,1.717-1.57,2.721
				C309.343,172.842,310.049,173.245,310.913,172.747z"/>
			<path fill="#DAE0E5" d="M339.894,131.385v12.075l-35.09,20.26v-12.075L339.894,131.385z M310.913,156.155
				c0.868-0.498,1.57-1.717,1.57-2.717c0-1-0.702-1.408-1.57-0.906c-0.864,0.498-1.57,1.717-1.57,2.717
				S310.049,156.657,310.913,156.155z"/>
			<path fill="#34CACC" d="M339.894,114.887v12.075l-35.09,20.26v-12.075L339.894,114.887z M310.913,139.563
				c0.868-0.498,1.57-1.717,1.57-2.717c0-1-0.702-1.408-1.57-0.906c-0.864,0.502-1.57,1.717-1.57,2.717
				C309.343,139.661,310.049,140.065,310.913,139.563z"/>
			<path fill="#FFFFFF" d="M339.894,114.887l-35.09,20.26l-35.094-20.26l35.094-20.26L339.894,114.887z M304.804,121.952
				l12.238-7.064l-12.238-7.068l-12.238,7.068L304.804,121.952z"/>
			<polygon fill="#5F656C" points="339.894,131.385 304.804,151.646 269.71,131.385 273.544,129.174 304.804,147.223 
				336.064,129.174 			"/>
			<polygon fill="#5F656C" points="339.894,147.887 304.804,168.147 269.71,147.887 273.544,145.672 304.804,163.721 
				336.064,145.672 336.064,145.676 			"/>
			<polygon fill="#FFFFFF" points="317.041,114.887 304.804,121.952 304.804,107.82 			"/>
			<path fill="#FFFFFF" d="M312.483,136.846c0,1-0.702,2.219-1.57,2.717c-0.864,0.502-1.57,0.098-1.57-0.906
				c0-1,0.706-2.215,1.57-2.717C311.781,135.438,312.483,135.846,312.483,136.846z"/>
			<path fill="#FFFFFF" d="M312.483,153.438c0,1-0.702,2.219-1.57,2.717c-0.864,0.502-1.57,0.094-1.57-0.906s0.706-2.219,1.57-2.717
				C311.781,152.031,312.483,152.438,312.483,153.438z"/>
			<path fill="#FFFFFF" d="M312.483,170.027c0,1.004-0.702,2.219-1.57,2.721c-0.864,0.498-1.57,0.094-1.57-0.906
				c0-1.004,0.706-2.219,1.57-2.721C311.781,168.623,312.483,169.027,312.483,170.027z"/>
			<polygon fill="#FFFFFF" points="304.804,168.147 304.804,180.223 269.71,159.963 269.71,147.887 			"/>
			<polygon fill="#FFFFFF" points="304.804,151.646 304.804,163.721 269.71,143.461 269.71,131.385 			"/>
			<polygon fill="#34CACC" points="304.804,135.148 304.804,147.223 269.71,126.963 269.71,114.887 			"/>
			<polygon fill="#373A3A" points="304.804,107.82 304.804,121.952 292.566,114.887 			"/>
		</g>
		<g>
			
				<polygon fill="none" stroke="#373A3A" stroke-width="2" stroke-linecap="round" stroke-linejoin="round" stroke-miterlimit="10" points="
				304.804,135.148 269.71,114.887 304.804,94.627 339.894,114.887 			"/>
			
				<polygon fill="none" stroke="#373A3A" stroke-width="2" stroke-linecap="round" stroke-linejoin="round" stroke-miterlimit="10" points="
				304.804,121.952 292.566,114.887 304.804,107.82 317.041,114.887 			"/>
			
				<polyline fill="none" stroke="#373A3A" stroke-width="2" stroke-linecap="round" stroke-linejoin="round" stroke-miterlimit="10" points="
				339.894,114.887 339.894,126.963 304.804,147.223 269.71,126.963 269.71,114.887 			"/>
			
				<polyline fill="none" stroke="#373A3A" stroke-width="2" stroke-linecap="round" stroke-linejoin="round" stroke-miterlimit="10" points="
				336.064,129.174 339.894,131.385 304.804,151.646 269.71,131.385 273.544,129.174 			"/>
			
				<polyline fill="none" stroke="#373A3A" stroke-width="2" stroke-linecap="round" stroke-linejoin="round" stroke-miterlimit="10" points="
				339.894,131.385 339.894,143.461 304.804,163.721 269.71,143.461 269.71,131.385 			"/>
			
				<polyline fill="none" stroke="#373A3A" stroke-width="2" stroke-linecap="round" stroke-linejoin="round" stroke-miterlimit="10" points="
				336.064,145.676 339.894,147.887 304.804,168.147 269.71,147.887 273.544,145.672 			"/>
			
				<polyline fill="none" stroke="#373A3A" stroke-width="2" stroke-linecap="round" stroke-linejoin="round" stroke-miterlimit="10" points="
				339.894,147.887 339.894,159.963 304.804,180.223 269.71,159.963 269.71,147.887 			"/>
			
				<line fill="none" stroke="#373A3A" stroke-width="2" stroke-linecap="round" stroke-linejoin="round" stroke-miterlimit="10" x1="304.804" y1="107.82" x2="304.804" y2="121.952"/>
			
				<line fill="none" stroke="#373A3A" stroke-width="2" stroke-linecap="round" stroke-linejoin="round" stroke-miterlimit="10" x1="304.804" y1="135.148" x2="304.804" y2="147.223"/>
			
				<line fill="none" stroke="#373A3A" stroke-width="2" stroke-linecap="round" stroke-linejoin="round" stroke-miterlimit="10" x1="304.804" y1="151.646" x2="304.804" y2="163.721"/>
			
				<line fill="none" stroke="#373A3A" stroke-width="2" stroke-linecap="round" stroke-linejoin="round" stroke-miterlimit="10" x1="304.804" y1="168.147" x2="304.804" y2="180.223"/>
			<path fill="none" stroke="#373A3A" stroke-width="2" stroke-linecap="round" stroke-linejoin="round" stroke-miterlimit="10" d="
				M312.483,136.846c0,1-0.702,2.219-1.57,2.717c-0.864,0.502-1.57,0.098-1.57-0.906c0-1,0.706-2.215,1.57-2.717
				C311.781,135.438,312.483,135.846,312.483,136.846z"/>
			<path fill="none" stroke="#373A3A" stroke-width="2" stroke-linecap="round" stroke-linejoin="round" stroke-miterlimit="10" d="
				M312.483,153.438c0,1-0.702,2.219-1.57,2.717c-0.864,0.502-1.57,0.094-1.57-0.906s0.706-2.219,1.57-2.717
				C311.781,152.031,312.483,152.438,312.483,153.438z"/>
			<path fill="none" stroke="#373A3A" stroke-width="2" stroke-linecap="round" stroke-linejoin="round" stroke-miterlimit="10" d="
				M312.483,170.027c0,1.004-0.702,2.219-1.57,2.721c-0.864,0.498-1.57,0.094-1.57-0.906c0-1.004,0.706-2.219,1.57-2.721
				C311.781,168.623,312.483,169.027,312.483,170.027z"/>
		</g>
	</g>
</g>
<g>
	<path fill="#309CA0" d="M193.596,242.535c0.21,0.21,27.751,3.574,27.751,3.574l-17.029-20.603
		C204.318,225.506,193.386,242.324,193.596,242.535z"/>
	<g id="XMLID_00000047025322479830749200000012760307774686182540_">
		<g>
			<polygon fill="#373A3A" points="238.711,185.095 238.711,258.35 229.745,263.525 229.745,190.27 			"/>
			<path fill="#969A9E" d="M238.711,185.095l-8.965,5.175l-9.447-5.453c2.239-0.78,4.347-1.726,6.273-2.836
				c1.15-0.664,2.188-1.364,3.122-2.092L238.711,185.095z"/>
			<path fill="#34CACC" d="M235.794,163.127v6.002c0,3.783-2.031,7.565-6.1,10.759c-0.935,0.728-1.973,1.428-3.122,2.092
				c-1.925,1.11-4.033,2.056-6.273,2.836c-12.076,4.204-27.883,3.552-38.256-2.438c-6.149-3.548-9.224-8.202-9.224-13.249v-6.201
				c0,4.554,3.075,9.105,9.224,12.657c12.295,7.1,32.23,7.498,44.529,0.398C232.72,172.431,235.794,167.781,235.794,163.127z"/>
			<path fill="#DAE0E5" d="M172.818,162.928v6.201c0,5.048,3.075,9.701,9.224,13.249c10.373,5.99,26.18,6.643,38.256,2.438
				l9.447,5.453v73.255l-12.303-7.104l-12.068-20.902l-12.068,6.969l-54.003-31.18l39.072-22.553l-24.371-42.214L174,158.087
				C173.212,159.671,172.818,161.297,172.818,162.928z"/>
			<path fill="#FFFFFF" d="M226.571,150.275c6.149,3.548,9.223,8.202,9.223,12.852c0,4.654-3.073,9.304-9.223,12.855
				c-12.299,7.1-32.234,6.702-44.529-0.398c-6.149-3.552-9.224-8.102-9.224-12.657c0-1.631,0.394-3.258,1.181-4.841
				c1.193-2.398,3.289-4.694,6.293-6.722c0.553-0.37,1.138-0.736,1.75-1.09C194.337,143.176,214.272,143.176,226.571,150.275z"/>
			<path fill="#969A9E" d="M162.97,141.366l17.322,10c-3.003,2.029-5.099,4.324-6.293,6.722l-19.995-11.547L162.97,141.366z"/>
		</g>
		<g>
			
				<polyline fill="none" stroke="#373A3A" stroke-width="2" stroke-linecap="round" stroke-linejoin="round" stroke-miterlimit="10" points="
				174,158.087 154.004,146.541 178.375,188.754 139.303,211.307 193.307,242.487 205.375,235.519 217.443,256.421 229.745,263.525 
				229.745,190.27 220.298,184.817 			"/>
			
				<polyline fill="none" stroke="#373A3A" stroke-width="2" stroke-linecap="round" stroke-linejoin="round" stroke-miterlimit="10" points="
				154.004,146.541 162.97,141.366 180.292,151.365 			"/>
			
				<polyline fill="none" stroke="#373A3A" stroke-width="2" stroke-linecap="round" stroke-linejoin="round" stroke-miterlimit="10" points="
				229.693,179.888 238.711,185.095 238.711,258.35 229.745,263.525 			"/>
			
				<line fill="none" stroke="#373A3A" stroke-width="2" stroke-linecap="round" stroke-linejoin="round" stroke-miterlimit="10" x1="229.745" y1="190.27" x2="238.711" y2="185.095"/>
			<path fill="none" stroke="#373A3A" stroke-width="2" stroke-linecap="round" stroke-linejoin="round" stroke-miterlimit="10" d="
				M180.292,151.365c0.552-0.371,1.138-0.736,1.75-1.09c12.295-7.1,32.23-7.1,44.529,0c6.149,3.548,9.223,8.202,9.223,12.852
				c0,4.654-3.073,9.304-9.223,12.855c-12.299,7.1-32.234,6.702-44.529-0.398c-6.149-3.552-9.224-8.102-9.224-12.657
				c0-1.631,0.394-3.258,1.181-4.841C175.193,155.689,177.284,153.387,180.292,151.365z"/>
			<path fill="none" stroke="#373A3A" stroke-width="2" stroke-linecap="round" stroke-linejoin="round" stroke-miterlimit="10" d="
				M172.818,162.729v6.4c0,5.048,3.075,9.701,9.224,13.249c10.373,5.99,26.18,6.642,38.256,2.438
				c2.239-0.78,4.347-1.726,6.273-2.836c1.15-0.664,2.189-1.363,3.122-2.092c4.075-3.186,6.1-6.977,6.1-10.759v-6.002"/>
		</g>
	</g>
	<g id="XMLID_00000034075567902650741870000010848227384671974069_">
		<g>
			<path fill="#373A3A" d="M221.733,159.727c0,1.504-2.506,2.208-4.093,2.208c-4.061,0-4.904-2.494-7.597-3.508
				c-2.072-0.788-3.254,0.231-3.604-2.53c2.625,0.776,8.003-0.354,8.993-1.508C217.887,156.923,221.733,159.127,221.733,159.727z"/>
			<path fill="#5F656C" d="M207.012,73.939c0.585-2.621,0.994-5.286,1.241-7.963v-0.004c0.131-1.488,0.195-3.047,0.195-4.682
				c0,0-0.084-3.512-0.453-6.639l-0.004-0.008c0-0.004,0.004-0.004,0.004-0.004c0.489-0.326,0.851-0.807,1.034-1.368h0.004
				c0.123,0,0.251,0.003,0.37,0.008c2.718,0.117,4.888,2.323,5.215,5.02c0.489,4.029,1.551,13.766,1.245,20.15
				c-0.394,8.218,1.659,18.122,1.523,19.18c-0.135,0.521-0.402,0.998-0.772,1.392l-0.004,0.004
				c-0.545,0.688-1.321,1.161-2.188,1.317c0.024,0.382,0.048,0.772,0.068,1.181c-0.366,0.438-0.76,0.855-1.173,1.245
				c-2.446,2.192-5.417,3.711-8.627,4.403c-0.636,0.147-1.281,0.27-1.929,0.37h-0.012c-0.084-2.689-0.191-5.386-0.191-8.082
				c0-10.433,2.717-17.454,4.451-25.5C207.008,73.951,207.012,73.947,207.012,73.939z"/>
			<path fill="#FFFFFF" d="M216.618,99.03v0.585c0,3.639-1.77,5.644-3.13,6.901c-0.095-2.204-0.163-3.58-0.171-3.747
				c0.414-0.39,0.807-0.807,1.173-1.245c-0.02-0.41-0.044-0.799-0.068-1.181c0.867-0.155,1.643-0.628,2.188-1.317L216.618,99.03z"/>
			<path fill="#5F656C" d="M215.588,154.02c-0.004,0.139-0.06,0.27-0.155,0.37c-0.99,1.154-6.368,2.283-8.993,1.508
				c-0.919-0.274-1.496-0.784-1.452-1.603c0,0-0.159-23.77-2.104-35.015c0.672-3.986,1.364-8.063,1.806-12.108
				c3.21-0.692,6.181-2.212,8.627-4.403C213.324,102.936,215.588,154.02,215.588,154.02z"/>
			<path fill="#373A3A" d="M208.551,41.614c-2.593,0.354-8.536-0.298-8.536-0.298c0.27,2.406,0.7,3.795,1.977,5.25l-1.301,0.986
				c0,0-0.724-1.818-2.025-1.301c-0.792,0.314-0.897,2.474-0.887,4.137c0,0.004,0,0.008,0,0.012
				c-1.034-2.629-4.538-6.364-0.986-10.489c-0.103-2.908,4.101-4.196,7.74-3.278c3.639,0.923,5.56,3.23,5.203,4.475
				C209.665,41.359,209.22,41.522,208.551,41.614z"/>
			<path fill="#FFFFFF" d="M208.551,41.614c0.895,2.669,1.265,5.485,1.082,8.293c-0.056,1.142-0.255,2.267-0.601,3.357
				c0,0.004,0,0.004-0.004,0.008c-0.183,0.561-0.545,1.042-1.034,1.368c0,0-0.004,0-0.004,0.004
				c-0.286,0.171-0.605,0.272-0.935,0.306c-1.206,0.124-1.75,1.544-2.013,2.677c-0.078,0.338-0.238,0.649-0.465,0.907
				c-0.384,0.435-0.935,0.68-1.511,0.684c-0.652,0.004-1.309-0.04-1.953-0.135c-1.838-0.286-3.787-1.078-4.379-3.087
				c0-0.004,0.004-0.008,0.008-0.012c0.461-0.632,1.792-2.756,1.245-4.976c-0.052-0.211-0.119-0.422-0.207-0.62
				c-0.02-1.663,0.095-3.822,0.887-4.137c1.301-0.517,2.025,1.301,2.025,1.301l1.301-0.986c-1.277-1.456-1.706-2.844-1.977-5.25
				C200.015,41.315,205.958,41.968,208.551,41.614z"/>
			<path fill="#FFFFFF" d="M207.994,54.652c0.37,3.126,0.453,6.639,0.453,6.639c0,1.635-0.064,3.194-0.195,4.682v0.004
				c-0.247,2.677-0.656,5.342-1.241,7.963c-1.002-1.098-1.937-2.263-2.796-3.476c-0.004-0.008-0.012-0.016-0.02-0.024
				c-3.456-4.817-6.145-10.533-7.697-14.2c0.004,0,0.012-0.004,0.016-0.008l0.084-0.052c0,0,0.048-0.06,0.135-0.183
				c0.593,2.009,2.542,2.8,4.379,3.087c0.644,0.095,1.301,0.139,1.953,0.135c0.577-0.004,1.127-0.249,1.511-0.684
				c0.228-0.258,0.387-0.569,0.465-0.907c0.262-1.133,0.807-2.553,2.013-2.677c0.33-0.034,0.648-0.135,0.935-0.306L207.994,54.652z"
				/>
			<path fill="#5F656C" d="M188.095,105.203v0.024c0.048,1.046-0.529,2.021-1.468,2.486l-0.004,0.004
				c-1.838,0.927-4.928,0.084-6.515-1.42l-0.004-0.004c-0.624-0.517-0.986-1.285-0.994-2.096c0.207-3.472,2.044-22.064,3.472-29.828
				c1.428-7.768,1.428-9.709,4.805-12.159c3.118-2.271,8.349-5.489,9.113-5.97c1.551,3.667,4.24,9.383,7.697,14.2l0.004,0.024h0.016
				c0.859,1.213,1.794,2.379,2.796,3.476c0,0.008-0.004,0.012-0.004,0.02c-1.734,8.047-4.451,15.067-4.451,25.5
				c0,2.697,0.107,5.394,0.191,8.082c-4.904,0.732-10.019-0.016-13.739-1.846C188.697,105.542,188.389,105.378,188.095,105.203z"/>
			<path fill="#FFFFFF" d="M204.196,70.439c0.008,0.008,0.016,0.016,0.02,0.024H204.2L204.196,70.439z"/>
			<path fill="#5F656C" d="M202.76,107.542c0.648-0.099,1.293-0.223,1.929-0.37c-0.442,4.045-1.134,8.122-1.806,12.108
				c-0.768,4.562-1.519,8.985-1.854,13.134c-0.716,8.91,0,27.58,0,27.58c0.024,0.597-0.628,1.062-1.635,1.384
				c-2.196,0.7-6.046,0.7-7.967-0.08c-0.716-0.294-1.161-0.688-1.161-1.209c0.028-3.353-0.147-11.992-0.386-21.638
				c0.899-0.847,1.929-1.547,3.051-2.072c0.517-0.239,1.06-0.418,1.619-0.513c0.155-0.026,0.314-0.056,0.461-0.056
				c-0.02-2.092-0.056-4.168-0.135-6.114c-0.099-2.474-0.251-4.737-0.485-6.583c-0.33-2.518-0.811-4.256-1.539-4.67l-3.556-2.013
				l-0.286-10.735c3.703,1.862,8.834,2.577,13.739,1.846H202.76z"/>
			<path fill="#373A3A" d="M199.395,161.378c1.07,5.652,1.543,4.041,1.543,5.585c0,1.671-2.267,2.148-3.926,2.148
				c-4.411,0-4.753-3.027-5.585-7.812C193.349,162.078,197.199,162.078,199.395,161.378z"/>
			<path fill="#373A3A" d="M188.743,130.445c0.135-5.395,1.122-10.7,3.321-11.953c0.231-0.163,0.539-0.183,0.788-0.048
				c0.735,0.401,1.209,2.152,1.539,4.67c0.235,1.846,0.386,4.109,0.485,6.583c0.08,1.945,0.115,4.021,0.135,6.114
				c-0.147,0-0.307,0.029-0.461,0.056c-0.558,0.095-1.102,0.274-1.619,0.513c-1.122,0.525-2.152,1.225-3.051,2.072
				c-0.386,0.35-0.768,0.728-1.138,1.134c0,0,0-0.004,0-0.008c-0.054-2.44-0.078-5.801,0-9.121
				C188.743,130.453,188.743,130.449,188.743,130.445z"/>
			<path fill="#C3C7CD" d="M187.486,115.409l5.366,3.035c-0.251-0.131-0.557-0.115-0.788,0.048c-2.2,1.253-3.051,6.563-3.321,11.953
				l-8.747-4.94l0.211-1.074l-2.796-1.583l-0.211,1.078l-7.108-4.025v-0.004c0.263-5.461,1.074-10.787,3.206-12.032
				c0.239-0.159,0.541-0.175,0.796-0.04l5.028,2.844v0.012c0.056,1.619,2.446,4.105,4.9,4.105c0.43-0.135,0.819-0.37,1.138-0.688
				L187.486,115.409z"/>
			<path fill="#C3C7CD" d="M188.743,130.445c0,0.004,0,0.008,0,0.012c-0.078,3.32-0.107,6.682,0,9.121l-18.671-10.552
				c-0.084-2.49-0.135-5.803,0.02-9.125l7.108,4.025l-0.068,0.346c-0.099,0.434-0.02,0.895,0.223,1.273
				c0.107,0.167,0.247,0.306,0.414,0.414l1.408,0.792c0.386,0.219,0.684-0.02,0.684-0.525l0.135-0.72L188.743,130.445z"/>
			<path fill="#FFFFFF" d="M179.121,110.668c-0.004-0.016-0.004-0.032,0-0.048c0-0.632,0.593-2.383,0.978-4.316l0.008-0.008
				c1.587,1.504,4.678,2.347,6.515,1.42l0.004,0.008c0.402,1.352,0.903,2.136,0.903,3.106c0,0.517-0.41,1.197-0.939,1.85
				c-0.434,0.513-0.915,0.99-1.432,1.416c-0.318,0.318-0.708,0.553-1.138,0.688c-2.454,0-4.845-2.486-4.9-4.105V110.668z"/>
			<path fill="#FFFFFF" d="M177.2,123.925l0.211-1.078l2.796,1.583l-0.346,1.794c0,0.505-0.298,0.744-0.684,0.525l-1.408-0.792
				c-0.167-0.107-0.306-0.247-0.414-0.414c-0.243-0.378-0.322-0.839-0.223-1.273L177.2,123.925z"/>
		</g>
		<g>
			<path fill="none" stroke="#373A3A" stroke-width="2" stroke-linecap="round" stroke-linejoin="round" d="M197.78,50.388
				c0,0.004,0,0.008,0,0.012c-1.034-2.629-4.538-6.364-0.986-10.489c-0.103-2.908,4.101-4.196,7.74-3.278
				c3.639,0.923,5.56,3.23,5.203,4.475c-0.072,0.251-0.517,0.414-1.185,0.505c-2.593,0.355-8.536-0.298-8.536-0.298
				c0.27,2.406,0.7,3.795,1.977,5.25l-1.301,0.986c0,0-0.724-1.818-2.025-1.301C197.876,46.566,197.77,48.725,197.78,50.388z"/>
			<path fill="none" stroke="#373A3A" stroke-width="2" stroke-linecap="round" stroke-linejoin="round" d="M192.291,72.225
				c-3.882,9.292-4.093,27.744-4.196,32.978v0.024c0.048,1.046-0.529,2.021-1.468,2.486l-0.004,0.004
				c-1.838,0.927-4.928,0.084-6.515-1.42l-0.004-0.004c-0.624-0.517-0.986-1.285-0.994-2.096c0.207-3.472,2.044-22.064,3.472-29.828
				c1.428-7.768,1.428-9.709,4.805-12.159c3.118-2.271,8.349-5.489,9.113-5.97c0.004,0,0.012-0.004,0.016-0.008l0.084-0.052
				c0,0,0.048-0.06,0.135-0.183c0-0.004,0.004-0.008,0.008-0.012c0.461-0.632,1.792-2.756,1.245-4.976
				c-0.052-0.211-0.119-0.422-0.207-0.62c0,0-0.004-0.004-0.004-0.008"/>
			<path fill="none" stroke="#373A3A" stroke-width="2" stroke-linecap="round" stroke-linejoin="round" d="M208.551,41.61v0.004
				c0.895,2.669,1.265,5.485,1.082,8.293c-0.056,1.142-0.255,2.267-0.601,3.357c0,0.004,0,0.004-0.004,0.008
				c-0.183,0.561-0.545,1.042-1.034,1.368c0,0-0.004,0-0.004,0.004c-0.286,0.171-0.605,0.272-0.935,0.306
				c-1.206,0.124-1.75,1.544-2.013,2.677c-0.078,0.338-0.238,0.649-0.465,0.907c-0.384,0.435-0.935,0.68-1.511,0.684
				c-0.652,0.004-1.309-0.04-1.953-0.135c-1.838-0.286-3.787-1.078-4.379-3.087c-0.004-0.008-0.008-0.012-0.008-0.02"/>
			<path fill="none" stroke="#373A3A" stroke-width="2" stroke-linecap="round" stroke-linejoin="round" d="M188.095,105.203
				c0.294,0.175,0.602,0.339,0.915,0.493c3.719,1.829,8.834,2.577,13.739,1.846h0.012c0.648-0.099,1.292-0.227,1.929-0.37
				c3.205-0.716,6.209-2.181,8.627-4.403c0.419-0.385,0.807-0.807,1.173-1.245c-0.02-0.41-0.068-1.189-0.068-1.189
				c-0.465-7.812-1.157-12.191-1.245-17.513c-0.056-3.683-0.111-12.104-0.597-18.15"/>
			<path fill="none" stroke="#373A3A" stroke-width="2" stroke-linecap="round" stroke-linejoin="round" d="M209.033,53.272
				c0.123,0,0.251,0.003,0.37,0.008c2.718,0.117,4.888,2.323,5.215,5.02c0.489,4.029,1.551,13.766,1.245,20.15
				c-0.394,8.218,1.659,18.122,1.523,19.18c-0.135,0.521-0.402,0.998-0.772,1.392l-0.004,0.004
				c-0.545,0.688-1.321,1.161-2.188,1.317"/>
			<path fill="none" stroke="#373A3A" stroke-width="2" stroke-linecap="round" stroke-linejoin="round" d="M208.253,65.976
				c-0.247,2.677-0.656,5.342-1.241,7.963c0,0.008-0.004,0.012-0.004,0.02c-1.734,8.047-4.451,15.067-4.451,25.5
				c0,2.697,0.107,5.394,0.191,8.082"/>
			<path fill="none" stroke="#373A3A" stroke-width="2" stroke-linecap="round" stroke-linejoin="round" d="M207.994,54.652
				c0.37,3.126,0.453,6.639,0.453,6.639c0,1.635-0.064,3.194-0.195,4.682"/>
			<path fill="none" stroke="#373A3A" stroke-width="2" stroke-linecap="round" stroke-linejoin="round" d="M204.196,70.439
				l0.004,0.024h0.016c0.859,1.213,1.794,2.379,2.796,3.476c0.004,0.008,0.012,0.012,0.016,0.02"/>
			<path fill="none" stroke="#373A3A" stroke-width="2" stroke-linecap="round" stroke-linejoin="round" d="M196.499,56.239
				c1.551,3.667,4.24,9.383,7.697,14.2c0.008,0.008,0.016,0.016,0.02,0.024"/>
			
				<line fill="none" stroke="#373A3A" stroke-width="2" stroke-linecap="round" stroke-linejoin="round" x1="189.009" y1="105.696" x2="189.296" y2="116.432"/>
			<path fill="none" stroke="#373A3A" stroke-width="2" stroke-linecap="round" stroke-linejoin="round" d="M189.881,138.443
				c0,0.004,0.414,18.293,0.386,21.646c0,0.521,0.445,0.916,1.161,1.209c1.919,0.784,5.772,0.781,7.967,0.08
				c1.007-0.322,1.659-0.788,1.635-1.384c0,0-0.716-18.671,0-27.58c0.334-4.149,1.085-8.572,1.854-13.134
				c0.671-3.986,1.364-8.063,1.806-12.108"/>
			<path fill="none" stroke="#373A3A" stroke-width="2" stroke-linecap="round" stroke-linejoin="round" d="M213.316,102.769
				c0.008,0.167,2.271,51.251,2.271,51.251c-0.004,0.139-0.06,0.27-0.155,0.37c-0.99,1.154-6.369,2.287-8.993,1.508
				c-0.919-0.273-1.496-0.784-1.452-1.603c0,0-0.159-23.77-2.104-35.015"/>
			<path fill="none" stroke="#373A3A" stroke-width="2" stroke-linecap="round" stroke-linejoin="round" d="M191.428,161.299
				c0.831,4.785,1.173,7.812,5.585,7.812c1.659,0,3.926-0.477,3.926-2.148c0-1.543-0.473,0.068-1.543-5.585"/>
			<path fill="none" stroke="#373A3A" stroke-width="2" stroke-linecap="round" stroke-linejoin="round" d="M206.439,155.897
				c0.35,2.76,1.531,1.742,3.604,2.53c2.693,1.014,3.536,3.508,7.597,3.508c1.587,0,4.093-0.704,4.093-2.208
				c0-0.601-3.846-2.804-6.3-5.338"/>
			<path fill="none" stroke="#373A3A" stroke-width="2" stroke-linecap="round" stroke-linejoin="round" d="M192.852,118.444
				c0.735,0.401,1.209,2.152,1.539,4.67c0.235,1.846,0.386,4.109,0.485,6.583c0.08,1.945,0.115,4.021,0.135,6.114
				c-0.147,0-0.307,0.029-0.461,0.056c-0.558,0.095-1.102,0.274-1.619,0.513c-1.122,0.525-2.144,1.234-3.051,2.072
				c-0.382,0.354-0.768,0.728-1.138,1.134c0,0,0-0.004,0-0.008c-0.054-2.44-0.078-5.801,0-9.121c0-0.004,0-0.008,0-0.012
				c0.135-5.395,1.122-10.7,3.321-11.953C192.295,118.329,192.604,118.309,192.852,118.444z"/>
			<path fill="none" stroke="#373A3A" stroke-width="2" stroke-linecap="round" stroke-linejoin="round" d="M188.743,139.577
				l-18.671-10.552c-0.084-2.49-0.135-5.803,0.02-9.125v-0.004c0.263-5.461,1.074-10.787,3.206-12.032
				c0.239-0.159,0.541-0.175,0.796-0.04l5.036,2.848"/>
			
				<line fill="none" stroke="#373A3A" stroke-width="2" stroke-linecap="round" stroke-linejoin="round" x1="185.159" y1="114.097" x2="192.852" y2="118.444"/>
			<polyline fill="none" stroke="#373A3A" stroke-width="2" stroke-linecap="round" stroke-linejoin="round" points="
				170.084,119.896 177.2,123.925 177.204,123.929 			"/>
			
				<line fill="none" stroke="#373A3A" stroke-width="2" stroke-linecap="round" stroke-linejoin="round" x1="179.996" y1="125.504" x2="188.755" y2="130.453"/>
			<path fill="none" stroke="#373A3A" stroke-width="2" stroke-linecap="round" stroke-linejoin="round" d="M179.996,125.504
				l-0.135,0.72c0,0.505-0.298,0.744-0.684,0.525l-1.408-0.792c-0.167-0.107-0.306-0.247-0.414-0.414
				c-0.243-0.378-0.322-0.839-0.223-1.273l0.278-1.424l2.796,1.583L179.996,125.504z"/>
			<path fill="none" stroke="#373A3A" stroke-width="2" stroke-linecap="round" stroke-linejoin="round" d="M180.1,106.305
				c-0.386,1.933-0.978,3.683-0.978,4.316c-0.004,0.016-0.004,0.032,0,0.048v0.012c0.056,1.619,2.446,4.105,4.9,4.105
				c0.43-0.135,0.819-0.37,1.138-0.688c0.517-0.426,1.004-0.899,1.432-1.416c0.536-0.647,0.939-1.332,0.939-1.85
				c0-0.971-0.501-1.754-0.903-3.106"/>
			<path fill="none" stroke="#373A3A" stroke-width="2" stroke-linecap="round" stroke-linejoin="round" d="M185.382,111.694
				c0.457,0.259,0.857,0.598,1.209,0.986c0.548,0.605,0.887,1.38,0.895,2.2c0.002,0.171,0,0.525,0,0.529
				c-0.032,0.529-0.107,1.058-0.115,1.511"/>
			<path fill="none" stroke="#373A3A" stroke-width="2" stroke-linecap="round" stroke-linejoin="round" d="M216.618,99.03v0.585
				c0,3.639-1.77,5.644-3.13,6.901"/>
		</g>
	</g>
</g>
<g>
	<g>
		<g id="XMLID_00000039120990022356184770000008001391335554907818_">
			<g>
				<path fill="#969A9E" d="M122.097,276.937v13.089c0,3.83-2.53,7.657-7.59,10.582c-10.123,5.843-26.533,5.843-36.656,0
					c-5.06-2.925-7.591-6.752-7.591-10.582v-13.089c0,3.83,2.532,7.66,7.591,10.582c10.123,5.843,26.533,5.843,36.656,0
					C119.566,284.597,122.097,280.767,122.097,276.937z"/>
				<path fill="#969A9E" d="M122.097,263.848v13.089c0,3.83-2.53,7.66-7.59,10.582c-10.123,5.843-26.533,5.843-36.656,0
					c-5.06-2.922-7.591-6.752-7.591-10.582v-13.089c0,3.83,2.532,7.66,7.591,10.582c10.123,5.843,26.533,5.843,36.656,0
					C119.566,271.508,122.097,267.678,122.097,263.848z"/>
				<path fill="#C3C7CD" d="M122.097,250.847v13.001c0,3.83-2.53,7.66-7.59,10.582c-10.123,5.843-26.533,5.843-36.656,0
					c-5.06-2.922-7.591-6.752-7.591-10.582v-13.001c0,3.83,2.532,7.66,7.591,10.582c10.123,5.844,26.533,5.844,36.656,0
					C119.566,258.507,122.097,254.677,122.097,250.847z"/>
				<path fill="#FFFFFF" d="M114.506,240.265c5.06,2.922,7.59,6.752,7.59,10.582s-2.53,7.66-7.59,10.582
					c-10.123,5.844-26.533,5.844-36.656,0c-5.06-2.922-7.591-6.752-7.591-10.582s2.532-7.66,7.591-10.582
					C87.974,234.422,104.383,234.422,114.506,240.265z"/>
			</g>
			<g>
				
					<path fill="none" stroke="#373A3A" stroke-width="2" stroke-linecap="round" stroke-linejoin="round" stroke-miterlimit="10" d="
					M122.097,250.847c0,3.83-2.53,7.66-7.59,10.582c-10.123,5.844-26.533,5.844-36.656,0c-5.06-2.922-7.591-6.752-7.591-10.582
					s2.532-7.66,7.591-10.582c10.123-5.843,26.533-5.843,36.656,0C119.566,243.187,122.097,247.017,122.097,250.847z"/>
				
					<path fill="none" stroke="#373A3A" stroke-width="2" stroke-linecap="round" stroke-linejoin="round" stroke-miterlimit="10" d="
					M122.097,250.847v39.178c0,3.83-2.53,7.657-7.59,10.582c-10.123,5.843-26.533,5.843-36.656,0
					c-5.06-2.925-7.591-6.752-7.591-10.582v-39.178"/>
				
					<path fill="none" stroke="#373A3A" stroke-width="2" stroke-linecap="round" stroke-linejoin="round" stroke-miterlimit="10" d="
					M122.097,276.937c0,3.83-2.53,7.66-7.59,10.582c-10.123,5.843-26.533,5.843-36.656,0c-5.06-2.922-7.591-6.752-7.591-10.582"/>
				
					<path fill="none" stroke="#373A3A" stroke-width="2" stroke-linecap="round" stroke-linejoin="round" stroke-miterlimit="10" d="
					M122.097,263.848c0,3.83-2.53,7.66-7.59,10.582c-10.123,5.843-26.533,5.843-36.656,0c-5.06-2.922-7.591-6.752-7.591-10.582"/>
				
					<path fill="none" stroke="#373A3A" stroke-width="2" stroke-linecap="round" stroke-linejoin="round" stroke-miterlimit="10" d="
					M116.417,266.433c-0.471,0.34-0.974,0.671-1.508,0.993"/>
				
					<path fill="none" stroke="#373A3A" stroke-width="2" stroke-linecap="round" stroke-linejoin="round" stroke-miterlimit="10" d="
					M112.287,268.808c-0.59,0.272-1.196,0.524-1.817,0.762"/>
				
					<path fill="none" stroke="#373A3A" stroke-width="2" stroke-linecap="round" stroke-linejoin="round" stroke-miterlimit="10" d="
					M107.854,270.447c-0.709,0.206-1.43,0.393-2.163,0.559"/>
				
					<path fill="none" stroke="#373A3A" stroke-width="2" stroke-linecap="round" stroke-linejoin="round" stroke-miterlimit="10" d="
					M116.417,279.403c-0.471,0.34-0.974,0.671-1.508,0.99"/>
				
					<path fill="none" stroke="#373A3A" stroke-width="2" stroke-linecap="round" stroke-linejoin="round" stroke-miterlimit="10" d="
					M112.287,281.775c-0.59,0.272-1.196,0.524-1.817,0.762"/>
				
					<path fill="none" stroke="#373A3A" stroke-width="2" stroke-linecap="round" stroke-linejoin="round" stroke-miterlimit="10" d="
					M107.854,283.417c-0.709,0.206-1.43,0.39-2.163,0.559"/>
				
					<path fill="none" stroke="#373A3A" stroke-width="2" stroke-linecap="round" stroke-linejoin="round" stroke-miterlimit="10" d="
					M116.417,292.369c-0.471,0.34-0.974,0.671-1.508,0.993"/>
				
					<path fill="none" stroke="#373A3A" stroke-width="2" stroke-linecap="round" stroke-linejoin="round" stroke-miterlimit="10" d="
					M112.287,294.742c-0.59,0.272-1.196,0.528-1.817,0.765"/>
				
					<path fill="none" stroke="#373A3A" stroke-width="2" stroke-linecap="round" stroke-linejoin="round" stroke-miterlimit="10" d="
					M107.854,296.384c-0.709,0.206-1.43,0.393-2.163,0.559"/>
			</g>
		</g>
	</g>
	<g id="server_00000122705988742732029110000010370146079782235304_">
		<g>
			<path fill="#C3C7CD" d="M81.4,286.003v16.253c0,4.808-3.168,9.598-9.516,13.26c-12.709,7.344-33.275,7.344-45.978,0
				c-6.336-3.662-9.51-8.452-9.51-13.26v-16.021c0.081,4.727,3.262,9.441,9.51,13.041c12.703,7.325,33.269,7.325,45.978,0
				C78.232,295.613,81.4,290.805,81.4,286.003z"/>
			<path fill="#C3C7CD" d="M81.4,259.389v16.228c0,1.759-0.419,3.506-1.252,5.19c-1.484,2.967-4.232,5.766-8.264,8.082
				c-12.709,7.344-33.275,7.344-45.978,0c-4.038-2.316-6.787-5.115-8.258-8.082c-0.833-1.684-1.252-3.431-1.252-5.19v-16.015
				c0.081,4.733,3.262,9.429,9.51,13.047c12.703,7.325,33.269,7.325,45.978,0C78.232,268.986,81.4,264.178,81.4,259.389z"/>
			<path fill="#C3C7CD" d="M81.4,232.744v16.259c0,1.747-0.419,3.493-1.252,5.178c-1.465,2.968-4.22,5.766-8.264,8.083
				c-12.709,7.325-33.275,7.325-45.978,0c-4.038-2.316-6.787-5.115-8.258-8.083c-0.833-1.684-1.252-3.431-1.252-5.178v-16.027
				c0.019,0.801,0.125,1.622,0.326,2.429c0.2,0.814,0.482,1.603,0.87,2.392v0.019c1.452,2.999,4.232,5.841,8.314,8.201
				c12.703,7.325,33.269,7.325,45.978,0C78.232,242.354,81.4,237.552,81.4,232.744z"/>
			<path fill="#373A3A" d="M80.148,254.18c0.833,1.697,1.252,3.443,1.252,5.209c0,4.789-3.168,9.598-9.516,13.26
				c-12.709,7.325-33.275,7.325-45.978,0c-6.248-3.619-9.429-8.314-9.51-13.047v-0.213c-0.013-1.765,0.407-3.512,1.252-5.209
				c1.471,2.968,4.22,5.766,8.258,8.083c12.703,7.325,33.269,7.325,45.978,0C75.928,259.946,78.683,257.147,80.148,254.18z"/>
			<path fill="#373A3A" d="M80.148,280.806c0.833,1.703,1.252,3.45,1.252,5.196c0,4.802-3.168,9.61-9.516,13.273
				c-12.709,7.325-33.275,7.325-45.978,0c-6.248-3.6-9.429-8.314-9.51-13.041v-0.232c-0.013-1.747,0.407-3.493,1.252-5.196
				c1.471,2.967,4.22,5.766,8.258,8.082c12.703,7.344,33.269,7.344,45.978,0C75.916,286.572,78.664,283.774,80.148,280.806z"/>
			<path fill="#FFFFFF" d="M71.884,219.465c6.348,3.681,9.516,8.471,9.516,13.279c0,4.808-3.168,9.61-9.516,13.273
				c-12.709,7.325-33.275,7.325-45.978,0c-4.082-2.36-6.862-5.203-8.314-8.201v-0.019c-0.388-0.789-0.67-1.578-0.87-2.392
				c-0.2-0.808-0.307-1.628-0.326-2.429v-0.232c-0.013-4.808,3.174-9.616,9.51-13.279C38.609,212.14,59.175,212.14,71.884,219.465z"
				/>
		</g>
		<g>
			<path fill="none" stroke="#373A3A" stroke-width="2" stroke-linecap="round" stroke-linejoin="round" stroke-miterlimit="10" d="
				M16.396,286.234c0.081,4.727,3.262,9.441,9.51,13.041c12.703,7.325,33.269,7.325,45.978,0c6.348-3.662,9.516-8.471,9.516-13.273
				c0-1.747-0.419-3.493-1.252-5.196"/>
			<path fill="none" stroke="#373A3A" stroke-width="2" stroke-linecap="round" stroke-linejoin="round" stroke-miterlimit="10" d="
				M17.648,280.806c-0.845,1.703-1.265,3.45-1.252,5.196v16.253c0,4.808,3.174,9.598,9.51,13.26c12.703,7.344,33.269,7.344,45.978,0
				c6.348-3.662,9.516-8.452,9.516-13.26v-16.253"/>
			<path fill="none" stroke="#373A3A" stroke-width="2" stroke-linecap="round" stroke-linejoin="round" stroke-miterlimit="10" d="
				M16.396,259.602c0.081,4.733,3.262,9.429,9.51,13.047c12.703,7.325,33.269,7.325,45.978,0c6.348-3.662,9.516-8.471,9.516-13.26
				c0-1.765-0.419-3.512-1.252-5.209"/>
			<path fill="none" stroke="#373A3A" stroke-width="2" stroke-linecap="round" stroke-linejoin="round" stroke-miterlimit="10" d="
				M17.648,254.18c-0.845,1.697-1.265,3.443-1.252,5.209v16.228c0,1.759,0.419,3.506,1.252,5.19c1.47,2.968,4.22,5.766,8.258,8.082
				c12.703,7.344,33.269,7.344,45.978,0c4.032-2.316,6.787-5.112,8.264-8.082c0.836-1.682,1.252-3.431,1.252-5.19v-16.228"/>
			<path fill="none" stroke="#373A3A" stroke-width="2" stroke-linecap="round" stroke-linejoin="round" stroke-miterlimit="10" d="
				M16.396,232.975c0.019,0.801,0.125,1.622,0.326,2.429c0.2,0.814,0.482,1.603,0.87,2.392v0.019
				c1.452,2.999,4.232,5.841,8.314,8.201c12.703,7.325,33.269,7.325,45.978,0c6.348-3.662,9.516-8.464,9.516-13.273
				c0-4.808-3.168-9.598-9.516-13.279c-12.709-7.325-33.275-7.325-45.978,0c-6.336,3.662-9.522,8.471-9.51,13.279"/>
			<path fill="none" stroke="#373A3A" stroke-width="2" stroke-linecap="round" stroke-linejoin="round" stroke-miterlimit="10" d="
				M16.396,232.744v16.259c0,1.747,0.419,3.494,1.252,5.178c1.47,2.968,4.22,5.766,8.258,8.083c12.703,7.325,33.269,7.325,45.978,0
				c4.044-2.316,6.798-5.115,8.264-8.083c0.832-1.684,1.252-3.431,1.252-5.178v-16.259"/>
			<path fill="none" stroke="#373A3A" stroke-width="2" stroke-linecap="round" stroke-linejoin="round" stroke-miterlimit="10" d="
				M22.419,252.27c1.033,0.833,2.191,1.621,3.487,2.367c3.65,2.104,7.957,3.606,12.54,4.501"/>
			<path fill="none" stroke="#373A3A" stroke-width="2" stroke-linecap="round" stroke-linejoin="round" stroke-miterlimit="10" d="
				M22.419,278.139c1.033,0.833,2.191,1.628,3.487,2.366c3.65,2.11,7.957,3.612,12.54,4.508"/>
			<path fill="none" stroke="#373A3A" stroke-width="2" stroke-linecap="round" stroke-linejoin="round" stroke-miterlimit="10" d="
				M22.419,304.015c1.033,0.833,2.191,1.622,3.487,2.367c3.65,2.104,7.957,3.606,12.54,4.501"/>
		</g>
	</g>
</g>
</svg>
