<?xml version="1.0" encoding="utf-8"?>
<!-- Generator: Adobe Illustrator 29.5.0, SVG Export Plug-In . SVG Version: 9.03 Build 0)  -->
<svg version="1.1" baseProfile="tiny" id="Capa_1" xmlns="http://www.w3.org/2000/svg" xmlns:xlink="http://www.w3.org/1999/xlink"
	 x="0px" y="0px" viewBox="0 0 68.031 68.031" overflow="visible" xml:space="preserve">
<g>
	<path fill="#616160" d="M31.793,3.937c25.45-1.675,41.675,26.927,26.644,47.753C44.761,70.64,15.651,67.395,6.321,46.065
		C-1.955,27.145,11.278,5.287,31.793,3.937z M52.444,14.863c-9.546-9.398-25.721-9.895-35.764-0.999
		c-11.427,10.121-12.714,28.58-1.164,39.09c1.289-5.984,5.646-11.166,11.427-13.25c3.678-1.326,9.159-1.433,12.918-0.393
		c6.41,1.774,11.162,7.267,12.706,13.643C63.54,42.947,62.777,25.037,52.444,14.863z"/>
	<path fill="#616160" d="M33.249,13.254c15.983-0.956,17.398,23.216,1.556,24.267C18.832,38.581,17.287,14.209,33.249,13.254z"/>
</g>
</svg>
